%TF.GenerationSoftware,KiCad,Pcbnew,9.0.6*%
%TF.CreationDate,2026-02-03T20:42:28+01:00*%
%TF.ProjectId,tonnere_prototype_prod_0.51,746f6e6e-6572-4655-9f70-726f746f7479,rev?*%
%TF.SameCoordinates,Original*%
%TF.FileFunction,Paste,Top*%
%TF.FilePolarity,Positive*%
%FSLAX46Y46*%
G04 Gerber Fmt 4.6, Leading zero omitted, Abs format (unit mm)*
G04 Created by KiCad (PCBNEW 9.0.6) date 2026-02-03 20:42:28*
%MOMM*%
%LPD*%
G01*
G04 APERTURE LIST*
G04 Aperture macros list*
%AMRoundRect*
0 Rectangle with rounded corners*
0 $1 Rounding radius*
0 $2 $3 $4 $5 $6 $7 $8 $9 X,Y pos of 4 corners*
0 Add a 4 corners polygon primitive as box body*
4,1,4,$2,$3,$4,$5,$6,$7,$8,$9,$2,$3,0*
0 Add four circle primitives for the rounded corners*
1,1,$1+$1,$2,$3*
1,1,$1+$1,$4,$5*
1,1,$1+$1,$6,$7*
1,1,$1+$1,$8,$9*
0 Add four rect primitives between the rounded corners*
20,1,$1+$1,$2,$3,$4,$5,0*
20,1,$1+$1,$4,$5,$6,$7,0*
20,1,$1+$1,$6,$7,$8,$9,0*
20,1,$1+$1,$8,$9,$2,$3,0*%
%AMFreePoly0*
4,1,9,3.862500,-0.866500,0.737500,-0.866500,0.737500,-0.450000,-0.737500,-0.450000,-0.737500,0.450000,0.737500,0.450000,0.737500,0.866500,3.862500,0.866500,3.862500,-0.866500,3.862500,-0.866500,$1*%
G04 Aperture macros list end*
%ADD10C,0.000000*%
%ADD11RoundRect,0.200000X-0.200000X-0.275000X0.200000X-0.275000X0.200000X0.275000X-0.200000X0.275000X0*%
%ADD12R,1.676400X0.228600*%
%ADD13RoundRect,0.250000X-1.000000X-0.650000X1.000000X-0.650000X1.000000X0.650000X-1.000000X0.650000X0*%
%ADD14RoundRect,0.200000X-0.275000X0.200000X-0.275000X-0.200000X0.275000X-0.200000X0.275000X0.200000X0*%
%ADD15RoundRect,0.225000X-0.250000X0.225000X-0.250000X-0.225000X0.250000X-0.225000X0.250000X0.225000X0*%
%ADD16RoundRect,0.225000X-0.225000X-0.250000X0.225000X-0.250000X0.225000X0.250000X-0.225000X0.250000X0*%
%ADD17RoundRect,0.200000X0.200000X0.275000X-0.200000X0.275000X-0.200000X-0.275000X0.200000X-0.275000X0*%
%ADD18RoundRect,0.250000X0.475000X-0.250000X0.475000X0.250000X-0.475000X0.250000X-0.475000X-0.250000X0*%
%ADD19O,1.731500X0.343000*%
%ADD20RoundRect,0.218750X-0.218750X-0.381250X0.218750X-0.381250X0.218750X0.381250X-0.218750X0.381250X0*%
%ADD21RoundRect,0.218750X-0.381250X0.218750X-0.381250X-0.218750X0.381250X-0.218750X0.381250X0.218750X0*%
%ADD22RoundRect,0.225000X0.225000X0.250000X-0.225000X0.250000X-0.225000X-0.250000X0.225000X-0.250000X0*%
%ADD23RoundRect,0.075000X0.200000X-0.075000X0.200000X0.075000X-0.200000X0.075000X-0.200000X-0.075000X0*%
%ADD24RoundRect,0.225000X0.250000X-0.225000X0.250000X0.225000X-0.250000X0.225000X-0.250000X-0.225000X0*%
%ADD25RoundRect,0.200000X0.275000X-0.200000X0.275000X0.200000X-0.275000X0.200000X-0.275000X-0.200000X0*%
%ADD26RoundRect,0.317500X0.317500X4.762500X-0.317500X4.762500X-0.317500X-4.762500X0.317500X-4.762500X0*%
%ADD27R,0.500000X0.800000*%
%ADD28R,0.400000X0.800000*%
%ADD29R,2.200000X1.200000*%
%ADD30R,2.300000X2.000000*%
%ADD31O,0.568400X1.950200*%
%ADD32R,1.500000X0.800000*%
%ADD33R,2.000000X1.450000*%
%ADD34R,0.650000X0.200000*%
%ADD35R,1.000000X0.200000*%
%ADD36R,0.250000X0.550000*%
%ADD37R,0.800000X0.500000*%
%ADD38R,0.800000X0.400000*%
%ADD39RoundRect,0.100000X-0.637500X-0.100000X0.637500X-0.100000X0.637500X0.100000X-0.637500X0.100000X0*%
%ADD40RoundRect,0.247500X0.247500X0.247500X-0.247500X0.247500X-0.247500X-0.247500X0.247500X-0.247500X0*%
%ADD41RoundRect,0.062500X0.350000X0.062500X-0.350000X0.062500X-0.350000X-0.062500X0.350000X-0.062500X0*%
%ADD42RoundRect,0.062500X0.062500X0.350000X-0.062500X0.350000X-0.062500X-0.350000X0.062500X-0.350000X0*%
%ADD43RoundRect,0.250000X-0.650000X0.325000X-0.650000X-0.325000X0.650000X-0.325000X0.650000X0.325000X0*%
%ADD44RoundRect,0.250000X0.325000X0.650000X-0.325000X0.650000X-0.325000X-0.650000X0.325000X-0.650000X0*%
%ADD45RoundRect,0.250000X0.250000X0.475000X-0.250000X0.475000X-0.250000X-0.475000X0.250000X-0.475000X0*%
%ADD46C,0.380000*%
%ADD47RoundRect,0.250000X0.850000X-0.375000X0.850000X0.375000X-0.850000X0.375000X-0.850000X-0.375000X0*%
%ADD48RoundRect,0.150000X0.800000X0.150000X-0.800000X0.150000X-0.800000X-0.150000X0.800000X-0.150000X0*%
%ADD49RoundRect,0.250000X-0.250000X-0.475000X0.250000X-0.475000X0.250000X0.475000X-0.250000X0.475000X0*%
%ADD50RoundRect,0.250000X0.650000X-0.325000X0.650000X0.325000X-0.650000X0.325000X-0.650000X-0.325000X0*%
%ADD51RoundRect,0.250000X-0.450000X-0.350000X0.450000X-0.350000X0.450000X0.350000X-0.450000X0.350000X0*%
%ADD52RoundRect,0.150000X-0.512500X-0.150000X0.512500X-0.150000X0.512500X0.150000X-0.512500X0.150000X0*%
%ADD53RoundRect,0.087500X-0.725000X-0.087500X0.725000X-0.087500X0.725000X0.087500X-0.725000X0.087500X0*%
%ADD54RoundRect,0.250000X-0.325000X-0.650000X0.325000X-0.650000X0.325000X0.650000X-0.325000X0.650000X0*%
%ADD55RoundRect,0.218750X0.381250X-0.218750X0.381250X0.218750X-0.381250X0.218750X-0.381250X-0.218750X0*%
%ADD56RoundRect,0.075000X-0.075000X0.662500X-0.075000X-0.662500X0.075000X-0.662500X0.075000X0.662500X0*%
%ADD57RoundRect,0.075000X-0.662500X0.075000X-0.662500X-0.075000X0.662500X-0.075000X0.662500X0.075000X0*%
%ADD58RoundRect,0.250000X-0.475000X0.250000X-0.475000X-0.250000X0.475000X-0.250000X0.475000X0.250000X0*%
%ADD59RoundRect,0.112500X0.112500X-0.187500X0.112500X0.187500X-0.112500X0.187500X-0.112500X-0.187500X0*%
%ADD60R,1.000000X1.800000*%
%ADD61RoundRect,0.075000X-0.200000X0.075000X-0.200000X-0.075000X0.200000X-0.075000X0.200000X0.075000X0*%
%ADD62C,0.330200*%
%ADD63R,1.300000X1.100000*%
%ADD64RoundRect,0.150000X0.587500X0.150000X-0.587500X0.150000X-0.587500X-0.150000X0.587500X-0.150000X0*%
%ADD65R,0.700000X0.200000*%
%ADD66R,0.600000X0.200000*%
%ADD67R,0.200000X0.600000*%
%ADD68RoundRect,0.225000X0.425000X0.225000X-0.425000X0.225000X-0.425000X-0.225000X0.425000X-0.225000X0*%
%ADD69FreePoly0,180.000000*%
%ADD70O,0.280000X2.600000*%
%ADD71R,2.000000X0.900000*%
%ADD72R,0.900000X0.900000*%
%ADD73R,0.458000X1.510000*%
G04 APERTURE END LIST*
D10*
%TO.C,U16*%
G36*
X240499999Y-51850000D02*
G01*
X240000000Y-51850000D01*
X240000000Y-51649998D01*
X240499999Y-51649998D01*
X240499999Y-51850000D01*
G37*
G36*
X240499999Y-52249999D02*
G01*
X240000000Y-52249999D01*
X240000000Y-52050000D01*
X240499999Y-52050000D01*
X240499999Y-52249999D01*
G37*
G36*
X240499999Y-52649998D02*
G01*
X240000000Y-52649998D01*
X240000000Y-52449999D01*
X240499999Y-52449999D01*
X240499999Y-52649998D01*
G37*
G36*
X240499999Y-53050000D02*
G01*
X240000000Y-53050000D01*
X240000000Y-52849998D01*
X240499999Y-52849998D01*
X240499999Y-53050000D01*
G37*
G36*
X241027400Y-52299199D02*
G01*
X240722600Y-52299199D01*
X240722600Y-51791199D01*
X241027400Y-51791199D01*
X241027400Y-52299199D01*
G37*
G36*
X241027400Y-52908799D02*
G01*
X240722600Y-52908799D01*
X240722600Y-52400799D01*
X241027400Y-52400799D01*
X241027400Y-52908799D01*
G37*
G36*
X241750000Y-51850000D02*
G01*
X241250001Y-51850000D01*
X241250001Y-51649998D01*
X241750000Y-51649998D01*
X241750000Y-51850000D01*
G37*
G36*
X241750000Y-52249999D02*
G01*
X241250001Y-52249999D01*
X241250001Y-52050000D01*
X241750000Y-52050000D01*
X241750000Y-52249999D01*
G37*
G36*
X241750000Y-52649998D02*
G01*
X241250001Y-52649998D01*
X241250001Y-52449999D01*
X241750000Y-52449999D01*
X241750000Y-52649998D01*
G37*
G36*
X241750000Y-53050000D02*
G01*
X241250001Y-53050000D01*
X241250001Y-52849998D01*
X241750000Y-52849998D01*
X241750000Y-53050000D01*
G37*
%TO.C,U4*%
G36*
X143199999Y-28000000D02*
G01*
X142700000Y-28000000D01*
X142700000Y-27799998D01*
X143199999Y-27799998D01*
X143199999Y-28000000D01*
G37*
G36*
X143199999Y-28399999D02*
G01*
X142700000Y-28399999D01*
X142700000Y-28200000D01*
X143199999Y-28200000D01*
X143199999Y-28399999D01*
G37*
G36*
X143199999Y-28799998D02*
G01*
X142700000Y-28799998D01*
X142700000Y-28599999D01*
X143199999Y-28599999D01*
X143199999Y-28799998D01*
G37*
G36*
X143199999Y-29200000D02*
G01*
X142700000Y-29200000D01*
X142700000Y-28999998D01*
X143199999Y-28999998D01*
X143199999Y-29200000D01*
G37*
G36*
X143727400Y-28449199D02*
G01*
X143422600Y-28449199D01*
X143422600Y-27941199D01*
X143727400Y-27941199D01*
X143727400Y-28449199D01*
G37*
G36*
X143727400Y-29058799D02*
G01*
X143422600Y-29058799D01*
X143422600Y-28550799D01*
X143727400Y-28550799D01*
X143727400Y-29058799D01*
G37*
G36*
X144450000Y-28000000D02*
G01*
X143950001Y-28000000D01*
X143950001Y-27799998D01*
X144450000Y-27799998D01*
X144450000Y-28000000D01*
G37*
G36*
X144450000Y-28399999D02*
G01*
X143950001Y-28399999D01*
X143950001Y-28200000D01*
X144450000Y-28200000D01*
X144450000Y-28399999D01*
G37*
G36*
X144450000Y-28799998D02*
G01*
X143950001Y-28799998D01*
X143950001Y-28599999D01*
X144450000Y-28599999D01*
X144450000Y-28799998D01*
G37*
G36*
X144450000Y-29200000D02*
G01*
X143950001Y-29200000D01*
X143950001Y-28999998D01*
X144450000Y-28999998D01*
X144450000Y-29200000D01*
G37*
%TO.C,U8*%
G36*
X174839999Y-28550002D02*
G01*
X174340000Y-28550002D01*
X174340000Y-28350000D01*
X174839999Y-28350000D01*
X174839999Y-28550002D01*
G37*
G36*
X174839999Y-28950001D02*
G01*
X174340000Y-28950001D01*
X174340000Y-28750002D01*
X174839999Y-28750002D01*
X174839999Y-28950001D01*
G37*
G36*
X174839999Y-29350000D02*
G01*
X174340000Y-29350000D01*
X174340000Y-29150001D01*
X174839999Y-29150001D01*
X174839999Y-29350000D01*
G37*
G36*
X174839999Y-29750002D02*
G01*
X174340000Y-29750002D01*
X174340000Y-29550000D01*
X174839999Y-29550000D01*
X174839999Y-29750002D01*
G37*
G36*
X175367400Y-28999201D02*
G01*
X175062600Y-28999201D01*
X175062600Y-28491201D01*
X175367400Y-28491201D01*
X175367400Y-28999201D01*
G37*
G36*
X175367400Y-29608801D02*
G01*
X175062600Y-29608801D01*
X175062600Y-29100801D01*
X175367400Y-29100801D01*
X175367400Y-29608801D01*
G37*
G36*
X176090000Y-28550002D02*
G01*
X175590001Y-28550002D01*
X175590001Y-28350000D01*
X176090000Y-28350000D01*
X176090000Y-28550002D01*
G37*
G36*
X176090000Y-28950001D02*
G01*
X175590001Y-28950001D01*
X175590001Y-28750002D01*
X176090000Y-28750002D01*
X176090000Y-28950001D01*
G37*
G36*
X176090000Y-29350000D02*
G01*
X175590001Y-29350000D01*
X175590001Y-29150001D01*
X176090000Y-29150001D01*
X176090000Y-29350000D01*
G37*
G36*
X176090000Y-29750002D02*
G01*
X175590001Y-29750002D01*
X175590001Y-29550000D01*
X176090000Y-29550000D01*
X176090000Y-29750002D01*
G37*
%TO.C,U7*%
G36*
X163859999Y-28490002D02*
G01*
X163360000Y-28490002D01*
X163360000Y-28290000D01*
X163859999Y-28290000D01*
X163859999Y-28490002D01*
G37*
G36*
X163859999Y-28890001D02*
G01*
X163360000Y-28890001D01*
X163360000Y-28690002D01*
X163859999Y-28690002D01*
X163859999Y-28890001D01*
G37*
G36*
X163859999Y-29290000D02*
G01*
X163360000Y-29290000D01*
X163360000Y-29090001D01*
X163859999Y-29090001D01*
X163859999Y-29290000D01*
G37*
G36*
X163859999Y-29690002D02*
G01*
X163360000Y-29690002D01*
X163360000Y-29490000D01*
X163859999Y-29490000D01*
X163859999Y-29690002D01*
G37*
G36*
X164387400Y-28939201D02*
G01*
X164082600Y-28939201D01*
X164082600Y-28431201D01*
X164387400Y-28431201D01*
X164387400Y-28939201D01*
G37*
G36*
X164387400Y-29548801D02*
G01*
X164082600Y-29548801D01*
X164082600Y-29040801D01*
X164387400Y-29040801D01*
X164387400Y-29548801D01*
G37*
G36*
X165110000Y-28490002D02*
G01*
X164610001Y-28490002D01*
X164610001Y-28290000D01*
X165110000Y-28290000D01*
X165110000Y-28490002D01*
G37*
G36*
X165110000Y-28890001D02*
G01*
X164610001Y-28890001D01*
X164610001Y-28690002D01*
X165110000Y-28690002D01*
X165110000Y-28890001D01*
G37*
G36*
X165110000Y-29290000D02*
G01*
X164610001Y-29290000D01*
X164610001Y-29090001D01*
X165110000Y-29090001D01*
X165110000Y-29290000D01*
G37*
G36*
X165110000Y-29690002D02*
G01*
X164610001Y-29690002D01*
X164610001Y-29490000D01*
X165110000Y-29490000D01*
X165110000Y-29690002D01*
G37*
%TO.C,U6*%
G36*
X153219999Y-28480002D02*
G01*
X152720000Y-28480002D01*
X152720000Y-28280000D01*
X153219999Y-28280000D01*
X153219999Y-28480002D01*
G37*
G36*
X153219999Y-28880001D02*
G01*
X152720000Y-28880001D01*
X152720000Y-28680002D01*
X153219999Y-28680002D01*
X153219999Y-28880001D01*
G37*
G36*
X153219999Y-29280000D02*
G01*
X152720000Y-29280000D01*
X152720000Y-29080001D01*
X153219999Y-29080001D01*
X153219999Y-29280000D01*
G37*
G36*
X153219999Y-29680002D02*
G01*
X152720000Y-29680002D01*
X152720000Y-29480000D01*
X153219999Y-29480000D01*
X153219999Y-29680002D01*
G37*
G36*
X153747400Y-28929201D02*
G01*
X153442600Y-28929201D01*
X153442600Y-28421201D01*
X153747400Y-28421201D01*
X153747400Y-28929201D01*
G37*
G36*
X153747400Y-29538801D02*
G01*
X153442600Y-29538801D01*
X153442600Y-29030801D01*
X153747400Y-29030801D01*
X153747400Y-29538801D01*
G37*
G36*
X154470000Y-28480002D02*
G01*
X153970001Y-28480002D01*
X153970001Y-28280000D01*
X154470000Y-28280000D01*
X154470000Y-28480002D01*
G37*
G36*
X154470000Y-28880001D02*
G01*
X153970001Y-28880001D01*
X153970001Y-28680002D01*
X154470000Y-28680002D01*
X154470000Y-28880001D01*
G37*
G36*
X154470000Y-29280000D02*
G01*
X153970001Y-29280000D01*
X153970001Y-29080001D01*
X154470000Y-29080001D01*
X154470000Y-29280000D01*
G37*
G36*
X154470000Y-29680002D02*
G01*
X153970001Y-29680002D01*
X153970001Y-29480000D01*
X154470000Y-29480000D01*
X154470000Y-29680002D01*
G37*
%TO.C,U12*%
G36*
X186764999Y-35810001D02*
G01*
X186265000Y-35810001D01*
X186265000Y-35609999D01*
X186764999Y-35609999D01*
X186764999Y-35810001D01*
G37*
G36*
X186764999Y-36210000D02*
G01*
X186265000Y-36210000D01*
X186265000Y-36010001D01*
X186764999Y-36010001D01*
X186764999Y-36210000D01*
G37*
G36*
X186764999Y-36609999D02*
G01*
X186265000Y-36609999D01*
X186265000Y-36410000D01*
X186764999Y-36410000D01*
X186764999Y-36609999D01*
G37*
G36*
X186764999Y-37010001D02*
G01*
X186265000Y-37010001D01*
X186265000Y-36809999D01*
X186764999Y-36809999D01*
X186764999Y-37010001D01*
G37*
G36*
X187292400Y-36259200D02*
G01*
X186987600Y-36259200D01*
X186987600Y-35751200D01*
X187292400Y-35751200D01*
X187292400Y-36259200D01*
G37*
G36*
X187292400Y-36868800D02*
G01*
X186987600Y-36868800D01*
X186987600Y-36360800D01*
X187292400Y-36360800D01*
X187292400Y-36868800D01*
G37*
G36*
X188015000Y-35810001D02*
G01*
X187515001Y-35810001D01*
X187515001Y-35609999D01*
X188015000Y-35609999D01*
X188015000Y-35810001D01*
G37*
G36*
X188015000Y-36210000D02*
G01*
X187515001Y-36210000D01*
X187515001Y-36010001D01*
X188015000Y-36010001D01*
X188015000Y-36210000D01*
G37*
G36*
X188015000Y-36609999D02*
G01*
X187515001Y-36609999D01*
X187515001Y-36410000D01*
X188015000Y-36410000D01*
X188015000Y-36609999D01*
G37*
G36*
X188015000Y-37010001D02*
G01*
X187515001Y-37010001D01*
X187515001Y-36809999D01*
X188015000Y-36809999D01*
X188015000Y-37010001D01*
G37*
%TO.C,U13*%
G36*
X241649999Y-39100002D02*
G01*
X241150000Y-39100002D01*
X241150000Y-38900000D01*
X241649999Y-38900000D01*
X241649999Y-39100002D01*
G37*
G36*
X241649999Y-39500001D02*
G01*
X241150000Y-39500001D01*
X241150000Y-39300002D01*
X241649999Y-39300002D01*
X241649999Y-39500001D01*
G37*
G36*
X241649999Y-39900000D02*
G01*
X241150000Y-39900000D01*
X241150000Y-39700001D01*
X241649999Y-39700001D01*
X241649999Y-39900000D01*
G37*
G36*
X241649999Y-40300002D02*
G01*
X241150000Y-40300002D01*
X241150000Y-40100000D01*
X241649999Y-40100000D01*
X241649999Y-40300002D01*
G37*
G36*
X242177400Y-39549201D02*
G01*
X241872600Y-39549201D01*
X241872600Y-39041201D01*
X242177400Y-39041201D01*
X242177400Y-39549201D01*
G37*
G36*
X242177400Y-40158801D02*
G01*
X241872600Y-40158801D01*
X241872600Y-39650801D01*
X242177400Y-39650801D01*
X242177400Y-40158801D01*
G37*
G36*
X242900000Y-39100002D02*
G01*
X242400001Y-39100002D01*
X242400001Y-38900000D01*
X242900000Y-38900000D01*
X242900000Y-39100002D01*
G37*
G36*
X242900000Y-39500001D02*
G01*
X242400001Y-39500001D01*
X242400001Y-39300002D01*
X242900000Y-39300002D01*
X242900000Y-39500001D01*
G37*
G36*
X242900000Y-39900000D02*
G01*
X242400001Y-39900000D01*
X242400001Y-39700001D01*
X242900000Y-39700001D01*
X242900000Y-39900000D01*
G37*
G36*
X242900000Y-40300002D02*
G01*
X242400001Y-40300002D01*
X242400001Y-40100000D01*
X242900000Y-40100000D01*
X242900000Y-40300002D01*
G37*
%TO.C,U5*%
G36*
X211129999Y-28000002D02*
G01*
X210630000Y-28000002D01*
X210630000Y-27800000D01*
X211129999Y-27800000D01*
X211129999Y-28000002D01*
G37*
G36*
X211129999Y-28400001D02*
G01*
X210630000Y-28400001D01*
X210630000Y-28200002D01*
X211129999Y-28200002D01*
X211129999Y-28400001D01*
G37*
G36*
X211129999Y-28800000D02*
G01*
X210630000Y-28800000D01*
X210630000Y-28600001D01*
X211129999Y-28600001D01*
X211129999Y-28800000D01*
G37*
G36*
X211129999Y-29200002D02*
G01*
X210630000Y-29200002D01*
X210630000Y-29000000D01*
X211129999Y-29000000D01*
X211129999Y-29200002D01*
G37*
G36*
X211657400Y-28449201D02*
G01*
X211352600Y-28449201D01*
X211352600Y-27941201D01*
X211657400Y-27941201D01*
X211657400Y-28449201D01*
G37*
G36*
X211657400Y-29058801D02*
G01*
X211352600Y-29058801D01*
X211352600Y-28550801D01*
X211657400Y-28550801D01*
X211657400Y-29058801D01*
G37*
G36*
X212380000Y-28000002D02*
G01*
X211880001Y-28000002D01*
X211880001Y-27800000D01*
X212380000Y-27800000D01*
X212380000Y-28000002D01*
G37*
G36*
X212380000Y-28400001D02*
G01*
X211880001Y-28400001D01*
X211880001Y-28200002D01*
X212380000Y-28200002D01*
X212380000Y-28400001D01*
G37*
G36*
X212380000Y-28800000D02*
G01*
X211880001Y-28800000D01*
X211880001Y-28600001D01*
X212380000Y-28600001D01*
X212380000Y-28800000D01*
G37*
G36*
X212380000Y-29200002D02*
G01*
X211880001Y-29200002D01*
X211880001Y-29000000D01*
X212380000Y-29000000D01*
X212380000Y-29200002D01*
G37*
%TO.C,U20*%
G36*
X239949999Y-66100002D02*
G01*
X239450000Y-66100002D01*
X239450000Y-65900000D01*
X239949999Y-65900000D01*
X239949999Y-66100002D01*
G37*
G36*
X239949999Y-66500001D02*
G01*
X239450000Y-66500001D01*
X239450000Y-66300002D01*
X239949999Y-66300002D01*
X239949999Y-66500001D01*
G37*
G36*
X239949999Y-66900000D02*
G01*
X239450000Y-66900000D01*
X239450000Y-66700001D01*
X239949999Y-66700001D01*
X239949999Y-66900000D01*
G37*
G36*
X239949999Y-67300002D02*
G01*
X239450000Y-67300002D01*
X239450000Y-67100000D01*
X239949999Y-67100000D01*
X239949999Y-67300002D01*
G37*
G36*
X240477400Y-66549201D02*
G01*
X240172600Y-66549201D01*
X240172600Y-66041201D01*
X240477400Y-66041201D01*
X240477400Y-66549201D01*
G37*
G36*
X240477400Y-67158801D02*
G01*
X240172600Y-67158801D01*
X240172600Y-66650801D01*
X240477400Y-66650801D01*
X240477400Y-67158801D01*
G37*
G36*
X241200000Y-66100002D02*
G01*
X240700001Y-66100002D01*
X240700001Y-65900000D01*
X241200000Y-65900000D01*
X241200000Y-66100002D01*
G37*
G36*
X241200000Y-66500001D02*
G01*
X240700001Y-66500001D01*
X240700001Y-66300002D01*
X241200000Y-66300002D01*
X241200000Y-66500001D01*
G37*
G36*
X241200000Y-66900000D02*
G01*
X240700001Y-66900000D01*
X240700001Y-66700001D01*
X241200000Y-66700001D01*
X241200000Y-66900000D01*
G37*
G36*
X241200000Y-67300002D02*
G01*
X240700001Y-67300002D01*
X240700001Y-67100000D01*
X241200000Y-67100000D01*
X241200000Y-67300002D01*
G37*
%TO.C,U25*%
G36*
X240349999Y-82350000D02*
G01*
X239850000Y-82350000D01*
X239850000Y-82149998D01*
X240349999Y-82149998D01*
X240349999Y-82350000D01*
G37*
G36*
X240349999Y-82749999D02*
G01*
X239850000Y-82749999D01*
X239850000Y-82550000D01*
X240349999Y-82550000D01*
X240349999Y-82749999D01*
G37*
G36*
X240349999Y-83149998D02*
G01*
X239850000Y-83149998D01*
X239850000Y-82949999D01*
X240349999Y-82949999D01*
X240349999Y-83149998D01*
G37*
G36*
X240349999Y-83550000D02*
G01*
X239850000Y-83550000D01*
X239850000Y-83349998D01*
X240349999Y-83349998D01*
X240349999Y-83550000D01*
G37*
G36*
X240877400Y-82799199D02*
G01*
X240572600Y-82799199D01*
X240572600Y-82291199D01*
X240877400Y-82291199D01*
X240877400Y-82799199D01*
G37*
G36*
X240877400Y-83408799D02*
G01*
X240572600Y-83408799D01*
X240572600Y-82900799D01*
X240877400Y-82900799D01*
X240877400Y-83408799D01*
G37*
G36*
X241600000Y-82350000D02*
G01*
X241100001Y-82350000D01*
X241100001Y-82149998D01*
X241600000Y-82149998D01*
X241600000Y-82350000D01*
G37*
G36*
X241600000Y-82749999D02*
G01*
X241100001Y-82749999D01*
X241100001Y-82550000D01*
X241600000Y-82550000D01*
X241600000Y-82749999D01*
G37*
G36*
X241600000Y-83149998D02*
G01*
X241100001Y-83149998D01*
X241100001Y-82949999D01*
X241600000Y-82949999D01*
X241600000Y-83149998D01*
G37*
G36*
X241600000Y-83550000D02*
G01*
X241100001Y-83550000D01*
X241100001Y-83349998D01*
X241600000Y-83349998D01*
X241600000Y-83550000D01*
G37*
%TO.C,U9*%
G36*
X185819999Y-28580000D02*
G01*
X185320000Y-28580000D01*
X185320000Y-28379998D01*
X185819999Y-28379998D01*
X185819999Y-28580000D01*
G37*
G36*
X185819999Y-28979999D02*
G01*
X185320000Y-28979999D01*
X185320000Y-28780000D01*
X185819999Y-28780000D01*
X185819999Y-28979999D01*
G37*
G36*
X185819999Y-29379998D02*
G01*
X185320000Y-29379998D01*
X185320000Y-29179999D01*
X185819999Y-29179999D01*
X185819999Y-29379998D01*
G37*
G36*
X185819999Y-29780000D02*
G01*
X185320000Y-29780000D01*
X185320000Y-29579998D01*
X185819999Y-29579998D01*
X185819999Y-29780000D01*
G37*
G36*
X186347400Y-29029199D02*
G01*
X186042600Y-29029199D01*
X186042600Y-28521199D01*
X186347400Y-28521199D01*
X186347400Y-29029199D01*
G37*
G36*
X186347400Y-29638799D02*
G01*
X186042600Y-29638799D01*
X186042600Y-29130799D01*
X186347400Y-29130799D01*
X186347400Y-29638799D01*
G37*
G36*
X187070000Y-28580000D02*
G01*
X186570001Y-28580000D01*
X186570001Y-28379998D01*
X187070000Y-28379998D01*
X187070000Y-28580000D01*
G37*
G36*
X187070000Y-28979999D02*
G01*
X186570001Y-28979999D01*
X186570001Y-28780000D01*
X187070000Y-28780000D01*
X187070000Y-28979999D01*
G37*
G36*
X187070000Y-29379998D02*
G01*
X186570001Y-29379998D01*
X186570001Y-29179999D01*
X187070000Y-29179999D01*
X187070000Y-29379998D01*
G37*
G36*
X187070000Y-29780000D02*
G01*
X186570001Y-29780000D01*
X186570001Y-29579998D01*
X187070000Y-29579998D01*
X187070000Y-29780000D01*
G37*
%TD*%
D11*
%TO.C,F1*%
X214310000Y-29580000D03*
X215960000Y-29580000D03*
%TD*%
D12*
%TO.C,U31*%
X196281200Y-96930002D03*
X196281200Y-97330001D03*
X196281200Y-97730003D03*
X196281200Y-98130002D03*
X196281200Y-98530001D03*
X196281200Y-98930000D03*
X196281200Y-99330002D03*
X196281200Y-99730001D03*
X196281200Y-100130000D03*
X196281200Y-100530002D03*
X196281200Y-100930001D03*
X196281200Y-101330000D03*
X196281200Y-101730002D03*
X196281200Y-102130001D03*
X196281200Y-102530001D03*
X196281200Y-102930000D03*
X196281200Y-103330002D03*
X196281200Y-103730001D03*
X196281200Y-104130000D03*
X196281200Y-104530002D03*
X196281200Y-104930001D03*
X196281200Y-105330000D03*
X196281200Y-105730002D03*
X196281200Y-106130001D03*
X196281200Y-106530000D03*
X196281200Y-106929999D03*
X196281200Y-107330001D03*
X196281200Y-107730000D03*
X201920000Y-107730000D03*
X201920000Y-107330001D03*
X201920000Y-106929999D03*
X201920000Y-106530000D03*
X201920000Y-106130001D03*
X201920000Y-105730002D03*
X201920000Y-105330000D03*
X201920000Y-104930001D03*
X201920000Y-104530002D03*
X201920000Y-104130000D03*
X201920000Y-103730001D03*
X201920000Y-103330002D03*
X201920000Y-102930000D03*
X201920000Y-102530001D03*
X201920000Y-102130001D03*
X201920000Y-101730002D03*
X201920000Y-101330000D03*
X201920000Y-100930001D03*
X201920000Y-100530002D03*
X201920000Y-100130000D03*
X201920000Y-99730001D03*
X201920000Y-99330002D03*
X201920000Y-98930003D03*
X201920000Y-98530001D03*
X201920000Y-98130002D03*
X201920000Y-97730003D03*
X201920000Y-97330001D03*
X201920000Y-96930002D03*
%TD*%
D13*
%TO.C,D1*%
X39000000Y-32640000D03*
X43000000Y-32640000D03*
%TD*%
D14*
%TO.C,R68*%
X105715000Y-75910000D03*
X105715000Y-77560000D03*
%TD*%
D11*
%TO.C,R62*%
X26835000Y-73550000D03*
X28485000Y-73550000D03*
%TD*%
D15*
%TO.C,C97*%
X209850000Y-128975000D03*
X209850000Y-130525000D03*
%TD*%
D16*
%TO.C,C54*%
X108845000Y-75970000D03*
X110395000Y-75970000D03*
%TD*%
D17*
%TO.C,R22*%
X118385000Y-34425000D03*
X116735000Y-34425000D03*
%TD*%
D18*
%TO.C,C9*%
X118520000Y-38550000D03*
X118520000Y-36650000D03*
%TD*%
D19*
%TO.C,U22*%
X44474200Y-70204900D03*
X44474200Y-70854900D03*
X44474200Y-71504900D03*
X44474200Y-72155100D03*
X44474200Y-72805100D03*
X44474200Y-73455100D03*
X44474200Y-74105100D03*
X44474200Y-74755100D03*
X50205800Y-74755100D03*
X50205800Y-74105100D03*
X50205800Y-73455100D03*
X50205800Y-72805100D03*
X50205800Y-72155100D03*
X50205800Y-71504900D03*
X50205800Y-70854900D03*
X50205800Y-70204900D03*
%TD*%
D20*
%TO.C,FB6*%
X207047500Y-114710000D03*
X209172500Y-114710000D03*
%TD*%
D17*
%TO.C,R78*%
X42495000Y-82805000D03*
X40845000Y-82805000D03*
%TD*%
D14*
%TO.C,R13*%
X146410000Y-27785000D03*
X146410000Y-29435000D03*
%TD*%
D21*
%TO.C,FB5*%
X49360000Y-79375000D03*
X49360000Y-81500000D03*
%TD*%
D22*
%TO.C,C78*%
X89985000Y-107980000D03*
X88435000Y-107980000D03*
%TD*%
D17*
%TO.C,R33*%
X98070000Y-46470000D03*
X96420000Y-46470000D03*
%TD*%
D11*
%TO.C,R80*%
X236490000Y-83390002D03*
X238140000Y-83390002D03*
%TD*%
D23*
%TO.C,U2*%
X45100000Y-26940000D03*
X45100000Y-26440000D03*
X45100000Y-25940000D03*
X45100000Y-25440000D03*
X45100000Y-24940000D03*
X44330000Y-24940000D03*
X44330000Y-25440000D03*
X44330000Y-25940000D03*
X44330000Y-26440000D03*
X44330000Y-26940000D03*
%TD*%
D17*
%TO.C,R48*%
X86905000Y-58400000D03*
X85255000Y-58400000D03*
%TD*%
%TO.C,R84*%
X28830000Y-85700000D03*
X27180000Y-85700000D03*
%TD*%
D24*
%TO.C,C87*%
X205210000Y-119965000D03*
X205210000Y-118415000D03*
%TD*%
D25*
%TO.C,R23*%
X113660000Y-37030000D03*
X113660000Y-35380000D03*
%TD*%
D17*
%TO.C,F4*%
X201180000Y-35660000D03*
X199530000Y-35660000D03*
%TD*%
D11*
%TO.C,R6*%
X89770000Y-26300000D03*
X91420000Y-26300000D03*
%TD*%
D22*
%TO.C,C43*%
X86890000Y-61880000D03*
X85340000Y-61880000D03*
%TD*%
D14*
%TO.C,R2*%
X86930000Y-21135000D03*
X86930000Y-22785000D03*
%TD*%
D26*
%TO.C,EDGE1*%
X194200000Y-14600000D03*
X191660000Y-14600000D03*
X189120000Y-14600000D03*
X186580000Y-14600000D03*
X184040000Y-14600000D03*
X181500000Y-14600000D03*
X178960000Y-14600000D03*
X176420000Y-14600000D03*
X173880000Y-14600000D03*
X171340000Y-14600000D03*
X168800000Y-14600000D03*
X166260000Y-14600000D03*
X163720000Y-14600000D03*
X161180000Y-14600000D03*
X158640000Y-14600000D03*
X156100000Y-14600000D03*
X153560000Y-14600000D03*
X151020000Y-14600000D03*
X148480000Y-14600000D03*
X145940000Y-14600000D03*
X143400000Y-14600000D03*
X140860000Y-14600000D03*
X138320000Y-14600000D03*
X135780000Y-14600000D03*
X133240000Y-14600000D03*
%TD*%
D27*
%TO.C,RN2*%
X39670000Y-25840000D03*
D28*
X38870000Y-25840000D03*
X38070000Y-25840000D03*
D27*
X37270000Y-25840000D03*
X37270000Y-27640000D03*
D28*
X38070000Y-27640000D03*
X38870000Y-27640000D03*
D27*
X39670000Y-27640000D03*
%TD*%
D15*
%TO.C,C36*%
X235425000Y-54900000D03*
X235425000Y-56450000D03*
%TD*%
D17*
%TO.C,R51*%
X82230000Y-61660000D03*
X80580000Y-61660000D03*
%TD*%
D29*
%TO.C,Card2*%
X234259200Y-127419000D03*
X234259200Y-129919800D03*
X234259200Y-133219300D03*
X234259200Y-134921100D03*
X234259200Y-137418900D03*
X234259200Y-139919800D03*
X234259200Y-142348800D03*
X234259200Y-144049600D03*
X234259200Y-124921100D03*
D30*
X255008000Y-120200000D03*
X256209400Y-148200000D03*
D29*
X234259200Y-131571100D03*
X234259200Y-147399400D03*
%TD*%
D14*
%TO.C,R11*%
X150200000Y-27750000D03*
X150200000Y-29400000D03*
%TD*%
D23*
%TO.C,U39*%
X222700000Y-132400000D03*
X222700000Y-131900000D03*
X222700000Y-131400000D03*
X222700000Y-130900000D03*
X222700000Y-130400000D03*
X221930000Y-130400000D03*
X221930000Y-130900000D03*
X221930000Y-131400000D03*
X221930000Y-131900000D03*
X221930000Y-132400000D03*
%TD*%
D31*
%TO.C,U21*%
X63400000Y-74940200D03*
X64670000Y-74940200D03*
X65940000Y-74940200D03*
X67210000Y-74940200D03*
X67210000Y-69530000D03*
X65940000Y-69530000D03*
X64670000Y-69530000D03*
X63400000Y-69530000D03*
%TD*%
D32*
%TO.C,Card1*%
X30860200Y-63382700D03*
X30860200Y-62282600D03*
X30860200Y-61182600D03*
X30860200Y-60082800D03*
X30860200Y-58982700D03*
X30860200Y-57882600D03*
X30860200Y-56782800D03*
X30860200Y-55682700D03*
D33*
X36560000Y-67062700D03*
X36560000Y-53302700D03*
X28260000Y-53302700D03*
X28260000Y-67062700D03*
%TD*%
D15*
%TO.C,C20*%
X106420000Y-46310000D03*
X106420000Y-47860000D03*
%TD*%
D25*
%TO.C,R86*%
X30250000Y-93560000D03*
X30250000Y-91910000D03*
%TD*%
D21*
%TO.C,FB7*%
X43580000Y-124495000D03*
X43580000Y-126620000D03*
%TD*%
D34*
%TO.C,U18*%
X18154900Y-57050000D03*
X18154900Y-57549800D03*
X18154900Y-58050000D03*
D35*
X19230000Y-58050000D03*
D34*
X19405000Y-57549800D03*
D35*
X19230000Y-57050000D03*
D36*
X19280100Y-56374800D03*
X18779900Y-56374800D03*
X18280100Y-56374800D03*
%TD*%
D11*
%TO.C,R77*%
X37770000Y-82805000D03*
X39420000Y-82805000D03*
%TD*%
D37*
%TO.C,RN5*%
X243160000Y-44170000D03*
D38*
X243160000Y-43370000D03*
X243160000Y-42570000D03*
D37*
X243160000Y-41770000D03*
X241360000Y-41770000D03*
D38*
X241360000Y-42570000D03*
X241360000Y-43370000D03*
D37*
X241360000Y-44170000D03*
%TD*%
D24*
%TO.C,C93*%
X41950000Y-126065000D03*
X41950000Y-124515000D03*
%TD*%
D39*
%TO.C,U17*%
X68250000Y-49920000D03*
X68250000Y-50570000D03*
X68250000Y-51220000D03*
X68250000Y-51870000D03*
X68250000Y-52520000D03*
X68250000Y-53170000D03*
X68250000Y-53820000D03*
X68250000Y-54470000D03*
X68250000Y-55120000D03*
X68250000Y-55770000D03*
X73975000Y-55770000D03*
X73975000Y-55120000D03*
X73975000Y-54470000D03*
X73975000Y-53820000D03*
X73975000Y-53170000D03*
X73975000Y-52520000D03*
X73975000Y-51870000D03*
X73975000Y-51220000D03*
X73975000Y-50570000D03*
X73975000Y-49920000D03*
%TD*%
D24*
%TO.C,C61*%
X75450000Y-85145000D03*
X75450000Y-83595000D03*
%TD*%
D15*
%TO.C,C44*%
X22340000Y-64510000D03*
X22340000Y-66060000D03*
%TD*%
D17*
%TO.C,R92*%
X130245000Y-107410000D03*
X128595000Y-107410000D03*
%TD*%
%TO.C,R93*%
X60770000Y-109720000D03*
X59120000Y-109720000D03*
%TD*%
D14*
%TO.C,R25*%
X115160000Y-36750000D03*
X115160000Y-38400000D03*
%TD*%
D37*
%TO.C,RN3*%
X225500000Y-31880000D03*
D38*
X225500000Y-31080000D03*
X225500000Y-30280000D03*
D37*
X225500000Y-29480000D03*
X223700000Y-29480000D03*
D38*
X223700000Y-30280000D03*
X223700000Y-31080000D03*
D37*
X223700000Y-31880000D03*
%TD*%
D22*
%TO.C,C6*%
X115840000Y-32005000D03*
X114290000Y-32005000D03*
%TD*%
D24*
%TO.C,C58*%
X47670000Y-81105000D03*
X47670000Y-79555000D03*
%TD*%
D15*
%TO.C,C96*%
X205790000Y-128920000D03*
X205790000Y-130470000D03*
%TD*%
D24*
%TO.C,C76*%
X36100000Y-105675000D03*
X36100000Y-104125000D03*
%TD*%
D40*
%TO.C,U37*%
X208530000Y-125590000D03*
X208530000Y-124360000D03*
X208530000Y-123130000D03*
X207300000Y-125590000D03*
X207300000Y-124360000D03*
X207300000Y-123130000D03*
X206070000Y-125590000D03*
X206070000Y-124360000D03*
X206070000Y-123130000D03*
D41*
X210237500Y-126360000D03*
X210237500Y-125860000D03*
X210237500Y-125360000D03*
X210237500Y-124860000D03*
X210237500Y-124360000D03*
X210237500Y-123860000D03*
X210237500Y-123360000D03*
X210237500Y-122860000D03*
X210237500Y-122360000D03*
D42*
X209300000Y-121422500D03*
X208800000Y-121422500D03*
X208300000Y-121422500D03*
X207800000Y-121422500D03*
X207300000Y-121422500D03*
X206800000Y-121422500D03*
X206300000Y-121422500D03*
X205800000Y-121422500D03*
X205300000Y-121422500D03*
D41*
X204362500Y-122360000D03*
X204362500Y-122860000D03*
X204362500Y-123360000D03*
X204362500Y-123860000D03*
X204362500Y-124360000D03*
X204362500Y-124860000D03*
X204362500Y-125360000D03*
X204362500Y-125860000D03*
X204362500Y-126360000D03*
D42*
X205300000Y-127297500D03*
X205800000Y-127297500D03*
X206300000Y-127297500D03*
X206800000Y-127297500D03*
X207300000Y-127297500D03*
X207800000Y-127297500D03*
X208300000Y-127297500D03*
X208800000Y-127297500D03*
X209300000Y-127297500D03*
%TD*%
D43*
%TO.C,C7*%
X20480000Y-32810000D03*
X20480000Y-35760000D03*
%TD*%
D16*
%TO.C,C23*%
X17750000Y-49090000D03*
X19300000Y-49090000D03*
%TD*%
D22*
%TO.C,C31*%
X77610000Y-52200000D03*
X76060000Y-52200000D03*
%TD*%
D15*
%TO.C,C13*%
X236500000Y-42050000D03*
X236500000Y-43600000D03*
%TD*%
D14*
%TO.C,R36*%
X13060000Y-49530000D03*
X13060000Y-51180000D03*
%TD*%
%TO.C,R81*%
X45120000Y-82600000D03*
X45120000Y-84250000D03*
%TD*%
D11*
%TO.C,R103*%
X41865000Y-123040000D03*
X43515000Y-123040000D03*
%TD*%
D15*
%TO.C,C86*%
X69790000Y-117120000D03*
X69790000Y-118670000D03*
%TD*%
D22*
%TO.C,C71*%
X48835000Y-96250000D03*
X47285000Y-96250000D03*
%TD*%
D11*
%TO.C,R44*%
X237050000Y-54900000D03*
X238700000Y-54900000D03*
%TD*%
D22*
%TO.C,C62*%
X51630000Y-84480000D03*
X50080000Y-84480000D03*
%TD*%
D11*
%TO.C,R28*%
X19650000Y-40960000D03*
X21300000Y-40960000D03*
%TD*%
%TO.C,R31*%
X238200000Y-42000000D03*
X239850000Y-42000000D03*
%TD*%
D22*
%TO.C,C21*%
X69480000Y-48510000D03*
X67930000Y-48510000D03*
%TD*%
D17*
%TO.C,R73*%
X69060000Y-78450000D03*
X67410000Y-78450000D03*
%TD*%
D14*
%TO.C,R8*%
X104315000Y-26350000D03*
X104315000Y-28000000D03*
%TD*%
D44*
%TO.C,C74*%
X241840000Y-101740000D03*
X238890000Y-101740000D03*
%TD*%
D11*
%TO.C,R82*%
X27180000Y-83570000D03*
X28830000Y-83570000D03*
%TD*%
D18*
%TO.C,C50*%
X74430000Y-72400000D03*
X74430000Y-70500000D03*
%TD*%
D11*
%TO.C,R14*%
X49100000Y-28670000D03*
X50750000Y-28670000D03*
%TD*%
D45*
%TO.C,C84*%
X208980000Y-116630000D03*
X207080000Y-116630000D03*
%TD*%
D25*
%TO.C,R56*%
X66650000Y-67310000D03*
X66650000Y-65660000D03*
%TD*%
D24*
%TO.C,C67*%
X35950000Y-91100000D03*
X35950000Y-89550000D03*
%TD*%
D25*
%TO.C,F8*%
X241300000Y-117935000D03*
X241300000Y-116285000D03*
%TD*%
D22*
%TO.C,C70*%
X90045000Y-95790000D03*
X88495000Y-95790000D03*
%TD*%
D25*
%TO.C,R1*%
X108630000Y-21900000D03*
X108630000Y-20250000D03*
%TD*%
D15*
%TO.C,C85*%
X45080000Y-116910000D03*
X45080000Y-118460000D03*
%TD*%
D16*
%TO.C,C66*%
X16350000Y-87060000D03*
X17900000Y-87060000D03*
%TD*%
%TO.C,C35*%
X18110000Y-55200000D03*
X19660000Y-55200000D03*
%TD*%
D46*
%TO.C,U30*%
X71860000Y-86610000D03*
X71860000Y-87610000D03*
X71860000Y-88610000D03*
X71860000Y-89610000D03*
X71860000Y-90610000D03*
X71860000Y-91610000D03*
X71860000Y-92610000D03*
X71860000Y-93610000D03*
X71860000Y-94610000D03*
X71860000Y-95610000D03*
X71860000Y-96610000D03*
X71860000Y-97610000D03*
X71860000Y-98610000D03*
X71860000Y-99610000D03*
X71860000Y-100610000D03*
X71860000Y-101610000D03*
X71860000Y-102610000D03*
X71860000Y-103610000D03*
X71860000Y-104610000D03*
X71860000Y-105610000D03*
X71860000Y-106610000D03*
X71860000Y-107610000D03*
X51860000Y-86610000D03*
X51860000Y-87610000D03*
X51860000Y-88610000D03*
X51860000Y-89610000D03*
X51860000Y-90610000D03*
X51860000Y-91610000D03*
X51860000Y-92610000D03*
X51860000Y-93610000D03*
X51860000Y-94610000D03*
X51860000Y-95610000D03*
X51860000Y-96610000D03*
X51860000Y-97610000D03*
X51860000Y-98610000D03*
X51860000Y-99610000D03*
X51860000Y-100610000D03*
X51860000Y-101610000D03*
X51860000Y-102610000D03*
X51860000Y-103610000D03*
X51860000Y-104610000D03*
X51860000Y-105610000D03*
X51860000Y-106610000D03*
X51860000Y-107610000D03*
X50860000Y-86610000D03*
X50860000Y-87610000D03*
X50860000Y-88610000D03*
X50860000Y-89610000D03*
X50860000Y-90610000D03*
X50860000Y-91610000D03*
X50860000Y-92610000D03*
X50860000Y-93610000D03*
X50860000Y-94610000D03*
X50860000Y-95610000D03*
X50860000Y-96610000D03*
X50860000Y-97610000D03*
X50860000Y-98610000D03*
X50860000Y-99610000D03*
X50860000Y-100610000D03*
X50860000Y-101610000D03*
X50860000Y-102610000D03*
X50860000Y-103610000D03*
X50860000Y-104610000D03*
X50860000Y-105610000D03*
X50860000Y-106610000D03*
X50860000Y-107610000D03*
X70860000Y-86610000D03*
X70860000Y-87610000D03*
X70860000Y-88610000D03*
X70860000Y-89610000D03*
X70860000Y-90610000D03*
X70860000Y-91610000D03*
X70860000Y-92610000D03*
X70860000Y-93610000D03*
X70860000Y-94610000D03*
X70860000Y-95610000D03*
X70860000Y-96610000D03*
X70860000Y-97610000D03*
X70860000Y-98610000D03*
X70860000Y-99610000D03*
X70860000Y-100610000D03*
X70860000Y-101610000D03*
X70860000Y-102610000D03*
X70860000Y-103610000D03*
X70860000Y-104610000D03*
X70860000Y-105610000D03*
X70860000Y-106610000D03*
X70860000Y-107610000D03*
X69860000Y-86610000D03*
X69860000Y-87610000D03*
X69860000Y-88610000D03*
X69860000Y-89610000D03*
X69860000Y-90610000D03*
X69860000Y-91610000D03*
X69860000Y-92610000D03*
X69860000Y-93610000D03*
X69860000Y-94610000D03*
X69860000Y-95610000D03*
X69860000Y-96610000D03*
X69860000Y-97610000D03*
X69860000Y-98610000D03*
X69860000Y-99610000D03*
X69860000Y-100610000D03*
X69860000Y-101610000D03*
X69860000Y-102610000D03*
X69860000Y-103610000D03*
X69860000Y-104610000D03*
X69860000Y-105610000D03*
X69860000Y-106610000D03*
X69860000Y-107610000D03*
X68860000Y-86610000D03*
X68860000Y-87610000D03*
X68860000Y-88610000D03*
X68860000Y-89610000D03*
X68860000Y-90610000D03*
X68860000Y-91610000D03*
X68860000Y-92610000D03*
X68860000Y-93610000D03*
X68860000Y-94610000D03*
X68860000Y-95610000D03*
X68860000Y-96610000D03*
X68860000Y-97610000D03*
X68860000Y-98610000D03*
X68860000Y-99610000D03*
X68860000Y-100610000D03*
X68860000Y-101610000D03*
X68860000Y-102610000D03*
X68860000Y-103610000D03*
X68860000Y-104610000D03*
X68860000Y-105610000D03*
X68860000Y-106610000D03*
X68860000Y-107610000D03*
X67860000Y-86610000D03*
X67860000Y-87610000D03*
X67860000Y-88610000D03*
X67860000Y-89610000D03*
X67860000Y-90610000D03*
X67860000Y-91610000D03*
X67860000Y-92610000D03*
X67860000Y-93610000D03*
X67860000Y-94610000D03*
X67860000Y-95610000D03*
X67860000Y-96610000D03*
X67860000Y-97610000D03*
X67860000Y-98610000D03*
X67860000Y-99610000D03*
X67860000Y-100610000D03*
X67860000Y-101610000D03*
X67860000Y-102610000D03*
X67860000Y-103610000D03*
X67860000Y-104610000D03*
X67860000Y-105610000D03*
X67860000Y-106610000D03*
X67860000Y-107610000D03*
X66860000Y-86610000D03*
X66860000Y-87610000D03*
X66860000Y-88610000D03*
X66860000Y-89610000D03*
X66860000Y-90610000D03*
X66860000Y-91610000D03*
X66860000Y-92610000D03*
X66860000Y-93610000D03*
X66860000Y-94610000D03*
X66860000Y-95610000D03*
X66860000Y-96610000D03*
X66860000Y-97610000D03*
X66860000Y-98610000D03*
X66860000Y-99610000D03*
X66860000Y-100610000D03*
X66860000Y-101610000D03*
X66860000Y-102610000D03*
X66860000Y-103610000D03*
X66860000Y-104610000D03*
X66860000Y-105610000D03*
X66860000Y-106610000D03*
X66860000Y-107610000D03*
X65860000Y-86610000D03*
X65860000Y-87610000D03*
X65860000Y-88610000D03*
X65860000Y-89610000D03*
X65860000Y-90610000D03*
X65860000Y-91610000D03*
X65860000Y-92610000D03*
X65860000Y-93610000D03*
X65860000Y-94610000D03*
X65860000Y-95610000D03*
X65860000Y-96610000D03*
X65860000Y-97610000D03*
X65860000Y-98610000D03*
X65860000Y-99610000D03*
X65860000Y-100610000D03*
X65860000Y-101610000D03*
X65860000Y-102610000D03*
X65860000Y-103610000D03*
X65860000Y-104610000D03*
X65860000Y-105610000D03*
X65860000Y-106610000D03*
X65860000Y-107610000D03*
X64860000Y-86610000D03*
X64860000Y-87610000D03*
X64860000Y-88610000D03*
X64860000Y-89610000D03*
X64860000Y-90610000D03*
X64860000Y-91610000D03*
X64860000Y-92610000D03*
X64860000Y-93610000D03*
X64860000Y-94610000D03*
X64860000Y-95610000D03*
X64860000Y-96610000D03*
X64860000Y-97610000D03*
X64860000Y-98610000D03*
X64860000Y-99610000D03*
X64860000Y-100610000D03*
X64860000Y-101610000D03*
X64860000Y-102610000D03*
X64860000Y-103610000D03*
X64860000Y-104610000D03*
X64860000Y-105610000D03*
X64860000Y-106610000D03*
X64860000Y-107610000D03*
X63860000Y-86610000D03*
X63860000Y-87610000D03*
X63860000Y-88610000D03*
X63860000Y-89610000D03*
X63860000Y-90610000D03*
X63860000Y-91610000D03*
X63860000Y-92610000D03*
X63860000Y-93610000D03*
X63860000Y-94610000D03*
X63860000Y-95610000D03*
X63860000Y-96610000D03*
X63860000Y-97610000D03*
X63860000Y-98610000D03*
X63860000Y-99610000D03*
X63860000Y-100610000D03*
X63860000Y-101610000D03*
X63860000Y-102610000D03*
X63860000Y-103610000D03*
X63860000Y-104610000D03*
X63860000Y-105610000D03*
X63860000Y-106610000D03*
X63860000Y-107610000D03*
X62860000Y-86610000D03*
X62860000Y-87610000D03*
X62860000Y-88610000D03*
X62860000Y-89610000D03*
X62860000Y-90610000D03*
X62860000Y-91610000D03*
X62860000Y-92610000D03*
X62860000Y-93610000D03*
X62860000Y-94610000D03*
X62860000Y-95610000D03*
X62860000Y-96610000D03*
X62860000Y-97610000D03*
X62860000Y-98610000D03*
X62860000Y-99610000D03*
X62860000Y-100610000D03*
X62860000Y-101610000D03*
X62860000Y-102610000D03*
X62860000Y-103610000D03*
X62860000Y-104610000D03*
X62860000Y-105610000D03*
X62860000Y-106610000D03*
X62860000Y-107610000D03*
X61860000Y-86610000D03*
X61860000Y-87610000D03*
X61860000Y-88610000D03*
X61860000Y-89610000D03*
X61860000Y-90610000D03*
X61860000Y-91610000D03*
X61860000Y-92610000D03*
X61860000Y-93610000D03*
X61860000Y-94610000D03*
X61860000Y-95610000D03*
X61860000Y-96610000D03*
X61860000Y-97610000D03*
X61860000Y-98610000D03*
X61860000Y-99610000D03*
X61860000Y-100610000D03*
X61860000Y-101610000D03*
X61860000Y-102610000D03*
X61860000Y-103610000D03*
X61860000Y-104610000D03*
X61860000Y-105610000D03*
X61860000Y-106610000D03*
X61860000Y-107610000D03*
X60860000Y-86610000D03*
X60860000Y-87610000D03*
X60860000Y-88610000D03*
X60860000Y-89610000D03*
X60860000Y-90610000D03*
X60860000Y-91610000D03*
X60860000Y-92610000D03*
X60860000Y-93610000D03*
X60860000Y-94610000D03*
X60860000Y-95610000D03*
X60860000Y-96610000D03*
X60860000Y-97610000D03*
X60860000Y-98610000D03*
X60860000Y-99610000D03*
X60860000Y-100610000D03*
X60860000Y-101610000D03*
X60860000Y-102610000D03*
X60860000Y-103610000D03*
X60860000Y-104610000D03*
X60860000Y-105610000D03*
X60860000Y-106610000D03*
X60860000Y-107610000D03*
X59860000Y-86610000D03*
X59860000Y-87610000D03*
X59860000Y-88610000D03*
X59860000Y-89610000D03*
X59860000Y-90610000D03*
X59860000Y-91610000D03*
X59860000Y-92610000D03*
X59860000Y-93610000D03*
X59860000Y-94610000D03*
X59860000Y-95610000D03*
X59860000Y-96610000D03*
X59860000Y-97610000D03*
X59860000Y-98610000D03*
X59860000Y-99610000D03*
X59860000Y-100610000D03*
X59860000Y-101610000D03*
X59860000Y-102610000D03*
X59860000Y-103610000D03*
X59860000Y-104610000D03*
X59860000Y-105610000D03*
X59860000Y-106610000D03*
X59860000Y-107610000D03*
X58860000Y-86610000D03*
X58860000Y-87610000D03*
X58860000Y-88610000D03*
X58860000Y-89610000D03*
X58860000Y-90610000D03*
X58860000Y-91610000D03*
X58860000Y-92610000D03*
X58860000Y-93610000D03*
X58860000Y-94610000D03*
X58860000Y-95610000D03*
X58860000Y-96610000D03*
X58860000Y-97610000D03*
X58860000Y-98610000D03*
X58860000Y-99610000D03*
X58860000Y-100610000D03*
X58860000Y-101610000D03*
X58860000Y-102610000D03*
X58860000Y-103610000D03*
X58860000Y-104610000D03*
X58860000Y-105610000D03*
X58860000Y-106610000D03*
X58860000Y-107610000D03*
X57860000Y-86610000D03*
X57860000Y-87610000D03*
X57860000Y-88610000D03*
X57860000Y-89610000D03*
X57860000Y-90610000D03*
X57860000Y-91610000D03*
X57860000Y-92610000D03*
X57860000Y-93610000D03*
X57860000Y-94610000D03*
X57860000Y-95610000D03*
X57860000Y-96610000D03*
X57860000Y-97610000D03*
X57860000Y-98610000D03*
X57860000Y-99610000D03*
X57860000Y-100610000D03*
X57860000Y-101610000D03*
X57860000Y-102610000D03*
X57860000Y-103610000D03*
X57860000Y-104610000D03*
X57860000Y-105610000D03*
X57860000Y-106610000D03*
X57860000Y-107610000D03*
X56860000Y-86610000D03*
X56860000Y-87610000D03*
X56860000Y-88610000D03*
X56860000Y-89610000D03*
X56860000Y-90610000D03*
X56860000Y-91610000D03*
X56860000Y-92610000D03*
X56860000Y-93610000D03*
X56860000Y-94610000D03*
X56860000Y-95610000D03*
X56860000Y-96610000D03*
X56860000Y-97610000D03*
X56860000Y-98610000D03*
X56860000Y-99610000D03*
X56860000Y-100610000D03*
X56860000Y-101610000D03*
X56860000Y-102610000D03*
X56860000Y-103610000D03*
X56860000Y-104610000D03*
X56860000Y-105610000D03*
X56860000Y-106610000D03*
X56860000Y-107610000D03*
X55860000Y-86610000D03*
X55860000Y-87610000D03*
X55860000Y-88610000D03*
X55860000Y-89610000D03*
X55860000Y-90610000D03*
X55860000Y-91610000D03*
X55860000Y-92610000D03*
X55860000Y-93610000D03*
X55860000Y-94610000D03*
X55860000Y-95610000D03*
X55860000Y-96610000D03*
X55860000Y-97610000D03*
X55860000Y-98610000D03*
X55860000Y-99610000D03*
X55860000Y-100610000D03*
X55860000Y-101610000D03*
X55860000Y-102610000D03*
X55860000Y-103610000D03*
X55860000Y-104610000D03*
X55860000Y-105610000D03*
X55860000Y-106610000D03*
X55860000Y-107610000D03*
X54860000Y-86610000D03*
X54860000Y-87610000D03*
X54860000Y-88610000D03*
X54860000Y-89610000D03*
X54860000Y-90610000D03*
X54860000Y-91610000D03*
X54860000Y-92610000D03*
X54860000Y-93610000D03*
X54860000Y-94610000D03*
X54860000Y-95610000D03*
X54860000Y-96610000D03*
X54860000Y-97610000D03*
X54860000Y-98610000D03*
X54860000Y-99610000D03*
X54860000Y-100610000D03*
X54860000Y-101610000D03*
X54860000Y-102610000D03*
X54860000Y-103610000D03*
X54860000Y-104610000D03*
X54860000Y-105610000D03*
X54860000Y-106610000D03*
X54860000Y-107610000D03*
X53860000Y-86610000D03*
X53860000Y-87610000D03*
X53860000Y-88610000D03*
X53860000Y-89610000D03*
X53860000Y-90610000D03*
X53860000Y-91610000D03*
X53860000Y-92610000D03*
X53860000Y-93610000D03*
X53860000Y-94610000D03*
X53860000Y-95610000D03*
X53860000Y-96610000D03*
X53860000Y-97610000D03*
X53860000Y-98610000D03*
X53860000Y-99610000D03*
X53860000Y-100610000D03*
X53860000Y-101610000D03*
X53860000Y-102610000D03*
X53860000Y-103610000D03*
X53860000Y-104610000D03*
X53860000Y-105610000D03*
X53860000Y-106610000D03*
X53860000Y-107610000D03*
X52860000Y-86610000D03*
X52860000Y-87610000D03*
X52860000Y-88610000D03*
X52860000Y-89610000D03*
X52860000Y-90610000D03*
X52860000Y-91610000D03*
X52860000Y-92610000D03*
X52860000Y-93610000D03*
X52860000Y-94610000D03*
X52860000Y-95610000D03*
X52860000Y-96610000D03*
X52860000Y-97610000D03*
X52860000Y-98610000D03*
X52860000Y-99610000D03*
X52860000Y-100610000D03*
X52860000Y-101610000D03*
X52860000Y-102610000D03*
X52860000Y-103610000D03*
X52860000Y-104610000D03*
X52860000Y-105610000D03*
X52860000Y-106610000D03*
X52860000Y-107610000D03*
%TD*%
D24*
%TO.C,C100*%
X231990000Y-136050000D03*
X231990000Y-134500000D03*
%TD*%
D25*
%TO.C,R38*%
X48120000Y-51945000D03*
X48120000Y-50295000D03*
%TD*%
%TO.C,R105*%
X200320000Y-127710000D03*
X200320000Y-126060000D03*
%TD*%
D47*
%TO.C,L1*%
X15350000Y-45655000D03*
X15350000Y-43505000D03*
%TD*%
D48*
%TO.C,U26*%
X25280000Y-84880000D03*
X25280000Y-83610000D03*
X25280000Y-82340000D03*
X25280000Y-81070000D03*
X18280000Y-81070000D03*
X18280000Y-82340000D03*
X18280000Y-83610000D03*
X18280000Y-84880000D03*
%TD*%
D37*
%TO.C,RN12*%
X227890000Y-125970000D03*
D38*
X227890000Y-126770000D03*
X227890000Y-127570000D03*
D37*
X227890000Y-128370000D03*
X229690000Y-128370000D03*
D38*
X229690000Y-127570000D03*
X229690000Y-126770000D03*
D37*
X229690000Y-125970000D03*
%TD*%
D24*
%TO.C,C2*%
X86930000Y-25810000D03*
X86930000Y-24260000D03*
%TD*%
%TO.C,C101*%
X208410000Y-137280000D03*
X208410000Y-135730000D03*
%TD*%
D25*
%TO.C,R98*%
X79020000Y-119040000D03*
X79020000Y-117390000D03*
%TD*%
D11*
%TO.C,F7*%
X238570000Y-93910000D03*
X240220000Y-93910000D03*
%TD*%
D16*
%TO.C,C27*%
X107965000Y-50140000D03*
X109515000Y-50140000D03*
%TD*%
D49*
%TO.C,C17*%
X17550000Y-46280000D03*
X19450000Y-46280000D03*
%TD*%
D21*
%TO.C,FB3*%
X70780000Y-67170000D03*
X70780000Y-69295000D03*
%TD*%
D22*
%TO.C,C10*%
X101270000Y-37890000D03*
X99720000Y-37890000D03*
%TD*%
D15*
%TO.C,C15*%
X97910000Y-43300000D03*
X97910000Y-44850000D03*
%TD*%
D16*
%TO.C,C56*%
X16530000Y-76870000D03*
X18080000Y-76870000D03*
%TD*%
D11*
%TO.C,R107*%
X40275000Y-127590000D03*
X41925000Y-127590000D03*
%TD*%
D15*
%TO.C,C49*%
X234465000Y-69310000D03*
X234465000Y-70860000D03*
%TD*%
D12*
%TO.C,U33*%
X91890600Y-101370001D03*
X91890600Y-101770000D03*
X91890600Y-102170002D03*
X91890600Y-102570001D03*
X91890600Y-102970000D03*
X91890600Y-103369999D03*
X91890600Y-103770001D03*
X91890600Y-104170000D03*
X91890600Y-104569999D03*
X91890600Y-104970001D03*
X91890600Y-105370000D03*
X91890600Y-105769999D03*
X91890600Y-106170001D03*
X91890600Y-106570000D03*
X91890600Y-106970000D03*
X91890600Y-107369999D03*
X91890600Y-107770001D03*
X91890600Y-108170000D03*
X91890600Y-108569999D03*
X91890600Y-108970001D03*
X91890600Y-109370000D03*
X91890600Y-109769999D03*
X91890600Y-110170001D03*
X91890600Y-110570000D03*
X91890600Y-110969999D03*
X91890600Y-111369998D03*
X91890600Y-111770000D03*
X91890600Y-112169999D03*
X97529400Y-112169999D03*
X97529400Y-111770000D03*
X97529400Y-111369998D03*
X97529400Y-110969999D03*
X97529400Y-110570000D03*
X97529400Y-110170001D03*
X97529400Y-109769999D03*
X97529400Y-109370000D03*
X97529400Y-108970001D03*
X97529400Y-108569999D03*
X97529400Y-108170000D03*
X97529400Y-107770001D03*
X97529400Y-107369999D03*
X97529400Y-106970000D03*
X97529400Y-106570000D03*
X97529400Y-106170001D03*
X97529400Y-105769999D03*
X97529400Y-105370000D03*
X97529400Y-104970001D03*
X97529400Y-104569999D03*
X97529400Y-104170000D03*
X97529400Y-103770001D03*
X97529400Y-103370002D03*
X97529400Y-102970000D03*
X97529400Y-102570001D03*
X97529400Y-102170002D03*
X97529400Y-101770000D03*
X97529400Y-101370001D03*
%TD*%
D24*
%TO.C,C3*%
X94480000Y-29180000D03*
X94480000Y-27630000D03*
%TD*%
D16*
%TO.C,C38*%
X82255000Y-58400000D03*
X83805000Y-58400000D03*
%TD*%
%TO.C,C79*%
X48945000Y-109640000D03*
X50495000Y-109640000D03*
%TD*%
D14*
%TO.C,R37*%
X23040000Y-49660000D03*
X23040000Y-51310000D03*
%TD*%
D11*
%TO.C,R20*%
X129730000Y-32570000D03*
X131380000Y-32570000D03*
%TD*%
D17*
%TO.C,R99*%
X155005000Y-118690000D03*
X153355000Y-118690000D03*
%TD*%
D50*
%TO.C,C99*%
X229770000Y-135975000D03*
X229770000Y-133025000D03*
%TD*%
D11*
%TO.C,R83*%
X236540000Y-85290002D03*
X238190000Y-85290002D03*
%TD*%
D37*
%TO.C,RN4*%
X241330000Y-30140000D03*
D38*
X241330000Y-30940000D03*
X241330000Y-31740000D03*
D37*
X241330000Y-32540000D03*
X243130000Y-32540000D03*
D38*
X243130000Y-31740000D03*
X243130000Y-30940000D03*
D37*
X243130000Y-30140000D03*
%TD*%
D47*
%TO.C,L3*%
X15990000Y-58930000D03*
X15990000Y-56780000D03*
%TD*%
D14*
%TO.C,R5*%
X115650000Y-24430000D03*
X115650000Y-26080000D03*
%TD*%
D16*
%TO.C,C73*%
X35395000Y-98950000D03*
X36945000Y-98950000D03*
%TD*%
D15*
%TO.C,C95*%
X201980000Y-126065000D03*
X201980000Y-127615000D03*
%TD*%
D51*
%TO.C,Y6*%
X30560000Y-124760000D03*
X32760000Y-124760000D03*
X32760000Y-123060000D03*
X30560000Y-123060000D03*
%TD*%
D22*
%TO.C,C57*%
X114020000Y-77670000D03*
X112470000Y-77670000D03*
%TD*%
D15*
%TO.C,C88*%
X207290000Y-118425000D03*
X207290000Y-119975000D03*
%TD*%
D52*
%TO.C,U10*%
X113520000Y-28530000D03*
X113520000Y-29480000D03*
X113520000Y-30430000D03*
X115795000Y-30430000D03*
X115795000Y-28530000D03*
%TD*%
D16*
%TO.C,C32*%
X85855000Y-52210000D03*
X87405000Y-52210000D03*
%TD*%
D27*
%TO.C,RN1*%
X35570000Y-25840000D03*
D28*
X34770000Y-25840000D03*
X33970000Y-25840000D03*
D27*
X33170000Y-25840000D03*
X33170000Y-27640000D03*
D28*
X33970000Y-27640000D03*
X34770000Y-27640000D03*
D27*
X35570000Y-27640000D03*
%TD*%
D11*
%TO.C,R49*%
X240300000Y-59400000D03*
X241950000Y-59400000D03*
%TD*%
%TO.C,R104*%
X200345000Y-124460000D03*
X201995000Y-124460000D03*
%TD*%
%TO.C,R67*%
X47900000Y-76400000D03*
X49550000Y-76400000D03*
%TD*%
D14*
%TO.C,R15*%
X193500000Y-28400000D03*
X193500000Y-30050000D03*
%TD*%
D15*
%TO.C,C16*%
X99760000Y-43315000D03*
X99760000Y-44865000D03*
%TD*%
D53*
%TO.C,Y4*%
X41257500Y-79155000D03*
X41257500Y-79655000D03*
X41257500Y-80155000D03*
X41257500Y-80655000D03*
X41257500Y-81155000D03*
X45482500Y-81155000D03*
X45482500Y-80655000D03*
X45482500Y-80155000D03*
X45482500Y-79655000D03*
X45482500Y-79155000D03*
%TD*%
D25*
%TO.C,R110*%
X211420000Y-130610000D03*
X211420000Y-128960000D03*
%TD*%
D54*
%TO.C,C5*%
X218150000Y-29560000D03*
X221100000Y-29560000D03*
%TD*%
D17*
%TO.C,F5*%
X242250000Y-35850000D03*
X240600000Y-35850000D03*
%TD*%
D24*
%TO.C,C4*%
X102260000Y-30180000D03*
X102260000Y-28630000D03*
%TD*%
D14*
%TO.C,R54*%
X48300000Y-65270000D03*
X48300000Y-66920000D03*
%TD*%
D11*
%TO.C,R16*%
X106260000Y-29570000D03*
X107910000Y-29570000D03*
%TD*%
D55*
%TO.C,FB2*%
X68110000Y-59922500D03*
X68110000Y-57797500D03*
%TD*%
D17*
%TO.C,R29*%
X209430000Y-41320000D03*
X207780000Y-41320000D03*
%TD*%
D20*
%TO.C,FB1*%
X93827500Y-44820000D03*
X95952500Y-44820000D03*
%TD*%
D56*
%TO.C,U19*%
X108762500Y-52477500D03*
X108262500Y-52477500D03*
X107762500Y-52477500D03*
X107262500Y-52477500D03*
X106762500Y-52477500D03*
X106262500Y-52477500D03*
X105762500Y-52477500D03*
X105262500Y-52477500D03*
X104762500Y-52477500D03*
X104262500Y-52477500D03*
X103762500Y-52477500D03*
X103262500Y-52477500D03*
X102762500Y-52477500D03*
X102262500Y-52477500D03*
X101762500Y-52477500D03*
X101262500Y-52477500D03*
X100762500Y-52477500D03*
X100262500Y-52477500D03*
X99762500Y-52477500D03*
X99262500Y-52477500D03*
X98762500Y-52477500D03*
X98262500Y-52477500D03*
X97762500Y-52477500D03*
X97262500Y-52477500D03*
X96762500Y-52477500D03*
X96262500Y-52477500D03*
X95762500Y-52477500D03*
X95262500Y-52477500D03*
X94762500Y-52477500D03*
X94262500Y-52477500D03*
X93762500Y-52477500D03*
X93262500Y-52477500D03*
X92762500Y-52477500D03*
X92262500Y-52477500D03*
X91762500Y-52477500D03*
X91262500Y-52477500D03*
D57*
X89350000Y-54390000D03*
X89350000Y-54890000D03*
X89350000Y-55390000D03*
X89350000Y-55890000D03*
X89350000Y-56390000D03*
X89350000Y-56890000D03*
X89350000Y-57390000D03*
X89350000Y-57890000D03*
X89350000Y-58390000D03*
X89350000Y-58890000D03*
X89350000Y-59390000D03*
X89350000Y-59890000D03*
X89350000Y-60390000D03*
X89350000Y-60890000D03*
X89350000Y-61390000D03*
X89350000Y-61890000D03*
X89350000Y-62390000D03*
X89350000Y-62890000D03*
X89350000Y-63390000D03*
X89350000Y-63890000D03*
X89350000Y-64390000D03*
X89350000Y-64890000D03*
X89350000Y-65390000D03*
X89350000Y-65890000D03*
X89350000Y-66390000D03*
X89350000Y-66890000D03*
X89350000Y-67390000D03*
X89350000Y-67890000D03*
X89350000Y-68390000D03*
X89350000Y-68890000D03*
X89350000Y-69390000D03*
X89350000Y-69890000D03*
X89350000Y-70390000D03*
X89350000Y-70890000D03*
X89350000Y-71390000D03*
X89350000Y-71890000D03*
D56*
X91262500Y-73802500D03*
X91762500Y-73802500D03*
X92262500Y-73802500D03*
X92762500Y-73802500D03*
X93262500Y-73802500D03*
X93762500Y-73802500D03*
X94262500Y-73802500D03*
X94762500Y-73802500D03*
X95262500Y-73802500D03*
X95762500Y-73802500D03*
X96262500Y-73802500D03*
X96762500Y-73802500D03*
X97262500Y-73802500D03*
X97762500Y-73802500D03*
X98262500Y-73802500D03*
X98762500Y-73802500D03*
X99262500Y-73802500D03*
X99762500Y-73802500D03*
X100262500Y-73802500D03*
X100762500Y-73802500D03*
X101262500Y-73802500D03*
X101762500Y-73802500D03*
X102262500Y-73802500D03*
X102762500Y-73802500D03*
X103262500Y-73802500D03*
X103762500Y-73802500D03*
X104262500Y-73802500D03*
X104762500Y-73802500D03*
X105262500Y-73802500D03*
X105762500Y-73802500D03*
X106262500Y-73802500D03*
X106762500Y-73802500D03*
X107262500Y-73802500D03*
X107762500Y-73802500D03*
X108262500Y-73802500D03*
X108762500Y-73802500D03*
D57*
X110675000Y-71890000D03*
X110675000Y-71390000D03*
X110675000Y-70890000D03*
X110675000Y-70390000D03*
X110675000Y-69890000D03*
X110675000Y-69390000D03*
X110675000Y-68890000D03*
X110675000Y-68390000D03*
X110675000Y-67890000D03*
X110675000Y-67390000D03*
X110675000Y-66890000D03*
X110675000Y-66390000D03*
X110675000Y-65890000D03*
X110675000Y-65390000D03*
X110675000Y-64890000D03*
X110675000Y-64390000D03*
X110675000Y-63890000D03*
X110675000Y-63390000D03*
X110675000Y-62890000D03*
X110675000Y-62390000D03*
X110675000Y-61890000D03*
X110675000Y-61390000D03*
X110675000Y-60890000D03*
X110675000Y-60390000D03*
X110675000Y-59890000D03*
X110675000Y-59390000D03*
X110675000Y-58890000D03*
X110675000Y-58390000D03*
X110675000Y-57890000D03*
X110675000Y-57390000D03*
X110675000Y-56890000D03*
X110675000Y-56390000D03*
X110675000Y-55890000D03*
X110675000Y-55390000D03*
X110675000Y-54890000D03*
X110675000Y-54390000D03*
%TD*%
D58*
%TO.C,C94*%
X169190000Y-124440000D03*
X169190000Y-126340000D03*
%TD*%
D59*
%TO.C,D2*%
X115255000Y-53845000D03*
X115255000Y-51745000D03*
%TD*%
D17*
%TO.C,R106*%
X36765000Y-127230000D03*
X35115000Y-127230000D03*
%TD*%
D24*
%TO.C,C98*%
X208320000Y-130535000D03*
X208320000Y-128985000D03*
%TD*%
D11*
%TO.C,R79*%
X64665000Y-83290000D03*
X66315000Y-83290000D03*
%TD*%
%TO.C,R94*%
X128610000Y-110750000D03*
X130260000Y-110750000D03*
%TD*%
D37*
%TO.C,RN7*%
X116500000Y-71250000D03*
D38*
X116500000Y-70450000D03*
X116500000Y-69650000D03*
D37*
X116500000Y-68850000D03*
X114700000Y-68850000D03*
D38*
X114700000Y-69650000D03*
X114700000Y-70450000D03*
D37*
X114700000Y-71250000D03*
%TD*%
D11*
%TO.C,R19*%
X117390000Y-32005000D03*
X119040000Y-32005000D03*
%TD*%
D17*
%TO.C,R43*%
X86820000Y-53710000D03*
X85170000Y-53710000D03*
%TD*%
D16*
%TO.C,C69*%
X81645000Y-94840000D03*
X83195000Y-94840000D03*
%TD*%
D11*
%TO.C,F3*%
X129715000Y-35020000D03*
X131365000Y-35020000D03*
%TD*%
D24*
%TO.C,C90*%
X75050000Y-122180000D03*
X75050000Y-120630000D03*
%TD*%
D16*
%TO.C,C91*%
X211865000Y-124300000D03*
X213415000Y-124300000D03*
%TD*%
D49*
%TO.C,C22*%
X92185000Y-48530000D03*
X94085000Y-48530000D03*
%TD*%
D58*
%TO.C,C30*%
X21080000Y-49760000D03*
X21080000Y-51660000D03*
%TD*%
D11*
%TO.C,F2*%
X40435000Y-29800000D03*
X42085000Y-29800000D03*
%TD*%
D18*
%TO.C,C52*%
X70680000Y-72670000D03*
X70680000Y-70770000D03*
%TD*%
D11*
%TO.C,R85*%
X239800000Y-90400000D03*
X241450000Y-90400000D03*
%TD*%
D22*
%TO.C,C48*%
X48190000Y-68940000D03*
X46640000Y-68940000D03*
%TD*%
D16*
%TO.C,C83*%
X155800000Y-112700000D03*
X157350000Y-112700000D03*
%TD*%
D60*
%TO.C,Y2*%
X106220000Y-49800000D03*
X103720000Y-49800000D03*
%TD*%
D17*
%TO.C,R7*%
X113990000Y-26740000D03*
X112340000Y-26740000D03*
%TD*%
D43*
%TO.C,C45*%
X20320000Y-64560000D03*
X20320000Y-67510000D03*
%TD*%
D11*
%TO.C,R47*%
X113900000Y-57030000D03*
X115550000Y-57030000D03*
%TD*%
D58*
%TO.C,C39*%
X70050000Y-57870000D03*
X70050000Y-59770000D03*
%TD*%
D15*
%TO.C,C65*%
X234690000Y-85290002D03*
X234690000Y-86840002D03*
%TD*%
D24*
%TO.C,C33*%
X235425000Y-53100000D03*
X235425000Y-51550000D03*
%TD*%
D11*
%TO.C,R97*%
X69595000Y-115250000D03*
X71245000Y-115250000D03*
%TD*%
D24*
%TO.C,C59*%
X234590000Y-83140002D03*
X234590000Y-81590002D03*
%TD*%
D14*
%TO.C,R69*%
X107285000Y-75910000D03*
X107285000Y-77560000D03*
%TD*%
D17*
%TO.C,R108*%
X36760000Y-128750000D03*
X35110000Y-128750000D03*
%TD*%
D25*
%TO.C,R89*%
X30300000Y-101890000D03*
X30300000Y-100240000D03*
%TD*%
D11*
%TO.C,R95*%
X152685000Y-112720000D03*
X154335000Y-112720000D03*
%TD*%
D61*
%TO.C,U38*%
X213800000Y-128880000D03*
X213800000Y-129380000D03*
X213800000Y-129880000D03*
X213800000Y-130380000D03*
X213800000Y-130880000D03*
X214570000Y-130880000D03*
X214570000Y-130380000D03*
X214570000Y-129880000D03*
X214570000Y-129380000D03*
X214570000Y-128880000D03*
%TD*%
D22*
%TO.C,C82*%
X160410000Y-112690000D03*
X158860000Y-112690000D03*
%TD*%
D14*
%TO.C,R17*%
X23100000Y-28990000D03*
X23100000Y-30640000D03*
%TD*%
D11*
%TO.C,R63*%
X239500000Y-73800000D03*
X241150000Y-73800000D03*
%TD*%
%TO.C,R35*%
X20830000Y-48140000D03*
X22480000Y-48140000D03*
%TD*%
D62*
%TO.C,U28*%
X38250000Y-87599566D03*
X39000000Y-87599566D03*
X39750000Y-87599566D03*
X40500000Y-87599566D03*
X41250000Y-87599566D03*
X42000000Y-87599566D03*
X38250000Y-88349628D03*
X39000000Y-88349628D03*
X39750000Y-88349628D03*
X40500000Y-88349628D03*
X41250000Y-88349628D03*
X42000000Y-88349628D03*
X38250000Y-89099690D03*
X39000000Y-89099690D03*
X39750000Y-89099690D03*
X40500000Y-89099690D03*
X41250000Y-89099690D03*
X42000000Y-89099690D03*
X38250000Y-89849752D03*
X39000000Y-89849752D03*
X39750000Y-89849752D03*
X40500000Y-89849752D03*
X41250000Y-89849752D03*
X42000000Y-89849752D03*
X38250000Y-90599814D03*
X39000000Y-90599814D03*
X39750000Y-90599814D03*
X40500000Y-90599814D03*
X41250000Y-90599814D03*
X42000000Y-90599814D03*
X38250000Y-91349876D03*
X39000000Y-91349876D03*
X39750000Y-91349876D03*
X40500000Y-91349876D03*
X41250000Y-91349876D03*
X42000000Y-91349876D03*
X38250000Y-92099938D03*
X39000000Y-92099938D03*
X39750000Y-92099938D03*
X40500000Y-92099938D03*
X41250000Y-92099938D03*
X42000000Y-92099938D03*
X38250000Y-92850000D03*
X39000000Y-92850000D03*
X39750000Y-92850000D03*
X40500000Y-92850000D03*
X41250000Y-92850000D03*
X42000000Y-92850000D03*
%TD*%
D22*
%TO.C,C12*%
X18250000Y-41180000D03*
X16700000Y-41180000D03*
%TD*%
D44*
%TO.C,C80*%
X242190000Y-110510000D03*
X239240000Y-110510000D03*
%TD*%
D63*
%TO.C,Y5*%
X76880000Y-122300000D03*
X78980000Y-122300000D03*
X78980000Y-120650000D03*
X76880000Y-120650000D03*
%TD*%
D48*
%TO.C,U23*%
X24875000Y-74520000D03*
X24875000Y-73250000D03*
X24875000Y-71980000D03*
X24875000Y-70710000D03*
X17875000Y-70710000D03*
X17875000Y-71980000D03*
X17875000Y-73250000D03*
X17875000Y-74520000D03*
%TD*%
D11*
%TO.C,R91*%
X167120000Y-103910000D03*
X168770000Y-103910000D03*
%TD*%
D25*
%TO.C,R100*%
X40000000Y-122075000D03*
X40000000Y-120425000D03*
%TD*%
D16*
%TO.C,C18*%
X67920000Y-46960000D03*
X69470000Y-46960000D03*
%TD*%
D22*
%TO.C,C81*%
X45375000Y-112070000D03*
X43825000Y-112070000D03*
%TD*%
D11*
%TO.C,R4*%
X117170000Y-24490000D03*
X118820000Y-24490000D03*
%TD*%
%TO.C,R32*%
X241550000Y-46050000D03*
X243200000Y-46050000D03*
%TD*%
D22*
%TO.C,C72*%
X43950000Y-98440000D03*
X42400000Y-98440000D03*
%TD*%
%TO.C,C68*%
X193685000Y-91280000D03*
X192135000Y-91280000D03*
%TD*%
D11*
%TO.C,R59*%
X236030000Y-69260000D03*
X237680000Y-69260000D03*
%TD*%
D25*
%TO.C,R39*%
X50320000Y-51970000D03*
X50320000Y-50320000D03*
%TD*%
D22*
%TO.C,C75*%
X194370000Y-103400000D03*
X192820000Y-103400000D03*
%TD*%
D51*
%TO.C,Y3*%
X36360000Y-80650000D03*
X38560000Y-80650000D03*
X38560000Y-78950000D03*
X36360000Y-78950000D03*
%TD*%
D47*
%TO.C,L2*%
X15630000Y-53035000D03*
X15630000Y-50885000D03*
%TD*%
D51*
%TO.C,Y1*%
X96600000Y-49970000D03*
X98800000Y-49970000D03*
X98800000Y-48270000D03*
X96600000Y-48270000D03*
%TD*%
D25*
%TO.C,R57*%
X65130000Y-67315000D03*
X65130000Y-65665000D03*
%TD*%
D64*
%TO.C,Q2*%
X115975000Y-49410000D03*
X115975000Y-47510000D03*
X114100000Y-48460000D03*
%TD*%
D61*
%TO.C,U1*%
X41450000Y-24940000D03*
X41450000Y-25440000D03*
X41450000Y-25940000D03*
X41450000Y-26440000D03*
X41450000Y-26940000D03*
X42220000Y-26940000D03*
X42220000Y-26440000D03*
X42220000Y-25940000D03*
X42220000Y-25440000D03*
X42220000Y-24940000D03*
%TD*%
D24*
%TO.C,C8*%
X116710000Y-38350000D03*
X116710000Y-36800000D03*
%TD*%
D14*
%TO.C,R87*%
X30240000Y-95250000D03*
X30240000Y-96900000D03*
%TD*%
D23*
%TO.C,U40*%
X222710000Y-143300000D03*
X222710000Y-142800000D03*
X222710000Y-142300000D03*
X222710000Y-141800000D03*
X222710000Y-141300000D03*
X221940000Y-141300000D03*
X221940000Y-141800000D03*
X221940000Y-142300000D03*
X221940000Y-142800000D03*
X221940000Y-143300000D03*
%TD*%
D51*
%TO.C,Y8*%
X205990000Y-134080000D03*
X208190000Y-134080000D03*
X208190000Y-132380000D03*
X205990000Y-132380000D03*
%TD*%
D11*
%TO.C,R90*%
X128575000Y-102550000D03*
X130225000Y-102550000D03*
%TD*%
D22*
%TO.C,C51*%
X87590000Y-71520000D03*
X86040000Y-71520000D03*
%TD*%
D65*
%TO.C,U24*%
X111990000Y-74950000D03*
D66*
X111940000Y-75349800D03*
D67*
X112139900Y-75950000D03*
X112539900Y-75950000D03*
X112940000Y-75950000D03*
D66*
X113139800Y-75349800D03*
X113139800Y-74950000D03*
D67*
X112940000Y-74349800D03*
X112539900Y-74349800D03*
X112139900Y-74349800D03*
%TD*%
D25*
%TO.C,R75*%
X67490000Y-81545000D03*
X67490000Y-79895000D03*
%TD*%
D62*
%TO.C,U32*%
X38280000Y-102249566D03*
X39030000Y-102249566D03*
X39780000Y-102249566D03*
X40530000Y-102249566D03*
X41280000Y-102249566D03*
X42030000Y-102249566D03*
X38280000Y-102999628D03*
X39030000Y-102999628D03*
X39780000Y-102999628D03*
X40530000Y-102999628D03*
X41280000Y-102999628D03*
X42030000Y-102999628D03*
X38280000Y-103749690D03*
X39030000Y-103749690D03*
X39780000Y-103749690D03*
X40530000Y-103749690D03*
X41280000Y-103749690D03*
X42030000Y-103749690D03*
X38280000Y-104499752D03*
X39030000Y-104499752D03*
X39780000Y-104499752D03*
X40530000Y-104499752D03*
X41280000Y-104499752D03*
X42030000Y-104499752D03*
X38280000Y-105249814D03*
X39030000Y-105249814D03*
X39780000Y-105249814D03*
X40530000Y-105249814D03*
X41280000Y-105249814D03*
X42030000Y-105249814D03*
X38280000Y-105999876D03*
X39030000Y-105999876D03*
X39780000Y-105999876D03*
X40530000Y-105999876D03*
X41280000Y-105999876D03*
X42030000Y-105999876D03*
X38280000Y-106749938D03*
X39030000Y-106749938D03*
X39780000Y-106749938D03*
X40530000Y-106749938D03*
X41280000Y-106749938D03*
X42030000Y-106749938D03*
X38280000Y-107500000D03*
X39030000Y-107500000D03*
X39780000Y-107500000D03*
X40530000Y-107500000D03*
X41280000Y-107500000D03*
X42030000Y-107500000D03*
%TD*%
D17*
%TO.C,R46*%
X118990000Y-56530000D03*
X117340000Y-56530000D03*
%TD*%
%TO.C,R66*%
X28450000Y-75250000D03*
X26800000Y-75250000D03*
%TD*%
D27*
%TO.C,RN8*%
X31580000Y-71042700D03*
D28*
X32380000Y-71042700D03*
X33180000Y-71042700D03*
D27*
X33980000Y-71042700D03*
X33980000Y-69242700D03*
D28*
X33180000Y-69242700D03*
X32380000Y-69242700D03*
D27*
X31580000Y-69242700D03*
%TD*%
D15*
%TO.C,C26*%
X90670000Y-49195000D03*
X90670000Y-50745000D03*
%TD*%
D14*
%TO.C,R52*%
X112600000Y-62240000D03*
X112600000Y-63890000D03*
%TD*%
D15*
%TO.C,C92*%
X167100000Y-124250000D03*
X167100000Y-125800000D03*
%TD*%
D24*
%TO.C,C63*%
X73960000Y-85990000D03*
X73960000Y-84440000D03*
%TD*%
D15*
%TO.C,C19*%
X104470000Y-46300000D03*
X104470000Y-47850000D03*
%TD*%
D24*
%TO.C,C1*%
X108630000Y-24925000D03*
X108630000Y-23375000D03*
%TD*%
D11*
%TO.C,R10*%
X107065000Y-27990000D03*
X108715000Y-27990000D03*
%TD*%
D14*
%TO.C,R53*%
X46460000Y-65270000D03*
X46460000Y-66920000D03*
%TD*%
D25*
%TO.C,R109*%
X204260000Y-130500000D03*
X204260000Y-128850000D03*
%TD*%
D37*
%TO.C,RN6*%
X242050000Y-57200000D03*
D38*
X242050000Y-56400000D03*
X242050000Y-55600000D03*
D37*
X242050000Y-54800000D03*
X240250000Y-54800000D03*
D38*
X240250000Y-55600000D03*
X240250000Y-56400000D03*
D37*
X240250000Y-57200000D03*
%TD*%
D14*
%TO.C,R64*%
X69690000Y-74300000D03*
X69690000Y-75950000D03*
%TD*%
D11*
%TO.C,R61*%
X14275000Y-73220000D03*
X15925000Y-73220000D03*
%TD*%
D24*
%TO.C,C47*%
X234465000Y-67310000D03*
X234465000Y-65760000D03*
%TD*%
D22*
%TO.C,C24*%
X119560000Y-49260000D03*
X118010000Y-49260000D03*
%TD*%
D14*
%TO.C,R40*%
X117380000Y-51185000D03*
X117380000Y-52835000D03*
%TD*%
D12*
%TO.C,U27*%
X196230000Y-84600002D03*
X196230000Y-85000001D03*
X196230000Y-85400003D03*
X196230000Y-85800002D03*
X196230000Y-86200001D03*
X196230000Y-86600000D03*
X196230000Y-87000002D03*
X196230000Y-87400001D03*
X196230000Y-87800000D03*
X196230000Y-88200002D03*
X196230000Y-88600001D03*
X196230000Y-89000000D03*
X196230000Y-89400002D03*
X196230000Y-89800001D03*
X196230000Y-90200001D03*
X196230000Y-90600000D03*
X196230000Y-91000002D03*
X196230000Y-91400001D03*
X196230000Y-91800000D03*
X196230000Y-92200002D03*
X196230000Y-92600001D03*
X196230000Y-93000000D03*
X196230000Y-93400002D03*
X196230000Y-93800001D03*
X196230000Y-94200000D03*
X196230000Y-94599999D03*
X196230000Y-95000001D03*
X196230000Y-95400000D03*
X201868800Y-95400000D03*
X201868800Y-95000001D03*
X201868800Y-94599999D03*
X201868800Y-94200000D03*
X201868800Y-93800001D03*
X201868800Y-93400002D03*
X201868800Y-93000000D03*
X201868800Y-92600001D03*
X201868800Y-92200002D03*
X201868800Y-91800000D03*
X201868800Y-91400001D03*
X201868800Y-91000002D03*
X201868800Y-90600000D03*
X201868800Y-90200001D03*
X201868800Y-89800001D03*
X201868800Y-89400002D03*
X201868800Y-89000000D03*
X201868800Y-88600001D03*
X201868800Y-88200002D03*
X201868800Y-87800000D03*
X201868800Y-87400001D03*
X201868800Y-87000002D03*
X201868800Y-86600003D03*
X201868800Y-86200001D03*
X201868800Y-85800002D03*
X201868800Y-85400003D03*
X201868800Y-85000001D03*
X201868800Y-84600002D03*
%TD*%
D16*
%TO.C,C60*%
X47090000Y-83880000D03*
X48640000Y-83880000D03*
%TD*%
%TO.C,C77*%
X73875000Y-106310000D03*
X75425000Y-106310000D03*
%TD*%
D14*
%TO.C,R9*%
X110750000Y-26640000D03*
X110750000Y-28290000D03*
%TD*%
D24*
%TO.C,C53*%
X68700000Y-72530000D03*
X68700000Y-70980000D03*
%TD*%
D25*
%TO.C,R74*%
X66000000Y-81545000D03*
X66000000Y-79895000D03*
%TD*%
D34*
%TO.C,U14*%
X17394900Y-43840000D03*
X17394900Y-44339800D03*
X17394900Y-44840000D03*
D35*
X18470000Y-44840000D03*
D34*
X18645000Y-44339800D03*
D35*
X18470000Y-43840000D03*
D36*
X18520100Y-43164800D03*
X18019900Y-43164800D03*
X17520100Y-43164800D03*
%TD*%
D68*
%TO.C,Q1*%
X208590000Y-37300000D03*
D69*
X208502500Y-35800000D03*
D68*
X208590000Y-34300000D03*
%TD*%
D24*
%TO.C,C40*%
X71830000Y-59640000D03*
X71830000Y-58090000D03*
%TD*%
D12*
%TO.C,U29*%
X91890000Y-89350002D03*
X91890000Y-89750001D03*
X91890000Y-90150003D03*
X91890000Y-90550002D03*
X91890000Y-90950001D03*
X91890000Y-91350000D03*
X91890000Y-91750002D03*
X91890000Y-92150001D03*
X91890000Y-92550000D03*
X91890000Y-92950002D03*
X91890000Y-93350001D03*
X91890000Y-93750000D03*
X91890000Y-94150002D03*
X91890000Y-94550001D03*
X91890000Y-94950001D03*
X91890000Y-95350000D03*
X91890000Y-95750002D03*
X91890000Y-96150001D03*
X91890000Y-96550000D03*
X91890000Y-96950002D03*
X91890000Y-97350001D03*
X91890000Y-97750000D03*
X91890000Y-98150002D03*
X91890000Y-98550001D03*
X91890000Y-98950000D03*
X91890000Y-99349999D03*
X91890000Y-99750001D03*
X91890000Y-100150000D03*
X97528800Y-100150000D03*
X97528800Y-99750001D03*
X97528800Y-99349999D03*
X97528800Y-98950000D03*
X97528800Y-98550001D03*
X97528800Y-98150002D03*
X97528800Y-97750000D03*
X97528800Y-97350001D03*
X97528800Y-96950002D03*
X97528800Y-96550000D03*
X97528800Y-96150001D03*
X97528800Y-95750002D03*
X97528800Y-95350000D03*
X97528800Y-94950001D03*
X97528800Y-94550001D03*
X97528800Y-94150002D03*
X97528800Y-93750000D03*
X97528800Y-93350001D03*
X97528800Y-92950002D03*
X97528800Y-92550000D03*
X97528800Y-92150001D03*
X97528800Y-91750002D03*
X97528800Y-91350003D03*
X97528800Y-90950001D03*
X97528800Y-90550002D03*
X97528800Y-90150003D03*
X97528800Y-89750001D03*
X97528800Y-89350002D03*
%TD*%
D16*
%TO.C,C28*%
X100605000Y-50150000D03*
X102155000Y-50150000D03*
%TD*%
D49*
%TO.C,C34*%
X17780000Y-53460000D03*
X19680000Y-53460000D03*
%TD*%
D58*
%TO.C,C14*%
X20310000Y-42480000D03*
X20310000Y-44380000D03*
%TD*%
D16*
%TO.C,C29*%
X92540000Y-50440000D03*
X94090000Y-50440000D03*
%TD*%
D25*
%TO.C,R41*%
X88955000Y-53190000D03*
X88955000Y-51540000D03*
%TD*%
D11*
%TO.C,R21*%
X98860000Y-33470000D03*
X100510000Y-33470000D03*
%TD*%
D61*
%TO.C,U11*%
X64930000Y-34130000D03*
X64930000Y-34630000D03*
X64930000Y-35130000D03*
X64930000Y-35630000D03*
X64930000Y-36130000D03*
X65700000Y-36130000D03*
X65700000Y-35630000D03*
X65700000Y-35130000D03*
X65700000Y-34630000D03*
X65700000Y-34130000D03*
%TD*%
D70*
%TO.C,J4*%
X34559100Y-21180000D03*
X35059500Y-21180000D03*
X35559900Y-21180000D03*
X36060300Y-21180000D03*
X36560600Y-21180000D03*
X37061000Y-21180000D03*
X37558900Y-21180000D03*
X38059200Y-21180000D03*
X38559600Y-21180000D03*
X39060000Y-21180000D03*
X39560400Y-21180000D03*
X40060800Y-21180000D03*
X40558600Y-21180000D03*
X41059000Y-21180000D03*
X41559400Y-21180000D03*
X42059700Y-21180000D03*
X42560100Y-21180000D03*
X43060500Y-21180000D03*
X43560900Y-21180000D03*
%TD*%
D14*
%TO.C,R65*%
X71260000Y-74350000D03*
X71260000Y-76000000D03*
%TD*%
D11*
%TO.C,R101*%
X200370000Y-121320000D03*
X202020000Y-121320000D03*
%TD*%
D14*
%TO.C,F6*%
X151880000Y-36330000D03*
X151880000Y-37980000D03*
%TD*%
D15*
%TO.C,C55*%
X96480000Y-75535000D03*
X96480000Y-77085000D03*
%TD*%
D21*
%TO.C,FB4*%
X72540000Y-70210000D03*
X72540000Y-72335000D03*
%TD*%
D24*
%TO.C,C102*%
X205760000Y-137320000D03*
X205760000Y-135770000D03*
%TD*%
D37*
%TO.C,RN11*%
X241565000Y-87860000D03*
D38*
X241565000Y-87060000D03*
X241565000Y-86260000D03*
D37*
X241565000Y-85460000D03*
X239765000Y-85460000D03*
D38*
X239765000Y-86260000D03*
X239765000Y-87060000D03*
D37*
X239765000Y-87860000D03*
%TD*%
D11*
%TO.C,R24*%
X129750000Y-37170000D03*
X131400000Y-37170000D03*
%TD*%
D17*
%TO.C,R60*%
X28550000Y-72020000D03*
X26900000Y-72020000D03*
%TD*%
D11*
%TO.C,R42*%
X237050000Y-53050000D03*
X238700000Y-53050000D03*
%TD*%
D17*
%TO.C,R45*%
X16145000Y-55140000D03*
X14495000Y-55140000D03*
%TD*%
D11*
%TO.C,R70*%
X62350000Y-76930000D03*
X64000000Y-76930000D03*
%TD*%
D71*
%TO.C,U34*%
X150759800Y-125330000D03*
X150759800Y-124060000D03*
X150759800Y-122790000D03*
X150759800Y-121520000D03*
X150759800Y-120250000D03*
X150759800Y-118980000D03*
X150759800Y-117710000D03*
X150759800Y-116440000D03*
X150759800Y-115170000D03*
X150759800Y-113900000D03*
X150759800Y-112630000D03*
X150759800Y-111360000D03*
X150759800Y-110090000D03*
X150759800Y-108820000D03*
X150759800Y-107550000D03*
X150759800Y-106280000D03*
X150759800Y-105010000D03*
X150759800Y-103740000D03*
X150759800Y-102470000D03*
X132760000Y-102470000D03*
X132760000Y-103740000D03*
X132760000Y-105010000D03*
X132760000Y-106280000D03*
X132760000Y-107550000D03*
X132760000Y-108820000D03*
X132760000Y-110090000D03*
X132760000Y-111360000D03*
X132760000Y-112630000D03*
X132760000Y-113900000D03*
X132760000Y-115170000D03*
X132760000Y-116440000D03*
X132760000Y-117710000D03*
X132760000Y-118980000D03*
X132760000Y-120250000D03*
X132760000Y-121520000D03*
X132760000Y-122790000D03*
X132760000Y-124060000D03*
X132760000Y-125330000D03*
D72*
X144654900Y-118915000D03*
X144654900Y-117520000D03*
X144654900Y-116125300D03*
X143259900Y-118915000D03*
X143259600Y-117520300D03*
X143259600Y-116125300D03*
X141864900Y-118915000D03*
X141864900Y-117520000D03*
X141864900Y-116125300D03*
%TD*%
D24*
%TO.C,C25*%
X76020000Y-50600000D03*
X76020000Y-49050000D03*
%TD*%
D17*
%TO.C,R34*%
X16310000Y-48110000D03*
X14660000Y-48110000D03*
%TD*%
D15*
%TO.C,C46*%
X113210000Y-65470000D03*
X113210000Y-67020000D03*
%TD*%
D24*
%TO.C,C11*%
X236500000Y-40160000D03*
X236500000Y-38610000D03*
%TD*%
D11*
%TO.C,R96*%
X161959999Y-112740000D03*
X163609999Y-112740000D03*
%TD*%
%TO.C,R26*%
X238200000Y-40050000D03*
X239850000Y-40050000D03*
%TD*%
D58*
%TO.C,C37*%
X21450000Y-55900000D03*
X21450000Y-57800000D03*
%TD*%
D11*
%TO.C,R50*%
X85280000Y-59950000D03*
X86930000Y-59950000D03*
%TD*%
D25*
%TO.C,R55*%
X63590000Y-67300000D03*
X63590000Y-65650000D03*
%TD*%
D34*
%TO.C,U15*%
X17749900Y-51120200D03*
X17749900Y-51620000D03*
X17749900Y-52120200D03*
D35*
X18825000Y-52120200D03*
D34*
X19000000Y-51620000D03*
D35*
X18825000Y-51120200D03*
D36*
X18875100Y-50445000D03*
X18374900Y-50445000D03*
X17875100Y-50445000D03*
%TD*%
D17*
%TO.C,R88*%
X168690000Y-98530000D03*
X167040000Y-98530000D03*
%TD*%
D22*
%TO.C,C64*%
X48620000Y-85420000D03*
X47070000Y-85420000D03*
%TD*%
D37*
%TO.C,RN9*%
X241200000Y-71450000D03*
D38*
X241200000Y-70650000D03*
X241200000Y-69850000D03*
D37*
X241200000Y-69050000D03*
X239400000Y-69050000D03*
D38*
X239400000Y-69850000D03*
X239400000Y-70650000D03*
D37*
X239400000Y-71450000D03*
%TD*%
%TO.C,RN13*%
X227700000Y-143810000D03*
D38*
X227700000Y-144610000D03*
X227700000Y-145410000D03*
D37*
X227700000Y-146210000D03*
X229500000Y-146210000D03*
D38*
X229500000Y-145410000D03*
X229500000Y-144610000D03*
D37*
X229500000Y-143810000D03*
%TD*%
D11*
%TO.C,R72*%
X47900000Y-77940000D03*
X49550000Y-77940000D03*
%TD*%
D49*
%TO.C,C41*%
X18190000Y-59580000D03*
X20090000Y-59580000D03*
%TD*%
D11*
%TO.C,R58*%
X235965000Y-67260000D03*
X237615000Y-67260000D03*
%TD*%
D17*
%TO.C,R3*%
X48090000Y-23970000D03*
X46440000Y-23970000D03*
%TD*%
D61*
%TO.C,U36*%
X213840000Y-117580000D03*
X213840000Y-118080000D03*
X213840000Y-118580000D03*
X213840000Y-119080000D03*
X213840000Y-119580000D03*
X214610000Y-119580000D03*
X214610000Y-119080000D03*
X214610000Y-118580000D03*
X214610000Y-118080000D03*
X214610000Y-117580000D03*
%TD*%
D14*
%TO.C,R18*%
X25080000Y-29030000D03*
X25080000Y-30680000D03*
%TD*%
D11*
%TO.C,R27*%
X99715000Y-40800000D03*
X101365000Y-40800000D03*
%TD*%
D17*
%TO.C,R30*%
X206330000Y-41360000D03*
X204680000Y-41360000D03*
%TD*%
D24*
%TO.C,C89*%
X209290000Y-119990000D03*
X209290000Y-118440000D03*
%TD*%
D17*
%TO.C,R71*%
X67590000Y-76950000D03*
X65940000Y-76950000D03*
%TD*%
D73*
%TO.C,U35*%
X67850000Y-112360000D03*
X67050000Y-112360000D03*
X66250000Y-112360000D03*
X65450000Y-112360000D03*
X64650000Y-112360000D03*
X63850000Y-112360000D03*
X63050000Y-112360000D03*
X62250000Y-112360000D03*
X61450000Y-112360000D03*
X60650000Y-112360000D03*
X59850000Y-112360000D03*
X59050000Y-112360000D03*
X58250000Y-112360000D03*
X57450000Y-112360000D03*
X56650000Y-112360000D03*
X55850000Y-112360000D03*
X55050000Y-112360000D03*
X54250000Y-112360000D03*
X53450000Y-112360000D03*
X52650000Y-112360000D03*
X51850000Y-112360000D03*
X51050000Y-112360000D03*
X50250000Y-112360000D03*
X49450000Y-112360000D03*
X48650000Y-112360000D03*
X47850000Y-112360000D03*
X47050000Y-112360000D03*
X47050000Y-123860000D03*
X47850000Y-123860000D03*
X48650000Y-123860000D03*
X49450000Y-123860000D03*
X50250000Y-123860000D03*
X51050000Y-123860000D03*
X51850000Y-123860000D03*
X52650000Y-123860000D03*
X53450000Y-123860000D03*
X54250000Y-123860000D03*
X55050000Y-123860000D03*
X55850000Y-123860000D03*
X56650000Y-123860000D03*
X57450000Y-123860000D03*
X58250000Y-123860000D03*
X59050000Y-123860000D03*
X59850000Y-123860000D03*
X60650000Y-123860000D03*
X61450000Y-123860000D03*
X62250000Y-123860000D03*
X63050000Y-123860000D03*
X63850000Y-123860000D03*
X64650000Y-123860000D03*
X65450000Y-123860000D03*
X66250000Y-123860000D03*
X67050000Y-123860000D03*
X67850000Y-123860000D03*
%TD*%
D25*
%TO.C,R76*%
X64490000Y-81555000D03*
X64490000Y-79905000D03*
%TD*%
D16*
%TO.C,C42*%
X82255000Y-59950000D03*
X83805000Y-59950000D03*
%TD*%
D23*
%TO.C,U3*%
X31020000Y-27190000D03*
X31020000Y-26690000D03*
X31020000Y-26190000D03*
X31020000Y-25690000D03*
X31020000Y-25190000D03*
X30250000Y-25190000D03*
X30250000Y-25690000D03*
X30250000Y-26190000D03*
X30250000Y-26690000D03*
X30250000Y-27190000D03*
%TD*%
D37*
%TO.C,RN10*%
X116520000Y-75080000D03*
D38*
X116520000Y-74280000D03*
X116520000Y-73480000D03*
D37*
X116520000Y-72680000D03*
X114720000Y-72680000D03*
D38*
X114720000Y-73480000D03*
X114720000Y-74280000D03*
D37*
X114720000Y-75080000D03*
%TD*%
D11*
%TO.C,R102*%
X200360000Y-122900000D03*
X202010000Y-122900000D03*
%TD*%
D14*
%TO.C,R12*%
X140240000Y-27780000D03*
X140240000Y-29430000D03*
%TD*%
D53*
%TO.C,Y7*%
X35815000Y-123505000D03*
X35815000Y-124005000D03*
X35815000Y-124505000D03*
X35815000Y-125005000D03*
X35815000Y-125505000D03*
X40040000Y-125505000D03*
X40040000Y-125005000D03*
X40040000Y-124505000D03*
X40040000Y-124005000D03*
X40040000Y-123505000D03*
%TD*%
M02*
