%TF.GenerationSoftware,KiCad,Pcbnew,9.0.6*%
%TF.CreationDate,2026-02-03T20:42:27+01:00*%
%TF.ProjectId,tonnere_prototype_prod_0.51,746f6e6e-6572-4655-9f70-726f746f7479,rev?*%
%TF.SameCoordinates,Original*%
%TF.FileFunction,Copper,L4,Inr*%
%TF.FilePolarity,Positive*%
%FSLAX46Y46*%
G04 Gerber Fmt 4.6, Leading zero omitted, Abs format (unit mm)*
G04 Created by KiCad (PCBNEW 9.0.6) date 2026-02-03 20:42:27*
%MOMM*%
%LPD*%
G01*
G04 APERTURE LIST*
G04 Aperture macros list*
%AMRoundRect*
0 Rectangle with rounded corners*
0 $1 Rounding radius*
0 $2 $3 $4 $5 $6 $7 $8 $9 X,Y pos of 4 corners*
0 Add a 4 corners polygon primitive as box body*
4,1,4,$2,$3,$4,$5,$6,$7,$8,$9,$2,$3,0*
0 Add four circle primitives for the rounded corners*
1,1,$1+$1,$2,$3*
1,1,$1+$1,$4,$5*
1,1,$1+$1,$6,$7*
1,1,$1+$1,$8,$9*
0 Add four rect primitives between the rounded corners*
20,1,$1+$1,$2,$3,$4,$5,0*
20,1,$1+$1,$4,$5,$6,$7,0*
20,1,$1+$1,$6,$7,$8,$9,0*
20,1,$1+$1,$8,$9,$2,$3,0*%
G04 Aperture macros list end*
%TA.AperFunction,ComponentPad*%
%ADD10C,4.900000*%
%TD*%
%TA.AperFunction,ComponentPad*%
%ADD11O,1.700000X1.700000*%
%TD*%
%TA.AperFunction,ComponentPad*%
%ADD12O,2.000000X2.000000*%
%TD*%
%TA.AperFunction,ComponentPad*%
%ADD13RoundRect,0.250000X0.600000X0.600000X-0.600000X0.600000X-0.600000X-0.600000X0.600000X-0.600000X0*%
%TD*%
%TA.AperFunction,ComponentPad*%
%ADD14C,1.700000*%
%TD*%
%TA.AperFunction,ComponentPad*%
%ADD15O,1.000000X2.000000*%
%TD*%
%TA.AperFunction,ComponentPad*%
%ADD16O,0.550000X0.550000*%
%TD*%
%TA.AperFunction,ComponentPad*%
%ADD17R,1.700000X1.700000*%
%TD*%
%TA.AperFunction,ComponentPad*%
%ADD18C,3.000000*%
%TD*%
%TA.AperFunction,WasherPad*%
%ADD19C,3.200000*%
%TD*%
%TA.AperFunction,ComponentPad*%
%ADD20C,1.508000*%
%TD*%
%TA.AperFunction,ComponentPad*%
%ADD21O,2.800000X1.800000*%
%TD*%
%TA.AperFunction,ComponentPad*%
%ADD22R,1.478000X1.478000*%
%TD*%
%TA.AperFunction,ComponentPad*%
%ADD23C,1.478000*%
%TD*%
%TA.AperFunction,ComponentPad*%
%ADD24C,2.100000*%
%TD*%
%TA.AperFunction,ComponentPad*%
%ADD25R,1.300000X1.300000*%
%TD*%
%TA.AperFunction,ComponentPad*%
%ADD26C,1.300000*%
%TD*%
%TA.AperFunction,ComponentPad*%
%ADD27O,2.900000X1.900000*%
%TD*%
%TA.AperFunction,ComponentPad*%
%ADD28O,1.900000X2.900000*%
%TD*%
%TA.AperFunction,ComponentPad*%
%ADD29C,1.408000*%
%TD*%
%TA.AperFunction,ComponentPad*%
%ADD30O,1.800000X1.800000*%
%TD*%
%TA.AperFunction,ComponentPad*%
%ADD31O,5.000000X5.000000*%
%TD*%
%TA.AperFunction,ComponentPad*%
%ADD32O,1.500000X2.700000*%
%TD*%
%TA.AperFunction,ComponentPad*%
%ADD33O,1.500000X3.300000*%
%TD*%
%TA.AperFunction,ViaPad*%
%ADD34C,0.500000*%
%TD*%
%TA.AperFunction,ViaPad*%
%ADD35C,0.610000*%
%TD*%
%TA.AperFunction,ViaPad*%
%ADD36C,0.450000*%
%TD*%
%TA.AperFunction,Conductor*%
%ADD37C,0.762000*%
%TD*%
%TA.AperFunction,Conductor*%
%ADD38C,0.304800*%
%TD*%
%TA.AperFunction,Conductor*%
%ADD39C,0.152400*%
%TD*%
%TA.AperFunction,Conductor*%
%ADD40C,0.101600*%
%TD*%
G04 APERTURE END LIST*
D10*
%TO.N,GND*%
%TO.C,H4*%
X217000000Y-37000000D03*
%TD*%
D11*
%TO.N,+5V*%
%TO.C,SW1*%
X17190000Y-20960000D03*
%TO.N,/Power/+5V_IN*%
X17190000Y-23500000D03*
%TO.N,GND*%
X17190000Y-26040000D03*
X17190000Y-15880000D03*
%TD*%
D12*
%TO.N,/Microcontroller/+3V_BAT*%
%TO.C,BT1*%
X85840000Y-29035000D03*
X75840000Y-29035000D03*
%TO.N,GND*%
X80840000Y-32685000D03*
%TD*%
D13*
%TO.N,/FPGA/TCK*%
%TO.C,J21*%
X25350000Y-102240000D03*
D14*
%TO.N,GND*%
X22810000Y-102240000D03*
%TO.N,/FPGA/TDO*%
X25350000Y-99700000D03*
%TO.N,+3V3*%
X22810000Y-99700000D03*
%TO.N,/FPGA/TMS*%
X25350000Y-97160000D03*
%TO.N,unconnected-(J21-Pin_6-Pad6)*%
X22810000Y-97160000D03*
%TO.N,unconnected-(J21-Pin_7-Pad7)*%
X25350000Y-94620000D03*
%TO.N,unconnected-(J21-Pin_8-Pad8)*%
X22810000Y-94620000D03*
%TO.N,/FPGA/TDI*%
X25350000Y-92080000D03*
%TO.N,GND*%
X22810000Y-92080000D03*
%TD*%
D15*
%TO.N,GND*%
%TO.C,USB2*%
X110800000Y-17900000D03*
X110800000Y-24000000D03*
X113660000Y-24000000D03*
X113660000Y-17900000D03*
D16*
X112604900Y-17950000D03*
%TO.N,/Microcontroller/+V5_VBUS_FOR_DETECT*%
X112604900Y-18850200D03*
%TO.N,Net-(USB2-CC1)*%
X112604900Y-19750100D03*
%TO.N,Net-(U24-HSD2+)*%
X112604900Y-20650000D03*
%TO.N,Net-(U24-HSD2-)*%
X112604900Y-21550200D03*
%TO.N,/Microcontroller/+V5_VBUS_FOR_DETECT*%
X112604900Y-22900200D03*
%TO.N,GND*%
X112604900Y-23800100D03*
X111855100Y-23800100D03*
%TO.N,/Microcontroller/+V5_VBUS_FOR_DETECT*%
X111855100Y-22900200D03*
%TO.N,Net-(USB2-CC2)*%
X111855100Y-22000000D03*
%TO.N,Net-(U24-HSD2+)*%
X111855100Y-21100100D03*
%TO.N,Net-(U24-HSD2-)*%
X111855100Y-20200200D03*
%TO.N,/Microcontroller/+V5_VBUS_FOR_DETECT*%
X111855100Y-18850200D03*
%TO.N,GND*%
X111855100Y-17950000D03*
%TD*%
D17*
%TO.N,GND*%
%TO.C,J12*%
X77515000Y-55370000D03*
D14*
%TO.N,/Microcontroller/USART1.TX*%
X77515000Y-57910000D03*
%TO.N,/Microcontroller/USART1.RX*%
X77515000Y-60450000D03*
%TO.N,/Microcontroller/USART1.RTS*%
X77515000Y-62990000D03*
%TO.N,/Microcontroller/USART1.CTS*%
X77515000Y-65530000D03*
%TO.N,/Microcontroller/USART1.CK*%
X77515000Y-68070000D03*
%TD*%
D18*
%TO.N,+5V*%
%TO.C,TP1*%
X43760000Y-38330000D03*
%TD*%
D19*
%TO.N,*%
%TO.C,J15*%
X247840000Y-88930000D03*
X255740000Y-88930000D03*
X247850000Y-63930000D03*
X255750000Y-63930000D03*
D20*
%TO.N,/AtariInterfaces/JOY_EXT.DIR12*%
X253220000Y-81975000D03*
%TO.N,/AtariInterfaces/JOY_EXT.DIR13*%
X253220000Y-79205000D03*
%TO.N,/AtariInterfaces/JOY_EXT.DIR14*%
X253220000Y-76435000D03*
%TO.N,/AtariInterfaces/JOY_EXT.DIR15*%
X253220000Y-73665000D03*
%TO.N,Net-(J15A-POTB)*%
X253220000Y-70895000D03*
%TO.N,/AtariInterfaces/JOY_EXT.TRIG3*%
X256060000Y-80590000D03*
%TO.N,/AtariInterfaces/+5V_JOY*%
X256060000Y-77820000D03*
%TO.N,GND*%
X256060000Y-75050000D03*
%TO.N,Net-(J15A-POTA)*%
X256060000Y-72280000D03*
%TO.N,/AtariInterfaces/JOY_EXT.DIR8*%
X246420000Y-81970000D03*
%TO.N,/AtariInterfaces/JOY_EXT.DIR9*%
X246420000Y-79200000D03*
%TO.N,/AtariInterfaces/JOY_EXT.DIR10*%
X246420000Y-76430000D03*
%TO.N,/AtariInterfaces/JOY_EXT.DIR11*%
X246420000Y-73660000D03*
%TO.N,Net-(J15B-POTB)*%
X246420000Y-70890000D03*
%TO.N,/AtariInterfaces/JOY_EXT.TRIG2*%
X249260000Y-80585000D03*
%TO.N,/AtariInterfaces/+5V_JOY*%
X249260000Y-77815000D03*
%TO.N,GND*%
X249260000Y-75045000D03*
%TO.N,Net-(J15B-POTA)*%
X249260000Y-72275000D03*
%TD*%
D17*
%TO.N,/AtariInterfaces/PBI_EXT.HALT*%
%TO.C,J8*%
X141980000Y-36542500D03*
D14*
%TO.N,/AtariInterfaces/PBI33*%
X141980000Y-34002500D03*
%TO.N,/AtariInterfaces/PBI_EXT.D1XX*%
X139440000Y-36542500D03*
%TO.N,/AtariInterfaces/PBI37*%
X139440000Y-34002500D03*
%TO.N,/AtariInterfaces/PBI_EXT.RD5*%
X136900000Y-36542500D03*
%TO.N,/AtariInterfaces/PBI39*%
X136900000Y-34002500D03*
%TO.N,/AtariInterfaces/+5V_PCB_RAW*%
X134360000Y-36542500D03*
%TO.N,/AtariInterfaces/+5V_PBI_PIN*%
X134360000Y-34002500D03*
%TD*%
D17*
%TO.N,+3V3*%
%TO.C,J9*%
X115360000Y-43580000D03*
D14*
%TO.N,Net-(J9-Pin_2)*%
X112820000Y-43580000D03*
%TO.N,Net-(J9-Pin_3)*%
X110280000Y-43580000D03*
%TO.N,GND*%
X107740000Y-43580000D03*
%TO.N,/Microcontroller/NRST*%
X105200000Y-43580000D03*
%TD*%
D18*
%TO.N,+2V5*%
%TO.C,TP3*%
X31000000Y-46800000D03*
%TD*%
D21*
%TO.N,Net-(C3-Pad2)*%
%TO.C,J1*%
X94330000Y-20050000D03*
%TO.N,unconnected-(J1-PadRN)*%
X92330000Y-18250000D03*
%TO.N,GNDA*%
X92330000Y-12150000D03*
%TO.N,Net-(C2-Pad2)*%
X94330000Y-14550000D03*
%TO.N,unconnected-(J1-PadTN)*%
X92330000Y-23750000D03*
%TD*%
D17*
%TO.N,GND*%
%TO.C,J18*%
X145840000Y-96000000D03*
D14*
%TO.N,/ESP32/UART1.TX*%
X143300000Y-96000000D03*
%TO.N,/ESP32/UART1.RX*%
X140760000Y-96000000D03*
%TO.N,/ESP32/ESP.BOOT*%
X138220000Y-96000000D03*
%TO.N,/ESP32/ESP.EN*%
X135680000Y-96000000D03*
%TD*%
D10*
%TO.N,GND*%
%TO.C,H3*%
X107000000Y-37000000D03*
%TD*%
D22*
%TO.N,/USB/+5V_USB1*%
%TO.C,J24*%
X251115000Y-105937500D03*
D23*
%TO.N,Net-(J24-D-)*%
X249115000Y-105937500D03*
%TO.N,Net-(J24-D+)*%
X247115000Y-105937500D03*
%TO.N,GND*%
X245115000Y-105937500D03*
D24*
X251845000Y-103217500D03*
X251845000Y-108657500D03*
X244845000Y-108657500D03*
X244845000Y-103217500D03*
%TD*%
D17*
%TO.N,Net-(JP1-A)*%
%TO.C,JP1*%
X120140000Y-59750000D03*
D14*
%TO.N,Net-(JP1-C)*%
X117600000Y-59750000D03*
%TO.N,Net-(JP1-B)*%
X115060000Y-59750000D03*
%TD*%
D17*
%TO.N,+3V3*%
%TO.C,J17*%
X102480000Y-86930000D03*
D14*
%TO.N,GND*%
X99940000Y-86930000D03*
%TO.N,Net-(J17-Pin_3)*%
X97400000Y-86930000D03*
%TO.N,Net-(J17-Pin_4)*%
X94860000Y-86930000D03*
%TO.N,Net-(J17-Pin_5)*%
X92320000Y-86930000D03*
%TO.N,Net-(J17-Pin_6)*%
X89780000Y-86930000D03*
%TO.N,Net-(J17-Pin_7)*%
X87240000Y-86930000D03*
%TD*%
D10*
%TO.N,GND*%
%TO.C,H5*%
X57000000Y-57000000D03*
%TD*%
D17*
%TO.N,+3V3*%
%TO.C,J14*%
X60980000Y-66140000D03*
D14*
%TO.N,GND*%
X58440000Y-66140000D03*
%TO.N,/FPGA/SPI.MISO*%
X60980000Y-68680000D03*
%TO.N,/FPGA/SPI.MOSI*%
X58440000Y-68680000D03*
%TO.N,/FPGA/SPI.SCK*%
X60980000Y-71220000D03*
%TO.N,/FPGA/SPI.CS2*%
X58440000Y-71220000D03*
%TD*%
D22*
%TO.N,/USB/+5V_USB1*%
%TO.C,J25*%
X251125000Y-114937500D03*
D23*
%TO.N,Net-(J25-D-)*%
X249125000Y-114937500D03*
%TO.N,Net-(J25-D+)*%
X247125000Y-114937500D03*
%TO.N,GND*%
X245125000Y-114937500D03*
D24*
X251855000Y-112217500D03*
X251855000Y-117657500D03*
X244855000Y-117657500D03*
X244855000Y-112217500D03*
%TD*%
D21*
%TO.N,Net-(C4-Pad2)*%
%TO.C,J2*%
X104580000Y-20050000D03*
%TO.N,unconnected-(J2-PadRN)*%
X102580000Y-18250000D03*
%TO.N,GNDA*%
X102580000Y-12150000D03*
%TO.N,Net-(C1-Pad2)*%
X104580000Y-14550000D03*
%TO.N,unconnected-(J2-PadTN)*%
X102580000Y-23750000D03*
%TD*%
D17*
%TO.N,+3V3*%
%TO.C,J26*%
X14930000Y-115890000D03*
D14*
%TO.N,GND*%
X17470000Y-115890000D03*
%TO.N,Net-(J26-Pin_3)*%
X14930000Y-118430000D03*
%TO.N,Net-(J26-Pin_4)*%
X17470000Y-118430000D03*
%TD*%
D10*
%TO.N,GND*%
%TO.C,H10*%
X217000000Y-137000000D03*
%TD*%
D18*
%TO.N,+1V2*%
%TO.C,TP2*%
X31000000Y-43040000D03*
%TD*%
D25*
%TO.N,/USB/+5V_USB2*%
%TO.C,J19*%
X229200000Y-96410000D03*
D26*
%TO.N,Net-(J19-D-)*%
X229200000Y-98910000D03*
%TO.N,Net-(J19-D+)*%
X229200000Y-100910000D03*
%TO.N,GND*%
X229200000Y-103410000D03*
D27*
X229800000Y-93340000D03*
D28*
X233980000Y-99910000D03*
D27*
X229800000Y-106480000D03*
%TD*%
D17*
%TO.N,/AtariInterfaces/PBI_EXT.RD4*%
%TO.C,J7*%
X136875000Y-31567500D03*
%TD*%
D10*
%TO.N,GND*%
%TO.C,H7*%
X107000000Y-122000000D03*
%TD*%
%TO.N,GND*%
%TO.C,H9*%
X107000000Y-137000000D03*
%TD*%
D22*
%TO.N,/USB/+5V_USB2*%
%TO.C,J20*%
X251065000Y-96937500D03*
D23*
%TO.N,Net-(J20-D-)*%
X249065000Y-96937500D03*
%TO.N,Net-(J20-D+)*%
X247065000Y-96937500D03*
%TO.N,GND*%
X245065000Y-96937500D03*
D24*
X251795000Y-94217500D03*
X251795000Y-99657500D03*
X244795000Y-99657500D03*
X244795000Y-94217500D03*
%TD*%
D29*
%TO.N,/AtariInterfaces/SIO_EXT.CLOCK_IN*%
%TO.C,J3*%
X248628000Y-26479500D03*
%TO.N,/AtariInterfaces/SIO_EXT.CLOCK_OUT*%
X246850000Y-23400000D03*
%TO.N,/AtariInterfaces/SIO_EXT.DATA_IN*%
X245072000Y-26479500D03*
%TO.N,GND*%
X243294000Y-23400000D03*
%TO.N,/AtariInterfaces/SIO_EXT.DATA_OUT*%
X241516000Y-26479500D03*
%TO.N,GND*%
X239738000Y-23400000D03*
%TO.N,/AtariInterfaces/SIO_EXT.COMMAND*%
X237960000Y-26479500D03*
%TO.N,/AtariInterfaces/SIO_MOTOR_POWER_PIN*%
X236182000Y-23400000D03*
%TO.N,/AtariInterfaces/SIO_EXT.PROCEED*%
X234404000Y-26479500D03*
%TO.N,/AtariInterfaces/+5V_SIO*%
X232626000Y-23400000D03*
%TO.N,/AtariInterfaces/SIO_EXT.AUD*%
X230848000Y-26479500D03*
%TO.N,unconnected-(J3-+12V-Pad12)*%
X229070000Y-23400000D03*
%TO.N,/AtariInterfaces/SIO_EXT.INTERRUPT*%
X227292000Y-26479500D03*
%TD*%
D17*
%TO.N,GND*%
%TO.C,J5*%
X193900000Y-22760000D03*
D14*
%TO.N,/AtariInterfaces/PBI_EXT.EXTSEL*%
X193900000Y-25300000D03*
%TO.N,/AtariInterfaces/PBI_EXT.A0*%
X191360000Y-22760000D03*
%TO.N,/AtariInterfaces/PBI_EXT.A1*%
X191360000Y-25300000D03*
%TO.N,/AtariInterfaces/PBI_EXT.A2*%
X188820000Y-22760000D03*
%TO.N,/AtariInterfaces/PBI_EXT.A3*%
X188820000Y-25300000D03*
%TO.N,/AtariInterfaces/PBI_EXT.A4*%
X186280000Y-22760000D03*
%TO.N,/AtariInterfaces/PBI_EXT.A5*%
X186280000Y-25300000D03*
%TO.N,/AtariInterfaces/PBI_EXT.A6*%
X183740000Y-22760000D03*
%TO.N,GND*%
X183740000Y-25300000D03*
%TO.N,/AtariInterfaces/PBI_EXT.A7*%
X181200000Y-22760000D03*
%TO.N,/AtariInterfaces/PBI_EXT.A8*%
X181200000Y-25300000D03*
%TO.N,/AtariInterfaces/PBI_EXT.A9*%
X178660000Y-22760000D03*
%TO.N,/AtariInterfaces/PBI_EXT.A10*%
X178660000Y-25300000D03*
%TO.N,/AtariInterfaces/PBI_EXT.A11*%
X176120000Y-22760000D03*
%TO.N,/AtariInterfaces/PBI_EXT.A12*%
X176120000Y-25300000D03*
%TO.N,/AtariInterfaces/PBI_EXT.A13*%
X173580000Y-22760000D03*
%TO.N,/AtariInterfaces/PBI_EXT.A14*%
X173580000Y-25300000D03*
%TO.N,GND*%
X171040000Y-22760000D03*
%TO.N,/AtariInterfaces/PBI_EXT.A15*%
X171040000Y-25300000D03*
%TO.N,/AtariInterfaces/PBI_EXT.D0*%
X168500000Y-22760000D03*
%TO.N,/AtariInterfaces/PBI_EXT.D1*%
X168500000Y-25300000D03*
%TO.N,/AtariInterfaces/PBI_EXT.D2*%
X165960000Y-22760000D03*
%TO.N,/AtariInterfaces/PBI_EXT.D3*%
X165960000Y-25300000D03*
%TO.N,/AtariInterfaces/PBI_EXT.D4*%
X163420000Y-22760000D03*
%TO.N,/AtariInterfaces/PBI_EXT.D5*%
X163420000Y-25300000D03*
%TO.N,/AtariInterfaces/PBI_EXT.D6*%
X160880000Y-22760000D03*
%TO.N,/AtariInterfaces/PBI_EXT.D7*%
X160880000Y-25300000D03*
%TO.N,GND*%
X158340000Y-22760000D03*
X158340000Y-25300000D03*
%TO.N,/AtariInterfaces/PBI_EXT.PHI2*%
X155800000Y-22760000D03*
%TO.N,GND*%
X155800000Y-25300000D03*
%TO.N,/AtariInterfaces/PBI33*%
X153260000Y-22760000D03*
%TO.N,/AtariInterfaces/PBI_EXT.RST*%
X153260000Y-25300000D03*
%TO.N,/AtariInterfaces/PBI_EXT.IRQ*%
X150720000Y-22760000D03*
%TO.N,/AtariInterfaces/PBI_EXT.RDY*%
X150720000Y-25300000D03*
%TO.N,/AtariInterfaces/PBI37*%
X148180000Y-22760000D03*
%TO.N,/AtariInterfaces/PBI_EXT.EXTENB*%
X148180000Y-25300000D03*
%TO.N,/AtariInterfaces/PBI39*%
X145640000Y-22760000D03*
%TO.N,/AtariInterfaces/PBI_EXT.REF*%
X145640000Y-25300000D03*
%TO.N,/AtariInterfaces/PBI_EXT.CAS*%
X143100000Y-22760000D03*
%TO.N,GND*%
X143100000Y-25300000D03*
%TO.N,/AtariInterfaces/PBI_EXT.MPD*%
X140560000Y-22760000D03*
%TO.N,/AtariInterfaces/PBI_EXT.RAS*%
X140560000Y-25300000D03*
%TO.N,GND*%
X138020000Y-22760000D03*
%TO.N,/AtariInterfaces/PBI_EXT.RW_N*%
X138020000Y-25300000D03*
%TO.N,/AtariInterfaces/+5V_PBI_PIN*%
X135480000Y-22760000D03*
X135480000Y-25300000D03*
%TO.N,/AtariInterfaces/EXTAUD.PBI*%
X132940000Y-22760000D03*
%TO.N,GND*%
X132940000Y-25300000D03*
%TD*%
D18*
%TO.N,GND*%
%TO.C,TP4*%
X38720000Y-47380000D03*
%TD*%
D30*
%TO.N,/Video/AVID.R*%
%TO.C,J6*%
X62540000Y-17720200D03*
%TO.N,/Video/AVID.G*%
X64830100Y-17720200D03*
%TO.N,/Video/AVID.B*%
X67120100Y-17720200D03*
%TO.N,unconnected-(J6-Pad4)*%
X69410200Y-17720200D03*
%TO.N,GNDA*%
X71700000Y-17720200D03*
X61395200Y-15740200D03*
X63685000Y-15740200D03*
X65975100Y-15740200D03*
%TO.N,unconnected-(J6-Pad9)*%
X68265200Y-15740200D03*
%TO.N,GNDA*%
X70555000Y-15740200D03*
%TO.N,unconnected-(J6-Pad11)*%
X62540000Y-13760000D03*
%TO.N,unconnected-(J6-Pad12)*%
X64830100Y-13760000D03*
%TO.N,Net-(J6-Pad13)*%
X67120100Y-13760000D03*
%TO.N,Net-(J6-Pad14)*%
X69410200Y-13760000D03*
%TO.N,unconnected-(J6-Pad15)*%
X71700000Y-13760000D03*
D31*
%TO.N,GNDA*%
X79620000Y-15740200D03*
X54620000Y-15740200D03*
%TD*%
D17*
%TO.N,Net-(J16-Pin_1)*%
%TO.C,J16*%
X26350000Y-77790000D03*
D14*
%TO.N,/FPGA/SPI.CS2*%
X23810000Y-77790000D03*
%TO.N,Net-(J16-Pin_3)*%
X21270000Y-77790000D03*
%TD*%
D15*
%TO.N,GND*%
%TO.C,USB1*%
X22660000Y-17740000D03*
X22660000Y-23840000D03*
X25520000Y-23840000D03*
X25520000Y-17740000D03*
D16*
X24464900Y-17790000D03*
%TO.N,/Power/+5V_IN*%
X24464900Y-18690200D03*
%TO.N,Net-(USB1-CC1)*%
X24464900Y-19590100D03*
%TO.N,unconnected-(USB1-D1+-PadA6)*%
X24464900Y-20490000D03*
%TO.N,unconnected-(USB1-D1--PadA7)*%
X24464900Y-21390200D03*
%TO.N,/Power/+5V_IN*%
X24464900Y-22740200D03*
%TO.N,GND*%
X24464900Y-23640100D03*
X23715100Y-23640100D03*
%TO.N,/Power/+5V_IN*%
X23715100Y-22740200D03*
%TO.N,Net-(USB1-CC2)*%
X23715100Y-21840000D03*
%TO.N,unconnected-(USB1-D2+-PadB6)*%
X23715100Y-20940100D03*
%TO.N,unconnected-(USB1-D2--PadB7)*%
X23715100Y-20040200D03*
%TO.N,/Power/+5V_IN*%
X23715100Y-18690200D03*
%TO.N,GND*%
X23715100Y-17790000D03*
%TD*%
D10*
%TO.N,GND*%
%TO.C,H1*%
X27000000Y-37000000D03*
%TD*%
D17*
%TO.N,+3V3*%
%TO.C,J10*%
X73840000Y-44170000D03*
D14*
%TO.N,GND*%
X76380000Y-44170000D03*
%TO.N,Net-(J10-Pin_3)*%
X78920000Y-44170000D03*
%TO.N,Net-(J10-Pin_4)*%
X81460000Y-44170000D03*
%TO.N,Net-(J10-Pin_5)*%
X84000000Y-44170000D03*
%TO.N,Net-(J10-Pin_6)*%
X86540000Y-44170000D03*
%TO.N,Net-(J10-Pin_7)*%
X89080000Y-44170000D03*
%TD*%
D17*
%TO.N,GND*%
%TO.C,J22*%
X215530000Y-102830000D03*
D14*
%TO.N,/AtariInterfaces/CONSOL_EXT.START*%
X215530000Y-105370000D03*
%TO.N,/AtariInterfaces/CONSOL_EXT.SELECT*%
X215530000Y-107910000D03*
%TO.N,/AtariInterfaces/CONSOL_EXT.OPTION*%
X215530000Y-110450000D03*
%TD*%
D13*
%TO.N,/ESP32/ESPJTAG.TCK*%
%TO.C,J23*%
X161660000Y-103910000D03*
D14*
%TO.N,GND*%
X159120000Y-103910000D03*
%TO.N,/ESP32/ESPJTAG.TDO*%
X161660000Y-101370000D03*
%TO.N,+3V3*%
X159120000Y-101370000D03*
%TO.N,/ESP32/ESPJTAG.TMS*%
X161660000Y-98830000D03*
%TO.N,unconnected-(J23-Pin_6-Pad6)*%
X159120000Y-98830000D03*
%TO.N,unconnected-(J23-Pin_7-Pad7)*%
X161660000Y-96290000D03*
%TO.N,unconnected-(J23-Pin_8-Pad8)*%
X159120000Y-96290000D03*
%TO.N,/ESP32/ESPJTAG.TDI*%
X161660000Y-93750000D03*
%TO.N,GND*%
X159120000Y-93750000D03*
%TD*%
D32*
%TO.N,GND*%
%TO.C,J4*%
X31809800Y-14420000D03*
X46310200Y-14420000D03*
D33*
X31809800Y-20420500D03*
X46310200Y-20420500D03*
%TD*%
D19*
%TO.N,*%
%TO.C,J11*%
X247840000Y-56750000D03*
X255740000Y-56750000D03*
X247850000Y-31750000D03*
X255750000Y-31750000D03*
D20*
%TO.N,/AtariInterfaces/JOY_EXT.DIR4*%
X253220000Y-49795000D03*
%TO.N,/AtariInterfaces/JOY_EXT.DIR5*%
X253220000Y-47025000D03*
%TO.N,/AtariInterfaces/JOY_EXT.DIR6*%
X253220000Y-44255000D03*
%TO.N,/AtariInterfaces/JOY_EXT.DIR7*%
X253220000Y-41485000D03*
%TO.N,Net-(J11A-POTB)*%
X253220000Y-38715000D03*
%TO.N,/AtariInterfaces/JOY_EXT.TRIG1*%
X256060000Y-48410000D03*
%TO.N,/AtariInterfaces/+5V_JOY*%
X256060000Y-45640000D03*
%TO.N,GND*%
X256060000Y-42870000D03*
%TO.N,Net-(J11A-POTA)*%
X256060000Y-40100000D03*
%TO.N,/AtariInterfaces/JOY_EXT.DIR0*%
X246420000Y-49790000D03*
%TO.N,/AtariInterfaces/JOY_EXT.DIR1*%
X246420000Y-47020000D03*
%TO.N,/AtariInterfaces/JOY_EXT.DIR2*%
X246420000Y-44250000D03*
%TO.N,/AtariInterfaces/JOY_EXT.DIR3*%
X246420000Y-41480000D03*
%TO.N,Net-(J11B-POTB)*%
X246420000Y-38710000D03*
%TO.N,/AtariInterfaces/JOY_EXT.TRIG0*%
X249260000Y-48405000D03*
%TO.N,/AtariInterfaces/+5V_JOY*%
X249260000Y-45635000D03*
%TO.N,GND*%
X249260000Y-42865000D03*
%TO.N,Net-(J11B-POTA)*%
X249260000Y-40095000D03*
%TD*%
D18*
%TO.N,+3V3*%
%TO.C,TP5*%
X30910000Y-50510000D03*
%TD*%
D10*
%TO.N,GND*%
%TO.C,H2*%
X57000000Y-37000000D03*
%TD*%
%TO.N,GND*%
%TO.C,H6*%
X122000000Y-67000000D03*
%TD*%
%TO.N,GND*%
%TO.C,H8*%
X27000000Y-137000000D03*
%TD*%
D29*
%TO.N,/AtariInterfaces/PBI_EXT.S4_N*%
%TO.C,J13*%
X182010000Y-53690000D03*
%TO.N,/AtariInterfaces/PBI_EXT.A3*%
X179470000Y-53690000D03*
%TO.N,/AtariInterfaces/PBI_EXT.A2*%
X176930000Y-53690000D03*
%TO.N,/AtariInterfaces/PBI_EXT.A1*%
X174390000Y-53690000D03*
%TO.N,/AtariInterfaces/PBI_EXT.A0*%
X171850000Y-53690000D03*
%TO.N,/AtariInterfaces/PBI_EXT.D4*%
X169310000Y-53690000D03*
%TO.N,/AtariInterfaces/PBI_EXT.D5*%
X166770000Y-53690000D03*
%TO.N,/AtariInterfaces/PBI_EXT.D2*%
X164230000Y-53690000D03*
%TO.N,/AtariInterfaces/PBI_EXT.D1*%
X161690000Y-53690000D03*
%TO.N,/AtariInterfaces/PBI_EXT.D0*%
X159150000Y-53690000D03*
%TO.N,/AtariInterfaces/PBI_EXT.D6*%
X156610000Y-53690000D03*
%TO.N,/AtariInterfaces/PBI_EXT.S5_N*%
X154070000Y-53690000D03*
%TO.N,/AtariInterfaces/+5V_CART*%
X151530000Y-53690000D03*
%TO.N,/AtariInterfaces/PBI_EXT.RD5*%
X148990000Y-53690000D03*
%TO.N,/AtariInterfaces/PBI_EXT.CCTL*%
X146450000Y-53690000D03*
%TO.N,/AtariInterfaces/PBI_EXT.RD4*%
X182010000Y-58770000D03*
%TO.N,GND*%
X179470000Y-58770000D03*
%TO.N,/AtariInterfaces/PBI_EXT.A4*%
X176930000Y-58770000D03*
%TO.N,/AtariInterfaces/PBI_EXT.A5*%
X174390000Y-58770000D03*
%TO.N,/AtariInterfaces/PBI_EXT.A6*%
X171850000Y-58770000D03*
%TO.N,/AtariInterfaces/PBI_EXT.A7*%
X169310000Y-58770000D03*
%TO.N,/AtariInterfaces/PBI_EXT.A8*%
X166770000Y-58770000D03*
%TO.N,/AtariInterfaces/PBI_EXT.A9*%
X164230000Y-58770000D03*
%TO.N,/AtariInterfaces/PBI_EXT.A12*%
X161690000Y-58770000D03*
%TO.N,/AtariInterfaces/PBI_EXT.D3*%
X159150000Y-58770000D03*
%TO.N,/AtariInterfaces/PBI_EXT.D7*%
X156610000Y-58770000D03*
%TO.N,/AtariInterfaces/PBI_EXT.A11*%
X154070000Y-58770000D03*
%TO.N,/AtariInterfaces/PBI_EXT.A10*%
X151530000Y-58770000D03*
%TO.N,/AtariInterfaces/PBI_EXT.RW_N*%
X148990000Y-58770000D03*
%TO.N,/AtariInterfaces/PBI_EXT.PHI2*%
X146450000Y-58770000D03*
%TD*%
D34*
%TO.N,+5V*%
X124570000Y-30984000D03*
D35*
X39100000Y-30954000D03*
D34*
X49070000Y-30984000D03*
X243245000Y-33615000D03*
D35*
X238410000Y-60230000D03*
D34*
X258480000Y-119470000D03*
X151140000Y-30984000D03*
X213910000Y-30984000D03*
X222050000Y-30984000D03*
D35*
X239940000Y-46180000D03*
D34*
X244345000Y-34715000D03*
X192600000Y-30984000D03*
X149230000Y-30984000D03*
X206270000Y-30984000D03*
D35*
X238640000Y-75520000D03*
X238230000Y-91950000D03*
D34*
X146091092Y-31095092D03*
X140060000Y-30984000D03*
D35*
%TO.N,GND*%
X170690000Y-126250000D03*
D34*
X25080000Y-31980000D03*
D36*
X70860000Y-97610000D03*
D34*
X240360000Y-110480000D03*
X23100000Y-32010000D03*
D35*
X236460000Y-44500000D03*
D34*
X96110000Y-96550000D03*
D35*
X197570000Y-91800000D03*
D34*
X209850000Y-131560000D03*
D36*
X81528200Y-58360000D03*
X61860000Y-95610000D03*
X66860000Y-90610000D03*
D34*
X105300000Y-46300000D03*
D36*
X64860000Y-98610000D03*
X67860000Y-103610000D03*
D34*
X223500000Y-142290000D03*
D36*
X59860000Y-96610000D03*
D34*
X201080000Y-122240000D03*
X194210000Y-20500000D03*
X70830000Y-118630000D03*
X68299343Y-73729343D03*
D36*
X69860000Y-101610000D03*
D34*
X96230000Y-108540000D03*
X170000000Y-103910000D03*
D36*
X50860000Y-102610000D03*
D34*
X221170000Y-142280000D03*
D35*
X234070000Y-86180000D03*
D36*
X42390000Y-98440000D03*
D34*
X204180000Y-118410000D03*
D36*
X60860000Y-95610000D03*
X51860000Y-86610000D03*
X52860000Y-90610000D03*
D34*
X98450000Y-38330000D03*
D36*
X36100000Y-103070000D03*
D34*
X221100000Y-131410000D03*
X128610000Y-32530000D03*
D36*
X63860000Y-100610000D03*
D34*
X145810000Y-118890000D03*
X93240000Y-96550000D03*
D36*
X57860000Y-94610000D03*
D34*
X27940000Y-68400000D03*
X36580000Y-22970000D03*
D36*
X60860000Y-96610000D03*
D34*
X164230000Y-27570000D03*
X128800000Y-37100000D03*
D36*
X51860000Y-102610000D03*
X16040000Y-40650000D03*
X71380000Y-86050000D03*
D34*
X38480000Y-69703200D03*
D36*
X60860000Y-98610000D03*
D34*
X214320000Y-124280000D03*
X58806800Y-113440000D03*
D36*
X87460000Y-97730000D03*
X69860000Y-90610000D03*
D34*
X93190000Y-104200000D03*
X76850000Y-49750000D03*
X29100000Y-122720000D03*
D36*
X50860000Y-91600000D03*
D34*
X112120000Y-30090000D03*
X20490000Y-41420000D03*
X42650000Y-125170000D03*
D35*
X119960000Y-39300000D03*
X197570000Y-87410000D03*
D34*
X201080000Y-120580000D03*
D36*
X59860000Y-100610000D03*
X49280000Y-84750000D03*
X57860000Y-98610000D03*
D34*
X112020000Y-76580000D03*
D36*
X68860000Y-88610000D03*
D35*
X240740000Y-81650000D03*
D34*
X111790000Y-61760000D03*
X137290000Y-119050000D03*
D36*
X19350000Y-48000000D03*
D34*
X197520000Y-99730000D03*
X118840000Y-25330000D03*
D36*
X69860000Y-103610000D03*
D34*
X203460000Y-97130000D03*
X202030000Y-128520000D03*
X211490000Y-30010000D03*
X119990000Y-32010000D03*
D35*
X240330000Y-65440000D03*
D36*
X68860000Y-93610000D03*
X60860000Y-102610000D03*
D34*
X108630000Y-75080000D03*
D36*
X62860000Y-98610000D03*
X64860000Y-97610000D03*
X52870000Y-101610000D03*
D34*
X87820000Y-61360000D03*
X63830000Y-113520000D03*
X87980000Y-54870000D03*
X112936210Y-73635200D03*
X204310000Y-132970000D03*
X200660000Y-91830000D03*
X17740000Y-88210000D03*
X153840000Y-27920000D03*
X37540000Y-79850000D03*
X145670000Y-117500000D03*
X200720000Y-104140000D03*
D36*
X66860000Y-88610000D03*
D34*
X31700000Y-26170000D03*
D36*
X61860000Y-97610000D03*
D34*
X143270000Y-117550000D03*
X95930000Y-92380000D03*
X38070000Y-22970000D03*
X29230000Y-57920000D03*
X115275000Y-55567500D03*
X90670000Y-48120000D03*
D36*
X45970000Y-85670000D03*
X62860000Y-96610000D03*
D35*
X20650000Y-45620000D03*
D34*
X18670000Y-67640000D03*
X51690000Y-71786800D03*
X205200000Y-122300000D03*
D36*
X62860000Y-88610000D03*
D34*
X96160000Y-104140000D03*
X25250000Y-80230000D03*
X109960000Y-49250000D03*
X140430000Y-118880000D03*
X215360000Y-118640000D03*
D35*
X242020000Y-38420000D03*
D36*
X52860000Y-100600000D03*
D34*
X142670000Y-20690000D03*
D36*
X35990000Y-88420000D03*
D34*
X175260000Y-27650000D03*
D36*
X71860000Y-86610000D03*
D35*
X240870000Y-51070000D03*
D36*
X87150000Y-108040000D03*
D34*
X26260000Y-70670000D03*
D36*
X69860000Y-99610000D03*
D34*
X143270000Y-115270000D03*
X186880000Y-34800000D03*
D35*
X234490000Y-72200000D03*
D34*
X60730000Y-75910000D03*
D36*
X47285000Y-96250000D03*
X69860000Y-97610000D03*
D35*
X236500000Y-37730000D03*
D34*
X113940000Y-56050000D03*
X215150000Y-129880000D03*
X61440000Y-125080000D03*
D36*
X59860000Y-88610000D03*
D34*
X231310000Y-133000000D03*
D36*
X58860000Y-93610000D03*
D35*
X234610000Y-80470000D03*
D34*
X213230000Y-129900000D03*
D36*
X66860000Y-97610000D03*
D34*
X45510000Y-70113200D03*
X186230000Y-27660000D03*
X64130000Y-35120000D03*
D36*
X53860000Y-88610000D03*
D34*
X117420000Y-47520000D03*
D36*
X51860000Y-96610000D03*
D35*
X21080000Y-53100000D03*
D34*
X110370000Y-75090000D03*
X223530000Y-131410000D03*
D36*
X61840200Y-88610000D03*
D34*
X97450000Y-47320000D03*
D36*
X69860000Y-96610000D03*
X52860000Y-94610000D03*
X69870000Y-87610000D03*
X49420000Y-83360000D03*
D34*
X48260000Y-78970000D03*
D36*
X61860000Y-98610000D03*
X50860000Y-86610000D03*
X62860000Y-105610000D03*
D34*
X143280000Y-118930000D03*
D35*
X234610000Y-56650000D03*
D34*
X73970000Y-122160000D03*
D35*
X99785000Y-42220000D03*
D36*
X59860000Y-95610000D03*
D34*
X99590000Y-50930000D03*
D36*
X81360873Y-59939156D03*
D34*
X201040000Y-123910000D03*
D36*
X42630000Y-112540000D03*
D34*
X21460000Y-58940000D03*
D35*
X97935000Y-42250000D03*
D34*
X42560000Y-23000000D03*
X158670000Y-20680000D03*
D36*
X69860000Y-86610000D03*
D34*
X77630000Y-51170000D03*
X145670000Y-116450000D03*
X36590000Y-51950000D03*
X19090000Y-76910000D03*
D36*
X62860000Y-97610000D03*
D34*
X208450000Y-138200000D03*
X213150000Y-118610000D03*
X74430000Y-71470000D03*
D36*
X13500000Y-54940000D03*
D34*
X44190000Y-118460000D03*
D36*
X63860000Y-94610000D03*
D34*
X170720000Y-20590000D03*
X140770000Y-116130000D03*
X200653200Y-99700000D03*
D36*
X56860000Y-107610000D03*
X52860000Y-97600000D03*
D34*
X203210002Y-84600002D03*
X93210000Y-108530000D03*
X35060000Y-22960000D03*
X96939539Y-76390461D03*
X96270000Y-72610000D03*
X45810000Y-25910000D03*
X39540000Y-22970000D03*
D36*
X59860000Y-98610000D03*
X61860000Y-102610000D03*
X55860000Y-88610000D03*
X64860000Y-88610000D03*
X13820000Y-47550000D03*
D34*
X29490000Y-26180000D03*
X256060000Y-146030000D03*
D36*
X62860000Y-101610000D03*
X52860000Y-96610000D03*
D34*
X101810000Y-72440000D03*
X210160000Y-118430000D03*
D36*
X61860000Y-105610000D03*
D34*
X255260000Y-122200000D03*
X26080000Y-53360000D03*
X138070000Y-20660000D03*
X34100000Y-124400000D03*
D36*
X71860000Y-107610000D03*
X57860000Y-96610000D03*
D34*
X107430000Y-46290000D03*
D36*
X65860000Y-105610000D03*
D34*
X140910000Y-117460000D03*
X127450000Y-107400000D03*
X42940000Y-74760000D03*
X79640000Y-63590000D03*
D35*
X117370000Y-39290000D03*
D34*
X66230000Y-125060000D03*
D36*
X20848889Y-55079643D03*
D34*
X143490000Y-27480000D03*
D36*
X50860000Y-107610000D03*
D34*
X31626800Y-100350000D03*
D36*
X71860000Y-96610000D03*
X69860000Y-94610000D03*
D34*
X191940000Y-103410000D03*
D36*
X84450000Y-61440000D03*
X70860000Y-96610000D03*
X75425000Y-106310000D03*
X52860000Y-103610000D03*
D34*
X204270000Y-131480000D03*
X115620000Y-27020000D03*
X200640000Y-87460000D03*
D36*
X56860000Y-105610000D03*
X67860000Y-105610000D03*
X57892800Y-88610000D03*
D34*
X42730000Y-25930000D03*
D36*
X23420000Y-48040000D03*
D34*
X40840000Y-25870000D03*
D36*
X51860000Y-87610000D03*
D35*
X102120000Y-48930000D03*
D34*
X205750000Y-138190000D03*
D35*
X191080000Y-91320000D03*
D34*
X93240000Y-92170000D03*
X88030000Y-66360000D03*
D35*
X38090000Y-99010000D03*
D34*
X86890000Y-70780000D03*
D36*
X65860000Y-86610000D03*
D34*
X57400000Y-125110000D03*
X209440000Y-133920000D03*
X155420000Y-20650000D03*
X98949889Y-89368135D03*
X68260000Y-56460000D03*
X99350000Y-101480000D03*
D35*
X234490000Y-64700000D03*
D34*
X222370000Y-29630000D03*
X72610000Y-53940000D03*
D36*
X60860000Y-97610000D03*
X61860000Y-100610000D03*
X54860000Y-103610000D03*
D35*
X83610000Y-93420000D03*
D34*
X184580000Y-20550000D03*
D35*
X235450000Y-50540000D03*
D34*
X152680000Y-107560000D03*
D36*
X63860000Y-104610000D03*
D35*
X45040000Y-31980000D03*
D36*
X55860000Y-90610000D03*
D34*
X132400000Y-20880000D03*
D36*
X54860000Y-105610000D03*
D34*
X43670000Y-25940000D03*
D36*
X62860000Y-95610000D03*
D34*
X20390000Y-36880000D03*
X117380000Y-53880000D03*
D36*
X51260000Y-109460000D03*
X59860000Y-97610000D03*
X42030000Y-105221800D03*
D34*
X66490000Y-35130000D03*
D35*
X115910000Y-39210000D03*
D36*
X61860000Y-96610000D03*
D34*
X208100000Y-118950000D03*
X211390000Y-131500000D03*
X206050000Y-116650000D03*
X115250000Y-67020000D03*
D36*
X58860000Y-104610000D03*
D34*
X111700000Y-29330000D03*
X86430000Y-51350000D03*
X164530000Y-112700000D03*
D36*
X52860000Y-105610000D03*
X42001273Y-90570376D03*
D35*
%TO.N,GNDA*%
X108030000Y-21220000D03*
X105385000Y-26290000D03*
X93250000Y-49550000D03*
D34*
X84920000Y-45720000D03*
D35*
X66620000Y-45720000D03*
D34*
X83070000Y-45720000D03*
%TO.N,+3V3*%
X88100000Y-55500000D03*
X84760000Y-72560000D03*
D36*
X56860000Y-104610000D03*
D34*
X204320000Y-119920000D03*
X70760000Y-117150000D03*
X117140000Y-28530000D03*
X111860000Y-61080000D03*
X66240000Y-113730000D03*
X76040000Y-47870000D03*
D35*
X170740000Y-124430000D03*
D34*
X59050000Y-125120000D03*
X115210000Y-65430000D03*
D36*
X52860000Y-104610000D03*
X73875000Y-106310000D03*
X53860000Y-96610000D03*
D34*
X102440000Y-72600000D03*
X48270000Y-64270000D03*
D36*
X47920000Y-84770000D03*
X66860000Y-89610000D03*
X48835000Y-96250000D03*
X58860000Y-103610000D03*
D35*
X93660000Y-46540000D03*
D34*
X87380000Y-66930000D03*
X37650000Y-127200000D03*
X96317218Y-76276000D03*
X73280000Y-74440000D03*
D36*
X53860000Y-103610000D03*
D34*
X203215461Y-123444539D03*
X57400000Y-113480000D03*
D35*
X197610000Y-91000000D03*
D36*
X63860000Y-105610000D03*
D34*
X15300000Y-77380000D03*
D36*
X86640000Y-62720000D03*
D34*
X43410000Y-82820000D03*
D35*
X80230000Y-95830000D03*
D36*
X53860000Y-90610000D03*
X68860000Y-89610000D03*
X51850000Y-91600000D03*
X68860000Y-103610000D03*
D34*
X61450000Y-113550000D03*
D36*
X53860000Y-89610000D03*
D35*
X18180000Y-62220000D03*
D34*
X193790000Y-102700000D03*
D36*
X59860000Y-89610000D03*
X71860000Y-106620000D03*
X68860000Y-99610000D03*
X53850000Y-97600000D03*
D34*
X37620000Y-128720000D03*
X68110000Y-60970000D03*
D35*
X18180000Y-61540000D03*
D36*
X65860000Y-104610000D03*
X48050000Y-110570000D03*
D34*
X109350000Y-54900000D03*
D36*
X57892800Y-89610000D03*
D34*
X98570000Y-41320000D03*
X44190000Y-116910000D03*
X49390000Y-80410000D03*
D35*
X100580000Y-48880000D03*
D34*
X71300000Y-116480000D03*
X15290000Y-87100000D03*
D36*
X53850000Y-101610000D03*
D34*
X127500000Y-102500000D03*
D36*
X68860000Y-101610000D03*
D34*
X201210000Y-126820000D03*
X229840000Y-137030000D03*
D36*
X93200000Y-107760000D03*
X54860000Y-104610000D03*
D34*
X63830000Y-124970000D03*
D36*
X68860000Y-94610000D03*
D35*
X18180000Y-63020000D03*
D36*
X93240000Y-95740000D03*
X55860000Y-89610000D03*
D34*
X109390000Y-74630000D03*
D36*
X52860000Y-99610000D03*
X53855843Y-94613600D03*
D34*
X127510000Y-110720000D03*
X36750000Y-82810000D03*
X115630000Y-75120000D03*
D36*
X61860000Y-104610000D03*
D34*
X14080000Y-74440000D03*
X29530000Y-84710000D03*
X226850000Y-143820000D03*
D35*
X156460000Y-118610000D03*
D34*
X73100000Y-71510000D03*
D35*
X95230000Y-51000000D03*
D36*
X42001316Y-104556884D03*
D34*
X51310000Y-82820000D03*
X169840000Y-98570000D03*
D36*
X64860000Y-89610000D03*
X68860000Y-96610000D03*
X50860000Y-87610000D03*
X35810000Y-92120000D03*
X68860000Y-90610000D03*
D35*
X18170000Y-60810000D03*
D34*
X43590000Y-125390000D03*
D36*
X42000000Y-89879190D03*
D34*
X49170000Y-70113200D03*
D36*
X50860000Y-106610000D03*
D34*
X112252594Y-73673013D03*
D36*
X62860000Y-89610000D03*
X68860000Y-97610000D03*
D34*
X31590000Y-71942700D03*
X29320000Y-75050000D03*
X206050000Y-114640000D03*
D36*
X36030000Y-106690000D03*
X67860000Y-93610000D03*
D34*
X28550000Y-71100000D03*
D36*
X72260000Y-85990000D03*
D34*
X73990000Y-120650000D03*
D36*
X67860000Y-104610000D03*
D34*
X227880000Y-125180000D03*
D36*
X71860000Y-87610000D03*
D34*
X46460000Y-64220000D03*
%TO.N,+3VA3_PCM*%
X69450000Y-49910000D03*
X70050000Y-55610000D03*
D36*
%TO.N,/AtariInterfaces/JOY_EXT.POT4*%
X234240000Y-68260000D03*
X233110000Y-69390000D03*
%TO.N,/AtariInterfaces/JOY_EXT.POT3*%
X237070000Y-54070000D03*
X239290000Y-52000000D03*
%TO.N,/AtariInterfaces/JOY_EXT.POT1*%
X237400000Y-41620000D03*
X240640000Y-39370000D03*
%TO.N,/AtariInterfaces/JOY_EXT.POT0*%
X240800000Y-40040000D03*
X238660000Y-41080000D03*
%TO.N,/AtariInterfaces/JOY_EXT.POT7*%
X239520000Y-82480000D03*
X235620000Y-85290002D03*
%TO.N,/AtariInterfaces/JOY_EXT.POT6*%
X235530000Y-83140002D03*
X239426821Y-83049430D03*
%TO.N,Net-(U24-SEL)*%
X120630000Y-47870000D03*
X119570000Y-30100000D03*
X112010000Y-72180000D03*
%TO.N,+1V2*%
X55860000Y-91610000D03*
X62860000Y-100610000D03*
X59860000Y-99610000D03*
X58860000Y-95610000D03*
X63860000Y-95610000D03*
X58860000Y-97610000D03*
D35*
X16540000Y-46700000D03*
D36*
X62860000Y-99610000D03*
X63860000Y-99610000D03*
D34*
X27010000Y-49570000D03*
D36*
X60860000Y-94610000D03*
X43949998Y-98440000D03*
X61860000Y-94610000D03*
X60860000Y-99610000D03*
X59860000Y-94610000D03*
X67860000Y-102610000D03*
X54860000Y-102610000D03*
D35*
X35060000Y-97660000D03*
D36*
X64860000Y-94610000D03*
X66860000Y-91610000D03*
X57860000Y-97610000D03*
X58860000Y-94610000D03*
X73004823Y-88194823D03*
X58860000Y-99610000D03*
X63860000Y-98610000D03*
X63860000Y-96610000D03*
X46225000Y-84275000D03*
X60860000Y-100610000D03*
X62860000Y-94610000D03*
X61860000Y-101610000D03*
X58860000Y-98610000D03*
X57860000Y-93610000D03*
X63860000Y-101610000D03*
X61860000Y-99610000D03*
X58860000Y-96610000D03*
X63860000Y-97610000D03*
X65860000Y-97610000D03*
X57860000Y-95610000D03*
%TO.N,+2V5*%
X65860000Y-91610000D03*
X66860000Y-103610000D03*
D34*
X44660000Y-112950000D03*
X31600000Y-92780000D03*
X31626800Y-94573623D03*
X26575000Y-58155000D03*
D36*
X55860000Y-103610000D03*
D35*
X16426176Y-54003947D03*
D36*
X56860000Y-91610000D03*
D34*
X65820000Y-85840000D03*
D35*
X30460000Y-73160000D03*
X33890000Y-73190000D03*
D36*
%TO.N,Net-(C82-Pad2)*%
X101980000Y-47280000D03*
X158120000Y-111790000D03*
X99965000Y-34785000D03*
X86150000Y-60210000D03*
D35*
%TO.N,/ESP32/UART1.RX*%
X130940000Y-117640000D03*
D36*
X102437784Y-92072216D03*
%TO.N,/ESP32/UART1.TX*%
X101802784Y-91437216D03*
D35*
X135840000Y-119060000D03*
D36*
%TO.N,/Microcontroller/STM.SCL*%
X111990000Y-56570000D03*
X49260000Y-66490000D03*
%TO.N,/Microcontroller/STM.SDA*%
X47210000Y-64190000D03*
X112140000Y-55650000D03*
%TO.N,Net-(J4-D0+)*%
X40700000Y-24440000D03*
X37270000Y-26530000D03*
%TO.N,Net-(J4-D0-)*%
X38070000Y-26550000D03*
X40720000Y-25170000D03*
%TO.N,/Video/AVID.G*%
X67350000Y-20100000D03*
%TO.N,/Video/AVID.B*%
X63940000Y-35840000D03*
X63070000Y-35730000D03*
%TO.N,/Video/AVID.R*%
X68460000Y-23710000D03*
%TO.N,Net-(J4-D1+)*%
X31770000Y-25500000D03*
X34790000Y-26500000D03*
%TO.N,/IOCards/SD.D1*%
X223970000Y-140930000D03*
X117450000Y-73570000D03*
X232150000Y-144729700D03*
%TO.N,/IOCards/SD.D3*%
X223460000Y-129540000D03*
X117530000Y-75160000D03*
%TO.N,/IOCards/SD.D0*%
X117537784Y-72807784D03*
X224630000Y-142960000D03*
%TO.N,/IOCards/SD.CMD*%
X117385000Y-71445000D03*
X224940000Y-128990000D03*
%TO.N,/IOCards/SD.CK*%
X226680000Y-135250000D03*
X117455000Y-69335000D03*
%TO.N,/IOCards/SD.D2*%
X117470000Y-74460000D03*
X223640000Y-127470000D03*
%TO.N,/AtariInterfaces/PBI_EXT.HALT*%
X106720000Y-107400000D03*
%TO.N,/AtariInterfaces/PBI_EXT.D1XX*%
X106150000Y-107810000D03*
%TO.N,/AtariInterfaces/PBI_EXT.RD5*%
X102500000Y-110950000D03*
X132280000Y-37030000D03*
%TO.N,/AtariInterfaces/PBI_EXT.RD4*%
X130550000Y-38150000D03*
X178400000Y-55310000D03*
X103100000Y-110690000D03*
%TO.N,/Microcontroller/USART1.RX*%
X87510000Y-70680000D03*
%TO.N,/Microcontroller/USART1.CTS*%
X83620000Y-73970000D03*
%TO.N,/Microcontroller/USART1.CK*%
X83910000Y-73290000D03*
%TO.N,/Microcontroller/USART1.RTS*%
X82800000Y-74530000D03*
%TO.N,/Microcontroller/USART1.TX*%
X88060000Y-70350000D03*
%TO.N,Net-(J4-D1-)*%
X31640000Y-24720000D03*
X35530000Y-26520000D03*
%TO.N,/FPGA/TDO*%
X58500000Y-75020000D03*
X45140000Y-75420000D03*
%TO.N,/FPGA/TMS*%
X44300000Y-76270000D03*
X58002216Y-76372216D03*
%TO.N,/FPGA/TDI*%
X61860000Y-90610000D03*
X43650000Y-76470000D03*
%TO.N,/FPGA/TCK*%
X44720000Y-75890000D03*
X58512216Y-75862216D03*
%TO.N,/FPGA/VDAC.VSYNC*%
X47520000Y-27480000D03*
X48120000Y-53280000D03*
%TO.N,/FPGA/VDAC.HSYNC*%
X50320000Y-54480000D03*
X46840000Y-27870000D03*
%TO.N,/Microcontroller/STM.I2CRESET*%
X43180000Y-71768200D03*
X87950000Y-59560000D03*
%TO.N,/FPGA/HDMI.SCL*%
X32940000Y-41670000D03*
X48070000Y-25430000D03*
X43430000Y-24340000D03*
%TO.N,/FPGA/HDMI.SDA*%
X33700001Y-41560001D03*
X49280000Y-27560000D03*
X46430000Y-24940000D03*
%TO.N,/Microcontroller/USB.DM*%
X114290000Y-76230000D03*
X200200000Y-84780000D03*
%TO.N,/Microcontroller/USB.DP*%
X200720000Y-84110000D03*
X113660682Y-75949999D03*
%TO.N,/AtariInterfaces/SIO.MOTOR*%
X172960000Y-105160000D03*
X148490000Y-116450000D03*
X66590000Y-109880000D03*
%TO.N,/AtariInterfaces/PBI_EXT.IRQ*%
X109520000Y-106660000D03*
X152398200Y-26217216D03*
X155600000Y-28430000D03*
X149170000Y-27730000D03*
%TO.N,/AtariInterfaces/PBI_EXT.EXTSEL*%
X116770000Y-102420000D03*
X193560000Y-27490000D03*
%TO.N,/AtariInterfaces/PBI_EXT.MPD*%
X105620000Y-108310000D03*
X137740000Y-29270000D03*
%TO.N,/AtariInterfaces/PBI_EXT.REF*%
X105030000Y-108710000D03*
X147427784Y-28097784D03*
%TO.N,/AtariInterfaces/JOY_EXT.TRIG2*%
X239080000Y-67380000D03*
X231730000Y-74060000D03*
X240310000Y-72690000D03*
%TO.N,/AtariInterfaces/JOY_EXT.TRIG3*%
X240610000Y-89030000D03*
X226750000Y-89100000D03*
%TO.N,/AtariInterfaces/JOY_EXT.TRIG1*%
X249360000Y-58990000D03*
X229840000Y-63400000D03*
%TO.N,/AtariInterfaces/JOY_EXT.TRIG0*%
X231250000Y-49720000D03*
%TO.N,/FPGA/FPGA.CONFIG_N*%
X63630000Y-80810000D03*
X71633335Y-73550000D03*
X103220000Y-62320000D03*
%TO.N,/FPGA/FPGA.CONF_DONE*%
X72030000Y-114588800D03*
X102150000Y-62270000D03*
X60860000Y-103610000D03*
X68465000Y-115895000D03*
%TO.N,/FPGA/FPGA.STATUS_N*%
X62860000Y-91610000D03*
X103230000Y-61760000D03*
X68990000Y-73690000D03*
%TO.N,/FPGA/SPI.CS1*%
X31500000Y-66400000D03*
X112060000Y-58520000D03*
X69630000Y-66020000D03*
%TO.N,/IOCards/SD.WP*%
X117505000Y-70725000D03*
X227390000Y-147460000D03*
%TO.N,Net-(U15-PG)*%
X13990000Y-51210000D03*
X17250000Y-50780000D03*
X20380000Y-57110000D03*
%TO.N,/AtariInterfaces/JOY_EXT.DIR2*%
X244380000Y-42570000D03*
X244390000Y-40630000D03*
X233250000Y-45050000D03*
%TO.N,/AtariInterfaces/JOY_EXT.DIR0*%
X233210000Y-42920000D03*
X243020000Y-40810000D03*
X243720000Y-45150000D03*
%TO.N,/AtariInterfaces/JOY_EXT.DIR1*%
X233290000Y-43860000D03*
X243820000Y-40810000D03*
X244265000Y-44025000D03*
%TO.N,/AtariInterfaces/JOY_EXT.DIR3*%
X233390000Y-46100000D03*
%TO.N,/AtariInterfaces/JOY_EXT.DIR5*%
X242270000Y-52660000D03*
X229820000Y-58510000D03*
X243330000Y-56400000D03*
%TO.N,/AtariInterfaces/JOY_EXT.DIR4*%
X229790000Y-57270000D03*
X242225000Y-53255000D03*
X242870000Y-57200000D03*
%TO.N,/AtariInterfaces/JOY_EXT.DIR6*%
X229900000Y-60110000D03*
X243770000Y-55400000D03*
X242740000Y-52140000D03*
%TO.N,/AtariInterfaces/JOY_EXT.DIR7*%
X245755000Y-52475000D03*
X229950000Y-61940000D03*
%TO.N,/AtariInterfaces/JOY_EXT.DIR11*%
X241800000Y-65390000D03*
X228170000Y-76480000D03*
X243770000Y-71010000D03*
%TO.N,/AtariInterfaces/JOY_EXT.DIR8*%
X242050000Y-72300000D03*
X221550000Y-79680000D03*
X241910000Y-67370000D03*
%TO.N,/AtariInterfaces/JOY_EXT.DIR10*%
X243225000Y-71325000D03*
X241940000Y-66090000D03*
X226130000Y-77420000D03*
%TO.N,/AtariInterfaces/JOY_EXT.DIR9*%
X242720000Y-71940000D03*
X242020000Y-66690000D03*
X223970000Y-78420000D03*
%TO.N,/AtariInterfaces/JOY_EXT.DIR14*%
X244070000Y-86260000D03*
X226660000Y-87200000D03*
X242180000Y-82780000D03*
%TO.N,/AtariInterfaces/JOY_EXT.DIR12*%
X241790000Y-83920000D03*
X226480000Y-85540000D03*
X243030000Y-87831800D03*
%TO.N,/AtariInterfaces/JOY_EXT.DIR13*%
X242150000Y-83370000D03*
X226580000Y-86310000D03*
X243550000Y-87060000D03*
%TO.N,/AtariInterfaces/JOY_EXT.DIR15*%
X226720000Y-88160000D03*
X248070000Y-85460000D03*
%TO.N,/AtariInterfaces/SIO_EXT.INTERRUPT*%
X213830000Y-28690000D03*
X228870000Y-43530000D03*
X212460000Y-102380000D03*
%TO.N,/AtariInterfaces/SIO_EXT.DATA_IN*%
X208780000Y-99430000D03*
X209830000Y-28210000D03*
%TO.N,/AtariInterfaces/SIO_EXT.CLOCK_IN*%
X209710000Y-28850000D03*
X210400000Y-100700000D03*
X237090000Y-29510000D03*
%TO.N,/AtariInterfaces/SIO_EXT.COMMAND*%
X212920000Y-27760000D03*
X211460000Y-101500000D03*
%TO.N,/AtariInterfaces/SIO_EXT.CLOCK_OUT*%
X210910000Y-101110000D03*
X229160000Y-39460000D03*
X210150000Y-29450000D03*
%TO.N,/AtariInterfaces/SIO_EXT.DATA_OUT*%
X209330000Y-99910000D03*
X210190000Y-27720000D03*
X226870000Y-38480000D03*
%TO.N,/AtariInterfaces/SIO_EXT.PROCEED*%
X228650000Y-42020000D03*
X213370000Y-28260000D03*
X211970000Y-101910000D03*
%TO.N,/AtariInterfaces/SIO.INTERRUPT*%
X149040000Y-116000000D03*
X63860000Y-107610000D03*
%TO.N,/ESP32/ESP.SGPIO*%
X118440000Y-108910000D03*
X104710000Y-89560000D03*
%TO.N,/AtariInterfaces/SIO.CLOCK_IN*%
X170980000Y-112690000D03*
X135020000Y-115070000D03*
X77580000Y-115020000D03*
%TO.N,/AtariInterfaces/SIO.DATA_IN*%
X149310000Y-113780000D03*
X168670000Y-110520000D03*
X78430000Y-112258200D03*
%TO.N,/AtariInterfaces/SIO.PROCEED*%
X62860000Y-102610000D03*
X149210000Y-111360000D03*
%TO.N,/ESP32/ESP.CS*%
X67060000Y-110280000D03*
X80450000Y-116060000D03*
%TO.N,/ESP32/ESP.SCK*%
X80988897Y-116363153D03*
X68090000Y-111160000D03*
%TO.N,Net-(RN7-R3.2)*%
X105560000Y-53760000D03*
X113650000Y-69690000D03*
%TO.N,/ESP32/ESP.MOSI*%
X81130000Y-117740000D03*
X64970000Y-110230000D03*
%TO.N,/AtariInterfaces/SIO.COMMAND*%
X149090000Y-115140000D03*
X168230000Y-113510000D03*
X77070000Y-113220000D03*
%TO.N,/AtariInterfaces/SIO.CLOCK_OUT*%
X78030000Y-115620000D03*
X140290000Y-114790000D03*
X171620000Y-113009998D03*
%TO.N,/ESP32/ESP.MISO*%
X80620000Y-117330000D03*
X67510000Y-110740000D03*
%TO.N,/AtariInterfaces/SIO.DATA_OUT*%
X169500000Y-111180000D03*
X136060000Y-111890000D03*
X62860000Y-103610000D03*
%TO.N,/ESP32/ESP.SGPI0*%
X102250000Y-88740000D03*
X149250000Y-121400000D03*
%TO.N,/FPGA/FSMC.A4*%
X68860000Y-91610000D03*
X91340000Y-71650000D03*
%TO.N,/FPGA/FSMC.NOE*%
X67860000Y-98610000D03*
X98690000Y-70660000D03*
%TO.N,/AtariInterfaces/JOY2.TRIG2*%
X61902800Y-91610000D03*
X186420000Y-92730000D03*
X61925000Y-83585000D03*
%TO.N,/FPGA/FSMC.A5*%
X67860000Y-91610000D03*
X91300000Y-70920000D03*
%TO.N,/FPGA/FSMC.D2*%
X100080000Y-70680000D03*
X67860000Y-99610000D03*
%TO.N,/FPGA/FSMC.NBL1*%
X96380000Y-71410000D03*
X67860000Y-95610000D03*
%TO.N,Net-(RN10-R4.2)*%
X113950000Y-72640000D03*
X109290000Y-72130000D03*
%TO.N,/AtariInterfaces/JOY2.POT6*%
X94240000Y-55890000D03*
X182630000Y-96810000D03*
X105630000Y-86950000D03*
%TO.N,/FPGA/FSMC.A21*%
X94930000Y-70670000D03*
X65860000Y-94610000D03*
%TO.N,/AtariInterfaces/JOY2.DIR15*%
X183500000Y-95790000D03*
X60860000Y-88610000D03*
%TO.N,/FPGA/FSMC.A1*%
X68860000Y-92610000D03*
X92810000Y-72210000D03*
%TO.N,/AtariInterfaces/JOY2.POT5*%
X101690000Y-82810000D03*
X185540000Y-93640000D03*
X94280000Y-54860000D03*
%TO.N,/FPGA/FSMC.NWAIT*%
X97700000Y-70660000D03*
X66860000Y-98610000D03*
%TO.N,/FPGA/FSMC.NBL0*%
X96790000Y-70680000D03*
X68860000Y-95610000D03*
%TO.N,/FPGA/FSMC.A19*%
X66860000Y-95610000D03*
X95850000Y-70710000D03*
%TO.N,/FPGA/FSMC.D3*%
X66860000Y-99610000D03*
X99590000Y-71330000D03*
%TO.N,/FPGA/FSMC.A3*%
X92010000Y-71660000D03*
X66860000Y-92610000D03*
%TO.N,/AtariInterfaces/JOY2.POT7*%
X182200000Y-97290000D03*
X105320000Y-87450000D03*
X94210000Y-56570000D03*
%TO.N,/FPGA/FSMC.NE1*%
X97420000Y-71340000D03*
X64860000Y-96610000D03*
%TO.N,/FPGA/FSMC.A2*%
X67860000Y-92610000D03*
X91990000Y-72380000D03*
%TO.N,/AtariInterfaces/JOY2.DIR8*%
X60840000Y-82080000D03*
X188080000Y-90960000D03*
%TO.N,/AtariInterfaces/JOY2.TRIG3*%
X183040000Y-96260000D03*
X60860000Y-93610000D03*
X64790000Y-85500000D03*
%TO.N,/AtariInterfaces/JOY2.DIR9*%
X60860000Y-90610000D03*
X187646118Y-91412408D03*
X60860000Y-85700000D03*
%TO.N,Net-(RN10-R3.2)*%
X114068200Y-73490000D03*
X108940000Y-72640000D03*
%TO.N,/FPGA/FSMC.A22*%
X66860000Y-93610000D03*
X94450000Y-71440000D03*
%TO.N,/FPGA/FSMC.A0*%
X65860000Y-93610000D03*
X93970000Y-70640000D03*
%TO.N,/AtariInterfaces/JOY2.DIR14*%
X183960000Y-95160000D03*
X60860000Y-87610000D03*
%TO.N,/AtariInterfaces/JOY2.DIR11*%
X186800000Y-92310000D03*
X61260000Y-83720000D03*
%TO.N,/AtariInterfaces/JOY2.DIR10*%
X187180000Y-91850000D03*
X61470000Y-82810000D03*
X60859998Y-89610000D03*
%TO.N,/AtariInterfaces/JOY2.DIR13*%
X60860000Y-86610000D03*
X184470000Y-94650000D03*
%TO.N,/AtariInterfaces/JOY2.POT4*%
X102150000Y-82300000D03*
X94340000Y-54200000D03*
X186010000Y-93160000D03*
%TO.N,/FPGA/FSMC.A20*%
X66860000Y-94610000D03*
X95370000Y-71390000D03*
%TO.N,/FPGA/FSMC.NWE*%
X98670000Y-71350000D03*
X68860000Y-98610000D03*
%TO.N,/AtariInterfaces/JOY2.DIR12*%
X61593591Y-84251487D03*
X185000000Y-94170000D03*
%TO.N,/FPGA/SDRAM1.DQ11*%
X64500000Y-114320000D03*
X61860000Y-107610000D03*
%TO.N,/FPGA/SDRAM1.UDQM*%
X60860000Y-104610000D03*
X60430000Y-117070000D03*
%TO.N,/FPGA/SDRAM1.DQ14*%
X62860000Y-107610000D03*
X66760000Y-114480000D03*
%TO.N,/FPGA/SDRAM1.DQ9*%
X62100000Y-115230000D03*
X62360000Y-109530000D03*
%TO.N,/FPGA/SDRAM1.DQ10*%
X62833038Y-109879800D03*
X62710000Y-115650000D03*
%TO.N,/FPGA/SDRAM1.A6*%
X56090000Y-113800000D03*
X57860000Y-104610000D03*
%TO.N,/FPGA/SDRAM1.A9*%
X59860000Y-101610000D03*
X57580000Y-115120000D03*
%TO.N,/FPGA/SDRAM1.DQ8*%
X61980000Y-109010000D03*
X61630000Y-114910000D03*
%TO.N,/FPGA/SDRAM1.A11*%
X59860000Y-102610000D03*
X59125000Y-114505000D03*
%TO.N,/FPGA/SDRAM1.CKE*%
X59670000Y-115830000D03*
X59860000Y-103610000D03*
%TO.N,/FPGA/SDRAM1.A8*%
X58860000Y-102610000D03*
X57060000Y-114520000D03*
%TO.N,/FPGA/SDRAM1.CLK*%
X57860000Y-101610000D03*
X60680000Y-109750000D03*
%TO.N,/FPGA/SDRAM1.A5*%
X57860000Y-103610000D03*
X55230000Y-113760000D03*
%TO.N,/FPGA/SDRAM1.DQ12*%
X61860000Y-106610000D03*
X65040000Y-114570000D03*
%TO.N,/FPGA/SDRAM1.A12*%
X59860000Y-104610000D03*
X59240000Y-115280000D03*
%TO.N,/FPGA/SDRAM1.A4*%
X54350000Y-113760000D03*
X56860000Y-102610000D03*
%TO.N,/FPGA/SDRAM1.A7*%
X56790000Y-113830000D03*
X57860000Y-102610000D03*
%TO.N,/FPGA/SDRAM1.DQ15*%
X62860000Y-104610000D03*
X67290000Y-114940000D03*
%TO.N,/FPGA/SDRAM1.DQ13*%
X65620000Y-114990000D03*
X62860000Y-106610000D03*
%TO.N,/AtariInterfaces/PBI.A8*%
X80240000Y-100290000D03*
X66860000Y-100610000D03*
%TO.N,/AtariInterfaces/PBI_EXT.A1*%
X189460000Y-29590000D03*
X173140000Y-56330000D03*
X187888200Y-29280000D03*
%TO.N,/AtariInterfaces/PBI.A4*%
X68860000Y-100610000D03*
X78770000Y-99490000D03*
%TO.N,/AtariInterfaces/PBI_EXT.D1*%
X114660000Y-100910000D03*
X166040000Y-28920000D03*
X167240000Y-29470000D03*
%TO.N,/AtariInterfaces/PBI_EXT.A2*%
X190070000Y-27310000D03*
X176500000Y-56080000D03*
X190340000Y-29460000D03*
%TO.N,/AtariInterfaces/PBI_EXT.A10*%
X154570000Y-54871800D03*
X176710000Y-28760000D03*
%TO.N,/AtariInterfaces/PBI.A2*%
X64860000Y-99610000D03*
X78210000Y-98830000D03*
%TO.N,/AtariInterfaces/PBI_EXT.D2*%
X114620000Y-102190000D03*
X167790000Y-28460000D03*
X166260000Y-27792401D03*
%TO.N,/AtariInterfaces/PBI_EXT.A7*%
X179100000Y-63380000D03*
X183110000Y-28360000D03*
%TO.N,/AtariInterfaces/PBI_EXT.D4*%
X165800000Y-61960000D03*
X167090000Y-60710000D03*
X163610000Y-27850000D03*
X116750000Y-100880000D03*
%TO.N,/AtariInterfaces/PBI_EXT.A11*%
X176420000Y-26750000D03*
X154070000Y-69010000D03*
X177970000Y-26720000D03*
X116960000Y-97790000D03*
X155290000Y-54700000D03*
%TO.N,/AtariInterfaces/PBI_EXT.A15*%
X167760000Y-52860000D03*
X173310000Y-29640000D03*
X116760000Y-100210000D03*
%TO.N,/AtariInterfaces/PBI_EXT.A0*%
X170980000Y-56330000D03*
%TO.N,/AtariInterfaces/PBI_EXT.A6*%
X178550000Y-62720000D03*
X184040000Y-28450000D03*
%TO.N,/AtariInterfaces/PBI_EXT.A3*%
X187240000Y-27990000D03*
%TO.N,/AtariInterfaces/PBI_EXT.A13*%
X116810000Y-98900000D03*
X165440000Y-52390000D03*
%TO.N,/AtariInterfaces/PBI_EXT.A14*%
X166010000Y-52220000D03*
X116810000Y-99510000D03*
X173530000Y-28980000D03*
%TO.N,/AtariInterfaces/PBI_EXT.A5*%
X177820000Y-61720000D03*
%TO.N,/AtariInterfaces/PBI_EXT.A9*%
X168470000Y-33860000D03*
X180140000Y-64540000D03*
%TO.N,/AtariInterfaces/PBI_EXT.D6*%
X113110000Y-104750000D03*
%TO.N,/AtariInterfaces/PBI_EXT.A8*%
X176970000Y-29730000D03*
X179630000Y-63930000D03*
%TO.N,/AtariInterfaces/PBI_EXT.D7*%
X113310000Y-105710000D03*
X161958200Y-29270000D03*
%TO.N,/AtariInterfaces/PBI_EXT.D3*%
X114190000Y-102680000D03*
X164250000Y-32270000D03*
X163190000Y-33320000D03*
%TO.N,/AtariInterfaces/PBI_EXT.D5*%
X165280000Y-56190000D03*
X116770000Y-101690000D03*
X162750000Y-28360000D03*
X165690000Y-63520000D03*
%TO.N,/AtariInterfaces/PBI.A11*%
X65860000Y-101610000D03*
X81600000Y-100860000D03*
%TO.N,/AtariInterfaces/PBI_EXT.A4*%
X185550000Y-30132000D03*
X185330000Y-27950000D03*
X186590000Y-30114000D03*
%TO.N,/AtariInterfaces/PBI_EXT.A12*%
X173590000Y-28200000D03*
X116820000Y-98340000D03*
X165870000Y-36430000D03*
%TO.N,/AtariInterfaces/PBI.A5*%
X79790000Y-99050000D03*
X67860000Y-100610000D03*
%TO.N,/AtariInterfaces/PBI_EXT.D0*%
X114590000Y-100060000D03*
%TO.N,/AtariInterfaces/PBI_EXT.PHI2*%
X150450000Y-37930000D03*
X110880000Y-105020000D03*
%TO.N,/AtariInterfaces/PBI_EXT.RW_N*%
X152790000Y-31860000D03*
X138250000Y-27930000D03*
X111450000Y-105170000D03*
%TO.N,/AtariInterfaces/PBI.RW_N*%
X76510000Y-105800000D03*
X66860000Y-102610000D03*
%TO.N,/AtariInterfaces/PBI.RD5*%
X64860000Y-101610000D03*
X76920000Y-110480000D03*
%TO.N,/AtariInterfaces/PBI.EXTSEL*%
X76540000Y-106470000D03*
X73000000Y-107365800D03*
%TO.N,/AtariInterfaces/PBI.CCTL*%
X76800000Y-109510000D03*
X64860000Y-104610000D03*
%TO.N,/AtariInterfaces/PBI.REF*%
X75140000Y-108420000D03*
X64860000Y-102610000D03*
%TO.N,/AtariInterfaces/PBI.RAS*%
X64860000Y-103610000D03*
X75940000Y-108820000D03*
%TO.N,/AtariInterfaces/PBI_EXT.RAS*%
X142530000Y-29520000D03*
X143780000Y-26960000D03*
X107850000Y-107230000D03*
X143710000Y-31880000D03*
X144810000Y-28060000D03*
%TO.N,/AtariInterfaces/PBI_EXT.CCTL*%
X110130000Y-106950000D03*
X145470000Y-31890000D03*
%TO.N,/AtariInterfaces/PBI.IRQ*%
X77302784Y-106562784D03*
X66860000Y-104610000D03*
%TO.N,/AtariInterfaces/PBI.D1XX*%
X74202784Y-108191800D03*
X65860000Y-103610000D03*
%TO.N,/AtariInterfaces/PBI_EXT.S5_N*%
X154150000Y-30090000D03*
X183230000Y-49760000D03*
%TO.N,/AtariInterfaces/PBI_EXT.RDY*%
X152710000Y-30210000D03*
X112040000Y-112040000D03*
%TO.N,/AtariInterfaces/PBI.S5_N*%
X63860000Y-102610000D03*
X76360000Y-111390000D03*
%TO.N,/AtariInterfaces/PBI.RST*%
X77990000Y-106560000D03*
X65860000Y-102610000D03*
%TO.N,/AtariInterfaces/PBI_EXT.EXTENB*%
X104190000Y-108680000D03*
X145125000Y-26725000D03*
%TO.N,/AtariInterfaces/PBI_EXT.RST*%
X142630000Y-39620000D03*
X107270000Y-106970000D03*
X152120000Y-30030000D03*
X151970000Y-29208201D03*
%TO.N,/AtariInterfaces/PBI_EXT.CAS*%
X103670000Y-109840000D03*
%TO.N,/AtariInterfaces/SIO_EXT.AUD*%
X213140000Y-29230000D03*
X209880000Y-100280000D03*
%TO.N,/AtariInterfaces/JOY.TRIG0*%
X60270000Y-79010000D03*
X59860000Y-91610000D03*
X192700000Y-86550000D03*
%TO.N,/AtariInterfaces/JOY.POT2*%
X96790000Y-55010000D03*
X103880000Y-80250000D03*
X188980000Y-90090000D03*
%TO.N,/AtariInterfaces/JOY.DIR6*%
X59860000Y-86610000D03*
X190390000Y-88770000D03*
%TO.N,/AtariInterfaces/JOY.DIR2*%
X59450000Y-78100000D03*
X193530000Y-85570000D03*
%TO.N,/AtariInterfaces/JOY.DIR5*%
X190860000Y-88390000D03*
X60430000Y-80090000D03*
X59860000Y-93610000D03*
%TO.N,/AtariInterfaces/JOY.DIR0*%
X58540000Y-77220000D03*
X194350000Y-84580000D03*
%TO.N,/AtariInterfaces/JOY.DIR1*%
X193960000Y-85110000D03*
X59060000Y-77630000D03*
%TO.N,/AtariInterfaces/JOY.DIR7*%
X189910000Y-89200000D03*
X60980000Y-80770000D03*
%TO.N,/AtariInterfaces/JOY.POT1*%
X97020000Y-54460000D03*
X191770000Y-87480000D03*
X104330000Y-77940000D03*
%TO.N,/AtariInterfaces/JOY.POT3*%
X188550000Y-90570000D03*
X103780000Y-80820000D03*
X96710000Y-55670000D03*
%TO.N,/AtariInterfaces/JOY.POT0*%
X97070000Y-53850000D03*
X192220000Y-86980000D03*
X104906000Y-77649004D03*
%TO.N,/AtariInterfaces/JOY.TRIG1*%
X189410000Y-89610000D03*
X60900000Y-81420000D03*
X60860000Y-91610000D03*
%TO.N,/AtariInterfaces/JOY.DIR4*%
X60880000Y-79450000D03*
X191290000Y-87960000D03*
%TO.N,/AtariInterfaces/JOY.DIR3*%
X59890000Y-78540000D03*
X58860000Y-89610000D03*
X193110000Y-86050000D03*
%TO.N,/FPGA/SPI.MISO*%
X38550000Y-73850000D03*
X29570000Y-76130000D03*
X29580000Y-73840000D03*
X39850000Y-74940000D03*
X112050000Y-59780000D03*
%TO.N,/FPGA/SPI.MOSI*%
X68860000Y-86610000D03*
X37930000Y-73090000D03*
X68570000Y-68300000D03*
X112070000Y-59170000D03*
%TO.N,/ESP32/ESP.SGPI2*%
X101040000Y-89550000D03*
X148750000Y-118870000D03*
X102930000Y-63900000D03*
%TO.N,/AtariInterfaces/CONSOL.OPTION*%
X198930000Y-84410000D03*
X57860000Y-91610000D03*
X57145816Y-82445000D03*
%TO.N,Net-(J19-D-)*%
X212340000Y-122000000D03*
X212540000Y-118180000D03*
%TO.N,Net-(J20-D-)*%
X216310000Y-123440000D03*
X213070000Y-119720000D03*
%TO.N,Net-(J20-D+)*%
X215000000Y-122830000D03*
X212630000Y-119340000D03*
%TO.N,/AtariInterfaces/FPGA.GPIO0*%
X69860000Y-88610000D03*
X88680000Y-89530000D03*
%TO.N,/AtariInterfaces/FPGA.GPIO2*%
X89460000Y-90590000D03*
X69860000Y-89610000D03*
%TO.N,/AtariInterfaces/CONSOL.SELECT*%
X198510000Y-83950000D03*
X57410000Y-83230000D03*
%TO.N,Net-(J24-D-)*%
X214010000Y-125630000D03*
X213090000Y-129260000D03*
%TO.N,Net-(J24-D+)*%
X213650000Y-128270000D03*
X215530000Y-124920000D03*
%TO.N,Net-(J25-D+)*%
X212930000Y-130430000D03*
X212140000Y-125950000D03*
%TO.N,/AtariInterfaces/FPGA.GPIO3*%
X70860000Y-89610000D03*
X89890000Y-91020000D03*
%TO.N,/AtariInterfaces/CONSOL.START*%
X56797685Y-85569162D03*
X197930000Y-84110000D03*
%TO.N,/AtariInterfaces/FPGA.GPIO4*%
X90350000Y-91490000D03*
X71860000Y-89610000D03*
%TO.N,/AtariInterfaces/FPGA.GPIO1*%
X70860000Y-88610000D03*
X89090000Y-90100000D03*
%TO.N,Net-(J26-Pin_4)*%
X34070000Y-77620000D03*
X42940000Y-73430000D03*
%TO.N,Net-(U23-~{W}{slash}V_{PP})*%
X27520000Y-71370000D03*
X26900000Y-82220000D03*
%TO.N,Net-(U23-~{HOLD})*%
X16110000Y-73970000D03*
X15360000Y-83430000D03*
%TO.N,/FPGA/SRAM1.D8*%
X53860000Y-92581200D03*
X38250000Y-88349628D03*
%TO.N,/FPGA/SRAM1.D2*%
X48320000Y-90040000D03*
X54860000Y-91610000D03*
%TO.N,/FPGA/SRAM1.A5*%
X53859981Y-93597400D03*
X39750000Y-89099690D03*
%TO.N,Net-(U30J-CLK3)*%
X56860000Y-86623423D03*
X50570000Y-77460000D03*
%TO.N,/FPGA/SRAM1.A14*%
X39750000Y-91349876D03*
X56860000Y-96610000D03*
%TO.N,/FPGA/SRAM1.D10*%
X39000000Y-89099690D03*
X54860000Y-93610000D03*
%TO.N,/FPGA/SRAM1.A17*%
X39750000Y-89849752D03*
X55860000Y-94610000D03*
%TO.N,/FPGA/SRAM1.D9*%
X55860000Y-93610000D03*
X38250000Y-89070252D03*
%TO.N,/FPGA/SRAM1.A7*%
X55860000Y-95610000D03*
X40490000Y-89918200D03*
%TO.N,/FPGA/SRAM1.A4*%
X50305800Y-88634000D03*
X54860000Y-89610000D03*
%TO.N,/FPGA/SRAM1.A16*%
X54860000Y-95610000D03*
X40500000Y-90599814D03*
%TO.N,/FPGA/SRAM1.LB_N*%
X38250000Y-87599566D03*
X54860000Y-92610000D03*
%TO.N,/FPGA/SRAM1.UB_N*%
X54860000Y-90610000D03*
X49850000Y-86610000D03*
%TO.N,/FPGA/SRAM1.A1*%
X50310000Y-87970000D03*
X52860000Y-89610000D03*
%TO.N,/FPGA/SRAM1.D11*%
X50370000Y-85600000D03*
X54860000Y-88610000D03*
%TO.N,/FPGA/SRAM1.A15*%
X40500000Y-91349876D03*
X53849253Y-95629800D03*
%TO.N,/FPGA/SRAM1.A6*%
X40500000Y-89051800D03*
X56860000Y-94610000D03*
%TO.N,/FPGA/SRAM1.A0*%
X56860000Y-90610000D03*
X49800000Y-87180000D03*
%TO.N,/FPGA/SRAM1.D3*%
X48800000Y-90530000D03*
X55860000Y-92610000D03*
%TO.N,/FPGA/SRAM1.OE_N*%
X49820000Y-86020000D03*
X56860000Y-89610000D03*
%TO.N,/FPGA/SRAM2.A17*%
X55850000Y-100600000D03*
X39780000Y-104499752D03*
%TO.N,/FPGA/SRAM2.D2*%
X54850000Y-99583800D03*
X44211383Y-104243600D03*
%TO.N,/FPGA/SRAM2.A6*%
X40500000Y-103700000D03*
X55850000Y-98600000D03*
%TO.N,/FPGA/SRAM2.A16*%
X57860000Y-100610000D03*
X40530000Y-105249814D03*
%TO.N,/FPGA/SRAM2.CE_N*%
X53850000Y-98600000D03*
X45600000Y-102650000D03*
%TO.N,/FPGA/SRAM2.D1*%
X44750000Y-103750000D03*
X55850000Y-99600000D03*
%TO.N,/FPGA/SRAM2.D3*%
X56850000Y-100600000D03*
X43642902Y-104671800D03*
%TO.N,/FPGA/SRAM2.A7*%
X40531315Y-104556400D03*
X54850000Y-100600000D03*
%TO.N,/FPGA/SRAM2.A0*%
X54850000Y-98600000D03*
X45950000Y-100350000D03*
%TO.N,/FPGA/SRAM2.D0*%
X56850000Y-99600000D03*
X45150000Y-103200000D03*
%TO.N,/FPGA/SRAM2.A5*%
X39780000Y-103749690D03*
X55850000Y-97600000D03*
%TO.N,/FPGA/SRAM2.LB_N*%
X44900000Y-98850000D03*
X56850000Y-97600000D03*
%TO.N,/FPGA/SRAM2.A15*%
X40530000Y-105999876D03*
X56850000Y-101600000D03*
%TO.N,/FPGA/SRAM2.A14*%
X55850000Y-101600000D03*
X39780000Y-105999876D03*
%TO.N,Net-(U30J-CLK2)*%
X56860000Y-87610000D03*
X50001115Y-78632017D03*
%TO.N,Net-(U30J-CLK14)*%
X50860000Y-96610000D03*
X43930000Y-84230000D03*
%TO.N,Net-(U35-CLK)*%
X59120000Y-109880000D03*
X58155000Y-118315000D03*
%TO.N,Net-(U30J-CLK8)*%
X79010000Y-116060000D03*
X71860000Y-97610000D03*
%TO.N,Net-(U30J-CLK6)*%
X56860000Y-106610000D03*
X41100000Y-118180000D03*
%TO.N,Net-(U30J-CLK5)*%
X69590000Y-113370000D03*
X44590000Y-123040000D03*
%TO.N,Net-(U30J-CLK4)*%
X70300000Y-113230000D03*
X43120000Y-127840000D03*
%TO.N,Net-(U24-HSD2-)*%
X113920000Y-74880000D03*
%TO.N,Net-(U24-HSD2+)*%
X113530000Y-74330000D03*
X117360000Y-25660000D03*
D34*
%TO.N,/AtariInterfaces/PBI39*%
X141650000Y-29790000D03*
X147050000Y-24050000D03*
D36*
%TO.N,/ESP32/ESPJTAG.TDO*%
X134700000Y-106190000D03*
%TO.N,Net-(USB2-CC1)*%
X116610000Y-23260000D03*
%TO.N,/FPGA/SPI.SCK*%
X39810000Y-73600000D03*
X113750000Y-63270000D03*
%TO.N,/FPGA/SPI.CS2*%
X112020000Y-57910000D03*
X39840000Y-74230000D03*
X67860000Y-87610000D03*
%TO.N,/FPGA/FPGA.IRQ*%
X100050000Y-64260000D03*
X71860000Y-88610000D03*
%TO.N,/IOCards/SD.DETECT*%
X117450000Y-70070000D03*
X226890000Y-145200000D03*
D34*
%TO.N,/Microcontroller/+3V_BAT*%
X108475000Y-48305000D03*
D36*
%TO.N,Net-(USB2-CC2)*%
X114830000Y-23420000D03*
%TO.N,/Microcontroller/NRST*%
X96790000Y-51250000D03*
%TO.N,Net-(J6-Pad13)*%
X59550000Y-16760000D03*
%TO.N,Net-(J6-Pad14)*%
X58050000Y-16830000D03*
%TO.N,Net-(J9-Pin_2)*%
X107270000Y-72570000D03*
%TO.N,Net-(J9-Pin_3)*%
X109210000Y-70130000D03*
%TO.N,Net-(J10-Pin_6)*%
X99750000Y-54310000D03*
%TO.N,Net-(J10-Pin_5)*%
X99290000Y-53760000D03*
%TO.N,Net-(J10-Pin_3)*%
X98300000Y-53730000D03*
%TO.N,Net-(J10-Pin_4)*%
X98760000Y-54220000D03*
%TO.N,Net-(J10-Pin_7)*%
X100290000Y-53830000D03*
%TO.N,/ESP32/ESP.EN*%
X102570000Y-90070000D03*
%TO.N,/ESP32/ESP.BOOT*%
X101580000Y-90690000D03*
X130200000Y-100630000D03*
%TO.N,Net-(U17-OUTR)*%
X88830000Y-26650000D03*
X84490000Y-26870000D03*
%TO.N,Net-(U14-PG)*%
X19870000Y-51260000D03*
X16890000Y-43300000D03*
%TO.N,/ESP32/ESP.SGPI1*%
X149060000Y-120250000D03*
D35*
X102010000Y-64280000D03*
D36*
X99930000Y-90050000D03*
%TO.N,/AtariInterfaces/CONSOL.RESET*%
X56804017Y-81860000D03*
X57860000Y-92610000D03*
X199370000Y-83960000D03*
%TO.N,Net-(J26-Pin_3)*%
X41850000Y-73840000D03*
X34010000Y-76940000D03*
%TO.N,/FPGA/FPGA.PS_N*%
X65565000Y-83135000D03*
X101750000Y-83540000D03*
X108720000Y-63380000D03*
%TD*%
D37*
%TO.N,+5V*%
X239690000Y-61510000D02*
X238410000Y-60230000D01*
X258480000Y-117190000D02*
X258480000Y-119470000D01*
X258710000Y-52240000D02*
X258680000Y-52210000D01*
X240614000Y-30984000D02*
X243130000Y-33500000D01*
X260990000Y-49070000D02*
X260990000Y-89080000D01*
X18860000Y-22630000D02*
X17190000Y-20960000D01*
X247056619Y-52210000D02*
X245876619Y-51030000D01*
X206270000Y-30984000D02*
X192600000Y-30984000D01*
X244790000Y-51030000D02*
X239940000Y-46180000D01*
X49070000Y-30984000D02*
X19864000Y-30984000D01*
X134800000Y-30984000D02*
X124570000Y-30984000D01*
X244790000Y-51030000D02*
X244790000Y-59680000D01*
X222050000Y-30984000D02*
X240614000Y-30984000D01*
X260990000Y-49070000D02*
X260990000Y-49960000D01*
X260990000Y-114680000D02*
X258480000Y-117190000D01*
X245876619Y-51030000D02*
X244790000Y-51030000D01*
X213910000Y-30984000D02*
X208270000Y-30984000D01*
X258680000Y-52210000D02*
X247056619Y-52210000D01*
X260990000Y-49960000D02*
X258710000Y-52240000D01*
X242340000Y-75520000D02*
X238640000Y-75520000D01*
X258120000Y-91950000D02*
X238230000Y-91950000D01*
X140060000Y-30984000D02*
X138900000Y-30984000D01*
X208270000Y-30984000D02*
X206270000Y-30984000D01*
X145980000Y-30984000D02*
X146091092Y-31095092D01*
X260990000Y-89080000D02*
X260990000Y-114680000D01*
X244345000Y-34715000D02*
X244820000Y-35190000D01*
X260990000Y-37410000D02*
X260990000Y-49070000D01*
X260990000Y-89080000D02*
X258120000Y-91950000D01*
X244900000Y-72960000D02*
X242340000Y-75520000D01*
X244820000Y-35190000D02*
X258770000Y-35190000D01*
X242960000Y-61510000D02*
X239690000Y-61510000D01*
X242960000Y-61510000D02*
X244900000Y-63450000D01*
X244900000Y-63450000D02*
X244900000Y-72960000D01*
X243130000Y-33500000D02*
X244345000Y-34715000D01*
X146202184Y-30984000D02*
X146091092Y-31095092D01*
X137916000Y-30000000D02*
X135784000Y-30000000D01*
X138900000Y-30984000D02*
X137916000Y-30000000D01*
X151140000Y-30984000D02*
X146202184Y-30984000D01*
X258770000Y-35190000D02*
X260990000Y-37410000D01*
X124570000Y-30984000D02*
X76530000Y-30984000D01*
X140060000Y-30984000D02*
X145980000Y-30984000D01*
X218130000Y-30984000D02*
X222050000Y-30984000D01*
X244790000Y-59680000D02*
X242960000Y-61510000D01*
X18860000Y-29980000D02*
X18860000Y-22630000D01*
X19864000Y-30984000D02*
X18860000Y-29980000D01*
X192600000Y-30984000D02*
X151140000Y-30984000D01*
X49070000Y-30984000D02*
X76530000Y-30984000D01*
X218130000Y-30984000D02*
X213910000Y-30984000D01*
X135784000Y-30000000D02*
X134800000Y-30984000D01*
%TO.N,+1V2*%
X44150000Y-98440000D02*
X43949998Y-98440000D01*
D38*
X47190000Y-87450000D02*
X46240000Y-87450000D01*
D37*
X18350000Y-47140000D02*
X18370000Y-47160000D01*
D38*
X58540000Y-94290000D02*
X58860000Y-94610000D01*
X64300000Y-98050000D02*
X63860000Y-97610000D01*
X60470000Y-94120000D02*
X61630000Y-94120000D01*
X57860000Y-97610000D02*
X57360000Y-98110000D01*
X62260000Y-100010000D02*
X61860000Y-99610000D01*
D37*
X24600000Y-47160000D02*
X27010000Y-49570000D01*
D38*
X58370000Y-99700000D02*
X58370000Y-98850000D01*
X59520000Y-94120000D02*
X60470000Y-94120000D01*
X58540000Y-94120000D02*
X59520000Y-94120000D01*
X61630000Y-94380000D02*
X61860000Y-94610000D01*
X63860000Y-95610000D02*
X64235000Y-95235000D01*
X45270000Y-85230000D02*
X46225000Y-84275000D01*
X46240000Y-87450000D02*
X45270000Y-86480000D01*
X57360000Y-98110000D02*
X53530000Y-98110000D01*
X62860000Y-100610000D02*
X63860000Y-101610000D01*
X63230000Y-100050000D02*
X62260000Y-100050000D01*
X58540000Y-94120000D02*
X58370000Y-94120000D01*
X64300000Y-100140000D02*
X64235000Y-100205000D01*
X72990000Y-88209646D02*
X73004823Y-88194823D01*
X61860000Y-101610000D02*
X62860000Y-100610000D01*
X58370000Y-96980000D02*
X58490000Y-96980000D01*
X64300000Y-97080000D02*
X64300000Y-95300000D01*
X60470000Y-94120000D02*
X60470000Y-94220000D01*
X64300000Y-99170000D02*
X64300000Y-99050000D01*
X58370000Y-94290000D02*
X58540000Y-94120000D01*
X64300000Y-99960000D02*
X64300000Y-100140000D01*
X64235000Y-95235000D02*
X64860000Y-94610000D01*
X62660000Y-94120000D02*
X62660000Y-94410000D01*
X64710000Y-100760000D02*
X63860000Y-101610000D01*
X58330000Y-99740000D02*
X58370000Y-99700000D01*
X64300000Y-99170000D02*
X64300000Y-98230000D01*
X64300000Y-95300000D02*
X64235000Y-95235000D01*
X67860000Y-102610000D02*
X65930000Y-100680000D01*
X61860000Y-101610000D02*
X60860000Y-100610000D01*
X64210000Y-99960000D02*
X63860000Y-99610000D01*
X64300000Y-98230000D02*
X64300000Y-98050000D01*
X53602800Y-92092800D02*
X51530000Y-90020000D01*
X70260000Y-92110000D02*
X72990000Y-89380000D01*
X57860000Y-93610000D02*
X56285000Y-92035000D01*
D37*
X51680000Y-97660000D02*
X47960000Y-97660000D01*
D38*
X64300000Y-97080000D02*
X64300000Y-97050000D01*
X58370000Y-98850000D02*
X58620000Y-98850000D01*
X61200000Y-99950000D02*
X60860000Y-99610000D01*
X57390000Y-98140000D02*
X57360000Y-98110000D01*
X61630000Y-94120000D02*
X61630000Y-94380000D01*
X58460000Y-99870000D02*
X58600000Y-99870000D01*
X63230000Y-100050000D02*
X63230000Y-99980000D01*
X67360000Y-92110000D02*
X67360000Y-93880000D01*
X61200000Y-100050000D02*
X61200000Y-99950000D01*
X58370000Y-98140000D02*
X57390000Y-98140000D01*
X63230000Y-99980000D02*
X62860000Y-99610000D01*
X58370000Y-95970000D02*
X58220000Y-95970000D01*
X64710000Y-100680000D02*
X64235000Y-100205000D01*
X64860000Y-94610000D02*
X65350000Y-94120000D01*
X56227200Y-92092800D02*
X53602800Y-92092800D01*
D37*
X44930000Y-97660000D02*
X35060000Y-97660000D01*
D38*
X45270000Y-86480000D02*
X45270000Y-85230000D01*
X59520000Y-94270000D02*
X59860000Y-94610000D01*
X60300000Y-100050000D02*
X59860000Y-99610000D01*
D37*
X44930000Y-97660000D02*
X47960000Y-97660000D01*
D38*
X58370000Y-95970000D02*
X58370000Y-94290000D01*
X58490000Y-96980000D02*
X58860000Y-96610000D01*
D37*
X44930000Y-97660000D02*
X44150000Y-98440000D01*
D38*
X64080000Y-100050000D02*
X63230000Y-100050000D01*
X58460000Y-99870000D02*
X58330000Y-99740000D01*
X65930000Y-100680000D02*
X64710000Y-100680000D01*
D37*
X16540000Y-46700000D02*
X16980000Y-47140000D01*
D38*
X58370000Y-98850000D02*
X58370000Y-98140000D01*
X65860000Y-100610000D02*
X65860000Y-97610000D01*
X52910000Y-102610000D02*
X47960000Y-97660000D01*
X56285000Y-92035000D02*
X56227200Y-92092800D01*
X58370000Y-98140000D02*
X58370000Y-98100000D01*
X59520000Y-94120000D02*
X59520000Y-94270000D01*
D37*
X16980000Y-47140000D02*
X18350000Y-47140000D01*
D38*
X56285000Y-92035000D02*
X55860000Y-91610000D01*
X58540000Y-94120000D02*
X58540000Y-94290000D01*
X58500000Y-95970000D02*
X58860000Y-95610000D01*
X51530000Y-90020000D02*
X49760000Y-90020000D01*
X64235000Y-100205000D02*
X64080000Y-100050000D01*
X58370000Y-98100000D02*
X58860000Y-97610000D01*
X67360000Y-92110000D02*
X70260000Y-92110000D01*
X72990000Y-89380000D02*
X72990000Y-88209646D01*
D37*
X35060000Y-97660000D02*
X32600000Y-95200000D01*
D38*
X62660000Y-94410000D02*
X62860000Y-94610000D01*
X65930000Y-100680000D02*
X65860000Y-100610000D01*
X65370000Y-94100000D02*
X65350000Y-94120000D01*
X58370000Y-98140000D02*
X58370000Y-96980000D01*
X60300000Y-100050000D02*
X58640000Y-100050000D01*
X58370000Y-95970000D02*
X58500000Y-95970000D01*
X64300000Y-99960000D02*
X64210000Y-99960000D01*
X58640000Y-100050000D02*
X58460000Y-99870000D01*
X64300000Y-98230000D02*
X64300000Y-97080000D01*
X58370000Y-96980000D02*
X58370000Y-95970000D01*
X67360000Y-92110000D02*
X66860000Y-91610000D01*
X62260000Y-100050000D02*
X61200000Y-100050000D01*
X62260000Y-100050000D02*
X62260000Y-100010000D01*
X67360000Y-93880000D02*
X67140000Y-94100000D01*
D37*
X27010000Y-52440000D02*
X27010000Y-49570000D01*
X32600000Y-95200000D02*
X32600000Y-58030000D01*
X32600000Y-58030000D02*
X27010000Y-52440000D01*
D38*
X58600000Y-99870000D02*
X58860000Y-99610000D01*
X52140000Y-98120000D02*
X51680000Y-97660000D01*
X49760000Y-90020000D02*
X47190000Y-87450000D01*
X53520000Y-98120000D02*
X52140000Y-98120000D01*
D37*
X18370000Y-47160000D02*
X24600000Y-47160000D01*
D38*
X64300000Y-99050000D02*
X63860000Y-98610000D01*
X64710000Y-100680000D02*
X64710000Y-100760000D01*
X58620000Y-98850000D02*
X58860000Y-98610000D01*
X58220000Y-95970000D02*
X57860000Y-95610000D01*
X62660000Y-94120000D02*
X65350000Y-94120000D01*
X64300000Y-99170000D02*
X64300000Y-99960000D01*
X61630000Y-94120000D02*
X62660000Y-94120000D01*
X53530000Y-98110000D02*
X53520000Y-98120000D01*
X61200000Y-100050000D02*
X60300000Y-100050000D01*
X64300000Y-97050000D02*
X63860000Y-96610000D01*
X67140000Y-94100000D02*
X65370000Y-94100000D01*
X52910000Y-102610000D02*
X54860000Y-102610000D01*
X60470000Y-94220000D02*
X60860000Y-94610000D01*
X58370000Y-94120000D02*
X57860000Y-93610000D01*
%TO.N,+2V5*%
X31626800Y-94573623D02*
X31606377Y-94573623D01*
D37*
X56350000Y-104100000D02*
X55725000Y-104725000D01*
D38*
X31550000Y-92780000D02*
X30460000Y-93870000D01*
D37*
X53250000Y-108570000D02*
X48875000Y-108570000D01*
X16950000Y-53460000D02*
X17780000Y-53460000D01*
X55725000Y-106095000D02*
X53250000Y-108570000D01*
D38*
X64320000Y-90120000D02*
X63370000Y-90120000D01*
D37*
X33890000Y-73190000D02*
X35630000Y-73190000D01*
X52320000Y-77780000D02*
X52320000Y-83270000D01*
X39780000Y-77340000D02*
X46950000Y-77340000D01*
X30460000Y-62040000D02*
X30460000Y-73160000D01*
D38*
X58540000Y-90120000D02*
X58350000Y-90120000D01*
X62350000Y-104100000D02*
X56350000Y-104100000D01*
X58540000Y-90120000D02*
X53660000Y-90120000D01*
D37*
X26575000Y-58155000D02*
X30460000Y-62040000D01*
D38*
X52660000Y-88100000D02*
X52660000Y-83970000D01*
X31600000Y-92780000D02*
X31550000Y-92780000D01*
D37*
X17780000Y-53460000D02*
X18680000Y-54360000D01*
D38*
X62350000Y-104100000D02*
X66370000Y-104100000D01*
X64370000Y-90120000D02*
X65860000Y-91610000D01*
D37*
X30460000Y-92080000D02*
X30460000Y-93870000D01*
D38*
X65820000Y-85840000D02*
X65470000Y-85840000D01*
X53660000Y-90120000D02*
X53330000Y-89790000D01*
D37*
X46950000Y-77340000D02*
X47640000Y-76650000D01*
X47640000Y-76650000D02*
X51190000Y-76650000D01*
X51190000Y-76650000D02*
X52320000Y-77780000D01*
X22780000Y-54360000D02*
X26575000Y-58155000D01*
X30460000Y-97560000D02*
X30460000Y-105080000D01*
D38*
X63370000Y-90120000D02*
X58540000Y-90120000D01*
X56350000Y-104100000D02*
X55860000Y-103610000D01*
X63430000Y-89780000D02*
X63090000Y-90120000D01*
D37*
X30460000Y-73160000D02*
X30460000Y-92080000D01*
D38*
X44660000Y-112950000D02*
X44660000Y-112347500D01*
X31600423Y-94600000D02*
X31626800Y-94573623D01*
D37*
X30460000Y-95720000D02*
X30460000Y-97560000D01*
D38*
X31606377Y-94573623D02*
X30460000Y-95720000D01*
X58350000Y-90120000D02*
X56860000Y-91610000D01*
D37*
X55725000Y-104725000D02*
X55725000Y-106095000D01*
X16820000Y-53590000D02*
X16950000Y-53460000D01*
D38*
X63430000Y-87880000D02*
X63430000Y-89780000D01*
X44660000Y-112347500D02*
X43770000Y-111457500D01*
X63090000Y-90120000D02*
X63370000Y-90120000D01*
X65470000Y-85840000D02*
X63430000Y-87880000D01*
X53330000Y-88770000D02*
X52660000Y-88100000D01*
D37*
X48875000Y-108570000D02*
X45987500Y-111457500D01*
D38*
X52660000Y-83970000D02*
X52140000Y-83450000D01*
D37*
X30460000Y-93870000D02*
X30460000Y-95720000D01*
D38*
X64320000Y-90120000D02*
X64370000Y-90120000D01*
X53330000Y-89790000D02*
X53330000Y-88770000D01*
D37*
X35630000Y-73190000D02*
X39780000Y-77340000D01*
X18680000Y-54360000D02*
X22780000Y-54360000D01*
X43770000Y-111457500D02*
X45987500Y-111457500D01*
X30460000Y-105080000D02*
X36837500Y-111457500D01*
D38*
X66370000Y-104100000D02*
X66860000Y-103610000D01*
D37*
X36837500Y-111457500D02*
X43770000Y-111457500D01*
D39*
%TO.N,Net-(C82-Pad2)*%
X101980000Y-47280000D02*
X101980000Y-42720000D01*
X99965000Y-40705000D02*
X99965000Y-34785000D01*
X101980000Y-42720000D02*
X99965000Y-40705000D01*
%TO.N,/ESP32/UART1.RX*%
X127990000Y-117640000D02*
X102610000Y-92260000D01*
X137080000Y-115580000D02*
X135020000Y-117640000D01*
X135020000Y-117640000D02*
X130940000Y-117640000D01*
X102409676Y-92260000D02*
X102337784Y-92188108D01*
X130940000Y-117640000D02*
X127990000Y-117640000D01*
X102337784Y-92188108D02*
X102337784Y-92172216D01*
X137080000Y-99780000D02*
X137080000Y-115580000D01*
X140730000Y-95440000D02*
X140730000Y-96130000D01*
X102337784Y-92172216D02*
X102437784Y-92072216D01*
X140730000Y-96130000D02*
X137080000Y-99780000D01*
X102610000Y-92260000D02*
X102409676Y-92260000D01*
%TO.N,/ESP32/UART1.TX*%
X107760000Y-96860000D02*
X124760000Y-96860000D01*
X101742784Y-91497216D02*
X101742784Y-91577216D01*
X129130000Y-101230000D02*
X135240000Y-101230000D01*
X143230000Y-96170000D02*
X143230000Y-97600000D01*
X143230000Y-97600000D02*
X138310000Y-102520000D01*
X135240000Y-101230000D02*
X139430000Y-97040000D01*
X124760000Y-96860000D02*
X129130000Y-101230000D01*
X101742784Y-91577216D02*
X101755568Y-91590000D01*
X102865984Y-91894849D02*
X102865984Y-91965984D01*
X102490000Y-91590000D02*
X102544016Y-91644016D01*
X139770000Y-94770000D02*
X141830000Y-94770000D01*
X141830000Y-94770000D02*
X141840000Y-94760000D01*
X101802784Y-91437216D02*
X101742784Y-91497216D01*
X141840000Y-94760000D02*
X141900000Y-94760000D01*
X143270000Y-96130000D02*
X143230000Y-96170000D01*
X102865984Y-91965984D02*
X107760000Y-96860000D01*
X138310000Y-102520000D02*
X138310000Y-116590000D01*
X102544016Y-91644016D02*
X102615151Y-91644016D01*
X102615151Y-91644016D02*
X102865984Y-91894849D01*
X139430000Y-97040000D02*
X139430000Y-95110000D01*
X139430000Y-95110000D02*
X139770000Y-94770000D01*
X101755568Y-91590000D02*
X102490000Y-91590000D01*
X141900000Y-94760000D02*
X143270000Y-96130000D01*
X138310000Y-116590000D02*
X135840000Y-119060000D01*
%TO.N,/Microcontroller/STM.SCL*%
X111990000Y-56570000D02*
X98450000Y-56570000D01*
X51540000Y-64210000D02*
X49260000Y-66490000D01*
X90810000Y-64210000D02*
X51540000Y-64210000D01*
X98450000Y-56570000D02*
X90810000Y-64210000D01*
%TO.N,/Microcontroller/STM.SDA*%
X48030000Y-63370000D02*
X47210000Y-64190000D01*
X98530000Y-55650000D02*
X90640000Y-63540000D01*
X73950000Y-63370000D02*
X48030000Y-63370000D01*
X78600000Y-61750000D02*
X75570000Y-61750000D01*
X80390000Y-63540000D02*
X78600000Y-61750000D01*
X112140000Y-55650000D02*
X98530000Y-55650000D01*
X90640000Y-63540000D02*
X80390000Y-63540000D01*
X75570000Y-61750000D02*
X73950000Y-63370000D01*
%TO.N,/IOCards/SD.D1*%
X197570000Y-74360000D02*
X224490000Y-101280000D01*
X118210000Y-74330000D02*
X118210000Y-74360000D01*
X228909700Y-147970000D02*
X232150000Y-144729700D01*
X225620000Y-147970000D02*
X228909700Y-147970000D01*
X117450000Y-73570000D02*
X118210000Y-74330000D01*
X224490000Y-127860000D02*
X223970000Y-128380000D01*
X224490000Y-101280000D02*
X224490000Y-127860000D01*
X223970000Y-128380000D02*
X223970000Y-146320000D01*
X223970000Y-146320000D02*
X225620000Y-147970000D01*
X118210000Y-74360000D02*
X197570000Y-74360000D01*
%TO.N,/IOCards/SD.D3*%
X223700000Y-126290000D02*
X223700000Y-101440000D01*
X223100000Y-129180000D02*
X223460000Y-129540000D01*
X223260000Y-126730000D02*
X223700000Y-126290000D01*
X223260000Y-126730000D02*
X223100000Y-126890000D01*
X197420000Y-75160000D02*
X117530000Y-75160000D01*
X223700000Y-101440000D02*
X197420000Y-75160000D01*
X223100000Y-126890000D02*
X223100000Y-129180000D01*
%TO.N,/IOCards/SD.D0*%
X225070000Y-142520000D02*
X225070000Y-129950000D01*
X224500000Y-129380000D02*
X224500000Y-128550000D01*
X224900000Y-101220000D02*
X197620000Y-73940000D01*
X197620000Y-73940000D02*
X118670000Y-73940000D01*
X224630000Y-142960000D02*
X225070000Y-142520000D01*
X224500000Y-128550000D02*
X224900000Y-128150000D01*
X118670000Y-73940000D02*
X117537784Y-72807784D01*
X224900000Y-128150000D02*
X224900000Y-101220000D01*
X225070000Y-129950000D02*
X224500000Y-129380000D01*
%TO.N,/IOCards/SD.CMD*%
X197620000Y-73530000D02*
X119470000Y-73530000D01*
X225290000Y-101200000D02*
X197620000Y-73530000D01*
X224940000Y-128990000D02*
X225290000Y-128640000D01*
X119470000Y-73530000D02*
X117385000Y-71445000D01*
X225290000Y-128640000D02*
X225290000Y-101200000D01*
%TO.N,/IOCards/SD.CK*%
X198010000Y-72340000D02*
X120330000Y-72340000D01*
X226680000Y-101010000D02*
X198010000Y-72340000D01*
X120330000Y-72340000D02*
X117455000Y-69465000D01*
X117455000Y-69465000D02*
X117455000Y-69335000D01*
X226680000Y-135250000D02*
X226680000Y-101010000D01*
%TO.N,/IOCards/SD.D2*%
X117470000Y-74460000D02*
X117630000Y-74460000D01*
X224060000Y-127050000D02*
X223640000Y-127470000D01*
X197510000Y-74780000D02*
X224060000Y-101330000D01*
X224060000Y-101330000D02*
X224060000Y-126120000D01*
X224060000Y-126120000D02*
X224060000Y-127050000D01*
X117630000Y-74460000D02*
X117950000Y-74780000D01*
X117950000Y-74780000D02*
X197510000Y-74780000D01*
%TO.N,/Microcontroller/STM.I2CRESET*%
X78340000Y-59210000D02*
X76160000Y-59210000D01*
X87950000Y-59560000D02*
X86870000Y-60640000D01*
X43180000Y-71200000D02*
X43180000Y-71768200D01*
X79770000Y-60640000D02*
X78340000Y-59210000D01*
X46340000Y-62370000D02*
X44520000Y-64190000D01*
X76160000Y-59210000D02*
X73000000Y-62370000D01*
X44520000Y-64190000D02*
X44520000Y-68460000D01*
X42990000Y-69990000D02*
X42990000Y-71010000D01*
X42990000Y-71010000D02*
X43180000Y-71200000D01*
X73000000Y-62370000D02*
X46340000Y-62370000D01*
X86870000Y-60640000D02*
X79770000Y-60640000D01*
X44520000Y-68460000D02*
X42990000Y-69990000D01*
%TO.N,/Microcontroller/USB.DM*%
X200200000Y-84780000D02*
X200200000Y-83080000D01*
X114300000Y-76220000D02*
X114290000Y-76230000D01*
X193340000Y-76220000D02*
X114300000Y-76220000D01*
X200200000Y-83080000D02*
X193340000Y-76220000D01*
%TO.N,/Microcontroller/USB.DP*%
X114850000Y-75930000D02*
X114640000Y-75720000D01*
X113890681Y-75720000D02*
X113660682Y-75949999D01*
X114640000Y-75720000D02*
X113890681Y-75720000D01*
X193520000Y-75930000D02*
X114850000Y-75930000D01*
X200720000Y-84110000D02*
X200720000Y-83130000D01*
X200720000Y-83130000D02*
X193520000Y-75930000D01*
%TO.N,/FPGA/FPGA.CONFIG_N*%
X84947722Y-73013200D02*
X84572278Y-73013200D01*
X103220000Y-62320000D02*
X102705567Y-62320000D01*
X73890000Y-72850000D02*
X73490000Y-73250000D01*
X101594433Y-62320000D02*
X99050000Y-62320000D01*
X101972633Y-62698200D02*
X101594433Y-62320000D01*
X102327367Y-62698200D02*
X101972633Y-62698200D01*
X99050000Y-62320000D02*
X88520000Y-72850000D01*
X84409078Y-72850000D02*
X73890000Y-72850000D01*
X88520000Y-72850000D02*
X85110922Y-72850000D01*
X84572278Y-73013200D02*
X84409078Y-72850000D01*
X102705567Y-62320000D02*
X102327367Y-62698200D01*
X73490000Y-73250000D02*
X71933335Y-73250000D01*
X71933335Y-73250000D02*
X71633335Y-73550000D01*
X85110922Y-72850000D02*
X84947722Y-73013200D01*
%TO.N,/FPGA/FPGA.STATUS_N*%
X71910000Y-72510000D02*
X70870000Y-73550000D01*
X88713200Y-72106800D02*
X84572278Y-72106800D01*
X69130000Y-73550000D02*
X68990000Y-73690000D01*
X84169078Y-72510000D02*
X71910000Y-72510000D01*
X84572278Y-72106800D02*
X84169078Y-72510000D01*
X70870000Y-73550000D02*
X69130000Y-73550000D01*
X99060000Y-61760000D02*
X88713200Y-72106800D01*
X103230000Y-61760000D02*
X99060000Y-61760000D01*
%TO.N,/FPGA/SPI.CS1*%
X74170000Y-70020000D02*
X70170000Y-66020000D01*
X99110000Y-58520000D02*
X90140000Y-67490000D01*
X90140000Y-67490000D02*
X86280000Y-67490000D01*
X86280000Y-67490000D02*
X83750000Y-70020000D01*
X83750000Y-70020000D02*
X74170000Y-70020000D01*
X70170000Y-66020000D02*
X69630000Y-66020000D01*
X112060000Y-58520000D02*
X99110000Y-58520000D01*
%TO.N,/IOCards/SD.WP*%
X117505000Y-70725000D02*
X119930000Y-73150000D01*
X119930000Y-73150000D02*
X197790000Y-73150000D01*
X197790000Y-73150000D02*
X225690000Y-101050000D01*
X225690000Y-101050000D02*
X225690000Y-145760000D01*
X225690000Y-145760000D02*
X227390000Y-147460000D01*
%TO.N,/ESP32/ESP.SGPIO*%
X100920000Y-91140000D02*
X118440000Y-108660000D01*
X104710000Y-89560000D02*
X101820000Y-89560000D01*
X101820000Y-89560000D02*
X100920000Y-90460000D01*
X100920000Y-90460000D02*
X100920000Y-91140000D01*
X118440000Y-108660000D02*
X118440000Y-108910000D01*
%TO.N,/ESP32/ESP.SGPI0*%
X128950000Y-120870000D02*
X148720000Y-120870000D01*
X102250000Y-88740000D02*
X100300000Y-88740000D01*
X116640000Y-110680000D02*
X118760000Y-110680000D01*
X148720000Y-120870000D02*
X149250000Y-121400000D01*
X100300000Y-88740000D02*
X99370000Y-89670000D01*
X112190000Y-106230000D02*
X116640000Y-110680000D01*
X112190000Y-104140000D02*
X112190000Y-106230000D01*
X99370000Y-91320000D02*
X112190000Y-104140000D01*
X118760000Y-110680000D02*
X128950000Y-120870000D01*
X99370000Y-89670000D02*
X99370000Y-91320000D01*
%TO.N,/AtariInterfaces/JOY2.TRIG2*%
X61925000Y-83585000D02*
X62120000Y-83390000D01*
X177550000Y-83860000D02*
X186420000Y-92730000D01*
X64110000Y-83390000D02*
X64890000Y-82610000D01*
X102280000Y-81820000D02*
X103070000Y-82610000D01*
X64890000Y-82610000D02*
X100710000Y-82610000D01*
X100710000Y-82610000D02*
X101500000Y-81820000D01*
X106450000Y-83860000D02*
X177550000Y-83860000D01*
X101500000Y-81820000D02*
X102280000Y-81820000D01*
X62120000Y-83390000D02*
X64110000Y-83390000D01*
X103070000Y-82610000D02*
X105200000Y-82610000D01*
X105200000Y-82610000D02*
X106450000Y-83860000D01*
%TO.N,/AtariInterfaces/JOY2.POT6*%
X108140000Y-86950000D02*
X105630000Y-86950000D01*
X172770000Y-86950000D02*
X108140000Y-86950000D01*
X182630000Y-96810000D02*
X172770000Y-86950000D01*
%TO.N,/AtariInterfaces/JOY2.DIR15*%
X64380000Y-85090000D02*
X66750000Y-85090000D01*
X74490000Y-84950000D02*
X104590000Y-84950000D01*
X74060000Y-84520000D02*
X74490000Y-84950000D01*
D40*
X60860000Y-88610000D02*
X63770000Y-85700000D01*
X63770000Y-85700000D02*
X64380000Y-85090000D01*
D39*
X67320000Y-84520000D02*
X74060000Y-84520000D01*
X66750000Y-85090000D02*
X67320000Y-84520000D01*
X105720000Y-86080000D02*
X173790000Y-86080000D01*
X173790000Y-86080000D02*
X183500000Y-95790000D01*
X104590000Y-84950000D02*
X105720000Y-86080000D01*
%TO.N,/AtariInterfaces/JOY2.POT5*%
X106090000Y-84570000D02*
X104760000Y-83240000D01*
X102120000Y-83240000D02*
X101690000Y-82810000D01*
X104760000Y-83240000D02*
X102660000Y-83240000D01*
X176470000Y-84570000D02*
X107760000Y-84570000D01*
X185540000Y-93640000D02*
X176470000Y-84570000D01*
X107760000Y-84570000D02*
X106090000Y-84570000D01*
X102660000Y-83240000D02*
X102120000Y-83240000D01*
%TO.N,/AtariInterfaces/JOY2.POT7*%
X182050000Y-97290000D02*
X172140000Y-87380000D01*
X172140000Y-87380000D02*
X105390000Y-87380000D01*
X105390000Y-87380000D02*
X105320000Y-87450000D01*
X182200000Y-97290000D02*
X182050000Y-97290000D01*
%TO.N,/AtariInterfaces/JOY2.DIR8*%
X100080000Y-81340000D02*
X100930000Y-80490000D01*
X61220000Y-81840000D02*
X63340000Y-81840000D01*
X106050000Y-81340000D02*
X107180000Y-82470000D01*
X60840000Y-82080000D02*
X60980000Y-82080000D01*
X63340000Y-81840000D02*
X63840000Y-81340000D01*
X103620000Y-81340000D02*
X106050000Y-81340000D01*
X102770000Y-80490000D02*
X103620000Y-81340000D01*
X179590000Y-82470000D02*
X188080000Y-90960000D01*
X107180000Y-82470000D02*
X179590000Y-82470000D01*
X63840000Y-81340000D02*
X100080000Y-81340000D01*
X100930000Y-80490000D02*
X102770000Y-80490000D01*
X60980000Y-82080000D02*
X61220000Y-81840000D01*
%TO.N,/AtariInterfaces/JOY2.TRIG3*%
X173280000Y-86500000D02*
X108740000Y-86500000D01*
D40*
X64850000Y-85440000D02*
X65520000Y-85440000D01*
D39*
X74370648Y-85260000D02*
X73942048Y-84831400D01*
X104420000Y-85260000D02*
X74370648Y-85260000D01*
X183040000Y-96260000D02*
X173280000Y-86500000D01*
D40*
X67031400Y-85440000D02*
X67640000Y-84831400D01*
X65520000Y-85440000D02*
X67031400Y-85440000D01*
D39*
X105660000Y-86500000D02*
X104420000Y-85260000D01*
D40*
X64790000Y-85500000D02*
X64850000Y-85440000D01*
D39*
X73942048Y-84831400D02*
X67640000Y-84831400D01*
X108740000Y-86500000D02*
X105660000Y-86500000D01*
D40*
%TO.N,/AtariInterfaces/JOY2.DIR9*%
X60860000Y-85700000D02*
X60860000Y-85130000D01*
X60860000Y-85130000D02*
X60870000Y-85120000D01*
D39*
X60870000Y-85120000D02*
X60770000Y-85020000D01*
X61335000Y-82215000D02*
X63475000Y-82215000D01*
X63475000Y-82215000D02*
X64020000Y-81670000D01*
X105820000Y-81670000D02*
X106960000Y-82810000D01*
X179043710Y-82810000D02*
X187646118Y-91412408D01*
X103450000Y-81670000D02*
X105820000Y-81670000D01*
X64020000Y-81670000D02*
X100250000Y-81670000D01*
X60770000Y-85020000D02*
X60770000Y-82780000D01*
X102620000Y-80840000D02*
X103450000Y-81670000D01*
X106960000Y-82810000D02*
X179043710Y-82810000D01*
X60770000Y-82780000D02*
X61335000Y-82215000D01*
X101080000Y-80840000D02*
X102620000Y-80840000D01*
X100250000Y-81670000D02*
X101080000Y-80840000D01*
%TO.N,/AtariInterfaces/JOY2.DIR14*%
X74200000Y-84220000D02*
X66860000Y-84220000D01*
D40*
X60860000Y-87610000D02*
X61320000Y-87150000D01*
D39*
X66330000Y-84750000D02*
X63720000Y-84750000D01*
D40*
X61320000Y-87150000D02*
X63720000Y-84750000D01*
D39*
X104760000Y-84600000D02*
X74580000Y-84600000D01*
X183960000Y-95160000D02*
X174460000Y-85660000D01*
X174460000Y-85660000D02*
X105820000Y-85660000D01*
X74580000Y-84600000D02*
X74200000Y-84220000D01*
X105820000Y-85660000D02*
X104760000Y-84600000D01*
X66860000Y-84220000D02*
X66330000Y-84750000D01*
%TO.N,/AtariInterfaces/JOY2.DIR11*%
X177980000Y-83490000D02*
X186800000Y-92310000D01*
X61260000Y-83720000D02*
X61530000Y-83450000D01*
X63920000Y-83000000D02*
X64610000Y-82310000D01*
X101390000Y-81500000D02*
X102450000Y-81500000D01*
X100580000Y-82310000D02*
X101390000Y-81500000D01*
X61530000Y-83340000D02*
X61870000Y-83000000D01*
X61870000Y-83000000D02*
X63920000Y-83000000D01*
X106580000Y-83490000D02*
X177980000Y-83490000D01*
X61530000Y-83450000D02*
X61530000Y-83340000D01*
X105400000Y-82310000D02*
X106580000Y-83490000D01*
X64610000Y-82310000D02*
X100580000Y-82310000D01*
X103260000Y-82310000D02*
X105400000Y-82310000D01*
X102450000Y-81500000D02*
X103260000Y-82310000D01*
%TO.N,/AtariInterfaces/JOY2.DIR10*%
X61470000Y-82810000D02*
X61705000Y-82575000D01*
X101240000Y-81200000D02*
X102560000Y-81200000D01*
X178480000Y-83150000D02*
X187180000Y-91850000D01*
X63775000Y-82575000D02*
X64360000Y-81990000D01*
X102560000Y-81200000D02*
X103350000Y-81990000D01*
X61705000Y-82575000D02*
X63775000Y-82575000D01*
X106760000Y-83150000D02*
X178480000Y-83150000D01*
X105600000Y-81990000D02*
X106760000Y-83150000D01*
X100450000Y-81990000D02*
X101240000Y-81200000D01*
X64360000Y-81990000D02*
X100450000Y-81990000D01*
X103350000Y-81990000D02*
X105600000Y-81990000D01*
%TO.N,/AtariInterfaces/JOY2.DIR13*%
X105910000Y-85300000D02*
X104870000Y-84260000D01*
X175070000Y-85300000D02*
X105910000Y-85300000D01*
X66580000Y-83900000D02*
X66060000Y-84420000D01*
X184420000Y-94650000D02*
X175070000Y-85300000D01*
X104870000Y-84260000D02*
X74680000Y-84260000D01*
X66060000Y-84420000D02*
X63210000Y-84420000D01*
X184470000Y-94650000D02*
X184420000Y-94650000D01*
D40*
X61410000Y-86220000D02*
X63210000Y-84420000D01*
X61250000Y-86220000D02*
X60860000Y-86610000D01*
X61340000Y-86220000D02*
X61410000Y-86220000D01*
D39*
X74320000Y-83900000D02*
X66580000Y-83900000D01*
D40*
X61340000Y-86220000D02*
X61250000Y-86220000D01*
D39*
X74680000Y-84260000D02*
X74320000Y-83900000D01*
%TO.N,/AtariInterfaces/JOY2.POT4*%
X105000000Y-82920000D02*
X102770000Y-82920000D01*
X106290000Y-84210000D02*
X105000000Y-82920000D01*
X186010000Y-93160000D02*
X177060000Y-84210000D01*
X102770000Y-82920000D02*
X102150000Y-82300000D01*
X177060000Y-84210000D02*
X106290000Y-84210000D01*
%TO.N,/AtariInterfaces/JOY2.DIR12*%
X105030000Y-83960000D02*
X74810000Y-83960000D01*
X74810000Y-83960000D02*
X74380000Y-83530000D01*
X61725078Y-84120000D02*
X61593591Y-84251487D01*
X65780000Y-84120000D02*
X61725078Y-84120000D01*
X106020000Y-84950000D02*
X105030000Y-83960000D01*
X66370000Y-83530000D02*
X65780000Y-84120000D01*
X185000000Y-94170000D02*
X175780000Y-84950000D01*
X175780000Y-84950000D02*
X106020000Y-84950000D01*
X74380000Y-83530000D02*
X66370000Y-83530000D01*
%TO.N,/AtariInterfaces/PBI_EXT.S5_N*%
X183230000Y-49760000D02*
X158000000Y-49760000D01*
X158000000Y-49760000D02*
X154070000Y-53690000D01*
%TO.N,/AtariInterfaces/JOY.TRIG0*%
X63060000Y-78470000D02*
X63600000Y-77930000D01*
X60810000Y-78470000D02*
X63060000Y-78470000D01*
X60270000Y-79010000D02*
X60810000Y-78470000D01*
X97980000Y-78230000D02*
X99040000Y-77170000D01*
X109630000Y-79290000D02*
X184940000Y-79290000D01*
X192200000Y-86550000D02*
X192700000Y-86550000D01*
X106280000Y-78230000D02*
X108570000Y-78230000D01*
X105220000Y-77170000D02*
X106280000Y-78230000D01*
X63600000Y-77930000D02*
X94290000Y-77930000D01*
X94290000Y-77930000D02*
X94590000Y-78230000D01*
X94590000Y-78230000D02*
X97980000Y-78230000D01*
X108570000Y-78230000D02*
X109630000Y-79290000D01*
X184940000Y-79290000D02*
X192200000Y-86550000D01*
X99040000Y-77170000D02*
X105220000Y-77170000D01*
%TO.N,/AtariInterfaces/JOY.POT2*%
X106570000Y-80720000D02*
X104510000Y-80720000D01*
X180720000Y-81830000D02*
X107680000Y-81830000D01*
X104510000Y-80720000D02*
X104040000Y-80250000D01*
X188980000Y-90090000D02*
X180720000Y-81830000D01*
X107680000Y-81830000D02*
X106570000Y-80720000D01*
X104040000Y-80250000D02*
X103880000Y-80250000D01*
%TO.N,/AtariInterfaces/JOY.DIR6*%
X99970000Y-78780000D02*
X103530000Y-78780000D01*
X103800000Y-79050000D02*
X104370000Y-79050000D01*
X103530000Y-78780000D02*
X103800000Y-79050000D01*
X98970000Y-79780000D02*
X99970000Y-78780000D01*
D40*
X59900000Y-85260000D02*
X60000000Y-85160000D01*
D39*
X107350000Y-79780000D02*
X108410000Y-80840000D01*
X68950000Y-79150000D02*
X69580000Y-79780000D01*
X104370000Y-79050000D02*
X105100000Y-79780000D01*
X60000000Y-85160000D02*
X60400000Y-84760000D01*
D40*
X59900000Y-86570000D02*
X59900000Y-85260000D01*
D39*
X63720000Y-79620000D02*
X64190000Y-79150000D01*
X190390000Y-88760000D02*
X190390000Y-88770000D01*
X60850000Y-80270000D02*
X62060000Y-80270000D01*
X108410000Y-80840000D02*
X182470000Y-80840000D01*
X105100000Y-79780000D02*
X107350000Y-79780000D01*
X60400000Y-80720000D02*
X60850000Y-80270000D01*
X64190000Y-79150000D02*
X68950000Y-79150000D01*
X69580000Y-79780000D02*
X98970000Y-79780000D01*
D40*
X59860000Y-86610000D02*
X59900000Y-86570000D01*
D39*
X60400000Y-84760000D02*
X60400000Y-80720000D01*
X62060000Y-80270000D02*
X62710000Y-79620000D01*
X62710000Y-79620000D02*
X63720000Y-79620000D01*
X182470000Y-80840000D02*
X190390000Y-88760000D01*
%TO.N,/AtariInterfaces/JOY.DIR2*%
X185570000Y-78660000D02*
X192480000Y-85570000D01*
X109010000Y-77570000D02*
X110100000Y-78660000D01*
X98490000Y-76600000D02*
X105750000Y-76600000D01*
X59450000Y-78100000D02*
X60290000Y-77260000D01*
X110100000Y-78660000D02*
X185570000Y-78660000D01*
X94960000Y-77260000D02*
X95270000Y-77570000D01*
X106720000Y-77570000D02*
X109010000Y-77570000D01*
X192480000Y-85570000D02*
X193530000Y-85570000D01*
X60290000Y-77260000D02*
X94960000Y-77260000D01*
X105750000Y-76600000D02*
X106720000Y-77570000D01*
X97520000Y-77570000D02*
X98490000Y-76600000D01*
X95270000Y-77570000D02*
X97520000Y-77570000D01*
%TO.N,/AtariInterfaces/JOY.DIR5*%
X99750000Y-78460000D02*
X103750000Y-78460000D01*
X104030000Y-78740000D02*
X104550000Y-78740000D01*
X62580000Y-79300000D02*
X63490000Y-79300000D01*
X183010000Y-80540000D02*
X190860000Y-88390000D01*
X98740000Y-79470000D02*
X99750000Y-78460000D01*
X108660000Y-80540000D02*
X183010000Y-80540000D01*
X69790000Y-79470000D02*
X98740000Y-79470000D01*
X107590000Y-79470000D02*
X108660000Y-80540000D01*
X61940000Y-79940000D02*
X62580000Y-79300000D01*
X104550000Y-78740000D02*
X105280000Y-79470000D01*
X60580000Y-79940000D02*
X61940000Y-79940000D01*
X60430000Y-80090000D02*
X60580000Y-79940000D01*
X69170000Y-78850000D02*
X69790000Y-79470000D01*
X105280000Y-79470000D02*
X107590000Y-79470000D01*
X63940000Y-78850000D02*
X69170000Y-78850000D01*
X63490000Y-79300000D02*
X63940000Y-78850000D01*
X103750000Y-78460000D02*
X104030000Y-78740000D01*
%TO.N,/AtariInterfaces/JOY.DIR0*%
X95700000Y-76850000D02*
X97190000Y-76850000D01*
X110630000Y-78040000D02*
X186270000Y-78040000D01*
X186270000Y-78040000D02*
X192810000Y-84580000D01*
X192810000Y-84580000D02*
X194350000Y-84580000D01*
X109440000Y-76850000D02*
X110630000Y-78040000D01*
X97190000Y-76850000D02*
X98060000Y-75980000D01*
X95470000Y-76620000D02*
X95700000Y-76850000D01*
X59181400Y-76578600D02*
X62378276Y-76578600D01*
X106400000Y-75980000D02*
X107270000Y-76850000D01*
X62378276Y-76578600D02*
X62419676Y-76620000D01*
X107270000Y-76850000D02*
X109440000Y-76850000D01*
X62419676Y-76620000D02*
X95470000Y-76620000D01*
X98060000Y-75980000D02*
X106400000Y-75980000D01*
X58540000Y-77220000D02*
X59181400Y-76578600D01*
%TO.N,/AtariInterfaces/JOY.DIR1*%
X98260000Y-76290000D02*
X106130000Y-76290000D01*
X59060000Y-77630000D02*
X59740000Y-76950000D01*
X109170000Y-77200000D02*
X110330000Y-78360000D01*
X107040000Y-77200000D02*
X109170000Y-77200000D01*
X192720000Y-85110000D02*
X193960000Y-85110000D01*
X110330000Y-78360000D02*
X185970000Y-78360000D01*
X185970000Y-78360000D02*
X192720000Y-85110000D01*
X97350000Y-77200000D02*
X98260000Y-76290000D01*
X95480000Y-77200000D02*
X97350000Y-77200000D01*
X106130000Y-76290000D02*
X107040000Y-77200000D01*
X95230000Y-76950000D02*
X95480000Y-77200000D01*
X59740000Y-76950000D02*
X95230000Y-76950000D01*
%TO.N,/AtariInterfaces/JOY.DIR7*%
X99200000Y-80080000D02*
X100140000Y-79140000D01*
X104250000Y-79410000D02*
X104920000Y-80080000D01*
X103680000Y-79410000D02*
X104250000Y-79410000D01*
X68740000Y-79450000D02*
X69370000Y-80080000D01*
X108180000Y-81170000D02*
X181930000Y-81170000D01*
X189910000Y-89150000D02*
X189910000Y-89200000D01*
X64400000Y-79450000D02*
X68740000Y-79450000D01*
X69370000Y-80080000D02*
X99200000Y-80080000D01*
X107090000Y-80080000D02*
X108180000Y-81170000D01*
X62970000Y-80000000D02*
X63850000Y-80000000D01*
X104920000Y-80080000D02*
X107090000Y-80080000D01*
X62200000Y-80770000D02*
X62970000Y-80000000D01*
X63850000Y-80000000D02*
X64400000Y-79450000D01*
X181930000Y-81170000D02*
X189910000Y-89150000D01*
X103410000Y-79140000D02*
X103680000Y-79410000D01*
X100140000Y-79140000D02*
X103410000Y-79140000D01*
X60980000Y-80770000D02*
X62200000Y-80770000D01*
%TO.N,/AtariInterfaces/JOY.POT1*%
X109130000Y-79890000D02*
X108100000Y-78860000D01*
X191770000Y-87480000D02*
X184180000Y-79890000D01*
X105780000Y-78860000D02*
X105000000Y-78080000D01*
X184180000Y-79890000D02*
X109130000Y-79890000D01*
X108100000Y-78860000D02*
X105780000Y-78860000D01*
X105000000Y-78080000D02*
X104470000Y-78080000D01*
X104470000Y-78080000D02*
X104330000Y-77940000D01*
%TO.N,/AtariInterfaces/JOY.POT3*%
X107430000Y-82150000D02*
X106300000Y-81020000D01*
X188550000Y-90570000D02*
X180130000Y-82150000D01*
X104050000Y-80770000D02*
X103830000Y-80770000D01*
X180130000Y-82150000D02*
X107430000Y-82150000D01*
X103830000Y-80770000D02*
X103780000Y-80820000D01*
X106300000Y-81020000D02*
X104300000Y-81020000D01*
X104300000Y-81020000D02*
X104050000Y-80770000D01*
%TO.N,/AtariInterfaces/JOY.POT0*%
X106020000Y-78560000D02*
X105109004Y-77649004D01*
X184830000Y-79590000D02*
X109390000Y-79590000D01*
X109390000Y-79590000D02*
X108360000Y-78560000D01*
X105109004Y-77649004D02*
X104906000Y-77649004D01*
X192220000Y-86980000D02*
X184830000Y-79590000D01*
X108360000Y-78560000D02*
X106020000Y-78560000D01*
%TO.N,/AtariInterfaces/JOY.TRIG1*%
X106830000Y-80400000D02*
X107930000Y-81500000D01*
X103560000Y-79740000D02*
X104100000Y-79740000D01*
X64540000Y-79840000D02*
X68605661Y-79840000D01*
X103320000Y-79500000D02*
X103560000Y-79740000D01*
X104760000Y-80400000D02*
X106830000Y-80400000D01*
X181350000Y-81500000D02*
X189410000Y-89560000D01*
X189410000Y-89560000D02*
X189410000Y-89610000D01*
X63452633Y-80381800D02*
X63998200Y-80381800D01*
X99400000Y-80400000D02*
X100300000Y-79500000D01*
X107930000Y-81500000D02*
X181350000Y-81500000D01*
X60900000Y-81420000D02*
X62414433Y-81420000D01*
X62414433Y-81420000D02*
X63452633Y-80381800D01*
X63998200Y-80381800D02*
X64540000Y-79840000D01*
X100300000Y-79500000D02*
X103320000Y-79500000D01*
X104100000Y-79740000D02*
X104760000Y-80400000D01*
X69165661Y-80400000D02*
X99400000Y-80400000D01*
X68605661Y-79840000D02*
X69165661Y-80400000D01*
%TO.N,/AtariInterfaces/JOY.DIR4*%
X60880000Y-79450000D02*
X60890000Y-79460000D01*
X69380000Y-78530000D02*
X70000000Y-79150000D01*
X107840000Y-79150000D02*
X108910000Y-80220000D01*
X98600000Y-79150000D02*
X99610000Y-78140000D01*
X191230000Y-87960000D02*
X191290000Y-87960000D01*
X108910000Y-80220000D02*
X183490000Y-80220000D01*
X104120000Y-78350000D02*
X104760000Y-78350000D01*
X63590000Y-78530000D02*
X69380000Y-78530000D01*
X104760000Y-78350000D02*
X105560000Y-79150000D01*
X61740000Y-79460000D02*
X62260000Y-78940000D01*
X103910000Y-78140000D02*
X104120000Y-78350000D01*
X99610000Y-78140000D02*
X103910000Y-78140000D01*
X183490000Y-80220000D02*
X191230000Y-87960000D01*
X63180000Y-78940000D02*
X63590000Y-78530000D01*
X62260000Y-78940000D02*
X63180000Y-78940000D01*
X105560000Y-79150000D02*
X107840000Y-79150000D01*
X60890000Y-79460000D02*
X61740000Y-79460000D01*
X70000000Y-79150000D02*
X98600000Y-79150000D01*
%TO.N,/AtariInterfaces/JOY.DIR3*%
X108810000Y-77910000D02*
X109880000Y-78980000D01*
X95000000Y-77910000D02*
X97740000Y-77910000D01*
X60440000Y-77990000D02*
X62890000Y-77990000D01*
X63310000Y-77570000D02*
X94660000Y-77570000D01*
X192310000Y-86050000D02*
X193110000Y-86050000D01*
X98760000Y-76890000D02*
X105480000Y-76890000D01*
X62890000Y-77990000D02*
X63310000Y-77570000D01*
X185240000Y-78980000D02*
X192310000Y-86050000D01*
X59890000Y-78540000D02*
X60440000Y-77990000D01*
X105480000Y-76890000D02*
X106500000Y-77910000D01*
X109880000Y-78980000D02*
X185240000Y-78980000D01*
X94660000Y-77570000D02*
X95000000Y-77910000D01*
X97740000Y-77910000D02*
X98760000Y-76890000D01*
X106500000Y-77910000D02*
X108810000Y-77910000D01*
%TO.N,/FPGA/SPI.MISO*%
X69990000Y-68860000D02*
X62640000Y-68860000D01*
X61485000Y-68175000D02*
X60980000Y-68680000D01*
X90550000Y-68570000D02*
X87130000Y-68570000D01*
X62460000Y-68680000D02*
X60980000Y-68680000D01*
X87130000Y-68570000D02*
X84690000Y-71010000D01*
X72140000Y-71010000D02*
X69990000Y-68860000D01*
X112050000Y-59780000D02*
X99340000Y-59780000D01*
X84690000Y-71010000D02*
X72140000Y-71010000D01*
X99340000Y-59780000D02*
X90550000Y-68570000D01*
X62640000Y-68860000D02*
X62460000Y-68680000D01*
%TO.N,/FPGA/SPI.MOSI*%
X90320000Y-68030000D02*
X99180000Y-59170000D01*
X86720000Y-68030000D02*
X90320000Y-68030000D01*
X99180000Y-59170000D02*
X112070000Y-59170000D01*
X72280000Y-70410000D02*
X84340000Y-70410000D01*
X84340000Y-70410000D02*
X86720000Y-68030000D01*
X70170000Y-68300000D02*
X72280000Y-70410000D01*
X68570000Y-68300000D02*
X70170000Y-68300000D01*
%TO.N,/ESP32/ESP.SGPI2*%
X119190000Y-109740000D02*
X118270000Y-109740000D01*
X148050000Y-119570000D02*
X129020000Y-119570000D01*
X100500000Y-90090000D02*
X101040000Y-89550000D01*
X114740000Y-106210000D02*
X114740000Y-105510000D01*
X114740000Y-105510000D02*
X100500000Y-91270000D01*
X148750000Y-118870000D02*
X148050000Y-119570000D01*
X129020000Y-119570000D02*
X119190000Y-109740000D01*
X100500000Y-91270000D02*
X100500000Y-90090000D01*
X118270000Y-109740000D02*
X114740000Y-106210000D01*
%TO.N,/AtariInterfaces/CONSOL.OPTION*%
X57232217Y-75682217D02*
X57232217Y-82442217D01*
X198930000Y-84410000D02*
X198930000Y-83700000D01*
X110460000Y-75850000D02*
X108150000Y-75850000D01*
X58322633Y-74591800D02*
X57232217Y-75682217D01*
X95810000Y-74980000D02*
X95230000Y-75560000D01*
X95230000Y-75560000D02*
X62320000Y-75560000D01*
X107280000Y-74980000D02*
X95810000Y-74980000D01*
X198930000Y-83700000D02*
X192290000Y-77060000D01*
X61351800Y-74591800D02*
X58322633Y-74591800D01*
X192290000Y-77060000D02*
X111670000Y-77060000D01*
X57232217Y-82442217D02*
X57229434Y-82445000D01*
X57229434Y-82445000D02*
X57145816Y-82445000D01*
X111670000Y-77060000D02*
X110460000Y-75850000D01*
X62320000Y-75560000D02*
X61351800Y-74591800D01*
X108150000Y-75850000D02*
X107280000Y-74980000D01*
%TO.N,/AtariInterfaces/FPGA.GPIO0*%
X88680000Y-89530000D02*
X77189999Y-89530000D01*
D40*
X71530000Y-87000000D02*
X72010000Y-87000000D01*
X70860000Y-88040000D02*
X71000000Y-88040000D01*
X70290000Y-88610000D02*
X70860000Y-88040000D01*
X71260000Y-87270000D02*
X71530000Y-87000000D01*
D39*
X77189999Y-89530000D02*
X74000000Y-86340000D01*
D40*
X71000000Y-88040000D02*
X71260000Y-87780000D01*
X72670000Y-86340000D02*
X74000000Y-86340000D01*
X72010000Y-87000000D02*
X72670000Y-86340000D01*
X69860000Y-88610000D02*
X70290000Y-88610000D01*
X71260000Y-87780000D02*
X71260000Y-87270000D01*
D39*
%TO.N,/AtariInterfaces/FPGA.GPIO2*%
X77360000Y-90590000D02*
X73720000Y-86950000D01*
D40*
X71860000Y-87990000D02*
X72000000Y-87990000D01*
X71370000Y-88680000D02*
X71370000Y-88480000D01*
X71070000Y-88980000D02*
X71370000Y-88680000D01*
D39*
X89460000Y-90590000D02*
X77360000Y-90590000D01*
D40*
X71370000Y-88480000D02*
X71860000Y-87990000D01*
X69860000Y-89610000D02*
X70490000Y-88980000D01*
X70490000Y-88980000D02*
X71070000Y-88980000D01*
X72000000Y-87990000D02*
X73038000Y-86952000D01*
X73038000Y-86952000D02*
X73678000Y-86952000D01*
D39*
%TO.N,/AtariInterfaces/CONSOL.SELECT*%
X106930000Y-75300000D02*
X107810000Y-76180000D01*
X191960000Y-77400000D02*
X198510000Y-83950000D01*
X89011200Y-75931200D02*
X62071200Y-75931200D01*
X62071200Y-75931200D02*
X61250000Y-75110000D01*
X96010000Y-75300000D02*
X106930000Y-75300000D01*
X57574016Y-76194849D02*
X57574016Y-83065984D01*
X58320665Y-75448200D02*
X57574016Y-76194849D01*
X107810000Y-76180000D02*
X110100000Y-76180000D01*
X61250000Y-75110000D02*
X59089167Y-75110000D01*
X58750967Y-75448200D02*
X58320665Y-75448200D01*
X89030000Y-75930000D02*
X95380000Y-75930000D01*
X59089167Y-75110000D02*
X58750967Y-75448200D01*
X57574016Y-83065984D02*
X57410000Y-83230000D01*
X111320000Y-77400000D02*
X191960000Y-77400000D01*
X110100000Y-76180000D02*
X111320000Y-77400000D01*
X95380000Y-75930000D02*
X96010000Y-75300000D01*
%TO.N,/AtariInterfaces/FPGA.GPIO3*%
X77380000Y-91020000D02*
X73550000Y-87190000D01*
D40*
X73090000Y-87190000D02*
X73390000Y-87190000D01*
X71920000Y-89130000D02*
X72270000Y-88780000D01*
X71340000Y-89130000D02*
X71920000Y-89130000D01*
X70860000Y-89610000D02*
X71340000Y-89130000D01*
D39*
X73550000Y-87190000D02*
X73390000Y-87190000D01*
X89890000Y-91020000D02*
X77380000Y-91020000D01*
D40*
X72270000Y-88010000D02*
X73090000Y-87190000D01*
X72270000Y-88780000D02*
X72270000Y-88010000D01*
D39*
%TO.N,/AtariInterfaces/CONSOL.START*%
X95560000Y-76240000D02*
X96190000Y-75610000D01*
X58050000Y-77030000D02*
X59620000Y-75460000D01*
X58050000Y-83760000D02*
X58050000Y-77030000D01*
D40*
X57290000Y-85030000D02*
X56785123Y-85534877D01*
D39*
X60990000Y-75460000D02*
X61770000Y-76240000D01*
D40*
X56785123Y-85534877D02*
X56785123Y-85556600D01*
D39*
X57290000Y-84520000D02*
X58050000Y-83760000D01*
X61770000Y-76240000D02*
X95560000Y-76240000D01*
X191560000Y-77740000D02*
X197930000Y-84110000D01*
D40*
X56785123Y-85556600D02*
X56797685Y-85569162D01*
D39*
X59620000Y-75460000D02*
X60990000Y-75460000D01*
X107470000Y-76510000D02*
X109700000Y-76510000D01*
X110930000Y-77740000D02*
X191560000Y-77740000D01*
X106570000Y-75610000D02*
X107470000Y-76510000D01*
X109700000Y-76510000D02*
X110930000Y-77740000D01*
X96190000Y-75610000D02*
X106570000Y-75610000D01*
D40*
X57290000Y-84520000D02*
X57290000Y-85030000D01*
%TO.N,/AtariInterfaces/FPGA.GPIO4*%
X71860000Y-89610000D02*
X72500000Y-88970000D01*
D39*
X90350000Y-91490000D02*
X77370000Y-91490000D01*
X77370000Y-91490000D02*
X73390000Y-87510000D01*
D40*
X73090000Y-87520000D02*
X73380000Y-87520000D01*
X72500000Y-88970000D02*
X72500000Y-88110000D01*
X72500000Y-88110000D02*
X73090000Y-87520000D01*
%TO.N,/AtariInterfaces/FPGA.GPIO1*%
X71708066Y-87243200D02*
X72086800Y-87243200D01*
X71490000Y-87461266D02*
X71708066Y-87243200D01*
D39*
X73960000Y-86670000D02*
X73760000Y-86670000D01*
D40*
X72660000Y-86670000D02*
X73760000Y-86670000D01*
X71490000Y-87980000D02*
X71490000Y-87461266D01*
X70860000Y-88610000D02*
X71490000Y-87980000D01*
D39*
X77390000Y-90100000D02*
X73960000Y-86670000D01*
X89090000Y-90100000D02*
X77390000Y-90100000D01*
D40*
X72086800Y-87243200D02*
X72660000Y-86670000D01*
D39*
%TO.N,Net-(U30J-CLK8)*%
X79010000Y-104760000D02*
X73540000Y-99290000D01*
D40*
X71860000Y-97610000D02*
X73540000Y-99290000D01*
D39*
X79010000Y-116060000D02*
X79010000Y-104760000D01*
%TO.N,/FPGA/SPI.SCK*%
X87410000Y-69070000D02*
X84644600Y-71835400D01*
X113750000Y-63270000D02*
X113750000Y-61990000D01*
X70070000Y-69540000D02*
X64740000Y-69540000D01*
X62555000Y-71725000D02*
X62210000Y-72070000D01*
X84474002Y-71835400D02*
X84239402Y-72070000D01*
X60370000Y-70820000D02*
X60370000Y-70850000D01*
X90830000Y-69070000D02*
X87410000Y-69070000D01*
X61830000Y-72070000D02*
X60980000Y-71220000D01*
X84644600Y-71835400D02*
X84474002Y-71835400D01*
X112090000Y-60330000D02*
X99570000Y-60330000D01*
X64740000Y-69540000D02*
X62555000Y-71725000D01*
X62210000Y-72070000D02*
X61830000Y-72070000D01*
X113750000Y-61990000D02*
X112090000Y-60330000D01*
X84239402Y-72070000D02*
X72600000Y-72070000D01*
X72600000Y-72070000D02*
X70070000Y-69540000D01*
X60450000Y-70740000D02*
X60370000Y-70820000D01*
X99570000Y-60330000D02*
X90830000Y-69070000D01*
%TO.N,/FPGA/SPI.CS2*%
X60375000Y-67435000D02*
X59620000Y-68190000D01*
X112020000Y-57910000D02*
X99060000Y-57910000D01*
X59620000Y-70040000D02*
X58440000Y-71220000D01*
X70530000Y-65580000D02*
X66960000Y-65580000D01*
X65105000Y-67435000D02*
X60375000Y-67435000D01*
X66960000Y-65580000D02*
X65105000Y-67435000D01*
X87120000Y-65760000D02*
X83370000Y-69510000D01*
X99060000Y-57910000D02*
X91210000Y-65760000D01*
X74460000Y-69510000D02*
X70530000Y-65580000D01*
X59620000Y-68190000D02*
X59620000Y-70040000D01*
X83370000Y-69510000D02*
X74460000Y-69510000D01*
X91210000Y-65760000D02*
X87120000Y-65760000D01*
%TO.N,/IOCards/SD.DETECT*%
X226890000Y-145200000D02*
X226100000Y-144410000D01*
X226100000Y-144410000D02*
X226100000Y-100920000D01*
X226100000Y-100920000D02*
X197930000Y-72750000D01*
X120130000Y-72750000D02*
X117450000Y-70070000D01*
X197930000Y-72750000D02*
X120130000Y-72750000D01*
%TO.N,Net-(J10-Pin_6)*%
X94850000Y-47030000D02*
X91910000Y-47030000D01*
X99750000Y-51970000D02*
X99770000Y-51950000D01*
X88510000Y-46140000D02*
X86540000Y-44170000D01*
X99750000Y-54310000D02*
X99750000Y-51970000D01*
X99770000Y-51950000D02*
X94850000Y-47030000D01*
X91020000Y-46140000D02*
X88510000Y-46140000D01*
X91910000Y-47030000D02*
X91020000Y-46140000D01*
%TO.N,Net-(J10-Pin_5)*%
X84580000Y-44170000D02*
X84000000Y-44170000D01*
X91670000Y-47330000D02*
X90820000Y-46480000D01*
X90820000Y-46480000D02*
X86890000Y-46480000D01*
X94570000Y-47330000D02*
X91670000Y-47330000D01*
X99290000Y-53760000D02*
X99290000Y-52050000D01*
X99290000Y-52050000D02*
X94570000Y-47330000D01*
X86890000Y-46480000D02*
X84580000Y-44170000D01*
%TO.N,Net-(J10-Pin_3)*%
X90500000Y-47160000D02*
X81910000Y-47160000D01*
X98300000Y-53730000D02*
X98300000Y-52140000D01*
X98300000Y-52140000D02*
X94120000Y-47960000D01*
X94120000Y-47960000D02*
X91300000Y-47960000D01*
X91300000Y-47960000D02*
X90500000Y-47160000D01*
X81910000Y-47160000D02*
X78920000Y-44170000D01*
%TO.N,Net-(J10-Pin_4)*%
X90680000Y-46830000D02*
X83090000Y-46830000D01*
X83090000Y-46830000D02*
X81460000Y-45200000D01*
X81460000Y-45200000D02*
X81460000Y-44170000D01*
X91510000Y-47660000D02*
X90680000Y-46830000D01*
X98760000Y-52040000D02*
X94380000Y-47660000D01*
X94380000Y-47660000D02*
X91510000Y-47660000D01*
X98760000Y-54220000D02*
X98760000Y-52040000D01*
%TO.N,Net-(J10-Pin_7)*%
X100290000Y-53830000D02*
X100290000Y-50520000D01*
X98610000Y-46270000D02*
X95450000Y-43110000D01*
X95450000Y-43110000D02*
X90140000Y-43110000D01*
X98610000Y-48840000D02*
X98610000Y-46270000D01*
X100290000Y-50520000D02*
X98610000Y-48840000D01*
X90140000Y-43110000D02*
X89080000Y-44170000D01*
%TO.N,/ESP32/ESP.EN*%
X107970000Y-95970000D02*
X102570000Y-90570000D01*
X102570000Y-90570000D02*
X102570000Y-90070000D01*
X135510000Y-95970000D02*
X107970000Y-95970000D01*
%TO.N,/ESP32/ESP.BOOT*%
X126000000Y-96430000D02*
X107880000Y-96430000D01*
X130200000Y-100630000D02*
X126000000Y-96430000D01*
X102140000Y-90690000D02*
X101580000Y-90690000D01*
X107880000Y-96430000D02*
X102140000Y-90690000D01*
%TO.N,/ESP32/ESP.SGPI1*%
X148990000Y-120180000D02*
X149060000Y-120250000D01*
X112540000Y-103890000D02*
X112540000Y-105850000D01*
X99930000Y-91280000D02*
X112540000Y-103890000D01*
X112540000Y-105850000D02*
X116890000Y-110200000D01*
X99930000Y-90050000D02*
X99930000Y-91280000D01*
X128900000Y-120180000D02*
X148990000Y-120180000D01*
X118920000Y-110200000D02*
X128900000Y-120180000D01*
X116890000Y-110200000D02*
X118920000Y-110200000D01*
%TO.N,/AtariInterfaces/CONSOL.RESET*%
X58040000Y-74250000D02*
X56850000Y-75440000D01*
X199370000Y-83960000D02*
X199370000Y-83430000D01*
X56850000Y-75440000D02*
X56850000Y-81850000D01*
X199370000Y-83430000D02*
X192620000Y-76680000D01*
X108460000Y-75560000D02*
X107530000Y-74630000D01*
X112960000Y-76680000D02*
X111840000Y-75560000D01*
X56850000Y-81850000D02*
X56860000Y-81860000D01*
X56860000Y-81860000D02*
X56804017Y-81860000D01*
X111840000Y-75560000D02*
X108460000Y-75560000D01*
X107530000Y-74630000D02*
X95520000Y-74630000D01*
X62490000Y-75190000D02*
X61550000Y-74250000D01*
X95520000Y-74630000D02*
X94960000Y-75190000D01*
X94960000Y-75190000D02*
X62490000Y-75190000D01*
X192620000Y-76680000D02*
X112960000Y-76680000D01*
X61550000Y-74250000D02*
X58040000Y-74250000D01*
%TO.N,/FPGA/FPGA.PS_N*%
X101345000Y-83135000D02*
X65565000Y-83135000D01*
X101750000Y-83540000D02*
X101345000Y-83135000D01*
%TD*%
M02*
