M48
; DRILL file {KiCad 9.0.6} date 2026-02-03T20:42:33+0100
; FORMAT={-:-/ absolute / inch / decimal}
; #@! TF.CreationDate,2026-02-03T20:42:33+01:00
; #@! TF.GenerationSoftware,Kicad,Pcbnew,9.0.6
; #@! TF.FileFunction,Plated,1,6,PTH
FMAT,2
INCH
; #@! TA.AperFunction,Plated,PTH,ViaDrill
T1C0.0118
; #@! TA.AperFunction,Plated,PTH,ComponentDrill
T2C0.0138
; #@! TA.AperFunction,Plated,PTH,ComponentDrill
T3C0.0236
; #@! TA.AperFunction,Plated,PTH,ComponentDrill
T4C0.0354
; #@! TA.AperFunction,Plated,PTH,ComponentDrill
T5C0.0382
; #@! TA.AperFunction,Plated,PTH,ComponentDrill
T6C0.0394
; #@! TA.AperFunction,Plated,PTH,ComponentDrill
T7C0.0433
; #@! TA.AperFunction,Plated,PTH,ComponentDrill
T8C0.0472
; #@! TA.AperFunction,Plated,PTH,ComponentDrill
T9C0.0512
; #@! TA.AperFunction,Plated,PTH,ComponentDrill
T10C0.0551
; #@! TA.AperFunction,Plated,PTH,ComponentDrill
T11C0.0787
; #@! TA.AperFunction,Plated,PTH,ComponentDrill
T12C0.1280
; #@! TA.AperFunction,Plated,PTH,ComponentDrill
T13C0.1772
%
G90
G05
T1
X0.5315Y-2.163
X0.5441Y-1.872
X0.5508Y-2.0161
X0.5543Y-2.9307
X0.602Y-3.4291
X0.6024Y-3.0465
X0.6047Y-3.2846
X0.6315Y-1.6004
X0.6343Y-2.9122
X0.6467Y-2.1261
X0.6512Y-1.8386
X0.665Y-1.7047
X0.6791Y-1.9992
X0.6984Y-3.4728
X0.7154Y-2.3941
X0.7157Y-2.4228
X0.7157Y-2.4496
X0.7157Y-2.4811
X0.735Y-2.663
X0.7516Y-3.028
X0.7618Y-1.8898
X0.7823Y-2.0181
X0.8024Y-2.2484
X0.8028Y-1.452
X0.8067Y-1.6307
X0.813Y-1.7961
X0.8208Y-2.1685
X0.8299Y-2.0906
X0.8449Y-2.3205
X0.9094Y-1.2602
X0.922Y-1.8913
X0.9874Y-1.2591
X0.9941Y-3.1587
X1.0268Y-2.1008
X1.0339Y-2.7823
X1.0463Y-2.2896
X1.0591Y-3.237
X1.0634Y-1.9516
X1.0835Y-2.8098
X1.1Y-2.6929
X1.124Y-2.7992
X1.1457Y-4.8315
X1.1508Y-2.2803
X1.1543Y-2.9547
X1.161Y-1.0307
X1.1626Y-3.335
X1.1642Y-2.9972
X1.1646Y-2.9071
X1.1992Y-2.8803
X1.2402Y-2.6142
X1.2437Y-2.8324
X1.2441Y-3.6528
X1.2451Y-3.7234
X1.2451Y-3.9508
X1.2457Y-0.9732
X1.248Y-1.0303
X1.2508Y-1.0039
X1.2969Y-1.6406
X1.3268Y-1.6362
X1.3343Y-2.8815
X1.339Y-3.0291
X1.3413Y-3.0559
X1.3425Y-4.8976
X1.3697Y-1.0433
X1.3803Y-0.9039
X1.3803Y-3.8449
X1.3988Y-1.0441
X1.4098Y-3.6268
X1.4169Y-3.4811
X1.4185Y-4.2004
X1.4213Y-4.0579
X1.4402Y-0.9043
X1.4406Y-2.0453
X1.4469Y-3.2602
X1.4673Y-1.0445
X1.478Y-3.1437
X1.4811Y-5.0677
X1.4823Y-5.0079
X1.4933Y-2.8776
X1.4988Y-0.9043
X1.4988Y-1.0453
X1.4996Y-3.898
X1.5059Y-3.4488
X1.5059Y-3.4783
X1.5059Y-3.5067
X1.515Y-2.7442
X1.5177Y-2.9075
X1.5354Y-3.5079
X1.5394Y-1.2187
X1.5567Y-0.9043
X1.565Y-3.5079
X1.565Y-3.5374
X1.565Y-3.5965
X1.5661Y-4.0846
X1.5661Y-4.1142
X1.5661Y-4.1732
X1.5673Y-2.8976
X1.5685Y-2.9224
X1.5689Y-2.9504
X1.5941Y-3.5401
X1.5945Y-3.506
X1.5945Y-3.5669
X1.5945Y-3.5965
X1.5945Y-4.0827
X1.5957Y-4.1437
X1.5957Y-4.1732
X1.5957Y-4.1164
X1.6024Y-0.9622
X1.6031Y-0.9909
X1.6079Y-1.0185
X1.6181Y-4.6528
X1.6476Y-2.9071
X1.6535Y-3.5386
X1.6536Y-3.5658
X1.6536Y-4.1164
X1.6547Y-4.1426
X1.6689Y-3.8756
X1.6756Y-0.9055
X1.6783Y-4.4307
X1.6791Y-4.928
X1.6823Y-1.0209
X1.6906Y-2.8909
X1.6906Y-2.9433
X1.6976Y-5.0331
X1.7Y-2.8255
X1.7091Y-3.2606
X1.7098Y-0.9583
X1.7161Y-4.9366
X1.7182Y-4.1209
X1.7185Y-3.0106
X1.7193Y-1.0213
X1.7295Y-3.3161
X1.7303Y-3.8756
X1.7398Y-4.6028
X1.7398Y-4.6638
X1.7406Y-4.1041
X1.7441Y-3.0028
X1.7555Y-4.8441
X1.7583Y-4.4469
X1.7606Y-2.9878
X1.7618Y-4.0846
X1.7677Y-3.8917
X1.7732Y-1.2591
X1.7772Y-2.9693
X1.7776Y-4.063
X1.7917Y-2.7604
X1.7953Y-4.0413
X1.8035Y-1.0201
X1.8091Y-3.9508
X1.8098Y-3.3728
X1.8199Y-3.3179
X1.828Y-0.9819
X1.8291Y-2.5283
X1.8441Y-1.0972
X1.8587Y-2.5272
X1.8616Y-3.7894
X1.8709Y-1.0819
X1.8866Y-3.3374
X1.8917Y-4.3531
X1.8925Y-1.0012
X1.8945Y-2.0976
X1.9Y-3.1091
X1.9004Y-2.5303
X1.9024Y-3.5449
X1.9213Y-3.5642
X1.9226Y-3.7894
X1.9319Y-1.2198
X1.9358Y-2.7604
X1.9394Y-2.6177
X1.9402Y-1.085
X1.9402Y-3.3366
X1.9445Y-3.1657
X1.9457Y-3.2819
X1.9606Y-3.4323
X1.9614Y-3.3866
X1.9626Y-3.4098
X1.9685Y-3.0957
X1.9805Y-3.4895
X1.9807Y-3.4634
X1.9811Y-2.1449
X1.9831Y-3.3701
X1.9909Y-3.0496
X2.0024Y-3.4098
X2.0024Y-3.4492
X2.0024Y-3.6063
X2.0024Y-3.8035
X2.0024Y-4.0398
X2.0024Y-4.1972
X2.0024Y-4.2366
X2.0181Y-4.3094
X2.0201Y-3.2606
X2.035Y-2.8263
X2.0413Y-3.6063
X2.0417Y-3.4098
X2.0417Y-3.4492
X2.0417Y-3.8035
X2.0417Y-4.0398
X2.0811Y-3.528
X2.0811Y-3.5673
X2.0811Y-3.7248
X2.0811Y-3.8035
X2.0811Y-3.8425
X2.0811Y-3.9217
X2.0811Y-3.9606
X2.0811Y-4.0791
X2.0811Y-4.1185
X2.0811Y-4.1579
X2.0815Y-4.0004
X2.12Y-3.765
X2.1201Y-3.8425
X2.1201Y-3.8819
X2.1201Y-4.0004
X2.1203Y-3.7249
X2.1205Y-3.6849
X2.1205Y-3.4886
X2.1205Y-3.528
X2.1205Y-3.5673
X2.1205Y-3.6449
X2.1205Y-3.8035
X2.1205Y-4.0791
X2.1398Y-4.4787
X2.1594Y-3.8819
X2.1594Y-3.9206
X2.1594Y-3.9606
X2.1598Y-3.4886
X2.1598Y-3.528
X2.1598Y-3.5673
X2.1598Y-3.6067
X2.1598Y-3.6461
X2.1598Y-3.6854
X2.1598Y-3.7642
X2.1598Y-4.0398
X2.1598Y-4.0791
X2.1598Y-4.1185
X2.1598Y-4.1579
X2.1744Y-4.4787
X2.1988Y-3.8425
X2.1988Y-3.8819
X2.1988Y-3.9213
X2.1988Y-3.9606
X2.1988Y-4.0
X2.1992Y-3.4886
X2.1992Y-3.528
X2.1992Y-3.5673
X2.1992Y-3.6067
X2.1992Y-3.6461
X2.1992Y-3.6854
X2.1992Y-3.7248
X2.1992Y-3.7642
X2.1992Y-4.0791
X2.2083Y-4.4803
X2.2358Y-4.4815
X2.2361Y-3.3689
X2.2364Y-3.2228
X2.2382Y-3.8425
X2.2382Y-3.9213
X2.2382Y-3.9606
X2.2382Y-4.0
X2.2386Y-3.4104
X2.2386Y-3.4492
X2.2386Y-3.528
X2.2386Y-3.5673
X2.2386Y-3.6067
X2.2386Y-3.7248
X2.2386Y-3.8035
X2.2386Y-4.0398
X2.2386Y-4.1185
X2.2386Y-4.1579
X2.2386Y-4.1972
X2.2386Y-4.2366
X2.2465Y-4.5087
X2.2498Y-3.2459
X2.2598Y-4.4677
X2.2598Y-4.9256
X2.2602Y-3.2768
X2.2669Y-4.5323
X2.278Y-3.6067
X2.278Y-3.6461
X2.278Y-3.6854
X2.278Y-3.7248
X2.278Y-3.7642
X2.278Y-3.8035
X2.278Y-3.8429
X2.278Y-3.8823
X2.278Y-3.961
X2.278Y-4.0004
X2.278Y-4.0398
X2.278Y-4.0791
X2.278Y-4.1185
X2.2792Y-3.4886
X2.2792Y-3.528
X2.2836Y-3.0068
X2.2854Y-0.6626
X2.2896Y-4.6581
X2.3031Y-2.9535
X2.3036Y-2.9867
X2.3047Y-3.0402
X2.3152Y-4.4661
X2.3173Y-3.528
X2.3173Y-3.6854
X2.3173Y-3.7248
X2.3173Y-3.7642
X2.3173Y-3.8035
X2.3173Y-3.8429
X2.3173Y-3.8823
X2.3173Y-3.9217
X2.3173Y-4.0398
X2.3173Y-4.0791
X2.3173Y-4.1185
X2.3248Y-4.926
X2.3252Y-3.0563
X2.3276Y-4.326
X2.3278Y-4.5081
X2.3323Y-4.5386
X2.3406Y-3.0748
X2.3445Y-0.6598
X2.3492Y-4.5602
X2.3567Y-3.4098
X2.3567Y-3.4886
X2.3567Y-3.528
X2.3567Y-3.6067
X2.3567Y-3.6854
X2.3567Y-3.7248
X2.3567Y-3.7642
X2.3567Y-3.8035
X2.3567Y-3.8429
X2.3567Y-3.8823
X2.3567Y-3.9217
X2.3567Y-3.961
X2.3567Y-4.0004
X2.3567Y-4.0398
X2.3567Y-4.0791
X2.3567Y-4.1185
X2.3579Y-3.0921
X2.3728Y-3.1106
X2.3791Y-3.1531
X2.3791Y-4.6091
X2.389Y-4.3209
X2.3909Y-2.9886
X2.3953Y-3.2315
X2.3961Y-3.528
X2.3961Y-3.374
X2.3961Y-3.4098
X2.3961Y-3.4492
X2.3961Y-3.4886
X2.3961Y-3.5673
X2.3961Y-3.6067
X2.3961Y-3.6854
X2.3961Y-3.7248
X2.3961Y-3.7642
X2.3961Y-3.8035
X2.3961Y-3.8429
X2.3961Y-3.8823
X2.3961Y-3.9217
X2.3961Y-3.961
X2.3961Y-4.0398
X2.3961Y-4.0791
X2.3961Y-4.1185
X2.3969Y-3.128
X2.3976Y-3.2055
X2.4008Y-3.1799
X2.4118Y-3.2961
X2.4189Y-4.9244
X2.4193Y-4.4705
X2.4201Y-3.2602
X2.4249Y-3.317
X2.4264Y-4.524
X2.4347Y-3.4886
X2.4354Y-3.5673
X2.4354Y-3.7248
X2.4354Y-3.7642
X2.4354Y-3.8035
X2.4354Y-3.8429
X2.4354Y-3.8823
X2.4354Y-3.9217
X2.4354Y-3.961
X2.4354Y-4.0004
X2.4354Y-4.0398
X2.4354Y-4.1185
X2.4354Y-4.1579
X2.4354Y-4.1972
X2.4354Y-4.2366
X2.4371Y-3.6067
X2.438Y-3.2907
X2.4402Y-4.2917
X2.4449Y-4.5366
X2.4551Y-4.3122
X2.4689Y-4.5531
X2.4737Y-4.326
X2.4748Y-3.4886
X2.4748Y-3.528
X2.4748Y-3.6067
X2.4748Y-3.7248
X2.4748Y-3.7642
X2.4748Y-3.8035
X2.4748Y-3.8429
X2.4748Y-3.8823
X2.4748Y-3.9217
X2.4748Y-3.961
X2.4748Y-4.0004
X2.4748Y-4.0398
X2.4748Y-4.0791
X2.4748Y-4.1185
X2.4748Y-4.1579
X2.4748Y-4.1972
X2.4748Y-4.2366
X2.4831Y-1.4067
X2.5051Y-3.1815
X2.513Y-4.4693
X2.513Y-4.9201
X2.5142Y-3.7248
X2.5142Y-3.7642
X2.5142Y-3.8035
X2.5142Y-3.8429
X2.5142Y-3.8823
X2.5142Y-3.9217
X2.5142Y-3.961
X2.5142Y-4.0004
X2.5142Y-4.0398
X2.5142Y-4.1185
X2.5142Y-4.1579
X2.5142Y-4.2366
X2.5173Y-1.411
X2.5248Y-1.3827
X2.5394Y-4.5008
X2.5508Y-3.3661
X2.5535Y-3.4886
X2.5535Y-3.528
X2.5535Y-3.7248
X2.5535Y-3.8035
X2.5535Y-3.8429
X2.5535Y-3.8823
X2.5535Y-3.9217
X2.5535Y-4.0004
X2.5535Y-4.0398
X2.5535Y-4.0791
X2.5535Y-4.1185
X2.5579Y-4.3398
X2.5606Y-4.5106
X2.5813Y-3.273
X2.5835Y-4.5272
X2.5913Y-3.3795
X2.5929Y-3.4098
X2.5929Y-3.6067
X2.5929Y-3.6854
X2.5929Y-3.7248
X2.5929Y-3.8429
X2.5929Y-4.0004
X2.5929Y-4.0398
X2.5929Y-4.0791
X2.5929Y-4.1185
X2.5929Y-4.1579
X2.6075Y-4.9236
X2.6079Y-4.4776
X2.6177Y-1.3831
X2.6217Y-4.326
X2.6228Y-1.8
X2.6283Y-4.5071
X2.6323Y-3.4886
X2.6323Y-3.528
X2.6323Y-3.5673
X2.6323Y-3.6067
X2.6323Y-3.6461
X2.6323Y-3.6854
X2.6323Y-3.7248
X2.6323Y-3.7642
X2.6323Y-3.8429
X2.6323Y-3.8823
X2.6323Y-3.9217
X2.6323Y-3.961
X2.6323Y-4.0398
X2.6323Y-4.0791
X2.6323Y-4.1185
X2.6402Y-4.3417
X2.6492Y-4.5252
X2.6516Y-0.7913
X2.6579Y-4.3598
X2.6717Y-3.4492
X2.6717Y-3.6067
X2.6717Y-3.6461
X2.6717Y-3.6854
X2.6717Y-3.7642
X2.6717Y-3.8823
X2.6717Y-3.9217
X2.6717Y-3.961
X2.6717Y-4.0398
X2.6717Y-4.0791
X2.6717Y-4.1185
X2.6717Y-4.1579
X2.6807Y-4.3764
X2.6815Y-2.4004
X2.6874Y-2.2228
X2.689Y-2.9027
X2.6953Y-0.9335
X2.6955Y-4.5628
X2.6996Y-2.689
X2.711Y-3.4098
X2.711Y-3.4886
X2.711Y-3.528
X2.711Y-3.5673
X2.711Y-3.6067
X2.711Y-3.6461
X2.711Y-3.6854
X2.711Y-3.7248
X2.711Y-3.7642
X2.711Y-3.8035
X2.711Y-3.8429
X2.711Y-3.8823
X2.711Y-3.9217
X2.711Y-3.961
X2.711Y-4.0004
X2.711Y-4.0791
X2.7161Y-2.9012
X2.7343Y-1.965
X2.7398Y-4.4634
X2.7413Y-2.5992
X2.7504Y-3.4098
X2.7504Y-3.4886
X2.7504Y-3.528
X2.7504Y-3.5673
X2.7504Y-3.7248
X2.7504Y-3.8035
X2.7504Y-3.8429
X2.7504Y-3.9217
X2.7504Y-4.0004
X2.7504Y-4.0791
X2.7508Y-3.4492
X2.7579Y-2.1894
X2.7677Y-4.4579
X2.7858Y-4.6122
X2.7886Y-4.6705
X2.7898Y-3.4886
X2.7898Y-3.528
X2.7898Y-3.8035
X2.7898Y-3.8429
X2.8071Y-4.5858
X2.8102Y-3.3878
X2.8202Y-2.8957
X2.8291Y-3.4098
X2.8291Y-3.4492
X2.8291Y-3.4886
X2.8291Y-3.528
X2.8291Y-3.8035
X2.8291Y-3.8429
X2.8291Y-4.1976
X2.8291Y-4.2366
X2.8358Y-4.5114
X2.8449Y-3.3854
X2.8587Y-2.1236
X2.874Y-4.227
X2.8742Y-3.4722
X2.878Y-2.8154
X2.885Y-2.9307
X2.9085Y-4.1854
X2.9122Y-4.8094
X2.913Y-4.75
X2.9214Y-4.2595
X2.9303Y-2.8138
X2.9583Y-4.2685
X2.9695Y-4.1854
X2.9898Y-4.2843
X2.9937Y-1.8846
X3.0063Y-4.3854
X3.0122Y-4.1654
X3.0134Y-4.1917
X3.0236Y-4.3114
X3.0256Y-1.9587
X3.0283Y-4.3496
X3.0343Y-4.4575
X3.0434Y-4.1954
X3.0543Y-4.5283
X3.0563Y-2.0146
X3.0705Y-4.1953
X3.072Y-4.552
X3.0791Y-3.8909
X3.0878Y-4.4196
X3.1012Y-3.9169
X3.1106Y-4.5693
X3.1354Y-2.5035
X3.1413Y-3.8996
X3.1587Y-3.7728
X3.1591Y-3.9484
X3.1673Y-4.5693
X3.174Y-4.6193
X3.1885Y-4.5812
X3.1941Y-4.6354
X3.2032Y-2.3598
X3.2098Y-2.2976
X3.2126Y-3.9709
X3.2598Y-2.9343
X3.2705Y-1.8
X3.2917Y-3.678
X3.2921Y-2.9122
X3.3035Y-2.8854
X3.3248Y-2.4189
X3.3264Y-1.0579
X3.337Y-2.8567
X3.3433Y-1.8
X3.3917Y-2.3705
X3.4028Y-2.0217
X3.411Y-2.4693
X3.4209Y-2.7866
X3.4311Y-4.2535
X3.4402Y-2.635
X3.4433Y-3.8476
X3.4453Y-2.7827
X3.4575Y-2.4157
X3.4626Y-2.3449
X3.4638Y-2.1602
X3.4657Y-2.6126
X3.4669Y-2.7697
X3.4685Y-2.185
X3.4913Y-3.5248
X3.4972Y-1.0492
X3.5075Y-3.5472
X3.522Y-3.5665
X3.539Y-3.5835
X3.5571Y-3.602
X3.5697Y-1.8945
X3.5945Y-2.7921
X3.5961Y-2.8209
X3.6217Y-2.8496
X3.6224Y-2.8213
X3.6539Y-2.8429
X3.6689Y-4.1024
X3.6693Y-4.2425
X3.6697Y-4.2728
X3.6709Y-3.6287
X3.6709Y-3.7693
X3.6709Y-3.8012
X3.6713Y-1.9508
X3.6874Y-1.8323
X3.6996Y-2.7811
X3.7091Y-2.2272
X3.7102Y-2.2004
X3.7118Y-2.1598
X3.7142Y-2.1339
X3.7185Y-2.8126
X3.7374Y-2.7823
X3.7492Y-2.0079
X3.7547Y-2.8106
X3.7736Y-2.7839
X3.7768Y-3.637
X3.7839Y-3.8012
X3.7858Y-4.1
X3.7886Y-4.2732
X3.7902Y-2.8587
X3.792Y-3.003
X3.7945Y-2.8114
X3.8075Y-2.1917
X3.8106Y-2.0177
X3.8106Y-2.1657
X3.8106Y-2.7827
X3.8165Y-3.0075
X3.8197Y-2.1441
X3.8217Y-2.1201
X3.8354Y-2.8087
X3.8366Y-1.863
X3.8465Y-2.7819
X3.8557Y-1.6634
X3.8701Y-2.1154
X3.876Y-1.5091
X3.8807Y-1.6268
X3.8846Y-2.8091
X3.8854Y-2.7819
X3.8882Y-2.1346
X3.8957Y-3.5184
X3.9091Y-2.1165
X3.9114Y-3.9953
X3.9209Y-2.0051
X3.9209Y-2.8083
X3.9272Y-2.1382
X3.9285Y-1.6622
X3.9343Y-3.5453
X3.9356Y-1.3695
X3.939Y-2.5299
X3.9402Y-2.7827
X3.9484Y-2.1193
X3.9598Y-1.9244
X3.978Y-3.5256
X3.9992Y-3.5705
X4.0035Y-3.2602
X4.0059Y-3.289
X4.008Y-3.5999
X4.0083Y-2.852
X4.015Y-1.8614
X4.0161Y-2.5307
X4.0205Y-1.9264
X4.0217Y-2.4516
X4.0217Y-3.2402
X4.0256Y-3.4937
X4.033Y-3.6249
X4.0331Y-2.8583
X4.0354Y-4.3681
X4.0382Y-3.5461
X4.0524Y-2.5157
X4.0591Y-4.3579
X4.0638Y-2.4535
X4.0642Y-2.4315
X4.0815Y-4.3244
X4.0858Y-3.1819
X4.0898Y-3.1594
X4.102Y-4.2787
X4.1075Y-3.0685
X4.1224Y-3.526
X4.1302Y-3.057
X4.135Y-4.2799
X4.1457Y-1.8228
X4.1465Y-3.4429
X4.149Y-1.035
X4.1559Y-2.1165
X4.1583Y-4.2642
X4.1587Y-3.4232
X4.1791Y-4.2445
X4.2016Y-4.2283
X4.2232Y-2.8571
X4.2232Y-4.2114
X4.2295Y-1.8224
X4.2461Y-4.2217
X4.2531Y-0.8354
X4.2707Y-1.9018
X4.2768Y-2.9559
X4.2803Y-2.4953
X4.289Y-2.8598
X4.2996Y-2.761
X4.3028Y-2.8398
X4.3051Y-2.1614
X4.3067Y-2.9382
X4.3118Y-4.1992
X4.3291Y-1.939
X4.3358Y-4.2106
X4.3453Y-2.9563
X4.3654Y-4.1346
X4.3878Y-4.1406
X4.3976Y-1.1547
X4.4012Y-2.4315
X4.4039Y-2.4047
X4.4091Y-2.2272
X4.4098Y-2.8417
X4.4102Y-2.2799
X4.4102Y-3.015
X4.411Y-4.411
X4.4114Y-2.3535
X4.4118Y-2.3039
X4.4122Y-2.3295
X4.4142Y-1.1846
X4.415Y-2.1909
X4.4194Y-2.9005
X4.4463Y-2.899
X4.4531Y-4.124
X4.461Y-4.1618
X4.4697Y-2.9264
X4.4744Y-2.7437
X4.4748Y-2.9902
X4.4783Y-2.4909
X4.485Y-2.948
X4.4858Y-2.2067
X4.4862Y-2.8598
X4.4909Y-2.8933
X4.4957Y-4.0425
X4.4996Y-3.0012
X4.5114Y-3.9394
X4.5126Y-4.0232
X4.5142Y-3.9728
X4.5209Y-0.922
X4.5358Y-2.576
X4.5374Y-2.6386
X4.5384Y-2.1877
X4.552Y-1.0638
X4.5524Y-2.9575
X4.5634Y-1.5437
X4.5909Y-0.9157
X4.5965Y-3.9717
X4.5969Y-3.9453
X4.5972Y-4.0035
X4.5972Y-4.0323
X4.5988Y-3.8937
X4.5988Y-3.9177
X4.5992Y-3.8717
X4.6047Y-3.85
X4.6118Y-1.1232
X4.6205Y-1.0102
X4.6209Y-1.5469
X4.6213Y-2.1213
X4.6215Y-2.8128
X4.6228Y-1.8709
X4.624Y-2.7587
X4.624Y-2.8965
X4.6242Y-2.7297
X4.6248Y-2.9315
X4.6262Y-2.7844
X4.6272Y-2.9591
X4.6275Y-2.8664
X4.663Y-4.2878
X4.6787Y-0.9972
X4.7075Y-1.185
X4.7228Y-1.5472
X4.724Y-1.2602
X4.7492Y-1.8846
X4.9043Y-1.2198
X5.0177Y-4.2283
X5.0197Y-4.0354
X5.0201Y-4.3591
X5.0634Y-1.2807
X5.0709Y-1.4606
X5.126Y-3.9618
X5.1398Y-1.502
X5.1551Y-4.6315
X5.2079Y-1.4579
X5.2126Y-0.822
X5.3031Y-4.1807
X5.3157Y-4.5303
X5.348Y-4.6874
X5.3567Y-4.4051
X5.4051Y-4.687
X5.4228Y-1.1524
X5.4358Y-0.8134
X5.4429Y-1.0996
X5.5142Y-1.2198
X5.5232Y-4.5193
X5.5287Y-4.6803
X5.5421Y-4.572
X5.5476Y-4.6244
X5.5768Y-1.1728
X5.6114Y-1.1622
X5.6154Y-1.5598
X5.6169Y-0.8146
X5.6406Y-4.5382
X5.6406Y-4.628
X5.6409Y-4.6823
X5.6492Y-1.0819
X5.6579Y-1.2551
X5.6606Y-1.0614
X5.7012Y-1.1047
X5.7136Y-1.0522
X5.7272Y-1.2555
X5.735Y-4.5846
X5.735Y-4.626
X5.7406Y-4.6807
X5.7516Y-1.2242
X5.7894Y-0.9469
X5.8042Y-1.1062
X5.8461Y-4.5846
X5.8563Y-4.6799
X5.8677Y-4.5669
X5.8685Y-4.7343
X5.8697Y-4.5331
X5.8728Y-1.0917
X5.8744Y-4.3843
X5.8752Y-1.2198
X5.876Y-4.7795
X5.8783Y-4.4795
X5.9232Y-1.4933
X5.9504Y-1.2198
X5.9831Y-1.1499
X5.989Y-1.1823
X5.9999Y-1.0322
X6.011Y-4.2346
X6.0122Y-1.1894
X6.0154Y-1.2543
X6.0567Y-1.0992
X6.0657Y-2.7169
X6.0689Y-1.1846
X6.0854Y-2.1603
X6.1138Y-2.1535
X6.1189Y-0.813
X6.126Y-1.1193
X6.1598Y-4.6697
X6.2252Y-4.4012
X6.2469Y-0.8142
X6.3763Y-1.1524
X6.4075Y-1.1165
X6.4248Y-1.3118
X6.4413Y-1.0965
X6.4657Y-1.0854
X6.4665Y-1.2705
X6.4776Y-4.437
X6.5071Y-2.2122
X6.5134Y-2.0626
X6.5232Y-2.5008
X6.5276Y-2.4394
X6.5303Y-1.4343
X6.5358Y-2.0559
X6.537Y-1.1386
X6.5457Y-1.0942
X6.5783Y-2.3902
X6.5843Y-1.1602
X6.6047Y-2.0811
X6.6059Y-1.1205
X6.6232Y-4.4689
X6.6327Y-1.3331
X6.6406Y-4.3512
X6.6732Y-4.3772
X6.6866Y-3.8807
X6.6929Y-4.0909
X6.7201Y-4.9705
X6.7213Y-0.8106
X6.722Y-4.8988
X6.7315Y-2.2177
X6.7315Y-4.4366
X6.7567Y-4.4492
X6.8094Y-4.1402
X6.8165Y-2.2177
X6.8232Y-1.1669
X6.8319Y-1.1409
X6.8343Y-1.1102
X6.9Y-1.0886
X6.9457Y-1.0531
X6.9488Y-2.2079
X6.9571Y-1.1323
X6.9673Y-1.1705
X7.0008Y-2.4299
X7.0067Y-1.052
X7.0236Y-2.1776
X7.0295Y-2.4693
X7.0512Y-2.4953
X7.072Y-2.5169
X7.0921Y-2.5409
X7.1732Y-3.8303
X7.1902Y-3.8114
X7.2063Y-3.7898
X7.2091Y-1.1165
X7.2138Y-1.9591
X7.2244Y-3.7713
X7.2425Y-3.7465
X7.2457Y-1.1201
X7.2626Y-3.7264
X7.2669Y-0.8091
X7.2835Y-3.7075
X7.2965Y-1.1004
X7.3047Y-3.6866
X7.3051Y-1.1863
X7.3232Y-3.6677
X7.3319Y-1.089
X7.3394Y-3.6508
X7.3461Y-1.1856
X7.3543Y-3.6343
X7.3575Y-1.3701
X7.3693Y-3.6161
X7.3717Y-1.102
X7.3876Y-3.5989
X7.3972Y-1.1528
X7.4047Y-3.5811
X7.4232Y-3.5657
X7.4402Y-3.5469
X7.4571Y-3.528
X7.4591Y-1.165
X7.4768Y-3.5118
X7.4831Y-1.0752
X7.4937Y-1.1598
X7.4957Y-3.4949
X7.5142Y-3.4799
X7.5228Y-3.5953
X7.5311Y-3.463
X7.55Y-3.4441
X7.5567Y-4.0713
X7.5677Y-3.4244
X7.5827Y-1.2198
X7.5866Y-3.4075
X7.6028Y-3.3878
X7.6193Y-3.3689
X7.6205Y-1.0823
X7.6295Y-4.0433
X7.6362Y-3.3508
X7.6461Y-0.8071
X7.6516Y-3.3299
X7.7764Y-3.9264
X7.7783Y-3.4413
X7.7783Y-3.6142
X7.7799Y-3.5827
X7.7925Y-3.3114
X7.8154Y-3.3051
X7.8319Y-3.3232
X7.8492Y-3.3055
X7.8819Y-3.3378
X7.8992Y-3.4433
X7.8997Y-3.9252
X7.9Y-3.6154
X7.9024Y-3.3114
X7.9024Y-4.1
X7.915Y-4.8783
X7.9165Y-4.7472
X7.9165Y-4.8126
X7.9217Y-4.9929
X7.9539Y-5.0598
X8.0004Y-3.3307
X8.0006Y-4.86
X8.0102Y-3.824
X8.0386Y-4.6618
X8.0421Y-5.1764
X8.0437Y-5.235
X8.0441Y-4.7213
X8.0787Y-4.815
X8.1004Y-5.4406
X8.1122Y-4.5134
X8.1122Y-4.5925
X8.1209Y-1.2198
X8.1929Y-4.6831
X8.2067Y-5.4409
X8.2197Y-3.9146
X8.2413Y-3.9335
X8.2457Y-5.2724
X8.2563Y-1.1358
X8.261Y-1.1106
X8.2618Y-5.1795
X8.263Y-3.948
X8.2736Y-1.1594
X8.274Y-4.6626
X8.2752Y-1.0913
X8.2835Y-3.9646
X8.3035Y-3.9807
X8.3224Y-5.1772
X8.3252Y-3.9961
X8.3264Y-1.1815
X8.3453Y-4.0122
X8.352Y-4.9587
X8.3598Y-4.8031
X8.3646Y-4.0307
X8.3677Y-4.6528
X8.3713Y-4.6984
X8.3827Y-1.0929
X8.3831Y-5.135
X8.3886Y-4.7134
X8.3894Y-5.089
X8.3913Y-1.1508
X8.3917Y-4.6697
X8.3949Y-5.1142
X8.4004Y-1.1126
X8.4114Y-5.05
X8.4185Y-1.1295
X8.4217Y-1.2198
X8.4256Y-4.9461
X8.4378Y-4.8929
X8.4646Y-4.8358
X8.4705Y-5.1134
X8.4787Y-4.6709
X8.4854Y-4.9181
X8.5161Y-4.8598
X8.7047Y-5.1736
X8.7075Y-5.6016
X8.7224Y-3.137
X8.7421Y-1.2198
X8.7547Y-1.1665
X8.7976Y-5.1
X8.7992Y-5.602
X8.8004Y-5.1736
X8.8047Y-5.0185
X8.8177Y-3.0874
X8.8177Y-5.5484
X8.8437Y-5.6283
X8.8559Y-5.0783
X8.9028Y-3.048
X8.9165Y-3.3677
X8.9205Y-3.398
X8.9236Y-3.4331
X8.9244Y-5.3248
X8.926Y-3.4709
X8.9272Y-3.5079
X8.9311Y-5.6622
X8.9319Y-1.515
X8.9327Y-5.7165
X8.9524Y-5.8055
X8.9717Y-4.9283
X8.9831Y-3.011
X9.002Y-1.6543
X9.0106Y-1.7138
X9.022Y-1.5535
X9.0469Y-2.2547
X9.048Y-2.3035
X9.0488Y-2.4961
X9.0488Y-5.3949
X9.0512Y-2.3665
X9.0531Y-2.4386
X9.1043Y-1.9575
X9.1067Y-5.2362
X9.1232Y-2.9157
X9.1398Y-5.698
X9.1776Y-2.7319
X9.1815Y-1.6898
X9.1831Y-1.7736
X9.1846Y-1.7268
X9.1886Y-1.815
X9.2154Y-3.3929
X9.222Y-2.6874
X9.2319Y-2.5472
X9.2319Y-2.8425
X9.2366Y-2.2303
X9.2366Y-3.1681
X9.2697Y-1.9898
X9.2728Y-3.2732
X9.2764Y-3.3579
X9.3094Y-1.752
X9.311Y-1.4854
X9.3335Y-2.1287
X9.3343Y-1.1618
X9.3465Y-1.6386
X9.3791Y-3.6201
X9.3862Y-2.3713
X9.3953Y-2.9732
X9.3961Y-1.6173
X9.4126Y-2.6528
X9.4209Y-2.0472
X9.4263Y-3.2697
X9.4299Y-3.2472
X9.4465Y-1.8181
X9.461Y-2.8618
X9.4618Y-2.5764
X9.463Y-4.3496
X9.4728Y-3.5051
X9.474Y-1.55
X9.478Y-3.2146
X9.4803Y-1.5764
X9.4831Y-2.0106
X9.5193Y-3.3039
X9.5197Y-2.5744
X9.524Y-2.6524
X9.5252Y-2.602
X9.5283Y-1.5126
X9.5283Y-2.6256
X9.5295Y-2.8465
X9.5335Y-3.2823
X9.5346Y-3.2591
X9.5364Y-2.0967
X9.5382Y-2.0732
X9.5559Y-2.8323
X9.5567Y-2.0528
X9.5618Y-2.252
X9.5677Y-1.6067
X9.5681Y-3.4579
X9.5758Y-2.8081
X9.5766Y-1.3234
X9.5799Y-2.2205
X9.5886Y-3.4276
X9.5953Y-1.7776
X9.5972Y-2.1811
X9.5972Y-2.7957
X9.5992Y-1.6067
X9.6091Y-3.3961
X9.6167Y-1.7333
X9.6199Y-1.3667
X9.6213Y-1.676
X9.6217Y-1.5996
X9.6754Y-2.0659
X9.7665Y-3.3646
X9.8173Y-2.3224
X10.0496Y-4.811
X10.0811Y-5.7492
X10.1764Y-4.7035
T2
X0.9337Y-0.7004
X0.9337Y-0.7358
X0.9337Y-0.789
X0.9337Y-0.8244
X0.9337Y-0.8598
X0.9337Y-0.8953
X0.9337Y-0.9307
X0.9632Y-0.7004
X0.9632Y-0.7358
X0.9632Y-0.7713
X0.9632Y-0.8067
X0.9632Y-0.8421
X0.9632Y-0.8953
X0.9632Y-0.9307
X4.4037Y-0.7067
X4.4037Y-0.7421
X4.4037Y-0.7953
X4.4037Y-0.8307
X4.4037Y-0.8661
X4.4037Y-0.9016
X4.4037Y-0.937
X4.4333Y-0.7067
X4.4333Y-0.7421
X4.4333Y-0.7776
X4.4333Y-0.813
X4.4333Y-0.8484
X4.4333Y-0.9016
X4.4333Y-0.937
T4
X5.7657Y-2.1138
X5.7657Y-2.3138
X5.8657Y-2.1138
X5.8657Y-2.3138
X5.9657Y-2.1138
X5.9657Y-2.3138
X6.0657Y-2.1138
X6.0657Y-2.3138
X6.1657Y-2.1138
X6.1657Y-2.3138
X6.2657Y-2.1138
X6.2657Y-2.3138
X6.3657Y-2.1138
X6.3657Y-2.3138
X6.4657Y-2.1138
X6.4657Y-2.3138
X6.5657Y-2.1138
X6.5657Y-2.3138
X6.6657Y-2.1138
X6.6657Y-2.3138
X6.7657Y-2.1138
X6.7657Y-2.3138
X6.8657Y-2.1138
X6.8657Y-2.3138
X6.9657Y-2.1138
X6.9657Y-2.3138
X7.0657Y-2.1138
X7.0657Y-2.3138
X7.1657Y-2.1138
X7.1657Y-2.3138
X8.9485Y-1.0425
X9.0185Y-0.9213
X9.0236Y-3.7957
X9.0236Y-3.8941
X9.0236Y-3.9728
X9.0236Y-4.0713
X9.0885Y-1.0425
X9.1585Y-0.9213
X9.2285Y-1.0425
X9.2985Y-0.9213
X9.3685Y-1.0425
X9.4385Y-0.9213
X9.5085Y-1.0425
X9.5785Y-0.9213
X9.6485Y-1.0425
X9.7185Y-0.9213
X9.7885Y-1.0425
T5
X9.6482Y-3.8164
X9.6502Y-4.1708
X9.6506Y-4.5251
X9.727Y-3.8164
X9.7289Y-4.1708
X9.7293Y-4.5251
X9.8057Y-3.8164
X9.8077Y-4.1708
X9.8081Y-4.5251
X9.8844Y-3.8164
X9.8864Y-4.1708
X9.8868Y-4.5251
T6
X0.5878Y-4.5626
X0.5878Y-4.6626
X0.6878Y-4.5626
X0.6878Y-4.6626
X0.8374Y-3.0626
X0.898Y-3.6252
X0.898Y-3.7252
X0.898Y-3.8252
X0.898Y-3.9252
X0.898Y-4.0252
X0.9374Y-3.0626
X0.998Y-3.6252
X0.998Y-3.7252
X0.998Y-3.8252
X0.998Y-3.9252
X0.998Y-4.0252
X1.0374Y-3.0626
X2.3008Y-2.6039
X2.3008Y-2.7039
X2.3008Y-2.8039
X2.4008Y-2.6039
X2.4008Y-2.7039
X2.4008Y-2.8039
X2.9071Y-1.739
X3.0071Y-1.739
X3.0518Y-2.1799
X3.0518Y-2.2799
X3.0518Y-2.3799
X3.0518Y-2.4799
X3.0518Y-2.5799
X3.0518Y-2.6799
X3.1071Y-1.739
X3.2071Y-1.739
X3.3071Y-1.739
X3.4071Y-1.739
X3.4346Y-3.4224
X3.5071Y-1.739
X3.5346Y-3.4224
X3.6346Y-3.4224
X3.7346Y-3.4224
X3.8346Y-3.4224
X3.9346Y-3.4224
X4.0346Y-3.4224
X4.1417Y-1.7157
X4.2417Y-1.7157
X4.3417Y-1.7157
X4.4417Y-1.7157
X4.5299Y-2.3524
X4.5417Y-1.7157
X4.6299Y-2.3524
X4.7299Y-2.3524
X5.2339Y-0.8961
X5.2339Y-0.9961
X5.2898Y-1.3387
X5.2898Y-1.4387
X5.3339Y-0.8961
X5.3339Y-0.9961
X5.3417Y-3.7795
X5.3888Y-1.2428
X5.3898Y-1.3387
X5.3898Y-1.4387
X5.4339Y-0.8961
X5.4339Y-0.9961
X5.4417Y-3.7795
X5.4898Y-1.3387
X5.4898Y-1.4387
X5.5339Y-0.8961
X5.5339Y-0.9961
X5.5417Y-3.7795
X5.5898Y-1.3387
X5.5898Y-1.4387
X5.6339Y-0.8961
X5.6339Y-0.9961
X5.6417Y-3.7795
X5.7339Y-0.8961
X5.7339Y-0.9961
X5.7417Y-3.7795
X5.8339Y-0.8961
X5.8339Y-0.9961
X5.9339Y-0.8961
X5.9339Y-0.9961
X6.0339Y-0.8961
X6.0339Y-0.9961
X6.1339Y-0.8961
X6.1339Y-0.9961
X6.2339Y-0.8961
X6.2339Y-0.9961
X6.2646Y-3.6909
X6.2646Y-3.7909
X6.2646Y-3.8909
X6.2646Y-3.9909
X6.2646Y-4.0909
X6.3339Y-0.8961
X6.3339Y-0.9961
X6.3646Y-3.6909
X6.3646Y-3.7909
X6.3646Y-3.8909
X6.3646Y-3.9909
X6.3646Y-4.0909
X6.4339Y-0.8961
X6.4339Y-0.9961
X6.5339Y-0.8961
X6.5339Y-0.9961
X6.6339Y-0.8961
X6.6339Y-0.9961
X6.7339Y-0.8961
X6.7339Y-0.9961
X6.8339Y-0.8961
X6.8339Y-0.9961
X6.9339Y-0.8961
X6.9339Y-0.9961
X7.0339Y-0.8961
X7.0339Y-0.9961
X7.1339Y-0.8961
X7.1339Y-0.9961
X7.2339Y-0.8961
X7.2339Y-0.9961
X7.3339Y-0.8961
X7.3339Y-0.9961
X7.4339Y-0.8961
X7.4339Y-0.9961
X7.5339Y-0.8961
X7.5339Y-0.9961
X7.6339Y-0.8961
X7.6339Y-0.9961
X8.4854Y-4.0484
X8.4854Y-4.1484
X8.4854Y-4.2484
X8.4854Y-4.3484
X9.7016Y-1.524
X9.7016Y-1.6331
X9.7016Y-1.7421
X9.7016Y-1.8512
X9.7016Y-1.9602
X9.7016Y-2.7909
X9.7016Y-2.9
X9.7016Y-3.0091
X9.7016Y-3.1181
X9.7016Y-3.2272
X9.8134Y-1.5785
X9.8134Y-1.6876
X9.8134Y-1.7967
X9.8134Y-1.9057
X9.8134Y-2.8455
X9.8134Y-2.9545
X9.8134Y-3.0636
X9.8134Y-3.1726
X9.9693Y-1.5242
X9.9693Y-1.6333
X9.9693Y-1.7423
X9.9693Y-1.8514
X9.9693Y-1.9604
X9.9693Y-2.7911
X9.9693Y-2.9002
X9.9693Y-3.0093
X9.9693Y-3.1183
X9.9693Y-3.2274
X10.0811Y-1.5787
X10.0811Y-1.6878
X10.0811Y-1.7969
X10.0811Y-1.9059
X10.0811Y-2.8457
X10.0811Y-2.9547
X10.0811Y-3.0638
X10.0811Y-3.1728
T7
X0.6768Y-0.6252
X0.6768Y-0.8252
X0.6768Y-0.9252
X0.6768Y-1.0252
X2.4171Y-0.6197
X2.4622Y-0.5417
X2.4622Y-0.6976
X2.5073Y-0.6197
X2.5524Y-0.5417
X2.5524Y-0.6976
X2.5974Y-0.6197
X2.6425Y-0.5417
X2.6425Y-0.6976
X2.6876Y-0.6197
X2.7327Y-0.5417
X2.7327Y-0.6976
X2.7778Y-0.6197
X2.8228Y-0.5417
X2.8228Y-0.6976
T8
X2.9858Y-1.1431
X3.1827Y-1.2868
X3.3795Y-1.1431
T10
X9.6376Y-3.7094
X9.6376Y-3.9235
X9.6396Y-4.0637
X9.6396Y-4.2779
X9.64Y-4.418
X9.64Y-4.6322
X9.9132Y-3.7094
X9.9132Y-3.9235
X9.9152Y-4.0637
X9.9152Y-4.2779
X9.9156Y-4.418
X9.9156Y-4.6322
T11
X1.2169Y-1.9886
X1.2205Y-1.6945
X1.2205Y-1.8425
X1.5244Y-1.8654
X1.7228Y-1.5091
T12
X2.1504Y-0.6197
X3.1346Y-0.6197
T13
X1.063Y-1.4567
X1.063Y-5.3937
X2.2441Y-1.4567
X2.2441Y-2.2441
X4.2126Y-1.4567
X4.2126Y-4.8031
X4.2126Y-5.3937
X4.8031Y-2.6378
X8.5433Y-1.4567
X8.5433Y-5.3937
T3
G00X0.8921Y-0.7142
M15
G01X0.8921Y-0.6827
M16
G05
G00X0.8921Y-0.9563
M15
G01X0.8921Y-0.9209
M16
G05
G00X1.0047Y-0.7142
M15
G01X1.0047Y-0.6827
M16
G05
G00X1.0047Y-0.9563
M15
G01X1.0047Y-0.9209
M16
G05
G00X4.3622Y-0.7205
M15
G01X4.3622Y-0.689
M16
G05
G00X4.3622Y-0.9626
M15
G01X4.3622Y-0.9272
M16
G05
G00X4.4748Y-0.7205
M15
G01X4.4748Y-0.689
M16
G05
G00X4.4748Y-0.9626
M15
G01X4.4748Y-0.9272
M16
G05
T4
G00X1.2524Y-0.5913
M15
G01X1.2524Y-0.5441
M16
G05
G00X1.2524Y-0.8394
M15
G01X1.2524Y-0.7685
M16
G05
G00X1.8232Y-0.5913
M15
G01X1.8232Y-0.5441
M16
G05
G00X1.8232Y-0.8394
M15
G01X1.8232Y-0.7685
M16
G05
T6
G00X3.6154Y-0.4783
M15
G01X3.6547Y-0.4783
M16
G05
G00X3.6154Y-0.7185
M15
G01X3.6547Y-0.7185
M16
G05
G00X3.6154Y-0.935
M15
G01X3.6547Y-0.935
M16
G05
G00X3.6941Y-0.5728
M15
G01X3.7335Y-0.5728
M16
G05
G00X3.6941Y-0.7894
M15
G01X3.7335Y-0.7894
M16
G05
G00X4.0189Y-0.4783
M15
G01X4.0583Y-0.4783
M16
G05
G00X4.0189Y-0.7185
M15
G01X4.0583Y-0.7185
M16
G05
G00X4.0189Y-0.935
M15
G01X4.0583Y-0.935
M16
G05
G00X4.0976Y-0.5728
M15
G01X4.137Y-0.5728
M16
G05
G00X4.0976Y-0.7894
M15
G01X4.137Y-0.7894
M16
G05
T9
G00X9.0276Y-3.6748
M15
G01X9.0669Y-3.6748
M16
G05
G00X9.0669Y-4.1921
M15
G01X9.0276Y-4.1921
M16
G05
G00X9.2118Y-3.9138
M15
G01X9.2118Y-3.9531
M16
G05
M30
