%TF.GenerationSoftware,KiCad,Pcbnew,9.0.6*%
%TF.CreationDate,2026-02-03T20:42:29+01:00*%
%TF.ProjectId,tonnere_prototype_prod_0.51,746f6e6e-6572-4655-9f70-726f746f7479,rev?*%
%TF.SameCoordinates,Original*%
%TF.FileFunction,Profile,NP*%
%FSLAX46Y46*%
G04 Gerber Fmt 4.6, Leading zero omitted, Abs format (unit mm)*
G04 Created by KiCad (PCBNEW 9.0.6) date 2026-02-03 20:42:29*
%MOMM*%
%LPD*%
G01*
G04 APERTURE LIST*
%TA.AperFunction,Profile*%
%ADD10C,0.100000*%
%TD*%
%TA.AperFunction,Profile*%
%ADD11C,0.050000*%
%TD*%
G04 APERTURE END LIST*
D10*
X197426282Y-18596721D02*
X197286389Y-18421300D01*
X196297877Y-9690139D02*
X196178504Y-9500158D01*
X115502534Y-17147667D02*
G75*
G02*
X115483755Y-17037113I974866J222467D01*
G01*
X199482773Y-19632152D02*
X199252886Y-19606250D01*
X130547539Y-17366414D02*
G75*
G02*
X130516498Y-17474175I-975039J222514D01*
G01*
X131868700Y-8776389D02*
G75*
G02*
X131960158Y-8711496I623400J-781711D01*
G01*
X196701656Y-16759159D02*
X196700097Y-16646948D01*
X211948344Y-16759157D02*
G75*
G02*
X211942153Y-16857227I-999344J13857D01*
G01*
X199580843Y-19638344D02*
G75*
G02*
X199482773Y-19632153I13857J999344D01*
G01*
X199142332Y-19587466D02*
X198923587Y-19537539D01*
X197102123Y-18139861D02*
G75*
G02*
X197047881Y-18041710I846477J531861D01*
G01*
X133643052Y-8190097D02*
G75*
G02*
X133656948Y-8190000I13848J-985203D01*
G01*
X195656721Y-8916282D02*
G75*
G02*
X195740335Y-8991010I-624521J-782918D01*
G01*
X211699474Y-17839558D02*
X211602122Y-18041711D01*
X115450000Y-16583050D02*
X115450000Y-11690000D01*
X127643052Y-19590000D02*
X118456950Y-19590000D01*
X194147114Y-8223750D02*
X193917226Y-8197848D01*
X196700000Y-16633052D02*
X196700000Y-11196948D01*
X210449861Y-19237877D02*
G75*
G02*
X210351712Y-19292124I-531361J845477D01*
G01*
X131868700Y-8776389D02*
X131693279Y-8916282D01*
X129431299Y-19003612D02*
G75*
G02*
X129339843Y-19068506I-623499J781812D01*
G01*
X208943052Y-19640000D02*
X199706950Y-19640000D01*
X196752534Y-17197668D02*
G75*
G02*
X196733744Y-17087114I976066J222768D01*
G01*
X117048289Y-19242122D02*
G75*
G02*
X116950142Y-19187875I434211J901522D01*
G01*
X264050000Y-148490000D02*
G75*
G02*
X263050000Y-149490000I-1000000J0D01*
G01*
X199706950Y-19640000D02*
G75*
G02*
X199693051Y-19639903I-50J985600D01*
G01*
X263050000Y-10790000D02*
X212950000Y-10790000D01*
X130752461Y-10413586D02*
G75*
G02*
X130783501Y-10305823I975439J-222614D01*
G01*
X128426414Y-19487539D02*
X128207667Y-19537466D01*
X196802461Y-17416413D02*
X196752534Y-17197668D01*
X211363612Y-18421299D02*
X211223718Y-18596721D01*
X130752461Y-10413586D02*
X130702534Y-10632332D01*
X11900000Y-11690000D02*
X11900000Y-148490000D01*
X196647466Y-10632332D02*
G75*
G02*
X196666254Y-10742886I-975566J-222668D01*
G01*
X196449474Y-9990442D02*
G75*
G02*
X196492385Y-10094045I-899274J-433158D01*
G01*
X194795955Y-8397612D02*
X194584174Y-8323506D01*
X198500441Y-19389474D02*
X198298289Y-19292122D01*
X210990338Y-18838993D02*
G75*
G02*
X210906724Y-18913721I-707238J707193D01*
G01*
X199252886Y-19606250D02*
G75*
G02*
X199142331Y-19587469I111914J993550D01*
G01*
X130597466Y-17147668D02*
X130547539Y-17366414D01*
X129923718Y-18546721D02*
G75*
G02*
X129848992Y-18630337I-781618J623321D01*
G01*
X198923587Y-19537539D02*
G75*
G02*
X198815825Y-19506498I222913J976439D01*
G01*
X210906721Y-18913718D02*
X210731299Y-19053612D01*
X129606721Y-18863718D02*
X129431299Y-19003612D01*
X132150140Y-8592122D02*
G75*
G02*
X132248288Y-8537876I531960J-846578D01*
G01*
X211949903Y-16646949D02*
X211948344Y-16759157D01*
X131609661Y-8991008D02*
G75*
G02*
X131693278Y-8916281I706039J-705892D01*
G01*
X197659661Y-18838992D02*
X197501007Y-18680338D01*
X196566494Y-10305826D02*
X196492388Y-10094044D01*
X131171496Y-9500158D02*
G75*
G02*
X131236389Y-9408700I846604J-531942D01*
G01*
X130442388Y-17685956D02*
G75*
G02*
X130399471Y-17789556I-943488J330156D01*
G01*
X130650000Y-11196948D02*
X130650000Y-16583050D01*
X208956948Y-19639903D02*
G75*
G02*
X208943052Y-19640000I-14148J1027103D01*
G01*
X194147114Y-8223750D02*
G75*
G02*
X194257669Y-8242531I-111914J-993550D01*
G01*
X131376282Y-9233279D02*
G75*
G02*
X131451010Y-9149665I782918J-624521D01*
G01*
X128097114Y-19556250D02*
X127867226Y-19582152D01*
X118002886Y-19556250D02*
G75*
G02*
X117892331Y-19537469I111914J993550D01*
G01*
X211547877Y-18139861D02*
X211428505Y-18329841D01*
X196733750Y-17087113D02*
X196707848Y-16857226D01*
X131171496Y-9500158D02*
X131052122Y-9690140D01*
X196699903Y-11183052D02*
X196698344Y-11070840D01*
X211428505Y-18329841D02*
G75*
G02*
X211363613Y-18421299I-846605J531941D01*
G01*
X115797878Y-17991711D02*
X115700526Y-17789559D01*
D11*
X202920000Y-51180000D02*
X202920000Y-61300000D01*
X199870000Y-61300000D01*
X199830000Y-61260000D01*
X199810000Y-61280000D01*
X199780000Y-61250000D01*
X199780000Y-51160000D01*
X202900000Y-51160000D01*
X202920000Y-51180000D01*
D10*
X194476414Y-8292461D02*
X194257668Y-8242534D01*
X130651656Y-11070841D02*
X130650097Y-11183052D01*
X264050000Y-148490000D02*
X264050000Y-11790000D01*
D11*
X128640000Y-61300000D02*
X128630000Y-61310000D01*
X125510000Y-61310000D01*
X125510000Y-51200000D01*
X125540000Y-51170000D01*
X128640000Y-51170000D01*
X128640000Y-61300000D01*
D10*
X118232773Y-19582152D02*
X118002886Y-19556250D01*
X193693052Y-8190000D02*
G75*
G02*
X193706948Y-8190097I-252J-1027200D01*
G01*
X130650000Y-11196948D02*
G75*
G02*
X130650097Y-11183052I1027200J-252D01*
G01*
X195101711Y-8537878D02*
G75*
G02*
X195199861Y-8592122I-434011J-901222D01*
G01*
X116036388Y-18371299D02*
G75*
G02*
X115971494Y-18279843I781812J623499D01*
G01*
X128849559Y-19339474D02*
G75*
G02*
X128745956Y-19382392I-433759J900574D01*
G01*
X116493279Y-18863718D02*
G75*
G02*
X116409659Y-18788994I624521J783018D01*
G01*
X115450097Y-16596949D02*
G75*
G02*
X115450000Y-16583050I985503J13849D01*
G01*
X211816494Y-17524174D02*
X211742388Y-17735956D01*
X210639842Y-19118504D02*
X210449861Y-19237877D01*
X131609661Y-8991008D02*
X131451007Y-9149662D01*
X130857612Y-10094046D02*
G75*
G02*
X130900527Y-9990441I944788J-330654D01*
G01*
X195389841Y-8711495D02*
G75*
G02*
X195481299Y-8776388I-531241J-845605D01*
G01*
X129051711Y-19242122D02*
X128849559Y-19339474D01*
X129690338Y-18788993D02*
G75*
G02*
X129606724Y-18863721I-707238J707193D01*
G01*
X198200140Y-19237878D02*
X198010158Y-19118504D01*
X130997878Y-9788289D02*
X130900526Y-9990441D01*
X116760158Y-19068504D02*
G75*
G02*
X116668700Y-19003611I531942J846604D01*
G01*
X211916250Y-17087114D02*
G75*
G02*
X211897468Y-17197669I-992350J111714D01*
G01*
X193819160Y-8191656D02*
G75*
G02*
X193917226Y-8197852I-14060J-1001744D01*
G01*
X133432774Y-8197848D02*
G75*
G02*
X133530840Y-8191652I112026J-993952D01*
G01*
X209069160Y-19638344D02*
X208956948Y-19639903D01*
X115552461Y-17366414D02*
X115502534Y-17147667D01*
X196647466Y-10632332D02*
X196597539Y-10413586D01*
X130128505Y-18279841D02*
G75*
G02*
X130063612Y-18371299I-845605J531241D01*
G01*
X197047878Y-18041711D02*
X196950526Y-17839559D01*
X211847539Y-17416414D02*
G75*
G02*
X211816498Y-17524175I-975039J222514D01*
G01*
X127867226Y-19582152D02*
G75*
G02*
X127769160Y-19588348I-112026J993952D01*
G01*
X130857612Y-10094046D02*
X130783507Y-10305825D01*
X196700097Y-16646948D02*
G75*
G02*
X196700000Y-16633052I1027103J14148D01*
G01*
X130302122Y-17991711D02*
G75*
G02*
X130247878Y-18089861I-901222J434011D01*
G01*
X198815826Y-19506494D02*
X198604046Y-19432388D01*
X198298289Y-19292122D02*
G75*
G02*
X198200142Y-19237875I434211J901522D01*
G01*
X196950526Y-17839559D02*
G75*
G02*
X196907608Y-17735956I900574J433759D01*
G01*
X196449474Y-9990442D02*
X196352123Y-9788289D01*
X130650000Y-16583050D02*
G75*
G02*
X130649903Y-16596949I-985600J-50D01*
G01*
X209397114Y-19606250D02*
X209167226Y-19632152D01*
X211148993Y-18680338D02*
X210990338Y-18838993D01*
X211950000Y-16633050D02*
G75*
G02*
X211949903Y-16646949I-985600J-50D01*
G01*
X196113612Y-9408701D02*
G75*
G02*
X196178506Y-9500157I-781812J-623499D01*
G01*
X130399474Y-17789558D02*
X130302122Y-17991711D01*
X196113612Y-9408701D02*
X195973718Y-9233279D01*
X130648344Y-16709157D02*
G75*
G02*
X130642153Y-16807227I-999344J13857D01*
G01*
X130063612Y-18371299D02*
X129923718Y-18546721D01*
X116950140Y-19187878D02*
X116760158Y-19068504D01*
X130642152Y-16807227D02*
X130616250Y-17037114D01*
X196692152Y-10972774D02*
G75*
G02*
X196698348Y-11070840I-993952J-112026D01*
G01*
X115852123Y-18089861D02*
G75*
G02*
X115797881Y-17991710I846477J531861D01*
G01*
X133092332Y-8242534D02*
X132873586Y-8292461D01*
X210731299Y-19053612D02*
G75*
G02*
X210639843Y-19118506I-623499J781812D01*
G01*
X211897466Y-17197668D02*
X211847539Y-17416414D01*
X130616250Y-17037114D02*
G75*
G02*
X130597468Y-17147669I-992350J111714D01*
G01*
X130683750Y-10742886D02*
G75*
G02*
X130702538Y-10632333I995550J-112314D01*
G01*
X196833506Y-17524174D02*
G75*
G02*
X196802457Y-17416414I944094J330374D01*
G01*
X116668700Y-19003611D02*
X116493279Y-18863718D01*
X127656948Y-19589903D02*
G75*
G02*
X127643052Y-19590000I-14148J1027103D01*
G01*
X197743279Y-18913718D02*
G75*
G02*
X197659659Y-18838994I624521J783018D01*
G01*
X209726414Y-19537539D02*
X209507667Y-19587466D01*
X193819160Y-8191656D02*
X193706948Y-8190097D01*
X115483750Y-17037114D02*
X115457848Y-16807227D01*
X211223718Y-18596721D02*
G75*
G02*
X211148990Y-18680335I-782918J624521D01*
G01*
X117354046Y-19382388D02*
G75*
G02*
X117250441Y-19339473I330654J944788D01*
G01*
X115583507Y-17474175D02*
G75*
G02*
X115552459Y-17366414I943793J330275D01*
G01*
X196297877Y-9690139D02*
G75*
G02*
X196352124Y-9788288I-845477J-531361D01*
G01*
X12900000Y-149490000D02*
X210100000Y-149490000D01*
X195389841Y-8711495D02*
X195199861Y-8592123D01*
X196566494Y-10305826D02*
G75*
G02*
X196597538Y-10413586I-945294J-330674D01*
G01*
X132450441Y-8440526D02*
X132248289Y-8537878D01*
X210149558Y-19389474D02*
G75*
G02*
X210045955Y-19432387I-433958J901174D01*
G01*
X117565826Y-19456494D02*
X117354046Y-19382388D01*
X195898993Y-9149662D02*
G75*
G02*
X195973717Y-9233280I-706593J-706638D01*
G01*
X115971496Y-18279842D02*
X115852123Y-18089861D01*
X197221496Y-18329842D02*
X197102123Y-18139861D01*
X195656721Y-8916282D02*
X195481299Y-8776388D01*
X116251007Y-18630338D02*
G75*
G02*
X116176279Y-18546724I707193J707238D01*
G01*
X197286389Y-18421300D02*
G75*
G02*
X197221496Y-18329842I781711J623400D01*
G01*
X130247877Y-18089861D02*
X130128505Y-18279841D01*
X117892332Y-19537466D02*
X117673587Y-19487539D01*
X212560000Y-149490000D02*
X263050000Y-149490000D01*
X116409661Y-18788992D02*
X116251007Y-18630338D01*
X132765826Y-8323506D02*
G75*
G02*
X132873586Y-8292462I330674J-945294D01*
G01*
X132150140Y-8592122D02*
X131960158Y-8711496D01*
X209507667Y-19587466D02*
G75*
G02*
X209397113Y-19606245I-222467J974866D01*
G01*
X128534175Y-19456493D02*
G75*
G02*
X128426414Y-19487541I-330275J943793D01*
G01*
X132450441Y-8440526D02*
G75*
G02*
X132554045Y-8397612I433759J-900674D01*
G01*
X133432774Y-8197848D02*
X133202886Y-8223750D01*
X118456950Y-19590000D02*
G75*
G02*
X118443051Y-19589903I-50J985600D01*
G01*
X130649903Y-16596949D02*
X130648344Y-16709157D01*
X132765826Y-8323506D02*
X132554045Y-8397612D01*
X127769160Y-19588344D02*
X127656948Y-19589903D01*
X211602122Y-18041711D02*
G75*
G02*
X211547878Y-18139861I-901222J434011D01*
G01*
X115451656Y-16709158D02*
X115450097Y-16596949D01*
X198604046Y-19432388D02*
G75*
G02*
X198500442Y-19389473I330454J944288D01*
G01*
X199693051Y-19639903D02*
X199580843Y-19638344D01*
X114450000Y-10690000D02*
G75*
G02*
X115450000Y-11690000I0J-1000000D01*
G01*
X210045956Y-19432388D02*
X209834174Y-19506494D01*
X196907612Y-17735954D02*
X196833506Y-17524174D01*
X12900000Y-149490000D02*
G75*
G02*
X11900000Y-148490000I0J1000000D01*
G01*
X118443051Y-19589903D02*
X118330843Y-19588344D01*
X118330843Y-19588344D02*
G75*
G02*
X118232773Y-19582149I14057J1001844D01*
G01*
X133643052Y-8190097D02*
X133530840Y-8191656D01*
X195101711Y-8537878D02*
X194899558Y-8440526D01*
X211742388Y-17735956D02*
G75*
G02*
X211699471Y-17839556I-943488J330156D01*
G01*
X130651656Y-11070841D02*
G75*
G02*
X130657848Y-10972774I999244J-13859D01*
G01*
X11900000Y-11690000D02*
G75*
G02*
X12900000Y-10690000I1000000J0D01*
G01*
X131376282Y-9233279D02*
X131236389Y-9408700D01*
X115700526Y-17789559D02*
G75*
G02*
X115657608Y-17685956I900574J433759D01*
G01*
X115457848Y-16807227D02*
G75*
G02*
X115451652Y-16709158I993952J112027D01*
G01*
X211950000Y-11790000D02*
G75*
G02*
X212950000Y-10790000I1000000J0D01*
G01*
X194476414Y-8292461D02*
G75*
G02*
X194584174Y-8323507I-222214J-973839D01*
G01*
X211950000Y-11790000D02*
X211950000Y-16633050D01*
X193693052Y-8190000D02*
X133656948Y-8190000D01*
X197501007Y-18680338D02*
G75*
G02*
X197426283Y-18596720I706593J706638D01*
G01*
X210351711Y-19292123D02*
X210149558Y-19389474D01*
X114450000Y-10690000D02*
X12900000Y-10690000D01*
X117673587Y-19487539D02*
G75*
G02*
X117565827Y-19456490I222613J975139D01*
G01*
X210100000Y-149490000D02*
X212560000Y-149490000D01*
X116176282Y-18546721D02*
X116036388Y-18371299D01*
X128207667Y-19537466D02*
G75*
G02*
X128097113Y-19556245I-222467J974866D01*
G01*
X129339842Y-19068504D02*
X129149861Y-19187877D01*
X130683750Y-10742886D02*
X130657848Y-10972774D01*
X209167226Y-19632152D02*
G75*
G02*
X209069160Y-19638344I-111926J993052D01*
G01*
X209834174Y-19506494D02*
G75*
G02*
X209726414Y-19537538I-330674J945294D01*
G01*
X263050000Y-10790000D02*
G75*
G02*
X264050000Y-11790000I0J-1000000D01*
G01*
X198010158Y-19118504D02*
G75*
G02*
X197918700Y-19053611I531942J846604D01*
G01*
X115657612Y-17685954D02*
X115583507Y-17474175D01*
X129149861Y-19187877D02*
G75*
G02*
X129051710Y-19242119I-531861J846477D01*
G01*
X117250441Y-19339474D02*
X117048289Y-19242122D01*
X196707848Y-16857226D02*
G75*
G02*
X196701652Y-16759159I993952J112026D01*
G01*
X130516494Y-17474174D02*
X130442388Y-17685956D01*
X133092332Y-8242534D02*
G75*
G02*
X133202886Y-8223753I222468J-974766D01*
G01*
X194795955Y-8397612D02*
G75*
G02*
X194899558Y-8440527I-330955J-945488D01*
G01*
X129848993Y-18630338D02*
X129690338Y-18788993D01*
X130997878Y-9788289D02*
G75*
G02*
X131052125Y-9690142I901522J-434211D01*
G01*
X211942152Y-16857227D02*
X211916250Y-17087114D01*
X196699903Y-11183052D02*
G75*
G02*
X196700000Y-11196948I-985203J-13848D01*
G01*
X196692152Y-10972774D02*
X196666250Y-10742886D01*
X197918700Y-19053611D02*
X197743279Y-18913718D01*
X128745954Y-19382388D02*
X128534175Y-19456493D01*
X195898993Y-9149662D02*
X195740338Y-8991007D01*
M02*
