%TF.GenerationSoftware,KiCad,Pcbnew,9.0.6*%
%TF.CreationDate,2026-02-03T20:42:29+01:00*%
%TF.ProjectId,tonnere_prototype_prod_0.51,746f6e6e-6572-4655-9f70-726f746f7479,rev?*%
%TF.SameCoordinates,Original*%
%TF.FileFunction,Soldermask,Top*%
%TF.FilePolarity,Negative*%
%FSLAX46Y46*%
G04 Gerber Fmt 4.6, Leading zero omitted, Abs format (unit mm)*
G04 Created by KiCad (PCBNEW 9.0.6) date 2026-02-03 20:42:29*
%MOMM*%
%LPD*%
G01*
G04 APERTURE LIST*
G04 Aperture macros list*
%AMRoundRect*
0 Rectangle with rounded corners*
0 $1 Rounding radius*
0 $2 $3 $4 $5 $6 $7 $8 $9 X,Y pos of 4 corners*
0 Add a 4 corners polygon primitive as box body*
4,1,4,$2,$3,$4,$5,$6,$7,$8,$9,$2,$3,0*
0 Add four circle primitives for the rounded corners*
1,1,$1+$1,$2,$3*
1,1,$1+$1,$4,$5*
1,1,$1+$1,$6,$7*
1,1,$1+$1,$8,$9*
0 Add four rect primitives between the rounded corners*
20,1,$1+$1,$2,$3,$4,$5,0*
20,1,$1+$1,$4,$5,$6,$7,0*
20,1,$1+$1,$6,$7,$8,$9,0*
20,1,$1+$1,$8,$9,$2,$3,0*%
%AMFreePoly0*
4,1,9,3.862500,-0.866500,0.737500,-0.866500,0.737500,-0.450000,-0.737500,-0.450000,-0.737500,0.450000,0.737500,0.450000,0.737500,0.866500,3.862500,0.866500,3.862500,-0.866500,3.862500,-0.866500,$1*%
G04 Aperture macros list end*
%ADD10C,0.000000*%
%ADD11RoundRect,0.200000X-0.200000X-0.275000X0.200000X-0.275000X0.200000X0.275000X-0.200000X0.275000X0*%
%ADD12R,1.676400X0.228600*%
%ADD13RoundRect,0.250000X-1.000000X-0.650000X1.000000X-0.650000X1.000000X0.650000X-1.000000X0.650000X0*%
%ADD14RoundRect,0.200000X-0.275000X0.200000X-0.275000X-0.200000X0.275000X-0.200000X0.275000X0.200000X0*%
%ADD15RoundRect,0.225000X-0.250000X0.225000X-0.250000X-0.225000X0.250000X-0.225000X0.250000X0.225000X0*%
%ADD16RoundRect,0.225000X-0.225000X-0.250000X0.225000X-0.250000X0.225000X0.250000X-0.225000X0.250000X0*%
%ADD17RoundRect,0.200000X0.200000X0.275000X-0.200000X0.275000X-0.200000X-0.275000X0.200000X-0.275000X0*%
%ADD18RoundRect,0.250000X0.475000X-0.250000X0.475000X0.250000X-0.475000X0.250000X-0.475000X-0.250000X0*%
%ADD19O,1.833100X0.444600*%
%ADD20C,4.900000*%
%ADD21C,9.000000*%
%ADD22RoundRect,0.218750X-0.218750X-0.381250X0.218750X-0.381250X0.218750X0.381250X-0.218750X0.381250X0*%
%ADD23O,1.800000X1.800000*%
%ADD24O,2.101600X2.101600*%
%ADD25RoundRect,0.218750X-0.381250X0.218750X-0.381250X-0.218750X0.381250X-0.218750X0.381250X0.218750X0*%
%ADD26RoundRect,0.250000X0.600000X0.600000X-0.600000X0.600000X-0.600000X-0.600000X0.600000X-0.600000X0*%
%ADD27C,1.700000*%
%ADD28RoundRect,0.225000X0.225000X0.250000X-0.225000X0.250000X-0.225000X-0.250000X0.225000X-0.250000X0*%
%ADD29O,1.101600X2.101600*%
%ADD30O,0.650000X0.650000*%
%ADD31RoundRect,0.075000X0.200000X-0.075000X0.200000X0.075000X-0.200000X0.075000X-0.200000X-0.075000X0*%
%ADD32RoundRect,0.225000X0.250000X-0.225000X0.250000X0.225000X-0.250000X0.225000X-0.250000X-0.225000X0*%
%ADD33R,1.700000X1.700000*%
%ADD34RoundRect,0.200000X0.275000X-0.200000X0.275000X0.200000X-0.275000X0.200000X-0.275000X-0.200000X0*%
%ADD35RoundRect,0.368300X0.368300X4.813300X-0.368300X4.813300X-0.368300X-4.813300X0.368300X-4.813300X0*%
%ADD36R,0.500000X0.800000*%
%ADD37R,0.400000X0.800000*%
%ADD38C,3.000000*%
%ADD39C,1.600000*%
%ADD40RoundRect,0.050800X1.100000X-0.600000X1.100000X0.600000X-1.100000X0.600000X-1.100000X-0.600000X0*%
%ADD41RoundRect,0.050800X1.150000X-1.000000X1.150000X1.000000X-1.150000X1.000000X-1.150000X-1.000000X0*%
%ADD42O,0.670000X2.051800*%
%ADD43RoundRect,0.050800X-0.750000X0.400000X-0.750000X-0.400000X0.750000X-0.400000X0.750000X0.400000X0*%
%ADD44RoundRect,0.050800X-1.000000X0.725000X-1.000000X-0.725000X1.000000X-0.725000X1.000000X0.725000X0*%
%ADD45C,3.200000*%
%ADD46C,1.711200*%
%ADD47RoundRect,0.050000X-0.325000X-0.100000X0.325000X-0.100000X0.325000X0.100000X-0.325000X0.100000X0*%
%ADD48RoundRect,0.050000X-0.500000X-0.100000X0.500000X-0.100000X0.500000X0.100000X-0.500000X0.100000X0*%
%ADD49RoundRect,0.050000X-0.125000X-0.275000X0.125000X-0.275000X0.125000X0.275000X-0.125000X0.275000X0*%
%ADD50R,0.800000X0.500000*%
%ADD51R,0.800000X0.400000*%
%ADD52RoundRect,0.100000X-0.637500X-0.100000X0.637500X-0.100000X0.637500X0.100000X-0.637500X0.100000X0*%
%ADD53RoundRect,0.062500X0.350000X0.062500X-0.350000X0.062500X-0.350000X-0.062500X0.350000X-0.062500X0*%
%ADD54RoundRect,0.062500X0.062500X0.350000X-0.062500X0.350000X-0.062500X-0.350000X0.062500X-0.350000X0*%
%ADD55R,3.700000X3.700000*%
%ADD56O,2.800000X1.800000*%
%ADD57RoundRect,0.250000X-0.650000X0.325000X-0.650000X-0.325000X0.650000X-0.325000X0.650000X0.325000X0*%
%ADD58RoundRect,0.250000X0.325000X0.650000X-0.325000X0.650000X-0.325000X-0.650000X0.325000X-0.650000X0*%
%ADD59RoundRect,0.102000X0.739000X-0.739000X0.739000X0.739000X-0.739000X0.739000X-0.739000X-0.739000X0*%
%ADD60C,1.682000*%
%ADD61C,2.304000*%
%ADD62RoundRect,0.250000X0.250000X0.475000X-0.250000X0.475000X-0.250000X-0.475000X0.250000X-0.475000X0*%
%ADD63C,0.480000*%
%ADD64RoundRect,0.250000X0.850000X-0.375000X0.850000X0.375000X-0.850000X0.375000X-0.850000X-0.375000X0*%
%ADD65RoundRect,0.150000X0.800000X0.150000X-0.800000X0.150000X-0.800000X-0.150000X0.800000X-0.150000X0*%
%ADD66RoundRect,0.250000X-0.250000X-0.475000X0.250000X-0.475000X0.250000X0.475000X-0.250000X0.475000X0*%
%ADD67RoundRect,0.250000X0.650000X-0.325000X0.650000X0.325000X-0.650000X0.325000X-0.650000X-0.325000X0*%
%ADD68R,0.500000X0.200000*%
%ADD69R,0.400000X1.200000*%
%ADD70RoundRect,0.250000X-0.450000X-0.350000X0.450000X-0.350000X0.450000X0.350000X-0.450000X0.350000X0*%
%ADD71R,1.300000X1.300000*%
%ADD72C,1.300000*%
%ADD73O,2.900000X1.900000*%
%ADD74O,1.900000X2.900000*%
%ADD75RoundRect,0.150000X-0.512500X-0.150000X0.512500X-0.150000X0.512500X0.150000X-0.512500X0.150000X0*%
%ADD76RoundRect,0.087500X-0.725000X-0.087500X0.725000X-0.087500X0.725000X0.087500X-0.725000X0.087500X0*%
%ADD77RoundRect,0.250000X-0.325000X-0.650000X0.325000X-0.650000X0.325000X0.650000X-0.325000X0.650000X0*%
%ADD78RoundRect,0.218750X0.381250X-0.218750X0.381250X0.218750X-0.381250X0.218750X-0.381250X-0.218750X0*%
%ADD79RoundRect,0.075000X-0.075000X0.662500X-0.075000X-0.662500X0.075000X-0.662500X0.075000X0.662500X0*%
%ADD80RoundRect,0.075000X-0.662500X0.075000X-0.662500X-0.075000X0.662500X-0.075000X0.662500X0.075000X0*%
%ADD81RoundRect,0.250000X-0.475000X0.250000X-0.475000X-0.250000X0.475000X-0.250000X0.475000X0.250000X0*%
%ADD82RoundRect,0.112500X0.112500X-0.187500X0.112500X0.187500X-0.112500X0.187500X-0.112500X-0.187500X0*%
%ADD83C,2.540000*%
%ADD84C,1.611200*%
%ADD85R,1.000000X1.800000*%
%ADD86RoundRect,0.075000X-0.200000X0.075000X-0.200000X-0.075000X0.200000X-0.075000X0.200000X0.075000X0*%
%ADD87C,0.330200*%
%ADD88R,1.300000X1.100000*%
%ADD89O,1.901600X1.901600*%
%ADD90O,5.101600X5.101600*%
%ADD91RoundRect,0.150000X0.587500X0.150000X-0.587500X0.150000X-0.587500X-0.150000X0.587500X-0.150000X0*%
%ADD92RoundRect,0.050000X-0.350000X-0.100000X0.350000X-0.100000X0.350000X0.100000X-0.350000X0.100000X0*%
%ADD93RoundRect,0.050000X-0.300000X-0.100000X0.300000X-0.100000X0.300000X0.100000X-0.300000X0.100000X0*%
%ADD94RoundRect,0.050000X-0.100000X-0.300000X0.100000X-0.300000X0.100000X0.300000X-0.100000X0.300000X0*%
%ADD95RoundRect,0.225000X0.425000X0.225000X-0.425000X0.225000X-0.425000X-0.225000X0.425000X-0.225000X0*%
%ADD96FreePoly0,180.000000*%
%ADD97O,0.280000X2.600000*%
%ADD98O,1.601600X2.801600*%
%ADD99O,1.601600X3.401600*%
%ADD100RoundRect,0.050800X1.000000X0.450000X-1.000000X0.450000X-1.000000X-0.450000X1.000000X-0.450000X0*%
%ADD101RoundRect,0.050800X0.450000X0.450000X-0.450000X0.450000X-0.450000X-0.450000X0.450000X-0.450000X0*%
%ADD102R,0.458000X1.510000*%
G04 APERTURE END LIST*
D10*
%TO.C,U16*%
G36*
X240549999Y-51900000D02*
G01*
X239950001Y-51900000D01*
X239950001Y-51599998D01*
X240549999Y-51599998D01*
X240549999Y-51900000D01*
G37*
G36*
X240549999Y-52299999D02*
G01*
X239950001Y-52299999D01*
X239950001Y-52000000D01*
X240549999Y-52000000D01*
X240549999Y-52299999D01*
G37*
G36*
X240549999Y-52699998D02*
G01*
X239950001Y-52699998D01*
X239950001Y-52399999D01*
X240549999Y-52399999D01*
X240549999Y-52699998D01*
G37*
G36*
X240549999Y-53100000D02*
G01*
X239950001Y-53100000D01*
X239950001Y-52799998D01*
X240549999Y-52799998D01*
X240549999Y-53100000D01*
G37*
G36*
X241799999Y-51900000D02*
G01*
X241200001Y-51900000D01*
X241200001Y-51599998D01*
X241799999Y-51599998D01*
X241799999Y-51900000D01*
G37*
G36*
X241799999Y-52299999D02*
G01*
X241200001Y-52299999D01*
X241200001Y-52000000D01*
X241799999Y-52000000D01*
X241799999Y-52299999D01*
G37*
G36*
X241799999Y-52699998D02*
G01*
X241200001Y-52699998D01*
X241200001Y-52399999D01*
X241799999Y-52399999D01*
X241799999Y-52699998D01*
G37*
G36*
X241799999Y-53100000D02*
G01*
X241200001Y-53100000D01*
X241200001Y-52799998D01*
X241799999Y-52799998D01*
X241799999Y-53100000D01*
G37*
%TO.C,U4*%
G36*
X143249999Y-28050000D02*
G01*
X142650001Y-28050000D01*
X142650001Y-27749998D01*
X143249999Y-27749998D01*
X143249999Y-28050000D01*
G37*
G36*
X143249999Y-28449999D02*
G01*
X142650001Y-28449999D01*
X142650001Y-28150000D01*
X143249999Y-28150000D01*
X143249999Y-28449999D01*
G37*
G36*
X143249999Y-28849998D02*
G01*
X142650001Y-28849998D01*
X142650001Y-28549999D01*
X143249999Y-28549999D01*
X143249999Y-28849998D01*
G37*
G36*
X143249999Y-29250000D02*
G01*
X142650001Y-29250000D01*
X142650001Y-28949998D01*
X143249999Y-28949998D01*
X143249999Y-29250000D01*
G37*
G36*
X144499999Y-28050000D02*
G01*
X143900001Y-28050000D01*
X143900001Y-27749998D01*
X144499999Y-27749998D01*
X144499999Y-28050000D01*
G37*
G36*
X144499999Y-28449999D02*
G01*
X143900001Y-28449999D01*
X143900001Y-28150000D01*
X144499999Y-28150000D01*
X144499999Y-28449999D01*
G37*
G36*
X144499999Y-28849998D02*
G01*
X143900001Y-28849998D01*
X143900001Y-28549999D01*
X144499999Y-28549999D01*
X144499999Y-28849998D01*
G37*
G36*
X144499999Y-29250000D02*
G01*
X143900001Y-29250000D01*
X143900001Y-28949998D01*
X144499999Y-28949998D01*
X144499999Y-29250000D01*
G37*
%TO.C,U8*%
G36*
X174889999Y-28600002D02*
G01*
X174290001Y-28600002D01*
X174290001Y-28300000D01*
X174889999Y-28300000D01*
X174889999Y-28600002D01*
G37*
G36*
X174889999Y-29000001D02*
G01*
X174290001Y-29000001D01*
X174290001Y-28700002D01*
X174889999Y-28700002D01*
X174889999Y-29000001D01*
G37*
G36*
X174889999Y-29400000D02*
G01*
X174290001Y-29400000D01*
X174290001Y-29100001D01*
X174889999Y-29100001D01*
X174889999Y-29400000D01*
G37*
G36*
X174889999Y-29800002D02*
G01*
X174290001Y-29800002D01*
X174290001Y-29500000D01*
X174889999Y-29500000D01*
X174889999Y-29800002D01*
G37*
G36*
X176139999Y-28600002D02*
G01*
X175540001Y-28600002D01*
X175540001Y-28300000D01*
X176139999Y-28300000D01*
X176139999Y-28600002D01*
G37*
G36*
X176139999Y-29000001D02*
G01*
X175540001Y-29000001D01*
X175540001Y-28700002D01*
X176139999Y-28700002D01*
X176139999Y-29000001D01*
G37*
G36*
X176139999Y-29400000D02*
G01*
X175540001Y-29400000D01*
X175540001Y-29100001D01*
X176139999Y-29100001D01*
X176139999Y-29400000D01*
G37*
G36*
X176139999Y-29800002D02*
G01*
X175540001Y-29800002D01*
X175540001Y-29500000D01*
X176139999Y-29500000D01*
X176139999Y-29800002D01*
G37*
%TO.C,U7*%
G36*
X163909999Y-28540002D02*
G01*
X163310001Y-28540002D01*
X163310001Y-28240000D01*
X163909999Y-28240000D01*
X163909999Y-28540002D01*
G37*
G36*
X163909999Y-28940001D02*
G01*
X163310001Y-28940001D01*
X163310001Y-28640002D01*
X163909999Y-28640002D01*
X163909999Y-28940001D01*
G37*
G36*
X163909999Y-29340000D02*
G01*
X163310001Y-29340000D01*
X163310001Y-29040001D01*
X163909999Y-29040001D01*
X163909999Y-29340000D01*
G37*
G36*
X163909999Y-29740002D02*
G01*
X163310001Y-29740002D01*
X163310001Y-29440000D01*
X163909999Y-29440000D01*
X163909999Y-29740002D01*
G37*
G36*
X165159999Y-28540002D02*
G01*
X164560001Y-28540002D01*
X164560001Y-28240000D01*
X165159999Y-28240000D01*
X165159999Y-28540002D01*
G37*
G36*
X165159999Y-28940001D02*
G01*
X164560001Y-28940001D01*
X164560001Y-28640002D01*
X165159999Y-28640002D01*
X165159999Y-28940001D01*
G37*
G36*
X165159999Y-29340000D02*
G01*
X164560001Y-29340000D01*
X164560001Y-29040001D01*
X165159999Y-29040001D01*
X165159999Y-29340000D01*
G37*
G36*
X165159999Y-29740002D02*
G01*
X164560001Y-29740002D01*
X164560001Y-29440000D01*
X165159999Y-29440000D01*
X165159999Y-29740002D01*
G37*
%TO.C,U6*%
G36*
X153269999Y-28530002D02*
G01*
X152670001Y-28530002D01*
X152670001Y-28230000D01*
X153269999Y-28230000D01*
X153269999Y-28530002D01*
G37*
G36*
X153269999Y-28930001D02*
G01*
X152670001Y-28930001D01*
X152670001Y-28630002D01*
X153269999Y-28630002D01*
X153269999Y-28930001D01*
G37*
G36*
X153269999Y-29330000D02*
G01*
X152670001Y-29330000D01*
X152670001Y-29030001D01*
X153269999Y-29030001D01*
X153269999Y-29330000D01*
G37*
G36*
X153269999Y-29730002D02*
G01*
X152670001Y-29730002D01*
X152670001Y-29430000D01*
X153269999Y-29430000D01*
X153269999Y-29730002D01*
G37*
G36*
X154519999Y-28530002D02*
G01*
X153920001Y-28530002D01*
X153920001Y-28230000D01*
X154519999Y-28230000D01*
X154519999Y-28530002D01*
G37*
G36*
X154519999Y-28930001D02*
G01*
X153920001Y-28930001D01*
X153920001Y-28630002D01*
X154519999Y-28630002D01*
X154519999Y-28930001D01*
G37*
G36*
X154519999Y-29330000D02*
G01*
X153920001Y-29330000D01*
X153920001Y-29030001D01*
X154519999Y-29030001D01*
X154519999Y-29330000D01*
G37*
G36*
X154519999Y-29730002D02*
G01*
X153920001Y-29730002D01*
X153920001Y-29430000D01*
X154519999Y-29430000D01*
X154519999Y-29730002D01*
G37*
%TO.C,U12*%
G36*
X186814999Y-35860001D02*
G01*
X186215001Y-35860001D01*
X186215001Y-35559999D01*
X186814999Y-35559999D01*
X186814999Y-35860001D01*
G37*
G36*
X186814999Y-36260000D02*
G01*
X186215001Y-36260000D01*
X186215001Y-35960001D01*
X186814999Y-35960001D01*
X186814999Y-36260000D01*
G37*
G36*
X186814999Y-36659999D02*
G01*
X186215001Y-36659999D01*
X186215001Y-36360000D01*
X186814999Y-36360000D01*
X186814999Y-36659999D01*
G37*
G36*
X186814999Y-37060001D02*
G01*
X186215001Y-37060001D01*
X186215001Y-36759999D01*
X186814999Y-36759999D01*
X186814999Y-37060001D01*
G37*
G36*
X188064999Y-35860001D02*
G01*
X187465001Y-35860001D01*
X187465001Y-35559999D01*
X188064999Y-35559999D01*
X188064999Y-35860001D01*
G37*
G36*
X188064999Y-36260000D02*
G01*
X187465001Y-36260000D01*
X187465001Y-35960001D01*
X188064999Y-35960001D01*
X188064999Y-36260000D01*
G37*
G36*
X188064999Y-36659999D02*
G01*
X187465001Y-36659999D01*
X187465001Y-36360000D01*
X188064999Y-36360000D01*
X188064999Y-36659999D01*
G37*
G36*
X188064999Y-37060001D02*
G01*
X187465001Y-37060001D01*
X187465001Y-36759999D01*
X188064999Y-36759999D01*
X188064999Y-37060001D01*
G37*
%TO.C,U13*%
G36*
X241699999Y-39150002D02*
G01*
X241100001Y-39150002D01*
X241100001Y-38850000D01*
X241699999Y-38850000D01*
X241699999Y-39150002D01*
G37*
G36*
X241699999Y-39550001D02*
G01*
X241100001Y-39550001D01*
X241100001Y-39250002D01*
X241699999Y-39250002D01*
X241699999Y-39550001D01*
G37*
G36*
X241699999Y-39950000D02*
G01*
X241100001Y-39950000D01*
X241100001Y-39650001D01*
X241699999Y-39650001D01*
X241699999Y-39950000D01*
G37*
G36*
X241699999Y-40350002D02*
G01*
X241100001Y-40350002D01*
X241100001Y-40050000D01*
X241699999Y-40050000D01*
X241699999Y-40350002D01*
G37*
G36*
X242949999Y-39150002D02*
G01*
X242350001Y-39150002D01*
X242350001Y-38850000D01*
X242949999Y-38850000D01*
X242949999Y-39150002D01*
G37*
G36*
X242949999Y-39550001D02*
G01*
X242350001Y-39550001D01*
X242350001Y-39250002D01*
X242949999Y-39250002D01*
X242949999Y-39550001D01*
G37*
G36*
X242949999Y-39950000D02*
G01*
X242350001Y-39950000D01*
X242350001Y-39650001D01*
X242949999Y-39650001D01*
X242949999Y-39950000D01*
G37*
G36*
X242949999Y-40350002D02*
G01*
X242350001Y-40350002D01*
X242350001Y-40050000D01*
X242949999Y-40050000D01*
X242949999Y-40350002D01*
G37*
%TO.C,U5*%
G36*
X211179999Y-28050002D02*
G01*
X210580001Y-28050002D01*
X210580001Y-27750000D01*
X211179999Y-27750000D01*
X211179999Y-28050002D01*
G37*
G36*
X211179999Y-28450001D02*
G01*
X210580001Y-28450001D01*
X210580001Y-28150002D01*
X211179999Y-28150002D01*
X211179999Y-28450001D01*
G37*
G36*
X211179999Y-28850000D02*
G01*
X210580001Y-28850000D01*
X210580001Y-28550001D01*
X211179999Y-28550001D01*
X211179999Y-28850000D01*
G37*
G36*
X211179999Y-29250002D02*
G01*
X210580001Y-29250002D01*
X210580001Y-28950000D01*
X211179999Y-28950000D01*
X211179999Y-29250002D01*
G37*
G36*
X212429999Y-28050002D02*
G01*
X211830001Y-28050002D01*
X211830001Y-27750000D01*
X212429999Y-27750000D01*
X212429999Y-28050002D01*
G37*
G36*
X212429999Y-28450001D02*
G01*
X211830001Y-28450001D01*
X211830001Y-28150002D01*
X212429999Y-28150002D01*
X212429999Y-28450001D01*
G37*
G36*
X212429999Y-28850000D02*
G01*
X211830001Y-28850000D01*
X211830001Y-28550001D01*
X212429999Y-28550001D01*
X212429999Y-28850000D01*
G37*
G36*
X212429999Y-29250002D02*
G01*
X211830001Y-29250002D01*
X211830001Y-28950000D01*
X212429999Y-28950000D01*
X212429999Y-29250002D01*
G37*
%TO.C,U20*%
G36*
X239999999Y-66150002D02*
G01*
X239400001Y-66150002D01*
X239400001Y-65850000D01*
X239999999Y-65850000D01*
X239999999Y-66150002D01*
G37*
G36*
X239999999Y-66550001D02*
G01*
X239400001Y-66550001D01*
X239400001Y-66250002D01*
X239999999Y-66250002D01*
X239999999Y-66550001D01*
G37*
G36*
X239999999Y-66950000D02*
G01*
X239400001Y-66950000D01*
X239400001Y-66650001D01*
X239999999Y-66650001D01*
X239999999Y-66950000D01*
G37*
G36*
X239999999Y-67350002D02*
G01*
X239400001Y-67350002D01*
X239400001Y-67050000D01*
X239999999Y-67050000D01*
X239999999Y-67350002D01*
G37*
G36*
X241249999Y-66150002D02*
G01*
X240650001Y-66150002D01*
X240650001Y-65850000D01*
X241249999Y-65850000D01*
X241249999Y-66150002D01*
G37*
G36*
X241249999Y-66550001D02*
G01*
X240650001Y-66550001D01*
X240650001Y-66250002D01*
X241249999Y-66250002D01*
X241249999Y-66550001D01*
G37*
G36*
X241249999Y-66950000D02*
G01*
X240650001Y-66950000D01*
X240650001Y-66650001D01*
X241249999Y-66650001D01*
X241249999Y-66950000D01*
G37*
G36*
X241249999Y-67350002D02*
G01*
X240650001Y-67350002D01*
X240650001Y-67050000D01*
X241249999Y-67050000D01*
X241249999Y-67350002D01*
G37*
%TO.C,U25*%
G36*
X240399999Y-82400000D02*
G01*
X239800001Y-82400000D01*
X239800001Y-82099998D01*
X240399999Y-82099998D01*
X240399999Y-82400000D01*
G37*
G36*
X240399999Y-82799999D02*
G01*
X239800001Y-82799999D01*
X239800001Y-82500000D01*
X240399999Y-82500000D01*
X240399999Y-82799999D01*
G37*
G36*
X240399999Y-83199998D02*
G01*
X239800001Y-83199998D01*
X239800001Y-82899999D01*
X240399999Y-82899999D01*
X240399999Y-83199998D01*
G37*
G36*
X240399999Y-83600000D02*
G01*
X239800001Y-83600000D01*
X239800001Y-83299998D01*
X240399999Y-83299998D01*
X240399999Y-83600000D01*
G37*
G36*
X241649999Y-82400000D02*
G01*
X241050001Y-82400000D01*
X241050001Y-82099998D01*
X241649999Y-82099998D01*
X241649999Y-82400000D01*
G37*
G36*
X241649999Y-82799999D02*
G01*
X241050001Y-82799999D01*
X241050001Y-82500000D01*
X241649999Y-82500000D01*
X241649999Y-82799999D01*
G37*
G36*
X241649999Y-83199998D02*
G01*
X241050001Y-83199998D01*
X241050001Y-82899999D01*
X241649999Y-82899999D01*
X241649999Y-83199998D01*
G37*
G36*
X241649999Y-83600000D02*
G01*
X241050001Y-83600000D01*
X241050001Y-83299998D01*
X241649999Y-83299998D01*
X241649999Y-83600000D01*
G37*
%TO.C,U9*%
G36*
X185869999Y-28630000D02*
G01*
X185270001Y-28630000D01*
X185270001Y-28329998D01*
X185869999Y-28329998D01*
X185869999Y-28630000D01*
G37*
G36*
X185869999Y-29029999D02*
G01*
X185270001Y-29029999D01*
X185270001Y-28730000D01*
X185869999Y-28730000D01*
X185869999Y-29029999D01*
G37*
G36*
X185869999Y-29429998D02*
G01*
X185270001Y-29429998D01*
X185270001Y-29129999D01*
X185869999Y-29129999D01*
X185869999Y-29429998D01*
G37*
G36*
X185869999Y-29830000D02*
G01*
X185270001Y-29830000D01*
X185270001Y-29529998D01*
X185869999Y-29529998D01*
X185869999Y-29830000D01*
G37*
G36*
X187119999Y-28630000D02*
G01*
X186520001Y-28630000D01*
X186520001Y-28329998D01*
X187119999Y-28329998D01*
X187119999Y-28630000D01*
G37*
G36*
X187119999Y-29029999D02*
G01*
X186520001Y-29029999D01*
X186520001Y-28730000D01*
X187119999Y-28730000D01*
X187119999Y-29029999D01*
G37*
G36*
X187119999Y-29429998D02*
G01*
X186520001Y-29429998D01*
X186520001Y-29129999D01*
X187119999Y-29129999D01*
X187119999Y-29429998D01*
G37*
G36*
X187119999Y-29830000D02*
G01*
X186520001Y-29830000D01*
X186520001Y-29529998D01*
X187119999Y-29529998D01*
X187119999Y-29830000D01*
G37*
%TD*%
D11*
%TO.C,F1*%
X214310000Y-29580000D03*
X215960000Y-29580000D03*
%TD*%
D12*
%TO.C,U31*%
X196281200Y-96930002D03*
X196281200Y-97330001D03*
X196281200Y-97730003D03*
X196281200Y-98130002D03*
X196281200Y-98530001D03*
X196281200Y-98930000D03*
X196281200Y-99330002D03*
X196281200Y-99730001D03*
X196281200Y-100130000D03*
X196281200Y-100530002D03*
X196281200Y-100930001D03*
X196281200Y-101330000D03*
X196281200Y-101730002D03*
X196281200Y-102130001D03*
X196281200Y-102530001D03*
X196281200Y-102930000D03*
X196281200Y-103330002D03*
X196281200Y-103730001D03*
X196281200Y-104130000D03*
X196281200Y-104530002D03*
X196281200Y-104930001D03*
X196281200Y-105330000D03*
X196281200Y-105730002D03*
X196281200Y-106130001D03*
X196281200Y-106530000D03*
X196281200Y-106929999D03*
X196281200Y-107330001D03*
X196281200Y-107730000D03*
X201920000Y-107730000D03*
X201920000Y-107330001D03*
X201920000Y-106929999D03*
X201920000Y-106530000D03*
X201920000Y-106130001D03*
X201920000Y-105730002D03*
X201920000Y-105330000D03*
X201920000Y-104930001D03*
X201920000Y-104530002D03*
X201920000Y-104130000D03*
X201920000Y-103730001D03*
X201920000Y-103330002D03*
X201920000Y-102930000D03*
X201920000Y-102530001D03*
X201920000Y-102130001D03*
X201920000Y-101730002D03*
X201920000Y-101330000D03*
X201920000Y-100930001D03*
X201920000Y-100530002D03*
X201920000Y-100130000D03*
X201920000Y-99730001D03*
X201920000Y-99330002D03*
X201920000Y-98930003D03*
X201920000Y-98530001D03*
X201920000Y-98130002D03*
X201920000Y-97730003D03*
X201920000Y-97330001D03*
X201920000Y-96930002D03*
%TD*%
D13*
%TO.C,D1*%
X39000000Y-32640000D03*
X43000000Y-32640000D03*
%TD*%
D14*
%TO.C,R68*%
X105715000Y-75910000D03*
X105715000Y-77560000D03*
%TD*%
D11*
%TO.C,R62*%
X26835000Y-73550000D03*
X28485000Y-73550000D03*
%TD*%
D15*
%TO.C,C97*%
X209850000Y-128975000D03*
X209850000Y-130525000D03*
%TD*%
D16*
%TO.C,C54*%
X108845000Y-75970000D03*
X110395000Y-75970000D03*
%TD*%
D17*
%TO.C,R22*%
X118385000Y-34425000D03*
X116735000Y-34425000D03*
%TD*%
D18*
%TO.C,C9*%
X118520000Y-38550000D03*
X118520000Y-36650000D03*
%TD*%
D19*
%TO.C,U22*%
X44474200Y-70204900D03*
X44474200Y-70854900D03*
X44474200Y-71504900D03*
X44474200Y-72155100D03*
X44474200Y-72805100D03*
X44474200Y-73455100D03*
X44474200Y-74105100D03*
X44474200Y-74755100D03*
X50205800Y-74755100D03*
X50205800Y-74105100D03*
X50205800Y-73455100D03*
X50205800Y-72805100D03*
X50205800Y-72155100D03*
X50205800Y-71504900D03*
X50205800Y-70854900D03*
X50205800Y-70204900D03*
%TD*%
D20*
%TO.C,H4*%
X217000000Y-37000000D03*
D21*
X217000000Y-37000000D03*
%TD*%
D22*
%TO.C,FB6*%
X207047500Y-114710000D03*
X209172500Y-114710000D03*
%TD*%
D23*
%TO.C,SW1*%
X17190000Y-20960000D03*
X17190000Y-23500000D03*
X17190000Y-26040000D03*
X17190000Y-15880000D03*
%TD*%
D24*
%TO.C,BT1*%
X85840000Y-29035000D03*
X75840000Y-29035000D03*
X80840000Y-32685000D03*
%TD*%
D17*
%TO.C,R78*%
X42495000Y-82805000D03*
X40845000Y-82805000D03*
%TD*%
D14*
%TO.C,R13*%
X146410000Y-27785000D03*
X146410000Y-29435000D03*
%TD*%
D25*
%TO.C,FB5*%
X49360000Y-79375000D03*
X49360000Y-81500000D03*
%TD*%
D26*
%TO.C,J21*%
X25350000Y-102240000D03*
D27*
X22810000Y-102240000D03*
X25350000Y-99700000D03*
X22810000Y-99700000D03*
X25350000Y-97160000D03*
X22810000Y-97160000D03*
X25350000Y-94620000D03*
X22810000Y-94620000D03*
X25350000Y-92080000D03*
X22810000Y-92080000D03*
%TD*%
D28*
%TO.C,C78*%
X89985000Y-107980000D03*
X88435000Y-107980000D03*
%TD*%
D29*
%TO.C,USB2*%
X110800000Y-17900000D03*
X110800000Y-24000000D03*
X113660000Y-24000000D03*
X113660000Y-17900000D03*
D30*
X112604900Y-17950000D03*
X112604900Y-18850200D03*
X112604900Y-19750100D03*
X112604900Y-20650000D03*
X112604900Y-21550200D03*
X112604900Y-22900200D03*
X112604900Y-23800100D03*
X111855100Y-23800100D03*
X111855100Y-22900200D03*
X111855100Y-22000000D03*
X111855100Y-21100100D03*
X111855100Y-20200200D03*
X111855100Y-18850200D03*
X111855100Y-17950000D03*
%TD*%
D17*
%TO.C,R33*%
X98070000Y-46470000D03*
X96420000Y-46470000D03*
%TD*%
D11*
%TO.C,R80*%
X236490000Y-83390002D03*
X238140000Y-83390002D03*
%TD*%
D31*
%TO.C,U2*%
X45100000Y-26940000D03*
X45100000Y-26440000D03*
X45100000Y-25940000D03*
X45100000Y-25440000D03*
X45100000Y-24940000D03*
X44330000Y-24940000D03*
X44330000Y-25440000D03*
X44330000Y-25940000D03*
X44330000Y-26440000D03*
X44330000Y-26940000D03*
%TD*%
D17*
%TO.C,R48*%
X86905000Y-58400000D03*
X85255000Y-58400000D03*
%TD*%
%TO.C,R84*%
X28830000Y-85700000D03*
X27180000Y-85700000D03*
%TD*%
D32*
%TO.C,C87*%
X205210000Y-119965000D03*
X205210000Y-118415000D03*
%TD*%
D33*
%TO.C,J12*%
X77515000Y-55370000D03*
D27*
X77515000Y-57910000D03*
X77515000Y-60450000D03*
X77515000Y-62990000D03*
X77515000Y-65530000D03*
X77515000Y-68070000D03*
%TD*%
D34*
%TO.C,R23*%
X113660000Y-37030000D03*
X113660000Y-35380000D03*
%TD*%
D17*
%TO.C,F4*%
X201180000Y-35660000D03*
X199530000Y-35660000D03*
%TD*%
D11*
%TO.C,R6*%
X89770000Y-26300000D03*
X91420000Y-26300000D03*
%TD*%
D28*
%TO.C,C43*%
X86890000Y-61880000D03*
X85340000Y-61880000D03*
%TD*%
D14*
%TO.C,R2*%
X86930000Y-21135000D03*
X86930000Y-22785000D03*
%TD*%
D35*
%TO.C,EDGE1*%
X194200000Y-14600000D03*
X191660000Y-14600000D03*
X189120000Y-14600000D03*
X186580000Y-14600000D03*
X184040000Y-14600000D03*
X181500000Y-14600000D03*
X178960000Y-14600000D03*
X176420000Y-14600000D03*
X173880000Y-14600000D03*
X171340000Y-14600000D03*
X168800000Y-14600000D03*
X166260000Y-14600000D03*
X163720000Y-14600000D03*
X161180000Y-14600000D03*
X158640000Y-14600000D03*
X156100000Y-14600000D03*
X153560000Y-14600000D03*
X151020000Y-14600000D03*
X148480000Y-14600000D03*
X145940000Y-14600000D03*
X143400000Y-14600000D03*
X140860000Y-14600000D03*
X138320000Y-14600000D03*
X135780000Y-14600000D03*
X133240000Y-14600000D03*
%TD*%
D36*
%TO.C,RN2*%
X39670000Y-25840000D03*
D37*
X38870000Y-25840000D03*
X38070000Y-25840000D03*
D36*
X37270000Y-25840000D03*
X37270000Y-27640000D03*
D37*
X38070000Y-27640000D03*
X38870000Y-27640000D03*
D36*
X39670000Y-27640000D03*
%TD*%
D15*
%TO.C,C36*%
X235425000Y-54900000D03*
X235425000Y-56450000D03*
%TD*%
D17*
%TO.C,R51*%
X82230000Y-61660000D03*
X80580000Y-61660000D03*
%TD*%
D38*
%TO.C,TP1*%
X43760000Y-38330000D03*
%TD*%
D39*
%TO.C,Card2*%
X258310000Y-146300100D03*
X258310000Y-122099900D03*
D40*
X234259200Y-127419000D03*
X234259200Y-129919800D03*
X234259200Y-133219300D03*
X234259200Y-134921100D03*
X234259200Y-137418900D03*
X234259200Y-139919800D03*
X234259200Y-142348800D03*
X234259200Y-144049600D03*
X234259200Y-124921100D03*
D41*
X255008000Y-120200000D03*
X256209400Y-148200000D03*
D40*
X234259200Y-131571100D03*
X234259200Y-147399400D03*
%TD*%
D14*
%TO.C,R11*%
X150200000Y-27750000D03*
X150200000Y-29400000D03*
%TD*%
D31*
%TO.C,U39*%
X222700000Y-132400000D03*
X222700000Y-131900000D03*
X222700000Y-131400000D03*
X222700000Y-130900000D03*
X222700000Y-130400000D03*
X221930000Y-130400000D03*
X221930000Y-130900000D03*
X221930000Y-131400000D03*
X221930000Y-131900000D03*
X221930000Y-132400000D03*
%TD*%
D42*
%TO.C,U21*%
X63400000Y-74940200D03*
X64670000Y-74940200D03*
X65940000Y-74940200D03*
X67210000Y-74940200D03*
X67210000Y-69530000D03*
X65940000Y-69530000D03*
X64670000Y-69530000D03*
X63400000Y-69530000D03*
%TD*%
D43*
%TO.C,Card1*%
X30860200Y-63382700D03*
X30860200Y-62282600D03*
X30860200Y-61182600D03*
X30860200Y-60082800D03*
X30860200Y-58982700D03*
X30860200Y-57882600D03*
X30860200Y-56782800D03*
X30860200Y-55682700D03*
D44*
X36560000Y-67062700D03*
X36560000Y-53302700D03*
X28260000Y-53302700D03*
X28260000Y-67062700D03*
%TD*%
D15*
%TO.C,C20*%
X106420000Y-46310000D03*
X106420000Y-47860000D03*
%TD*%
D34*
%TO.C,R86*%
X30250000Y-93560000D03*
X30250000Y-91910000D03*
%TD*%
D45*
%TO.C,J15*%
X247840000Y-88930000D03*
X255740000Y-88930000D03*
X247850000Y-63930000D03*
X255750000Y-63930000D03*
D46*
X253220000Y-81975000D03*
X253220000Y-79205000D03*
X253220000Y-76435000D03*
X253220000Y-73665000D03*
X253220000Y-70895000D03*
X256060000Y-80590000D03*
X256060000Y-77820000D03*
X256060000Y-75050000D03*
X256060000Y-72280000D03*
X246420000Y-81970000D03*
X246420000Y-79200000D03*
X246420000Y-76430000D03*
X246420000Y-73660000D03*
X246420000Y-70890000D03*
X249260000Y-80585000D03*
X249260000Y-77815000D03*
X249260000Y-75045000D03*
X249260000Y-72275000D03*
%TD*%
D25*
%TO.C,FB7*%
X43580000Y-124495000D03*
X43580000Y-126620000D03*
%TD*%
D47*
%TO.C,U18*%
X18154900Y-57050000D03*
X18154900Y-57549800D03*
X18154900Y-58050000D03*
D48*
X19230000Y-58050000D03*
D47*
X19405000Y-57549800D03*
D48*
X19230000Y-57050000D03*
D49*
X19280100Y-56374800D03*
X18779900Y-56374800D03*
X18280100Y-56374800D03*
%TD*%
D11*
%TO.C,R77*%
X37770000Y-82805000D03*
X39420000Y-82805000D03*
%TD*%
D50*
%TO.C,RN5*%
X243160000Y-44170000D03*
D51*
X243160000Y-43370000D03*
X243160000Y-42570000D03*
D50*
X243160000Y-41770000D03*
X241360000Y-41770000D03*
D51*
X241360000Y-42570000D03*
X241360000Y-43370000D03*
D50*
X241360000Y-44170000D03*
%TD*%
D32*
%TO.C,C93*%
X41950000Y-126065000D03*
X41950000Y-124515000D03*
%TD*%
D33*
%TO.C,J8*%
X141980000Y-36542500D03*
D27*
X141980000Y-34002500D03*
X139440000Y-36542500D03*
X139440000Y-34002500D03*
X136900000Y-36542500D03*
X136900000Y-34002500D03*
X134360000Y-36542500D03*
X134360000Y-34002500D03*
%TD*%
D52*
%TO.C,U17*%
X68250000Y-49920000D03*
X68250000Y-50570000D03*
X68250000Y-51220000D03*
X68250000Y-51870000D03*
X68250000Y-52520000D03*
X68250000Y-53170000D03*
X68250000Y-53820000D03*
X68250000Y-54470000D03*
X68250000Y-55120000D03*
X68250000Y-55770000D03*
X73975000Y-55770000D03*
X73975000Y-55120000D03*
X73975000Y-54470000D03*
X73975000Y-53820000D03*
X73975000Y-53170000D03*
X73975000Y-52520000D03*
X73975000Y-51870000D03*
X73975000Y-51220000D03*
X73975000Y-50570000D03*
X73975000Y-49920000D03*
%TD*%
D32*
%TO.C,C61*%
X75450000Y-85145000D03*
X75450000Y-83595000D03*
%TD*%
D15*
%TO.C,C44*%
X22340000Y-64510000D03*
X22340000Y-66060000D03*
%TD*%
D17*
%TO.C,R92*%
X130245000Y-107410000D03*
X128595000Y-107410000D03*
%TD*%
%TO.C,R93*%
X60770000Y-109720000D03*
X59120000Y-109720000D03*
%TD*%
D14*
%TO.C,R25*%
X115160000Y-36750000D03*
X115160000Y-38400000D03*
%TD*%
D50*
%TO.C,RN3*%
X225500000Y-31880000D03*
D51*
X225500000Y-31080000D03*
X225500000Y-30280000D03*
D50*
X225500000Y-29480000D03*
X223700000Y-29480000D03*
D51*
X223700000Y-30280000D03*
X223700000Y-31080000D03*
D50*
X223700000Y-31880000D03*
%TD*%
D33*
%TO.C,J9*%
X115360000Y-43580000D03*
D27*
X112820000Y-43580000D03*
X110280000Y-43580000D03*
X107740000Y-43580000D03*
X105200000Y-43580000D03*
%TD*%
D28*
%TO.C,C6*%
X115840000Y-32005000D03*
X114290000Y-32005000D03*
%TD*%
D32*
%TO.C,C58*%
X47670000Y-81105000D03*
X47670000Y-79555000D03*
%TD*%
D15*
%TO.C,C96*%
X205790000Y-128920000D03*
X205790000Y-130470000D03*
%TD*%
D32*
%TO.C,C76*%
X36100000Y-105675000D03*
X36100000Y-104125000D03*
%TD*%
D53*
%TO.C,U37*%
X210237500Y-126360000D03*
X210237500Y-125860000D03*
X210237500Y-125360000D03*
X210237500Y-124860000D03*
X210237500Y-124360000D03*
X210237500Y-123860000D03*
X210237500Y-123360000D03*
X210237500Y-122860000D03*
X210237500Y-122360000D03*
D54*
X209300000Y-121422500D03*
X208800000Y-121422500D03*
X208300000Y-121422500D03*
X207800000Y-121422500D03*
X207300000Y-121422500D03*
X206800000Y-121422500D03*
X206300000Y-121422500D03*
X205800000Y-121422500D03*
X205300000Y-121422500D03*
D53*
X204362500Y-122360000D03*
X204362500Y-122860000D03*
X204362500Y-123360000D03*
X204362500Y-123860000D03*
X204362500Y-124360000D03*
X204362500Y-124860000D03*
X204362500Y-125360000D03*
X204362500Y-125860000D03*
X204362500Y-126360000D03*
D54*
X205300000Y-127297500D03*
X205800000Y-127297500D03*
X206300000Y-127297500D03*
X206800000Y-127297500D03*
X207300000Y-127297500D03*
X207800000Y-127297500D03*
X208300000Y-127297500D03*
X208800000Y-127297500D03*
X209300000Y-127297500D03*
D55*
X207300000Y-124360000D03*
%TD*%
D38*
%TO.C,TP3*%
X31000000Y-46800000D03*
%TD*%
D56*
%TO.C,J1*%
X94330000Y-20050000D03*
X92330000Y-18250000D03*
X92330000Y-12150000D03*
X94330000Y-14550000D03*
X92330000Y-23750000D03*
%TD*%
D57*
%TO.C,C7*%
X20480000Y-32810000D03*
X20480000Y-35760000D03*
%TD*%
D16*
%TO.C,C23*%
X17750000Y-49090000D03*
X19300000Y-49090000D03*
%TD*%
D28*
%TO.C,C31*%
X77610000Y-52200000D03*
X76060000Y-52200000D03*
%TD*%
D33*
%TO.C,J18*%
X145840000Y-96000000D03*
D27*
X143300000Y-96000000D03*
X140760000Y-96000000D03*
X138220000Y-96000000D03*
X135680000Y-96000000D03*
%TD*%
D15*
%TO.C,C13*%
X236500000Y-42050000D03*
X236500000Y-43600000D03*
%TD*%
D14*
%TO.C,R36*%
X13060000Y-49530000D03*
X13060000Y-51180000D03*
%TD*%
%TO.C,R81*%
X45120000Y-82600000D03*
X45120000Y-84250000D03*
%TD*%
D11*
%TO.C,R103*%
X41865000Y-123040000D03*
X43515000Y-123040000D03*
%TD*%
D15*
%TO.C,C86*%
X69790000Y-117120000D03*
X69790000Y-118670000D03*
%TD*%
D28*
%TO.C,C71*%
X48835000Y-96250000D03*
X47285000Y-96250000D03*
%TD*%
D11*
%TO.C,R44*%
X237050000Y-54900000D03*
X238700000Y-54900000D03*
%TD*%
D28*
%TO.C,C62*%
X51630000Y-84480000D03*
X50080000Y-84480000D03*
%TD*%
D11*
%TO.C,R28*%
X19650000Y-40960000D03*
X21300000Y-40960000D03*
%TD*%
%TO.C,R31*%
X238200000Y-42000000D03*
X239850000Y-42000000D03*
%TD*%
D28*
%TO.C,C21*%
X69480000Y-48510000D03*
X67930000Y-48510000D03*
%TD*%
D17*
%TO.C,R73*%
X69060000Y-78450000D03*
X67410000Y-78450000D03*
%TD*%
D20*
%TO.C,H3*%
X107000000Y-37000000D03*
D21*
X107000000Y-37000000D03*
%TD*%
D14*
%TO.C,R8*%
X104315000Y-26350000D03*
X104315000Y-28000000D03*
%TD*%
D58*
%TO.C,C74*%
X241840000Y-101740000D03*
X238890000Y-101740000D03*
%TD*%
D11*
%TO.C,R82*%
X27180000Y-83570000D03*
X28830000Y-83570000D03*
%TD*%
D18*
%TO.C,C50*%
X74430000Y-72400000D03*
X74430000Y-70500000D03*
%TD*%
D59*
%TO.C,J24*%
X251115000Y-105937500D03*
D60*
X249115000Y-105937500D03*
X247115000Y-105937500D03*
X245115000Y-105937500D03*
D61*
X251845000Y-103217500D03*
X251845000Y-108657500D03*
X244845000Y-108657500D03*
X244845000Y-103217500D03*
%TD*%
D33*
%TO.C,JP1*%
X120140000Y-59750000D03*
D27*
X117600000Y-59750000D03*
X115060000Y-59750000D03*
%TD*%
D11*
%TO.C,R14*%
X49100000Y-28670000D03*
X50750000Y-28670000D03*
%TD*%
D62*
%TO.C,C84*%
X208980000Y-116630000D03*
X207080000Y-116630000D03*
%TD*%
D34*
%TO.C,R56*%
X66650000Y-67310000D03*
X66650000Y-65660000D03*
%TD*%
D32*
%TO.C,C67*%
X35950000Y-91100000D03*
X35950000Y-89550000D03*
%TD*%
D34*
%TO.C,F8*%
X241300000Y-117935000D03*
X241300000Y-116285000D03*
%TD*%
D33*
%TO.C,J17*%
X102480000Y-86930000D03*
D27*
X99940000Y-86930000D03*
X97400000Y-86930000D03*
X94860000Y-86930000D03*
X92320000Y-86930000D03*
X89780000Y-86930000D03*
X87240000Y-86930000D03*
%TD*%
D28*
%TO.C,C70*%
X90045000Y-95790000D03*
X88495000Y-95790000D03*
%TD*%
D34*
%TO.C,R1*%
X108630000Y-21900000D03*
X108630000Y-20250000D03*
%TD*%
D15*
%TO.C,C85*%
X45080000Y-116910000D03*
X45080000Y-118460000D03*
%TD*%
D16*
%TO.C,C66*%
X16350000Y-87060000D03*
X17900000Y-87060000D03*
%TD*%
%TO.C,C35*%
X18110000Y-55200000D03*
X19660000Y-55200000D03*
%TD*%
D20*
%TO.C,H5*%
X57000000Y-57000000D03*
D21*
X57000000Y-57000000D03*
%TD*%
D63*
%TO.C,U30*%
X71860000Y-86610000D03*
X71860000Y-87610000D03*
X71860000Y-88610000D03*
X71860000Y-89610000D03*
X71860000Y-90610000D03*
X71860000Y-91610000D03*
X71860000Y-92610000D03*
X71860000Y-93610000D03*
X71860000Y-94610000D03*
X71860000Y-95610000D03*
X71860000Y-96610000D03*
X71860000Y-97610000D03*
X71860000Y-98610000D03*
X71860000Y-99610000D03*
X71860000Y-100610000D03*
X71860000Y-101610000D03*
X71860000Y-102610000D03*
X71860000Y-103610000D03*
X71860000Y-104610000D03*
X71860000Y-105610000D03*
X71860000Y-106610000D03*
X71860000Y-107610000D03*
X51860000Y-86610000D03*
X51860000Y-87610000D03*
X51860000Y-88610000D03*
X51860000Y-89610000D03*
X51860000Y-90610000D03*
X51860000Y-91610000D03*
X51860000Y-92610000D03*
X51860000Y-93610000D03*
X51860000Y-94610000D03*
X51860000Y-95610000D03*
X51860000Y-96610000D03*
X51860000Y-97610000D03*
X51860000Y-98610000D03*
X51860000Y-99610000D03*
X51860000Y-100610000D03*
X51860000Y-101610000D03*
X51860000Y-102610000D03*
X51860000Y-103610000D03*
X51860000Y-104610000D03*
X51860000Y-105610000D03*
X51860000Y-106610000D03*
X51860000Y-107610000D03*
X50860000Y-86610000D03*
X50860000Y-87610000D03*
X50860000Y-88610000D03*
X50860000Y-89610000D03*
X50860000Y-90610000D03*
X50860000Y-91610000D03*
X50860000Y-92610000D03*
X50860000Y-93610000D03*
X50860000Y-94610000D03*
X50860000Y-95610000D03*
X50860000Y-96610000D03*
X50860000Y-97610000D03*
X50860000Y-98610000D03*
X50860000Y-99610000D03*
X50860000Y-100610000D03*
X50860000Y-101610000D03*
X50860000Y-102610000D03*
X50860000Y-103610000D03*
X50860000Y-104610000D03*
X50860000Y-105610000D03*
X50860000Y-106610000D03*
X50860000Y-107610000D03*
X70860000Y-86610000D03*
X70860000Y-87610000D03*
X70860000Y-88610000D03*
X70860000Y-89610000D03*
X70860000Y-90610000D03*
X70860000Y-91610000D03*
X70860000Y-92610000D03*
X70860000Y-93610000D03*
X70860000Y-94610000D03*
X70860000Y-95610000D03*
X70860000Y-96610000D03*
X70860000Y-97610000D03*
X70860000Y-98610000D03*
X70860000Y-99610000D03*
X70860000Y-100610000D03*
X70860000Y-101610000D03*
X70860000Y-102610000D03*
X70860000Y-103610000D03*
X70860000Y-104610000D03*
X70860000Y-105610000D03*
X70860000Y-106610000D03*
X70860000Y-107610000D03*
X69860000Y-86610000D03*
X69860000Y-87610000D03*
X69860000Y-88610000D03*
X69860000Y-89610000D03*
X69860000Y-90610000D03*
X69860000Y-91610000D03*
X69860000Y-92610000D03*
X69860000Y-93610000D03*
X69860000Y-94610000D03*
X69860000Y-95610000D03*
X69860000Y-96610000D03*
X69860000Y-97610000D03*
X69860000Y-98610000D03*
X69860000Y-99610000D03*
X69860000Y-100610000D03*
X69860000Y-101610000D03*
X69860000Y-102610000D03*
X69860000Y-103610000D03*
X69860000Y-104610000D03*
X69860000Y-105610000D03*
X69860000Y-106610000D03*
X69860000Y-107610000D03*
X68860000Y-86610000D03*
X68860000Y-87610000D03*
X68860000Y-88610000D03*
X68860000Y-89610000D03*
X68860000Y-90610000D03*
X68860000Y-91610000D03*
X68860000Y-92610000D03*
X68860000Y-93610000D03*
X68860000Y-94610000D03*
X68860000Y-95610000D03*
X68860000Y-96610000D03*
X68860000Y-97610000D03*
X68860000Y-98610000D03*
X68860000Y-99610000D03*
X68860000Y-100610000D03*
X68860000Y-101610000D03*
X68860000Y-102610000D03*
X68860000Y-103610000D03*
X68860000Y-104610000D03*
X68860000Y-105610000D03*
X68860000Y-106610000D03*
X68860000Y-107610000D03*
X67860000Y-86610000D03*
X67860000Y-87610000D03*
X67860000Y-88610000D03*
X67860000Y-89610000D03*
X67860000Y-90610000D03*
X67860000Y-91610000D03*
X67860000Y-92610000D03*
X67860000Y-93610000D03*
X67860000Y-94610000D03*
X67860000Y-95610000D03*
X67860000Y-96610000D03*
X67860000Y-97610000D03*
X67860000Y-98610000D03*
X67860000Y-99610000D03*
X67860000Y-100610000D03*
X67860000Y-101610000D03*
X67860000Y-102610000D03*
X67860000Y-103610000D03*
X67860000Y-104610000D03*
X67860000Y-105610000D03*
X67860000Y-106610000D03*
X67860000Y-107610000D03*
X66860000Y-86610000D03*
X66860000Y-87610000D03*
X66860000Y-88610000D03*
X66860000Y-89610000D03*
X66860000Y-90610000D03*
X66860000Y-91610000D03*
X66860000Y-92610000D03*
X66860000Y-93610000D03*
X66860000Y-94610000D03*
X66860000Y-95610000D03*
X66860000Y-96610000D03*
X66860000Y-97610000D03*
X66860000Y-98610000D03*
X66860000Y-99610000D03*
X66860000Y-100610000D03*
X66860000Y-101610000D03*
X66860000Y-102610000D03*
X66860000Y-103610000D03*
X66860000Y-104610000D03*
X66860000Y-105610000D03*
X66860000Y-106610000D03*
X66860000Y-107610000D03*
X65860000Y-86610000D03*
X65860000Y-87610000D03*
X65860000Y-88610000D03*
X65860000Y-89610000D03*
X65860000Y-90610000D03*
X65860000Y-91610000D03*
X65860000Y-92610000D03*
X65860000Y-93610000D03*
X65860000Y-94610000D03*
X65860000Y-95610000D03*
X65860000Y-96610000D03*
X65860000Y-97610000D03*
X65860000Y-98610000D03*
X65860000Y-99610000D03*
X65860000Y-100610000D03*
X65860000Y-101610000D03*
X65860000Y-102610000D03*
X65860000Y-103610000D03*
X65860000Y-104610000D03*
X65860000Y-105610000D03*
X65860000Y-106610000D03*
X65860000Y-107610000D03*
X64860000Y-86610000D03*
X64860000Y-87610000D03*
X64860000Y-88610000D03*
X64860000Y-89610000D03*
X64860000Y-90610000D03*
X64860000Y-91610000D03*
X64860000Y-92610000D03*
X64860000Y-93610000D03*
X64860000Y-94610000D03*
X64860000Y-95610000D03*
X64860000Y-96610000D03*
X64860000Y-97610000D03*
X64860000Y-98610000D03*
X64860000Y-99610000D03*
X64860000Y-100610000D03*
X64860000Y-101610000D03*
X64860000Y-102610000D03*
X64860000Y-103610000D03*
X64860000Y-104610000D03*
X64860000Y-105610000D03*
X64860000Y-106610000D03*
X64860000Y-107610000D03*
X63860000Y-86610000D03*
X63860000Y-87610000D03*
X63860000Y-88610000D03*
X63860000Y-89610000D03*
X63860000Y-90610000D03*
X63860000Y-91610000D03*
X63860000Y-92610000D03*
X63860000Y-93610000D03*
X63860000Y-94610000D03*
X63860000Y-95610000D03*
X63860000Y-96610000D03*
X63860000Y-97610000D03*
X63860000Y-98610000D03*
X63860000Y-99610000D03*
X63860000Y-100610000D03*
X63860000Y-101610000D03*
X63860000Y-102610000D03*
X63860000Y-103610000D03*
X63860000Y-104610000D03*
X63860000Y-105610000D03*
X63860000Y-106610000D03*
X63860000Y-107610000D03*
X62860000Y-86610000D03*
X62860000Y-87610000D03*
X62860000Y-88610000D03*
X62860000Y-89610000D03*
X62860000Y-90610000D03*
X62860000Y-91610000D03*
X62860000Y-92610000D03*
X62860000Y-93610000D03*
X62860000Y-94610000D03*
X62860000Y-95610000D03*
X62860000Y-96610000D03*
X62860000Y-97610000D03*
X62860000Y-98610000D03*
X62860000Y-99610000D03*
X62860000Y-100610000D03*
X62860000Y-101610000D03*
X62860000Y-102610000D03*
X62860000Y-103610000D03*
X62860000Y-104610000D03*
X62860000Y-105610000D03*
X62860000Y-106610000D03*
X62860000Y-107610000D03*
X61860000Y-86610000D03*
X61860000Y-87610000D03*
X61860000Y-88610000D03*
X61860000Y-89610000D03*
X61860000Y-90610000D03*
X61860000Y-91610000D03*
X61860000Y-92610000D03*
X61860000Y-93610000D03*
X61860000Y-94610000D03*
X61860000Y-95610000D03*
X61860000Y-96610000D03*
X61860000Y-97610000D03*
X61860000Y-98610000D03*
X61860000Y-99610000D03*
X61860000Y-100610000D03*
X61860000Y-101610000D03*
X61860000Y-102610000D03*
X61860000Y-103610000D03*
X61860000Y-104610000D03*
X61860000Y-105610000D03*
X61860000Y-106610000D03*
X61860000Y-107610000D03*
X60860000Y-86610000D03*
X60860000Y-87610000D03*
X60860000Y-88610000D03*
X60860000Y-89610000D03*
X60860000Y-90610000D03*
X60860000Y-91610000D03*
X60860000Y-92610000D03*
X60860000Y-93610000D03*
X60860000Y-94610000D03*
X60860000Y-95610000D03*
X60860000Y-96610000D03*
X60860000Y-97610000D03*
X60860000Y-98610000D03*
X60860000Y-99610000D03*
X60860000Y-100610000D03*
X60860000Y-101610000D03*
X60860000Y-102610000D03*
X60860000Y-103610000D03*
X60860000Y-104610000D03*
X60860000Y-105610000D03*
X60860000Y-106610000D03*
X60860000Y-107610000D03*
X59860000Y-86610000D03*
X59860000Y-87610000D03*
X59860000Y-88610000D03*
X59860000Y-89610000D03*
X59860000Y-90610000D03*
X59860000Y-91610000D03*
X59860000Y-92610000D03*
X59860000Y-93610000D03*
X59860000Y-94610000D03*
X59860000Y-95610000D03*
X59860000Y-96610000D03*
X59860000Y-97610000D03*
X59860000Y-98610000D03*
X59860000Y-99610000D03*
X59860000Y-100610000D03*
X59860000Y-101610000D03*
X59860000Y-102610000D03*
X59860000Y-103610000D03*
X59860000Y-104610000D03*
X59860000Y-105610000D03*
X59860000Y-106610000D03*
X59860000Y-107610000D03*
X58860000Y-86610000D03*
X58860000Y-87610000D03*
X58860000Y-88610000D03*
X58860000Y-89610000D03*
X58860000Y-90610000D03*
X58860000Y-91610000D03*
X58860000Y-92610000D03*
X58860000Y-93610000D03*
X58860000Y-94610000D03*
X58860000Y-95610000D03*
X58860000Y-96610000D03*
X58860000Y-97610000D03*
X58860000Y-98610000D03*
X58860000Y-99610000D03*
X58860000Y-100610000D03*
X58860000Y-101610000D03*
X58860000Y-102610000D03*
X58860000Y-103610000D03*
X58860000Y-104610000D03*
X58860000Y-105610000D03*
X58860000Y-106610000D03*
X58860000Y-107610000D03*
X57860000Y-86610000D03*
X57860000Y-87610000D03*
X57860000Y-88610000D03*
X57860000Y-89610000D03*
X57860000Y-90610000D03*
X57860000Y-91610000D03*
X57860000Y-92610000D03*
X57860000Y-93610000D03*
X57860000Y-94610000D03*
X57860000Y-95610000D03*
X57860000Y-96610000D03*
X57860000Y-97610000D03*
X57860000Y-98610000D03*
X57860000Y-99610000D03*
X57860000Y-100610000D03*
X57860000Y-101610000D03*
X57860000Y-102610000D03*
X57860000Y-103610000D03*
X57860000Y-104610000D03*
X57860000Y-105610000D03*
X57860000Y-106610000D03*
X57860000Y-107610000D03*
X56860000Y-86610000D03*
X56860000Y-87610000D03*
X56860000Y-88610000D03*
X56860000Y-89610000D03*
X56860000Y-90610000D03*
X56860000Y-91610000D03*
X56860000Y-92610000D03*
X56860000Y-93610000D03*
X56860000Y-94610000D03*
X56860000Y-95610000D03*
X56860000Y-96610000D03*
X56860000Y-97610000D03*
X56860000Y-98610000D03*
X56860000Y-99610000D03*
X56860000Y-100610000D03*
X56860000Y-101610000D03*
X56860000Y-102610000D03*
X56860000Y-103610000D03*
X56860000Y-104610000D03*
X56860000Y-105610000D03*
X56860000Y-106610000D03*
X56860000Y-107610000D03*
X55860000Y-86610000D03*
X55860000Y-87610000D03*
X55860000Y-88610000D03*
X55860000Y-89610000D03*
X55860000Y-90610000D03*
X55860000Y-91610000D03*
X55860000Y-92610000D03*
X55860000Y-93610000D03*
X55860000Y-94610000D03*
X55860000Y-95610000D03*
X55860000Y-96610000D03*
X55860000Y-97610000D03*
X55860000Y-98610000D03*
X55860000Y-99610000D03*
X55860000Y-100610000D03*
X55860000Y-101610000D03*
X55860000Y-102610000D03*
X55860000Y-103610000D03*
X55860000Y-104610000D03*
X55860000Y-105610000D03*
X55860000Y-106610000D03*
X55860000Y-107610000D03*
X54860000Y-86610000D03*
X54860000Y-87610000D03*
X54860000Y-88610000D03*
X54860000Y-89610000D03*
X54860000Y-90610000D03*
X54860000Y-91610000D03*
X54860000Y-92610000D03*
X54860000Y-93610000D03*
X54860000Y-94610000D03*
X54860000Y-95610000D03*
X54860000Y-96610000D03*
X54860000Y-97610000D03*
X54860000Y-98610000D03*
X54860000Y-99610000D03*
X54860000Y-100610000D03*
X54860000Y-101610000D03*
X54860000Y-102610000D03*
X54860000Y-103610000D03*
X54860000Y-104610000D03*
X54860000Y-105610000D03*
X54860000Y-106610000D03*
X54860000Y-107610000D03*
X53860000Y-86610000D03*
X53860000Y-87610000D03*
X53860000Y-88610000D03*
X53860000Y-89610000D03*
X53860000Y-90610000D03*
X53860000Y-91610000D03*
X53860000Y-92610000D03*
X53860000Y-93610000D03*
X53860000Y-94610000D03*
X53860000Y-95610000D03*
X53860000Y-96610000D03*
X53860000Y-97610000D03*
X53860000Y-98610000D03*
X53860000Y-99610000D03*
X53860000Y-100610000D03*
X53860000Y-101610000D03*
X53860000Y-102610000D03*
X53860000Y-103610000D03*
X53860000Y-104610000D03*
X53860000Y-105610000D03*
X53860000Y-106610000D03*
X53860000Y-107610000D03*
X52860000Y-86610000D03*
X52860000Y-87610000D03*
X52860000Y-88610000D03*
X52860000Y-89610000D03*
X52860000Y-90610000D03*
X52860000Y-91610000D03*
X52860000Y-92610000D03*
X52860000Y-93610000D03*
X52860000Y-94610000D03*
X52860000Y-95610000D03*
X52860000Y-96610000D03*
X52860000Y-97610000D03*
X52860000Y-98610000D03*
X52860000Y-99610000D03*
X52860000Y-100610000D03*
X52860000Y-101610000D03*
X52860000Y-102610000D03*
X52860000Y-103610000D03*
X52860000Y-104610000D03*
X52860000Y-105610000D03*
X52860000Y-106610000D03*
X52860000Y-107610000D03*
%TD*%
D32*
%TO.C,C100*%
X231990000Y-136050000D03*
X231990000Y-134500000D03*
%TD*%
D34*
%TO.C,R38*%
X48120000Y-51945000D03*
X48120000Y-50295000D03*
%TD*%
%TO.C,R105*%
X200320000Y-127710000D03*
X200320000Y-126060000D03*
%TD*%
D64*
%TO.C,L1*%
X15350000Y-45655000D03*
X15350000Y-43505000D03*
%TD*%
D65*
%TO.C,U26*%
X25280000Y-84880000D03*
X25280000Y-83610000D03*
X25280000Y-82340000D03*
X25280000Y-81070000D03*
X18280000Y-81070000D03*
X18280000Y-82340000D03*
X18280000Y-83610000D03*
X18280000Y-84880000D03*
%TD*%
D50*
%TO.C,RN12*%
X227890000Y-125970000D03*
D51*
X227890000Y-126770000D03*
X227890000Y-127570000D03*
D50*
X227890000Y-128370000D03*
X229690000Y-128370000D03*
D51*
X229690000Y-127570000D03*
X229690000Y-126770000D03*
D50*
X229690000Y-125970000D03*
%TD*%
D32*
%TO.C,C2*%
X86930000Y-25810000D03*
X86930000Y-24260000D03*
%TD*%
D33*
%TO.C,J14*%
X60980000Y-66140000D03*
D27*
X58440000Y-66140000D03*
X60980000Y-68680000D03*
X58440000Y-68680000D03*
X60980000Y-71220000D03*
X58440000Y-71220000D03*
%TD*%
D32*
%TO.C,C101*%
X208410000Y-137280000D03*
X208410000Y-135730000D03*
%TD*%
D34*
%TO.C,R98*%
X79020000Y-119040000D03*
X79020000Y-117390000D03*
%TD*%
D11*
%TO.C,F7*%
X238570000Y-93910000D03*
X240220000Y-93910000D03*
%TD*%
D59*
%TO.C,J25*%
X251125000Y-114937500D03*
D60*
X249125000Y-114937500D03*
X247125000Y-114937500D03*
X245125000Y-114937500D03*
D61*
X251855000Y-112217500D03*
X251855000Y-117657500D03*
X244855000Y-117657500D03*
X244855000Y-112217500D03*
%TD*%
D16*
%TO.C,C27*%
X107965000Y-50140000D03*
X109515000Y-50140000D03*
%TD*%
D66*
%TO.C,C17*%
X17550000Y-46280000D03*
X19450000Y-46280000D03*
%TD*%
D25*
%TO.C,FB3*%
X70780000Y-67170000D03*
X70780000Y-69295000D03*
%TD*%
D28*
%TO.C,C10*%
X101270000Y-37890000D03*
X99720000Y-37890000D03*
%TD*%
D15*
%TO.C,C15*%
X97910000Y-43300000D03*
X97910000Y-44850000D03*
%TD*%
D16*
%TO.C,C56*%
X16530000Y-76870000D03*
X18080000Y-76870000D03*
%TD*%
D11*
%TO.C,R107*%
X40275000Y-127590000D03*
X41925000Y-127590000D03*
%TD*%
D15*
%TO.C,C49*%
X234465000Y-69310000D03*
X234465000Y-70860000D03*
%TD*%
D12*
%TO.C,U33*%
X91890600Y-101370001D03*
X91890600Y-101770000D03*
X91890600Y-102170002D03*
X91890600Y-102570001D03*
X91890600Y-102970000D03*
X91890600Y-103369999D03*
X91890600Y-103770001D03*
X91890600Y-104170000D03*
X91890600Y-104569999D03*
X91890600Y-104970001D03*
X91890600Y-105370000D03*
X91890600Y-105769999D03*
X91890600Y-106170001D03*
X91890600Y-106570000D03*
X91890600Y-106970000D03*
X91890600Y-107369999D03*
X91890600Y-107770001D03*
X91890600Y-108170000D03*
X91890600Y-108569999D03*
X91890600Y-108970001D03*
X91890600Y-109370000D03*
X91890600Y-109769999D03*
X91890600Y-110170001D03*
X91890600Y-110570000D03*
X91890600Y-110969999D03*
X91890600Y-111369998D03*
X91890600Y-111770000D03*
X91890600Y-112169999D03*
X97529400Y-112169999D03*
X97529400Y-111770000D03*
X97529400Y-111369998D03*
X97529400Y-110969999D03*
X97529400Y-110570000D03*
X97529400Y-110170001D03*
X97529400Y-109769999D03*
X97529400Y-109370000D03*
X97529400Y-108970001D03*
X97529400Y-108569999D03*
X97529400Y-108170000D03*
X97529400Y-107770001D03*
X97529400Y-107369999D03*
X97529400Y-106970000D03*
X97529400Y-106570000D03*
X97529400Y-106170001D03*
X97529400Y-105769999D03*
X97529400Y-105370000D03*
X97529400Y-104970001D03*
X97529400Y-104569999D03*
X97529400Y-104170000D03*
X97529400Y-103770001D03*
X97529400Y-103370002D03*
X97529400Y-102970000D03*
X97529400Y-102570001D03*
X97529400Y-102170002D03*
X97529400Y-101770000D03*
X97529400Y-101370001D03*
%TD*%
D32*
%TO.C,C3*%
X94480000Y-29180000D03*
X94480000Y-27630000D03*
%TD*%
D16*
%TO.C,C38*%
X82255000Y-58400000D03*
X83805000Y-58400000D03*
%TD*%
%TO.C,C79*%
X48945000Y-109640000D03*
X50495000Y-109640000D03*
%TD*%
D14*
%TO.C,R37*%
X23040000Y-49660000D03*
X23040000Y-51310000D03*
%TD*%
D11*
%TO.C,R20*%
X129730000Y-32570000D03*
X131380000Y-32570000D03*
%TD*%
D56*
%TO.C,J2*%
X104580000Y-20050000D03*
X102580000Y-18250000D03*
X102580000Y-12150000D03*
X104580000Y-14550000D03*
X102580000Y-23750000D03*
%TD*%
D17*
%TO.C,R99*%
X155005000Y-118690000D03*
X153355000Y-118690000D03*
%TD*%
D67*
%TO.C,C99*%
X229770000Y-135975000D03*
X229770000Y-133025000D03*
%TD*%
D68*
%TO.C,U16*%
X240250000Y-51750000D03*
X240250000Y-52149999D03*
X240250000Y-52549999D03*
X240250000Y-52949998D03*
X241500000Y-52949998D03*
X241500000Y-52549999D03*
X241500000Y-52149999D03*
X241500000Y-51750000D03*
D69*
X240875000Y-52349999D03*
%TD*%
D11*
%TO.C,R83*%
X236540000Y-85290002D03*
X238190000Y-85290002D03*
%TD*%
D50*
%TO.C,RN4*%
X241330000Y-30140000D03*
D51*
X241330000Y-30940000D03*
X241330000Y-31740000D03*
D50*
X241330000Y-32540000D03*
X243130000Y-32540000D03*
D51*
X243130000Y-31740000D03*
X243130000Y-30940000D03*
D50*
X243130000Y-30140000D03*
%TD*%
D68*
%TO.C,U4*%
X142950000Y-27900000D03*
X142950000Y-28299999D03*
X142950000Y-28699999D03*
X142950000Y-29099998D03*
X144200000Y-29099998D03*
X144200000Y-28699999D03*
X144200000Y-28299999D03*
X144200000Y-27900000D03*
D69*
X143575000Y-28499999D03*
%TD*%
D64*
%TO.C,L3*%
X15990000Y-58930000D03*
X15990000Y-56780000D03*
%TD*%
D14*
%TO.C,R5*%
X115650000Y-24430000D03*
X115650000Y-26080000D03*
%TD*%
D33*
%TO.C,J26*%
X14930000Y-115890000D03*
D27*
X17470000Y-115890000D03*
X14930000Y-118430000D03*
X17470000Y-118430000D03*
%TD*%
D16*
%TO.C,C73*%
X35395000Y-98950000D03*
X36945000Y-98950000D03*
%TD*%
D15*
%TO.C,C95*%
X201980000Y-126065000D03*
X201980000Y-127615000D03*
%TD*%
D70*
%TO.C,Y6*%
X30560000Y-124760000D03*
X32760000Y-124760000D03*
X32760000Y-123060000D03*
X30560000Y-123060000D03*
%TD*%
D28*
%TO.C,C57*%
X114020000Y-77670000D03*
X112470000Y-77670000D03*
%TD*%
D20*
%TO.C,H10*%
X217000000Y-137000000D03*
D21*
X217000000Y-137000000D03*
%TD*%
D38*
%TO.C,TP2*%
X31000000Y-43040000D03*
%TD*%
D15*
%TO.C,C88*%
X207290000Y-118425000D03*
X207290000Y-119975000D03*
%TD*%
D68*
%TO.C,U8*%
X174590000Y-28450002D03*
X174590000Y-28850001D03*
X174590000Y-29250001D03*
X174590000Y-29650000D03*
X175840000Y-29650000D03*
X175840000Y-29250001D03*
X175840000Y-28850001D03*
X175840000Y-28450002D03*
D69*
X175215000Y-29050001D03*
%TD*%
D71*
%TO.C,J19*%
X229200000Y-96410000D03*
D72*
X229200000Y-98910000D03*
X229200000Y-100910000D03*
X229200000Y-103410000D03*
D73*
X229800000Y-93340000D03*
D74*
X233980000Y-99910000D03*
D73*
X229800000Y-106480000D03*
%TD*%
D75*
%TO.C,U10*%
X113520000Y-28530000D03*
X113520000Y-29480000D03*
X113520000Y-30430000D03*
X115795000Y-30430000D03*
X115795000Y-28530000D03*
%TD*%
D16*
%TO.C,C32*%
X85855000Y-52210000D03*
X87405000Y-52210000D03*
%TD*%
D36*
%TO.C,RN1*%
X35570000Y-25840000D03*
D37*
X34770000Y-25840000D03*
X33970000Y-25840000D03*
D36*
X33170000Y-25840000D03*
X33170000Y-27640000D03*
D37*
X33970000Y-27640000D03*
X34770000Y-27640000D03*
D36*
X35570000Y-27640000D03*
%TD*%
D11*
%TO.C,R49*%
X240300000Y-59400000D03*
X241950000Y-59400000D03*
%TD*%
D33*
%TO.C,J7*%
X136875000Y-31567500D03*
%TD*%
D11*
%TO.C,R104*%
X200345000Y-124460000D03*
X201995000Y-124460000D03*
%TD*%
%TO.C,R67*%
X47900000Y-76400000D03*
X49550000Y-76400000D03*
%TD*%
D14*
%TO.C,R15*%
X193500000Y-28400000D03*
X193500000Y-30050000D03*
%TD*%
D15*
%TO.C,C16*%
X99760000Y-43315000D03*
X99760000Y-44865000D03*
%TD*%
D76*
%TO.C,Y4*%
X41257500Y-79155000D03*
X41257500Y-79655000D03*
X41257500Y-80155000D03*
X41257500Y-80655000D03*
X41257500Y-81155000D03*
X45482500Y-81155000D03*
X45482500Y-80655000D03*
X45482500Y-80155000D03*
X45482500Y-79655000D03*
X45482500Y-79155000D03*
%TD*%
D20*
%TO.C,H7*%
X107000000Y-122000000D03*
D21*
X107000000Y-122000000D03*
%TD*%
D34*
%TO.C,R110*%
X211420000Y-130610000D03*
X211420000Y-128960000D03*
%TD*%
D77*
%TO.C,C5*%
X218150000Y-29560000D03*
X221100000Y-29560000D03*
%TD*%
D17*
%TO.C,F5*%
X242250000Y-35850000D03*
X240600000Y-35850000D03*
%TD*%
D32*
%TO.C,C4*%
X102260000Y-30180000D03*
X102260000Y-28630000D03*
%TD*%
D14*
%TO.C,R54*%
X48300000Y-65270000D03*
X48300000Y-66920000D03*
%TD*%
D11*
%TO.C,R16*%
X106260000Y-29570000D03*
X107910000Y-29570000D03*
%TD*%
D78*
%TO.C,FB2*%
X68110000Y-59922500D03*
X68110000Y-57797500D03*
%TD*%
D17*
%TO.C,R29*%
X209430000Y-41320000D03*
X207780000Y-41320000D03*
%TD*%
D22*
%TO.C,FB1*%
X93827500Y-44820000D03*
X95952500Y-44820000D03*
%TD*%
D20*
%TO.C,H9*%
X107000000Y-137000000D03*
D21*
X107000000Y-137000000D03*
%TD*%
D79*
%TO.C,U19*%
X108762500Y-52477500D03*
X108262500Y-52477500D03*
X107762500Y-52477500D03*
X107262500Y-52477500D03*
X106762500Y-52477500D03*
X106262500Y-52477500D03*
X105762500Y-52477500D03*
X105262500Y-52477500D03*
X104762500Y-52477500D03*
X104262500Y-52477500D03*
X103762500Y-52477500D03*
X103262500Y-52477500D03*
X102762500Y-52477500D03*
X102262500Y-52477500D03*
X101762500Y-52477500D03*
X101262500Y-52477500D03*
X100762500Y-52477500D03*
X100262500Y-52477500D03*
X99762500Y-52477500D03*
X99262500Y-52477500D03*
X98762500Y-52477500D03*
X98262500Y-52477500D03*
X97762500Y-52477500D03*
X97262500Y-52477500D03*
X96762500Y-52477500D03*
X96262500Y-52477500D03*
X95762500Y-52477500D03*
X95262500Y-52477500D03*
X94762500Y-52477500D03*
X94262500Y-52477500D03*
X93762500Y-52477500D03*
X93262500Y-52477500D03*
X92762500Y-52477500D03*
X92262500Y-52477500D03*
X91762500Y-52477500D03*
X91262500Y-52477500D03*
D80*
X89350000Y-54390000D03*
X89350000Y-54890000D03*
X89350000Y-55390000D03*
X89350000Y-55890000D03*
X89350000Y-56390000D03*
X89350000Y-56890000D03*
X89350000Y-57390000D03*
X89350000Y-57890000D03*
X89350000Y-58390000D03*
X89350000Y-58890000D03*
X89350000Y-59390000D03*
X89350000Y-59890000D03*
X89350000Y-60390000D03*
X89350000Y-60890000D03*
X89350000Y-61390000D03*
X89350000Y-61890000D03*
X89350000Y-62390000D03*
X89350000Y-62890000D03*
X89350000Y-63390000D03*
X89350000Y-63890000D03*
X89350000Y-64390000D03*
X89350000Y-64890000D03*
X89350000Y-65390000D03*
X89350000Y-65890000D03*
X89350000Y-66390000D03*
X89350000Y-66890000D03*
X89350000Y-67390000D03*
X89350000Y-67890000D03*
X89350000Y-68390000D03*
X89350000Y-68890000D03*
X89350000Y-69390000D03*
X89350000Y-69890000D03*
X89350000Y-70390000D03*
X89350000Y-70890000D03*
X89350000Y-71390000D03*
X89350000Y-71890000D03*
D79*
X91262500Y-73802500D03*
X91762500Y-73802500D03*
X92262500Y-73802500D03*
X92762500Y-73802500D03*
X93262500Y-73802500D03*
X93762500Y-73802500D03*
X94262500Y-73802500D03*
X94762500Y-73802500D03*
X95262500Y-73802500D03*
X95762500Y-73802500D03*
X96262500Y-73802500D03*
X96762500Y-73802500D03*
X97262500Y-73802500D03*
X97762500Y-73802500D03*
X98262500Y-73802500D03*
X98762500Y-73802500D03*
X99262500Y-73802500D03*
X99762500Y-73802500D03*
X100262500Y-73802500D03*
X100762500Y-73802500D03*
X101262500Y-73802500D03*
X101762500Y-73802500D03*
X102262500Y-73802500D03*
X102762500Y-73802500D03*
X103262500Y-73802500D03*
X103762500Y-73802500D03*
X104262500Y-73802500D03*
X104762500Y-73802500D03*
X105262500Y-73802500D03*
X105762500Y-73802500D03*
X106262500Y-73802500D03*
X106762500Y-73802500D03*
X107262500Y-73802500D03*
X107762500Y-73802500D03*
X108262500Y-73802500D03*
X108762500Y-73802500D03*
D80*
X110675000Y-71890000D03*
X110675000Y-71390000D03*
X110675000Y-70890000D03*
X110675000Y-70390000D03*
X110675000Y-69890000D03*
X110675000Y-69390000D03*
X110675000Y-68890000D03*
X110675000Y-68390000D03*
X110675000Y-67890000D03*
X110675000Y-67390000D03*
X110675000Y-66890000D03*
X110675000Y-66390000D03*
X110675000Y-65890000D03*
X110675000Y-65390000D03*
X110675000Y-64890000D03*
X110675000Y-64390000D03*
X110675000Y-63890000D03*
X110675000Y-63390000D03*
X110675000Y-62890000D03*
X110675000Y-62390000D03*
X110675000Y-61890000D03*
X110675000Y-61390000D03*
X110675000Y-60890000D03*
X110675000Y-60390000D03*
X110675000Y-59890000D03*
X110675000Y-59390000D03*
X110675000Y-58890000D03*
X110675000Y-58390000D03*
X110675000Y-57890000D03*
X110675000Y-57390000D03*
X110675000Y-56890000D03*
X110675000Y-56390000D03*
X110675000Y-55890000D03*
X110675000Y-55390000D03*
X110675000Y-54890000D03*
X110675000Y-54390000D03*
%TD*%
D81*
%TO.C,C94*%
X169190000Y-124440000D03*
X169190000Y-126340000D03*
%TD*%
D82*
%TO.C,D2*%
X115255000Y-53845000D03*
X115255000Y-51745000D03*
%TD*%
D17*
%TO.C,R106*%
X36765000Y-127230000D03*
X35115000Y-127230000D03*
%TD*%
D32*
%TO.C,C98*%
X208320000Y-130535000D03*
X208320000Y-128985000D03*
%TD*%
D11*
%TO.C,R79*%
X64665000Y-83290000D03*
X66315000Y-83290000D03*
%TD*%
%TO.C,R94*%
X128610000Y-110750000D03*
X130260000Y-110750000D03*
%TD*%
D68*
%TO.C,U7*%
X163610000Y-28390002D03*
X163610000Y-28790001D03*
X163610000Y-29190001D03*
X163610000Y-29590000D03*
X164860000Y-29590000D03*
X164860000Y-29190001D03*
X164860000Y-28790001D03*
X164860000Y-28390002D03*
D69*
X164235000Y-28990001D03*
%TD*%
D50*
%TO.C,RN7*%
X116500000Y-71250000D03*
D51*
X116500000Y-70450000D03*
X116500000Y-69650000D03*
D50*
X116500000Y-68850000D03*
X114700000Y-68850000D03*
D51*
X114700000Y-69650000D03*
X114700000Y-70450000D03*
D50*
X114700000Y-71250000D03*
%TD*%
D11*
%TO.C,R19*%
X117390000Y-32005000D03*
X119040000Y-32005000D03*
%TD*%
D17*
%TO.C,R43*%
X86820000Y-53710000D03*
X85170000Y-53710000D03*
%TD*%
D16*
%TO.C,C69*%
X81645000Y-94840000D03*
X83195000Y-94840000D03*
%TD*%
D11*
%TO.C,F3*%
X129715000Y-35020000D03*
X131365000Y-35020000D03*
%TD*%
D32*
%TO.C,C90*%
X75050000Y-122180000D03*
X75050000Y-120630000D03*
%TD*%
D59*
%TO.C,J20*%
X251065000Y-96937500D03*
D60*
X249065000Y-96937500D03*
X247065000Y-96937500D03*
X245065000Y-96937500D03*
D61*
X251795000Y-94217500D03*
X251795000Y-99657500D03*
X244795000Y-99657500D03*
X244795000Y-94217500D03*
%TD*%
D16*
%TO.C,C91*%
X211865000Y-124300000D03*
X213415000Y-124300000D03*
%TD*%
D66*
%TO.C,C22*%
X92185000Y-48530000D03*
X94085000Y-48530000D03*
%TD*%
D81*
%TO.C,C30*%
X21080000Y-49760000D03*
X21080000Y-51660000D03*
%TD*%
D11*
%TO.C,F2*%
X40435000Y-29800000D03*
X42085000Y-29800000D03*
%TD*%
D18*
%TO.C,C52*%
X70680000Y-72670000D03*
X70680000Y-70770000D03*
%TD*%
D83*
%TO.C,J3*%
X257645000Y-15684500D03*
X218275000Y-15684500D03*
D84*
X248628000Y-26479500D03*
X246850000Y-23400000D03*
X245072000Y-26479500D03*
X243294000Y-23400000D03*
X241516000Y-26479500D03*
X239738000Y-23400000D03*
X237960000Y-26479500D03*
X236182000Y-23400000D03*
X234404000Y-26479500D03*
X232626000Y-23400000D03*
X230848000Y-26479500D03*
X229070000Y-23400000D03*
X227292000Y-26479500D03*
%TD*%
D11*
%TO.C,R85*%
X239800000Y-90400000D03*
X241450000Y-90400000D03*
%TD*%
D28*
%TO.C,C48*%
X48190000Y-68940000D03*
X46640000Y-68940000D03*
%TD*%
D16*
%TO.C,C83*%
X155800000Y-112700000D03*
X157350000Y-112700000D03*
%TD*%
D85*
%TO.C,Y2*%
X106220000Y-49800000D03*
X103720000Y-49800000D03*
%TD*%
D17*
%TO.C,R7*%
X113990000Y-26740000D03*
X112340000Y-26740000D03*
%TD*%
D57*
%TO.C,C45*%
X20320000Y-64560000D03*
X20320000Y-67510000D03*
%TD*%
D11*
%TO.C,R47*%
X113900000Y-57030000D03*
X115550000Y-57030000D03*
%TD*%
D33*
%TO.C,J5*%
X193900000Y-22760000D03*
D27*
X193900000Y-25300000D03*
X191360000Y-22760000D03*
X191360000Y-25300000D03*
X188820000Y-22760000D03*
X188820000Y-25300000D03*
X186280000Y-22760000D03*
X186280000Y-25300000D03*
X183740000Y-22760000D03*
X183740000Y-25300000D03*
X181200000Y-22760000D03*
X181200000Y-25300000D03*
X178660000Y-22760000D03*
X178660000Y-25300000D03*
X176120000Y-22760000D03*
X176120000Y-25300000D03*
X173580000Y-22760000D03*
X173580000Y-25300000D03*
X171040000Y-22760000D03*
X171040000Y-25300000D03*
X168500000Y-22760000D03*
X168500000Y-25300000D03*
X165960000Y-22760000D03*
X165960000Y-25300000D03*
X163420000Y-22760000D03*
X163420000Y-25300000D03*
X160880000Y-22760000D03*
X160880000Y-25300000D03*
X158340000Y-22760000D03*
X158340000Y-25300000D03*
X155800000Y-22760000D03*
X155800000Y-25300000D03*
X153260000Y-22760000D03*
X153260000Y-25300000D03*
X150720000Y-22760000D03*
X150720000Y-25300000D03*
X148180000Y-22760000D03*
X148180000Y-25300000D03*
X145640000Y-22760000D03*
X145640000Y-25300000D03*
X143100000Y-22760000D03*
X143100000Y-25300000D03*
X140560000Y-22760000D03*
X140560000Y-25300000D03*
X138020000Y-22760000D03*
X138020000Y-25300000D03*
X135480000Y-22760000D03*
X135480000Y-25300000D03*
X132940000Y-22760000D03*
X132940000Y-25300000D03*
%TD*%
D81*
%TO.C,C39*%
X70050000Y-57870000D03*
X70050000Y-59770000D03*
%TD*%
D15*
%TO.C,C65*%
X234690000Y-85290002D03*
X234690000Y-86840002D03*
%TD*%
D32*
%TO.C,C33*%
X235425000Y-53100000D03*
X235425000Y-51550000D03*
%TD*%
D38*
%TO.C,TP4*%
X38720000Y-47380000D03*
%TD*%
D11*
%TO.C,R97*%
X69595000Y-115250000D03*
X71245000Y-115250000D03*
%TD*%
D32*
%TO.C,C59*%
X234590000Y-83140002D03*
X234590000Y-81590002D03*
%TD*%
D14*
%TO.C,R69*%
X107285000Y-75910000D03*
X107285000Y-77560000D03*
%TD*%
D17*
%TO.C,R108*%
X36760000Y-128750000D03*
X35110000Y-128750000D03*
%TD*%
D34*
%TO.C,R89*%
X30300000Y-101890000D03*
X30300000Y-100240000D03*
%TD*%
D11*
%TO.C,R95*%
X152685000Y-112720000D03*
X154335000Y-112720000D03*
%TD*%
D86*
%TO.C,U38*%
X213800000Y-128880000D03*
X213800000Y-129380000D03*
X213800000Y-129880000D03*
X213800000Y-130380000D03*
X213800000Y-130880000D03*
X214570000Y-130880000D03*
X214570000Y-130380000D03*
X214570000Y-129880000D03*
X214570000Y-129380000D03*
X214570000Y-128880000D03*
%TD*%
D28*
%TO.C,C82*%
X160410000Y-112690000D03*
X158860000Y-112690000D03*
%TD*%
D14*
%TO.C,R17*%
X23100000Y-28990000D03*
X23100000Y-30640000D03*
%TD*%
D11*
%TO.C,R63*%
X239500000Y-73800000D03*
X241150000Y-73800000D03*
%TD*%
%TO.C,R35*%
X20830000Y-48140000D03*
X22480000Y-48140000D03*
%TD*%
D87*
%TO.C,U28*%
X38250000Y-87599566D03*
X39000000Y-87599566D03*
X39750000Y-87599566D03*
X40500000Y-87599566D03*
X41250000Y-87599566D03*
X42000000Y-87599566D03*
X38250000Y-88349628D03*
X39000000Y-88349628D03*
X39750000Y-88349628D03*
X40500000Y-88349628D03*
X41250000Y-88349628D03*
X42000000Y-88349628D03*
X38250000Y-89099690D03*
X39000000Y-89099690D03*
X39750000Y-89099690D03*
X40500000Y-89099690D03*
X41250000Y-89099690D03*
X42000000Y-89099690D03*
X38250000Y-89849752D03*
X39000000Y-89849752D03*
X39750000Y-89849752D03*
X40500000Y-89849752D03*
X41250000Y-89849752D03*
X42000000Y-89849752D03*
X38250000Y-90599814D03*
X39000000Y-90599814D03*
X39750000Y-90599814D03*
X40500000Y-90599814D03*
X41250000Y-90599814D03*
X42000000Y-90599814D03*
X38250000Y-91349876D03*
X39000000Y-91349876D03*
X39750000Y-91349876D03*
X40500000Y-91349876D03*
X41250000Y-91349876D03*
X42000000Y-91349876D03*
X38250000Y-92099938D03*
X39000000Y-92099938D03*
X39750000Y-92099938D03*
X40500000Y-92099938D03*
X41250000Y-92099938D03*
X42000000Y-92099938D03*
X38250000Y-92850000D03*
X39000000Y-92850000D03*
X39750000Y-92850000D03*
X40500000Y-92850000D03*
X41250000Y-92850000D03*
X42000000Y-92850000D03*
%TD*%
D28*
%TO.C,C12*%
X18250000Y-41180000D03*
X16700000Y-41180000D03*
%TD*%
D68*
%TO.C,U6*%
X152970000Y-28380002D03*
X152970000Y-28780001D03*
X152970000Y-29180001D03*
X152970000Y-29580000D03*
X154220000Y-29580000D03*
X154220000Y-29180001D03*
X154220000Y-28780001D03*
X154220000Y-28380002D03*
D69*
X153595000Y-28980001D03*
%TD*%
D58*
%TO.C,C80*%
X242190000Y-110510000D03*
X239240000Y-110510000D03*
%TD*%
D88*
%TO.C,Y5*%
X76880000Y-122300000D03*
X78980000Y-122300000D03*
X78980000Y-120650000D03*
X76880000Y-120650000D03*
%TD*%
D65*
%TO.C,U23*%
X24875000Y-74520000D03*
X24875000Y-73250000D03*
X24875000Y-71980000D03*
X24875000Y-70710000D03*
X17875000Y-70710000D03*
X17875000Y-71980000D03*
X17875000Y-73250000D03*
X17875000Y-74520000D03*
%TD*%
D89*
%TO.C,J6*%
X62540000Y-17720200D03*
X64830100Y-17720200D03*
X67120100Y-17720200D03*
X69410200Y-17720200D03*
X71700000Y-17720200D03*
X61395200Y-15740200D03*
X63685000Y-15740200D03*
X65975100Y-15740200D03*
X68265200Y-15740200D03*
X70555000Y-15740200D03*
X62540000Y-13760000D03*
X64830100Y-13760000D03*
X67120100Y-13760000D03*
X69410200Y-13760000D03*
X71700000Y-13760000D03*
D90*
X79620000Y-15740200D03*
X54620000Y-15740200D03*
%TD*%
D11*
%TO.C,R91*%
X167120000Y-103910000D03*
X168770000Y-103910000D03*
%TD*%
D34*
%TO.C,R100*%
X40000000Y-122075000D03*
X40000000Y-120425000D03*
%TD*%
D16*
%TO.C,C18*%
X67920000Y-46960000D03*
X69470000Y-46960000D03*
%TD*%
D28*
%TO.C,C81*%
X45375000Y-112070000D03*
X43825000Y-112070000D03*
%TD*%
D11*
%TO.C,R4*%
X117170000Y-24490000D03*
X118820000Y-24490000D03*
%TD*%
%TO.C,R32*%
X241550000Y-46050000D03*
X243200000Y-46050000D03*
%TD*%
D33*
%TO.C,J16*%
X26350000Y-77790000D03*
D27*
X23810000Y-77790000D03*
X21270000Y-77790000D03*
%TD*%
D28*
%TO.C,C72*%
X43950000Y-98440000D03*
X42400000Y-98440000D03*
%TD*%
%TO.C,C68*%
X193685000Y-91280000D03*
X192135000Y-91280000D03*
%TD*%
D11*
%TO.C,R59*%
X236030000Y-69260000D03*
X237680000Y-69260000D03*
%TD*%
D34*
%TO.C,R39*%
X50320000Y-51970000D03*
X50320000Y-50320000D03*
%TD*%
D28*
%TO.C,C75*%
X194370000Y-103400000D03*
X192820000Y-103400000D03*
%TD*%
D70*
%TO.C,Y3*%
X36360000Y-80650000D03*
X38560000Y-80650000D03*
X38560000Y-78950000D03*
X36360000Y-78950000D03*
%TD*%
D64*
%TO.C,L2*%
X15630000Y-53035000D03*
X15630000Y-50885000D03*
%TD*%
D29*
%TO.C,USB1*%
X22660000Y-17740000D03*
X22660000Y-23840000D03*
X25520000Y-23840000D03*
X25520000Y-17740000D03*
D30*
X24464900Y-17790000D03*
X24464900Y-18690200D03*
X24464900Y-19590100D03*
X24464900Y-20490000D03*
X24464900Y-21390200D03*
X24464900Y-22740200D03*
X24464900Y-23640100D03*
X23715100Y-23640100D03*
X23715100Y-22740200D03*
X23715100Y-21840000D03*
X23715100Y-20940100D03*
X23715100Y-20040200D03*
X23715100Y-18690200D03*
X23715100Y-17790000D03*
%TD*%
D70*
%TO.C,Y1*%
X96600000Y-49970000D03*
X98800000Y-49970000D03*
X98800000Y-48270000D03*
X96600000Y-48270000D03*
%TD*%
D34*
%TO.C,R57*%
X65130000Y-67315000D03*
X65130000Y-65665000D03*
%TD*%
D91*
%TO.C,Q2*%
X115975000Y-49410000D03*
X115975000Y-47510000D03*
X114100000Y-48460000D03*
%TD*%
D20*
%TO.C,H1*%
X27000000Y-37000000D03*
D21*
X27000000Y-37000000D03*
%TD*%
D86*
%TO.C,U1*%
X41450000Y-24940000D03*
X41450000Y-25440000D03*
X41450000Y-25940000D03*
X41450000Y-26440000D03*
X41450000Y-26940000D03*
X42220000Y-26940000D03*
X42220000Y-26440000D03*
X42220000Y-25940000D03*
X42220000Y-25440000D03*
X42220000Y-24940000D03*
%TD*%
D32*
%TO.C,C8*%
X116710000Y-38350000D03*
X116710000Y-36800000D03*
%TD*%
D14*
%TO.C,R87*%
X30240000Y-95250000D03*
X30240000Y-96900000D03*
%TD*%
D31*
%TO.C,U40*%
X222710000Y-143300000D03*
X222710000Y-142800000D03*
X222710000Y-142300000D03*
X222710000Y-141800000D03*
X222710000Y-141300000D03*
X221940000Y-141300000D03*
X221940000Y-141800000D03*
X221940000Y-142300000D03*
X221940000Y-142800000D03*
X221940000Y-143300000D03*
%TD*%
D70*
%TO.C,Y8*%
X205990000Y-134080000D03*
X208190000Y-134080000D03*
X208190000Y-132380000D03*
X205990000Y-132380000D03*
%TD*%
D11*
%TO.C,R90*%
X128575000Y-102550000D03*
X130225000Y-102550000D03*
%TD*%
D28*
%TO.C,C51*%
X87590000Y-71520000D03*
X86040000Y-71520000D03*
%TD*%
D92*
%TO.C,U24*%
X111990000Y-74950000D03*
D93*
X111940000Y-75349800D03*
D94*
X112139900Y-75950000D03*
X112539900Y-75950000D03*
X112940000Y-75950000D03*
D93*
X113139800Y-75349800D03*
X113139800Y-74950000D03*
D94*
X112940000Y-74349800D03*
X112539900Y-74349800D03*
X112139900Y-74349800D03*
%TD*%
D34*
%TO.C,R75*%
X67490000Y-81545000D03*
X67490000Y-79895000D03*
%TD*%
D87*
%TO.C,U32*%
X38280000Y-102249566D03*
X39030000Y-102249566D03*
X39780000Y-102249566D03*
X40530000Y-102249566D03*
X41280000Y-102249566D03*
X42030000Y-102249566D03*
X38280000Y-102999628D03*
X39030000Y-102999628D03*
X39780000Y-102999628D03*
X40530000Y-102999628D03*
X41280000Y-102999628D03*
X42030000Y-102999628D03*
X38280000Y-103749690D03*
X39030000Y-103749690D03*
X39780000Y-103749690D03*
X40530000Y-103749690D03*
X41280000Y-103749690D03*
X42030000Y-103749690D03*
X38280000Y-104499752D03*
X39030000Y-104499752D03*
X39780000Y-104499752D03*
X40530000Y-104499752D03*
X41280000Y-104499752D03*
X42030000Y-104499752D03*
X38280000Y-105249814D03*
X39030000Y-105249814D03*
X39780000Y-105249814D03*
X40530000Y-105249814D03*
X41280000Y-105249814D03*
X42030000Y-105249814D03*
X38280000Y-105999876D03*
X39030000Y-105999876D03*
X39780000Y-105999876D03*
X40530000Y-105999876D03*
X41280000Y-105999876D03*
X42030000Y-105999876D03*
X38280000Y-106749938D03*
X39030000Y-106749938D03*
X39780000Y-106749938D03*
X40530000Y-106749938D03*
X41280000Y-106749938D03*
X42030000Y-106749938D03*
X38280000Y-107500000D03*
X39030000Y-107500000D03*
X39780000Y-107500000D03*
X40530000Y-107500000D03*
X41280000Y-107500000D03*
X42030000Y-107500000D03*
%TD*%
D68*
%TO.C,U12*%
X186515000Y-35710001D03*
X186515000Y-36110000D03*
X186515000Y-36510000D03*
X186515000Y-36909999D03*
X187765000Y-36909999D03*
X187765000Y-36510000D03*
X187765000Y-36110000D03*
X187765000Y-35710001D03*
D69*
X187140000Y-36310000D03*
%TD*%
D17*
%TO.C,R46*%
X118990000Y-56530000D03*
X117340000Y-56530000D03*
%TD*%
D33*
%TO.C,J10*%
X73840000Y-44170000D03*
D27*
X76380000Y-44170000D03*
X78920000Y-44170000D03*
X81460000Y-44170000D03*
X84000000Y-44170000D03*
X86540000Y-44170000D03*
X89080000Y-44170000D03*
%TD*%
D17*
%TO.C,R66*%
X28450000Y-75250000D03*
X26800000Y-75250000D03*
%TD*%
D68*
%TO.C,U13*%
X241400000Y-39000002D03*
X241400000Y-39400001D03*
X241400000Y-39800001D03*
X241400000Y-40200000D03*
X242650000Y-40200000D03*
X242650000Y-39800001D03*
X242650000Y-39400001D03*
X242650000Y-39000002D03*
D69*
X242025000Y-39600001D03*
%TD*%
D36*
%TO.C,RN8*%
X31580000Y-71042700D03*
D37*
X32380000Y-71042700D03*
X33180000Y-71042700D03*
D36*
X33980000Y-71042700D03*
X33980000Y-69242700D03*
D37*
X33180000Y-69242700D03*
X32380000Y-69242700D03*
D36*
X31580000Y-69242700D03*
%TD*%
D15*
%TO.C,C26*%
X90670000Y-49195000D03*
X90670000Y-50745000D03*
%TD*%
D14*
%TO.C,R52*%
X112600000Y-62240000D03*
X112600000Y-63890000D03*
%TD*%
D15*
%TO.C,C92*%
X167100000Y-124250000D03*
X167100000Y-125800000D03*
%TD*%
D32*
%TO.C,C63*%
X73960000Y-85990000D03*
X73960000Y-84440000D03*
%TD*%
D33*
%TO.C,J22*%
X215530000Y-102830000D03*
D27*
X215530000Y-105370000D03*
X215530000Y-107910000D03*
X215530000Y-110450000D03*
%TD*%
D15*
%TO.C,C19*%
X104470000Y-46300000D03*
X104470000Y-47850000D03*
%TD*%
D26*
%TO.C,J23*%
X161660000Y-103910000D03*
D27*
X159120000Y-103910000D03*
X161660000Y-101370000D03*
X159120000Y-101370000D03*
X161660000Y-98830000D03*
X159120000Y-98830000D03*
X161660000Y-96290000D03*
X159120000Y-96290000D03*
X161660000Y-93750000D03*
X159120000Y-93750000D03*
%TD*%
D32*
%TO.C,C1*%
X108630000Y-24925000D03*
X108630000Y-23375000D03*
%TD*%
D11*
%TO.C,R10*%
X107065000Y-27990000D03*
X108715000Y-27990000D03*
%TD*%
D14*
%TO.C,R53*%
X46460000Y-65270000D03*
X46460000Y-66920000D03*
%TD*%
D34*
%TO.C,R109*%
X204260000Y-130500000D03*
X204260000Y-128850000D03*
%TD*%
D50*
%TO.C,RN6*%
X242050000Y-57200000D03*
D51*
X242050000Y-56400000D03*
X242050000Y-55600000D03*
D50*
X242050000Y-54800000D03*
X240250000Y-54800000D03*
D51*
X240250000Y-55600000D03*
X240250000Y-56400000D03*
D50*
X240250000Y-57200000D03*
%TD*%
D14*
%TO.C,R64*%
X69690000Y-74300000D03*
X69690000Y-75950000D03*
%TD*%
D11*
%TO.C,R61*%
X14275000Y-73220000D03*
X15925000Y-73220000D03*
%TD*%
D32*
%TO.C,C47*%
X234465000Y-67310000D03*
X234465000Y-65760000D03*
%TD*%
D28*
%TO.C,C24*%
X119560000Y-49260000D03*
X118010000Y-49260000D03*
%TD*%
D14*
%TO.C,R40*%
X117380000Y-51185000D03*
X117380000Y-52835000D03*
%TD*%
D68*
%TO.C,U5*%
X210880000Y-27900002D03*
X210880000Y-28300001D03*
X210880000Y-28700001D03*
X210880000Y-29100000D03*
X212130000Y-29100000D03*
X212130000Y-28700001D03*
X212130000Y-28300001D03*
X212130000Y-27900002D03*
D69*
X211505000Y-28500001D03*
%TD*%
D12*
%TO.C,U27*%
X196230000Y-84600002D03*
X196230000Y-85000001D03*
X196230000Y-85400003D03*
X196230000Y-85800002D03*
X196230000Y-86200001D03*
X196230000Y-86600000D03*
X196230000Y-87000002D03*
X196230000Y-87400001D03*
X196230000Y-87800000D03*
X196230000Y-88200002D03*
X196230000Y-88600001D03*
X196230000Y-89000000D03*
X196230000Y-89400002D03*
X196230000Y-89800001D03*
X196230000Y-90200001D03*
X196230000Y-90600000D03*
X196230000Y-91000002D03*
X196230000Y-91400001D03*
X196230000Y-91800000D03*
X196230000Y-92200002D03*
X196230000Y-92600001D03*
X196230000Y-93000000D03*
X196230000Y-93400002D03*
X196230000Y-93800001D03*
X196230000Y-94200000D03*
X196230000Y-94599999D03*
X196230000Y-95000001D03*
X196230000Y-95400000D03*
X201868800Y-95400000D03*
X201868800Y-95000001D03*
X201868800Y-94599999D03*
X201868800Y-94200000D03*
X201868800Y-93800001D03*
X201868800Y-93400002D03*
X201868800Y-93000000D03*
X201868800Y-92600001D03*
X201868800Y-92200002D03*
X201868800Y-91800000D03*
X201868800Y-91400001D03*
X201868800Y-91000002D03*
X201868800Y-90600000D03*
X201868800Y-90200001D03*
X201868800Y-89800001D03*
X201868800Y-89400002D03*
X201868800Y-89000000D03*
X201868800Y-88600001D03*
X201868800Y-88200002D03*
X201868800Y-87800000D03*
X201868800Y-87400001D03*
X201868800Y-87000002D03*
X201868800Y-86600003D03*
X201868800Y-86200001D03*
X201868800Y-85800002D03*
X201868800Y-85400003D03*
X201868800Y-85000001D03*
X201868800Y-84600002D03*
%TD*%
D16*
%TO.C,C60*%
X47090000Y-83880000D03*
X48640000Y-83880000D03*
%TD*%
%TO.C,C77*%
X73875000Y-106310000D03*
X75425000Y-106310000D03*
%TD*%
D14*
%TO.C,R9*%
X110750000Y-26640000D03*
X110750000Y-28290000D03*
%TD*%
D32*
%TO.C,C53*%
X68700000Y-72530000D03*
X68700000Y-70980000D03*
%TD*%
D34*
%TO.C,R74*%
X66000000Y-81545000D03*
X66000000Y-79895000D03*
%TD*%
D47*
%TO.C,U14*%
X17394900Y-43840000D03*
X17394900Y-44339800D03*
X17394900Y-44840000D03*
D48*
X18470000Y-44840000D03*
D47*
X18645000Y-44339800D03*
D48*
X18470000Y-43840000D03*
D49*
X18520100Y-43164800D03*
X18019900Y-43164800D03*
X17520100Y-43164800D03*
%TD*%
D95*
%TO.C,Q1*%
X208590000Y-37300000D03*
D96*
X208502500Y-35800000D03*
D95*
X208590000Y-34300000D03*
%TD*%
D32*
%TO.C,C40*%
X71830000Y-59640000D03*
X71830000Y-58090000D03*
%TD*%
D12*
%TO.C,U29*%
X91890000Y-89350002D03*
X91890000Y-89750001D03*
X91890000Y-90150003D03*
X91890000Y-90550002D03*
X91890000Y-90950001D03*
X91890000Y-91350000D03*
X91890000Y-91750002D03*
X91890000Y-92150001D03*
X91890000Y-92550000D03*
X91890000Y-92950002D03*
X91890000Y-93350001D03*
X91890000Y-93750000D03*
X91890000Y-94150002D03*
X91890000Y-94550001D03*
X91890000Y-94950001D03*
X91890000Y-95350000D03*
X91890000Y-95750002D03*
X91890000Y-96150001D03*
X91890000Y-96550000D03*
X91890000Y-96950002D03*
X91890000Y-97350001D03*
X91890000Y-97750000D03*
X91890000Y-98150002D03*
X91890000Y-98550001D03*
X91890000Y-98950000D03*
X91890000Y-99349999D03*
X91890000Y-99750001D03*
X91890000Y-100150000D03*
X97528800Y-100150000D03*
X97528800Y-99750001D03*
X97528800Y-99349999D03*
X97528800Y-98950000D03*
X97528800Y-98550001D03*
X97528800Y-98150002D03*
X97528800Y-97750000D03*
X97528800Y-97350001D03*
X97528800Y-96950002D03*
X97528800Y-96550000D03*
X97528800Y-96150001D03*
X97528800Y-95750002D03*
X97528800Y-95350000D03*
X97528800Y-94950001D03*
X97528800Y-94550001D03*
X97528800Y-94150002D03*
X97528800Y-93750000D03*
X97528800Y-93350001D03*
X97528800Y-92950002D03*
X97528800Y-92550000D03*
X97528800Y-92150001D03*
X97528800Y-91750002D03*
X97528800Y-91350003D03*
X97528800Y-90950001D03*
X97528800Y-90550002D03*
X97528800Y-90150003D03*
X97528800Y-89750001D03*
X97528800Y-89350002D03*
%TD*%
D16*
%TO.C,C28*%
X100605000Y-50150000D03*
X102155000Y-50150000D03*
%TD*%
D66*
%TO.C,C34*%
X17780000Y-53460000D03*
X19680000Y-53460000D03*
%TD*%
D81*
%TO.C,C14*%
X20310000Y-42480000D03*
X20310000Y-44380000D03*
%TD*%
D16*
%TO.C,C29*%
X92540000Y-50440000D03*
X94090000Y-50440000D03*
%TD*%
D34*
%TO.C,R41*%
X88955000Y-53190000D03*
X88955000Y-51540000D03*
%TD*%
D11*
%TO.C,R21*%
X98860000Y-33470000D03*
X100510000Y-33470000D03*
%TD*%
D86*
%TO.C,U11*%
X64930000Y-34130000D03*
X64930000Y-34630000D03*
X64930000Y-35130000D03*
X64930000Y-35630000D03*
X64930000Y-36130000D03*
X65700000Y-36130000D03*
X65700000Y-35630000D03*
X65700000Y-35130000D03*
X65700000Y-34630000D03*
X65700000Y-34130000D03*
%TD*%
D68*
%TO.C,U20*%
X239700000Y-66000002D03*
X239700000Y-66400001D03*
X239700000Y-66800001D03*
X239700000Y-67200000D03*
X240950000Y-67200000D03*
X240950000Y-66800001D03*
X240950000Y-66400001D03*
X240950000Y-66000002D03*
D69*
X240325000Y-66600001D03*
%TD*%
D97*
%TO.C,J4*%
X34559100Y-21180000D03*
X35059500Y-21180000D03*
X35559900Y-21180000D03*
X36060300Y-21180000D03*
X36560600Y-21180000D03*
X37061000Y-21180000D03*
X37558900Y-21180000D03*
X38059200Y-21180000D03*
X38559600Y-21180000D03*
X39060000Y-21180000D03*
X39560400Y-21180000D03*
X40060800Y-21180000D03*
X40558600Y-21180000D03*
X41059000Y-21180000D03*
X41559400Y-21180000D03*
X42059700Y-21180000D03*
X42560100Y-21180000D03*
X43060500Y-21180000D03*
X43560900Y-21180000D03*
D98*
X31809800Y-14420000D03*
X46310200Y-14420000D03*
D99*
X31809800Y-20420500D03*
X46310200Y-20420500D03*
%TD*%
D14*
%TO.C,R65*%
X71260000Y-74350000D03*
X71260000Y-76000000D03*
%TD*%
D11*
%TO.C,R101*%
X200370000Y-121320000D03*
X202020000Y-121320000D03*
%TD*%
D45*
%TO.C,J11*%
X247840000Y-56750000D03*
X255740000Y-56750000D03*
X247850000Y-31750000D03*
X255750000Y-31750000D03*
D46*
X253220000Y-49795000D03*
X253220000Y-47025000D03*
X253220000Y-44255000D03*
X253220000Y-41485000D03*
X253220000Y-38715000D03*
X256060000Y-48410000D03*
X256060000Y-45640000D03*
X256060000Y-42870000D03*
X256060000Y-40100000D03*
X246420000Y-49790000D03*
X246420000Y-47020000D03*
X246420000Y-44250000D03*
X246420000Y-41480000D03*
X246420000Y-38710000D03*
X249260000Y-48405000D03*
X249260000Y-45635000D03*
X249260000Y-42865000D03*
X249260000Y-40095000D03*
%TD*%
D14*
%TO.C,F6*%
X151880000Y-36330000D03*
X151880000Y-37980000D03*
%TD*%
D15*
%TO.C,C55*%
X96480000Y-75535000D03*
X96480000Y-77085000D03*
%TD*%
D25*
%TO.C,FB4*%
X72540000Y-70210000D03*
X72540000Y-72335000D03*
%TD*%
D32*
%TO.C,C102*%
X205760000Y-137320000D03*
X205760000Y-135770000D03*
%TD*%
D50*
%TO.C,RN11*%
X241565000Y-87860000D03*
D51*
X241565000Y-87060000D03*
X241565000Y-86260000D03*
D50*
X241565000Y-85460000D03*
X239765000Y-85460000D03*
D51*
X239765000Y-86260000D03*
X239765000Y-87060000D03*
D50*
X239765000Y-87860000D03*
%TD*%
D38*
%TO.C,TP5*%
X30910000Y-50510000D03*
%TD*%
D11*
%TO.C,R24*%
X129750000Y-37170000D03*
X131400000Y-37170000D03*
%TD*%
D17*
%TO.C,R60*%
X28550000Y-72020000D03*
X26900000Y-72020000D03*
%TD*%
D11*
%TO.C,R42*%
X237050000Y-53050000D03*
X238700000Y-53050000D03*
%TD*%
D17*
%TO.C,R45*%
X16145000Y-55140000D03*
X14495000Y-55140000D03*
%TD*%
D11*
%TO.C,R70*%
X62350000Y-76930000D03*
X64000000Y-76930000D03*
%TD*%
D100*
%TO.C,U34*%
X150759800Y-125330000D03*
X150759800Y-124060000D03*
X150759800Y-122790000D03*
X150759800Y-121520000D03*
X150759800Y-120250000D03*
X150759800Y-118980000D03*
X150759800Y-117710000D03*
X150759800Y-116440000D03*
X150759800Y-115170000D03*
X150759800Y-113900000D03*
X150759800Y-112630000D03*
X150759800Y-111360000D03*
X150759800Y-110090000D03*
X150759800Y-108820000D03*
X150759800Y-107550000D03*
X150759800Y-106280000D03*
X150759800Y-105010000D03*
X150759800Y-103740000D03*
X150759800Y-102470000D03*
X132760000Y-102470000D03*
X132760000Y-103740000D03*
X132760000Y-105010000D03*
X132760000Y-106280000D03*
X132760000Y-107550000D03*
X132760000Y-108820000D03*
X132760000Y-110090000D03*
X132760000Y-111360000D03*
X132760000Y-112630000D03*
X132760000Y-113900000D03*
X132760000Y-115170000D03*
X132760000Y-116440000D03*
X132760000Y-117710000D03*
X132760000Y-118980000D03*
X132760000Y-120250000D03*
X132760000Y-121520000D03*
X132760000Y-122790000D03*
X132760000Y-124060000D03*
X132760000Y-125330000D03*
D101*
X144654900Y-118915000D03*
X144654900Y-117520000D03*
X144654900Y-116125300D03*
X143259900Y-118915000D03*
X143259600Y-117520300D03*
X143259600Y-116125300D03*
X141864900Y-118915000D03*
X141864900Y-117520000D03*
X141864900Y-116125300D03*
%TD*%
D32*
%TO.C,C25*%
X76020000Y-50600000D03*
X76020000Y-49050000D03*
%TD*%
D17*
%TO.C,R34*%
X16310000Y-48110000D03*
X14660000Y-48110000D03*
%TD*%
D15*
%TO.C,C46*%
X113210000Y-65470000D03*
X113210000Y-67020000D03*
%TD*%
D32*
%TO.C,C11*%
X236500000Y-40160000D03*
X236500000Y-38610000D03*
%TD*%
D11*
%TO.C,R96*%
X161959999Y-112740000D03*
X163609999Y-112740000D03*
%TD*%
%TO.C,R26*%
X238200000Y-40050000D03*
X239850000Y-40050000D03*
%TD*%
D81*
%TO.C,C37*%
X21450000Y-55900000D03*
X21450000Y-57800000D03*
%TD*%
D11*
%TO.C,R50*%
X85280000Y-59950000D03*
X86930000Y-59950000D03*
%TD*%
D34*
%TO.C,R55*%
X63590000Y-67300000D03*
X63590000Y-65650000D03*
%TD*%
D20*
%TO.C,H2*%
X57000000Y-37000000D03*
D21*
X57000000Y-37000000D03*
%TD*%
D47*
%TO.C,U15*%
X17749900Y-51120200D03*
X17749900Y-51620000D03*
X17749900Y-52120200D03*
D48*
X18825000Y-52120200D03*
D47*
X19000000Y-51620000D03*
D48*
X18825000Y-51120200D03*
D49*
X18875100Y-50445000D03*
X18374900Y-50445000D03*
X17875100Y-50445000D03*
%TD*%
D17*
%TO.C,R88*%
X168690000Y-98530000D03*
X167040000Y-98530000D03*
%TD*%
D28*
%TO.C,C64*%
X48620000Y-85420000D03*
X47070000Y-85420000D03*
%TD*%
D50*
%TO.C,RN9*%
X241200000Y-71450000D03*
D51*
X241200000Y-70650000D03*
X241200000Y-69850000D03*
D50*
X241200000Y-69050000D03*
X239400000Y-69050000D03*
D51*
X239400000Y-69850000D03*
X239400000Y-70650000D03*
D50*
X239400000Y-71450000D03*
%TD*%
D68*
%TO.C,U25*%
X240100000Y-82250000D03*
X240100000Y-82649999D03*
X240100000Y-83049999D03*
X240100000Y-83449998D03*
X241350000Y-83449998D03*
X241350000Y-83049999D03*
X241350000Y-82649999D03*
X241350000Y-82250000D03*
D69*
X240725000Y-82849999D03*
%TD*%
D50*
%TO.C,RN13*%
X227700000Y-143810000D03*
D51*
X227700000Y-144610000D03*
X227700000Y-145410000D03*
D50*
X227700000Y-146210000D03*
X229500000Y-146210000D03*
D51*
X229500000Y-145410000D03*
X229500000Y-144610000D03*
D50*
X229500000Y-143810000D03*
%TD*%
D68*
%TO.C,U9*%
X185570000Y-28480000D03*
X185570000Y-28879999D03*
X185570000Y-29279999D03*
X185570000Y-29679998D03*
X186820000Y-29679998D03*
X186820000Y-29279999D03*
X186820000Y-28879999D03*
X186820000Y-28480000D03*
D69*
X186195000Y-29079999D03*
%TD*%
D11*
%TO.C,R72*%
X47900000Y-77940000D03*
X49550000Y-77940000D03*
%TD*%
D66*
%TO.C,C41*%
X18190000Y-59580000D03*
X20090000Y-59580000D03*
%TD*%
D11*
%TO.C,R58*%
X235965000Y-67260000D03*
X237615000Y-67260000D03*
%TD*%
D20*
%TO.C,H6*%
X122000000Y-67000000D03*
D21*
X122000000Y-67000000D03*
%TD*%
D20*
%TO.C,H8*%
X27000000Y-137000000D03*
D21*
X27000000Y-137000000D03*
%TD*%
D17*
%TO.C,R3*%
X48090000Y-23970000D03*
X46440000Y-23970000D03*
%TD*%
D86*
%TO.C,U36*%
X213840000Y-117580000D03*
X213840000Y-118080000D03*
X213840000Y-118580000D03*
X213840000Y-119080000D03*
X213840000Y-119580000D03*
X214610000Y-119580000D03*
X214610000Y-119080000D03*
X214610000Y-118580000D03*
X214610000Y-118080000D03*
X214610000Y-117580000D03*
%TD*%
D14*
%TO.C,R18*%
X25080000Y-29030000D03*
X25080000Y-30680000D03*
%TD*%
D45*
%TO.C,J13*%
X132480000Y-54325000D03*
X195980000Y-54960000D03*
D84*
X182010000Y-53690000D03*
X179470000Y-53690000D03*
X176930000Y-53690000D03*
X174390000Y-53690000D03*
X171850000Y-53690000D03*
X169310000Y-53690000D03*
X166770000Y-53690000D03*
X164230000Y-53690000D03*
X161690000Y-53690000D03*
X159150000Y-53690000D03*
X156610000Y-53690000D03*
X154070000Y-53690000D03*
X151530000Y-53690000D03*
X148990000Y-53690000D03*
X146450000Y-53690000D03*
X182010000Y-58770000D03*
X179470000Y-58770000D03*
X176930000Y-58770000D03*
X174390000Y-58770000D03*
X171850000Y-58770000D03*
X169310000Y-58770000D03*
X166770000Y-58770000D03*
X164230000Y-58770000D03*
X161690000Y-58770000D03*
X159150000Y-58770000D03*
X156610000Y-58770000D03*
X154070000Y-58770000D03*
X151530000Y-58770000D03*
X148990000Y-58770000D03*
X146450000Y-58770000D03*
%TD*%
D11*
%TO.C,R27*%
X99715000Y-40800000D03*
X101365000Y-40800000D03*
%TD*%
D17*
%TO.C,R30*%
X206330000Y-41360000D03*
X204680000Y-41360000D03*
%TD*%
D32*
%TO.C,C89*%
X209290000Y-119990000D03*
X209290000Y-118440000D03*
%TD*%
D17*
%TO.C,R71*%
X67590000Y-76950000D03*
X65940000Y-76950000D03*
%TD*%
D102*
%TO.C,U35*%
X67850000Y-112360000D03*
X67050000Y-112360000D03*
X66250000Y-112360000D03*
X65450000Y-112360000D03*
X64650000Y-112360000D03*
X63850000Y-112360000D03*
X63050000Y-112360000D03*
X62250000Y-112360000D03*
X61450000Y-112360000D03*
X60650000Y-112360000D03*
X59850000Y-112360000D03*
X59050000Y-112360000D03*
X58250000Y-112360000D03*
X57450000Y-112360000D03*
X56650000Y-112360000D03*
X55850000Y-112360000D03*
X55050000Y-112360000D03*
X54250000Y-112360000D03*
X53450000Y-112360000D03*
X52650000Y-112360000D03*
X51850000Y-112360000D03*
X51050000Y-112360000D03*
X50250000Y-112360000D03*
X49450000Y-112360000D03*
X48650000Y-112360000D03*
X47850000Y-112360000D03*
X47050000Y-112360000D03*
X47050000Y-123860000D03*
X47850000Y-123860000D03*
X48650000Y-123860000D03*
X49450000Y-123860000D03*
X50250000Y-123860000D03*
X51050000Y-123860000D03*
X51850000Y-123860000D03*
X52650000Y-123860000D03*
X53450000Y-123860000D03*
X54250000Y-123860000D03*
X55050000Y-123860000D03*
X55850000Y-123860000D03*
X56650000Y-123860000D03*
X57450000Y-123860000D03*
X58250000Y-123860000D03*
X59050000Y-123860000D03*
X59850000Y-123860000D03*
X60650000Y-123860000D03*
X61450000Y-123860000D03*
X62250000Y-123860000D03*
X63050000Y-123860000D03*
X63850000Y-123860000D03*
X64650000Y-123860000D03*
X65450000Y-123860000D03*
X66250000Y-123860000D03*
X67050000Y-123860000D03*
X67850000Y-123860000D03*
%TD*%
D34*
%TO.C,R76*%
X64490000Y-81555000D03*
X64490000Y-79905000D03*
%TD*%
D16*
%TO.C,C42*%
X82255000Y-59950000D03*
X83805000Y-59950000D03*
%TD*%
D31*
%TO.C,U3*%
X31020000Y-27190000D03*
X31020000Y-26690000D03*
X31020000Y-26190000D03*
X31020000Y-25690000D03*
X31020000Y-25190000D03*
X30250000Y-25190000D03*
X30250000Y-25690000D03*
X30250000Y-26190000D03*
X30250000Y-26690000D03*
X30250000Y-27190000D03*
%TD*%
D50*
%TO.C,RN10*%
X116520000Y-75080000D03*
D51*
X116520000Y-74280000D03*
X116520000Y-73480000D03*
D50*
X116520000Y-72680000D03*
X114720000Y-72680000D03*
D51*
X114720000Y-73480000D03*
X114720000Y-74280000D03*
D50*
X114720000Y-75080000D03*
%TD*%
D11*
%TO.C,R102*%
X200360000Y-122900000D03*
X202010000Y-122900000D03*
%TD*%
D14*
%TO.C,R12*%
X140240000Y-27780000D03*
X140240000Y-29430000D03*
%TD*%
D76*
%TO.C,Y7*%
X35815000Y-123505000D03*
X35815000Y-124005000D03*
X35815000Y-124505000D03*
X35815000Y-125005000D03*
X35815000Y-125505000D03*
X40040000Y-125505000D03*
X40040000Y-125005000D03*
X40040000Y-124505000D03*
X40040000Y-124005000D03*
X40040000Y-123505000D03*
%TD*%
M02*
